<?xml version="1.0" encoding="UTF-8"?>
<svg width="600" height="600" version="1.1" xmlns="http://www.w3.org/2000/svg" xmlns:cc="http://creativecommons.org/ns#" xmlns:dc="http://purl.org/dc/elements/1.1/" xmlns:rdf="http://www.w3.org/1999/02/22-rdf-syntax-ns#">
    <metadata>
        <rdf:RDF>
            <cc:Work rdf:about="">
                <dc:format>image/svg+xml</dc:format>
                <dc:type rdf:resource="http://purl.org/dc/dcmitype/StillImage"/>
                <dc:title/>
            </cc:Work>
        </rdf:RDF>
    </metadata>
    <g id="design">
        <rect x="1053.9" y="339.49" width="108" height="108" fill="#ffbd01" style="paint-order:stroke fill markers"/>
        <rect x="1193.9" y="339.49" width="108" height="108" fill="#ffbd01" style="paint-order:stroke fill markers"/>
        <rect x="1333.9" y="339.49" width="108" height="108" fill="#ffbd01" style="paint-order:stroke fill markers"/>
        <rect x="1473.9" y="339.49" width="108" height="108" fill="#ffbd01" style="paint-order:stroke fill markers"/>
        <rect x="913.95" y="339.49" width="108" height="108" fill="#ffbd01" style="paint-order:stroke fill markers"/>
        <rect x="1053.9" y="179.49" width="108" height="108" fill="#ffbd01" style="paint-order:stroke fill markers"/>
        <rect x="1193.9" y="179.49" width="108" height="108" fill="#ffbd01" style="paint-order:stroke fill markers"/>
        <rect x="1333.9" y="179.49" width="108" height="108" fill="#ffbd01" style="paint-order:stroke fill markers"/>
        <rect x="1473.9" y="179.49" width="108" height="108" fill="#ffbd01" style="paint-order:stroke fill markers"/>
        <rect x="913.95" y="179.49" width="108" height="108" fill="#ffbd01" style="paint-order:stroke fill markers"/>
        <rect x="913.95" y="19.486" width="108" height="108" fill="#ffbd01" style="paint-order:stroke fill markers"/>
        <g id="planet" transform="translate(913.95 19.124)">
            <circle transform="matrix(1.4991 0 0 1.4991 -554.97 -52.417)" cx="406.23" cy="71.23" r="26.517" fill="#ccc" stroke="#e53740" stroke-width="1.3342"/>
            <path transform="translate(0 .36218)" d="m54 14.25c-3.4544 0-6.8046 0.45312-10 1.2812 17.112 4.4348 29.75 19.97 29.75 38.469s-12.638 34.034-29.75 38.469c3.1954 0.82813 6.5456 1.2812 10 1.2812 21.953 0 39.75-17.797 39.75-39.75s-17.797-39.75-39.75-39.75z" fill="#b3b3b3"/>
            <circle transform="matrix(1.4991 0 0 1.4991 -554.97 -52.417)" cx="406.23" cy="71.23" r="26.517" fill="none" stroke="#d45500" stroke-width="1.3342"/>
            <circle transform="matrix(1.4991 0 0 1.4991 -554.97 -52.417)" cx="406.23" cy="71.23" r="26.517" fill="none" stroke="#999" stroke-width="2.6683"/>
        </g>
        <g id="colors" transform="translate(1003.6 8.1235)">
            <rect transform="matrix(1.3524 0 0 1.0085 100.6 -.26923)" x="-285.5" y="31.5" width="105" height="117" fill="#ccc"/>
            <rect transform="matrix(.3619 0 0 .26989 -176.18 28.21)" x="-285.5" y="31.5" width="105" height="117" fill="#999"/>
            <rect transform="matrix(.3619 0 0 .26989 -132.18 28.21)" x="-285.5" y="31.5" width="105" height="117" fill="#b3b3b3"/>
            <rect transform="matrix(.3619 0 0 .26989 -128.18 104.21)" x="-285.5" y="31.5" width="105" height="117" fill="#ececec"/>
            <rect transform="matrix(.3619 0 0 .26989 -84.176 104.21)" x="-285.5" y="31.5" width="105" height="117" fill="#e6e6e6"/>
        </g>
        <g id="saturn" transform="translate(1053.9 339.12)">
            <circle transform="matrix(1.4991 0 0 1.4991 -554.97 -52.417)" cx="406.23" cy="71.23" r="26.517" fill="#ccc" stroke="#e53740" stroke-width="1.3342"/>
            <path transform="translate(0 .36218)" d="m54 14.25c-3.4544 0-6.8046 0.45312-10 1.2812 17.112 4.4348 29.75 19.97 29.75 38.469s-12.638 34.034-29.75 38.469c3.1954 0.82813 6.5456 1.2812 10 1.2812 21.953 0 39.75-17.797 39.75-39.75s-17.797-39.75-39.75-39.75z" fill="#b3b3b3"/>
            <circle transform="matrix(1.4991 0 0 1.4991 -554.97 -52.417)" cx="406.23" cy="71.23" r="26.517" fill="none" stroke="#d45500" stroke-width="1.3342"/>
            <circle transform="matrix(1.4991 0 0 1.4991 -554.97 -52.417)" cx="406.23" cy="71.23" r="26.517" fill="none" stroke="#999" stroke-width="2.6683"/>
            <path transform="translate(30 30.361)" d="m15.415 24.511c0.044-4.44-0.067-8.88 0.115-13.319 0.052-1.258-0.507-1.759-1.807-1.764-0.655-2e-3 -1.479 0.35-1.89-0.382-0.491-0.875-0.155-1.861-0.011-2.788 0.05-0.323 0.436-0.399 0.75-0.404 0.531-9e-3 1.063 0.031 1.593 8e-3 1.078-0.048 1.487-0.563 1.321-1.62-0.241-1.531 0.017-1.849 1.53-1.89 2.138-0.057 2.183-0.035 2.07 2.094-0.049 0.926 0.341 1.367 1.231 1.38 1.139 0.016 2.279 5e-3 3.418-6e-3 1.661-0.016 2.016 0.325 2.019 1.973 2e-3 1.409-0.302 1.678-1.911 1.68-1.026 2e-3 -2.054-0.044-3.078 2e-3 -1.357 0.061-1.661 0.415-1.657 1.744 2e-3 0.76 7e-3 1.52-2e-3 2.28-4e-3 0.378-0.084 0.781 0.349 0.992 0.371 0.181 0.64-0.07 0.933-0.245 1.327-0.789 2.699-1.418 4.171-1.962 4.674-1.727 9.57 1.348 11.049 5.559 1.205 3.431 0.989 6.645-0.079 10.08-1.136 3.653-3.429 6.432-5.758 9.26-0.747 0.908-1.117 1.99-1.359 3.099-0.188 0.859 0.397 1.452 1.1 1.812 0.616 0.318 1.197 0.085 1.596-0.477 0.627-0.887 1.352-0.78 2.015-0.132 0.512 0.501 1.49 0.867 1.245 1.734-0.329 1.167-1.421 1.981-2.458 2.167-1.692 0.303-3.481 0.635-5.118-0.628-1.771-1.367-2.428-3.821-1.735-6.037 0.856-2.742 2.696-4.755 4.422-6.902 1.707-2.126 2.951-4.486 3.082-7.315 0.06-1.286 0.132-2.55 8e-3 -3.849-0.16-1.673-0.938-2.986-2.022-4.1-1.12-1.151-2.659-1.141-4.169-0.977-2.256 0.246-4.085 1.3-5.55 2.988-1.038 1.196-1.726 2.541-1.71 4.204 0.035 3.763-0.018 7.525 0.031 11.288 0.011 0.868-0.379 1.167-1.11 1.235-0.414 0.039-0.837 0.029-1.252-2e-3 -0.943-0.07-1.402-0.511-1.386-1.542 0.044-3.08 0.014-6.159 0.014-9.238z" clip-rule="evenodd" fill="#808080" fill-rule="evenodd"/>
        </g>
        <g id="uranus" transform="translate(1193.9 339.12)">
            <circle transform="matrix(1.4991 0 0 1.4991 -554.97 -52.417)" cx="406.23" cy="71.23" r="26.517" fill="#ccc" stroke="#e53740" stroke-width="1.3342"/>
            <path transform="translate(0 .36218)" d="m54 14.25c-3.4544 0-6.8046 0.45312-10 1.2812 17.112 4.4348 29.75 19.97 29.75 38.469s-12.638 34.034-29.75 38.469c3.1954 0.82813 6.5456 1.2812 10 1.2812 21.953 0 39.75-17.797 39.75-39.75s-17.797-39.75-39.75-39.75z" fill="#b3b3b3"/>
            <circle transform="matrix(1.4991 0 0 1.4991 -554.97 -52.417)" cx="406.23" cy="71.23" r="26.517" fill="none" stroke="#d45500" stroke-width="1.3342"/>
            <circle transform="matrix(1.4991 0 0 1.4991 -554.97 -52.417)" cx="406.23" cy="71.23" r="26.517" fill="none" stroke="#999" stroke-width="2.6683"/>
            <path transform="translate(30.001 30.361)" d="m8.557 17.195c0-3.016-7e-3 -6.031 3e-3 -9.046 5e-3 -1.36-0.655-2.212-1.994-2.475-0.518-0.102-1.049-0.135-1.565-0.244-0.369-0.077-0.704-0.235-0.668-0.724 0.034-0.462 0.373-0.689 0.728-0.694 1.992-0.028 3.988-0.06 5.977 0.033 0.737 0.035 1.046 0.694 1.036 1.436-0.039 2.85-0.046 5.701-0.129 8.55-0.028 0.953 0.343 1.37 1.255 1.372 2.608 3e-3 5.216-7e-3 7.824 9e-3 0.89 5e-3 1.23-0.412 1.219-1.277-0.037-2.852-0.038-5.703-0.061-8.555-0.011-1.375 0.322-1.616 2.05-1.648 1.207-0.022 1.411 0.689 1.403 1.661-0.021 2.811-1e-3 5.623-0.053 8.433-0.018 0.93 0.3 1.366 1.251 1.362 2.566-0.011 5.134 8e-3 7.701 9e-3 1.098 1e-3 1.546-0.411 1.486-1.646-0.132-2.765-0.062-5.54-0.066-8.311-1e-3 -0.911 0.407-1.477 1.376-1.483 1.671-0.011 3.342-0.011 5.012 7e-3 0.275 2e-3 0.563 0.087 0.821 0.194 0.315 0.131 0.542 0.374 0.5 0.757-0.04 0.366-0.349 0.425-0.623 0.479-0.679 0.135-1.365 0.229-2.042 0.37-1.021 0.212-1.537 0.861-1.536 1.9 3e-3 6.357 0.023 12.713 5e-3 19.07-4e-3 1.171 0.463 1.73 1.642 1.768 0.73 0.022 1.465 0.139 2.087 0.581 0.358 0.254 0.551 0.603 0.441 1.054-0.107 0.446-0.519 0.364-0.807 0.369-1.913 0.028-3.828 0.064-5.74 0.01-1.055-0.03-1.127-0.867-1.124-1.691 9e-3 -2.812-0.044-5.625 0.037-8.434 0.035-1.217-0.509-1.614-1.579-1.611-2.525 6e-3 -5.053 0.033-7.578 0.019-0.883-4e-3 -1.248 0.376-1.246 1.249 8e-3 3.586-0.015 7.172-0.013 10.757 1e-3 0.888 0.423 1.503 1.205 1.971 2.349 1.406 3.451 3.438 3.073 6.234-0.346 2.553-2.87 4.755-5.49 5.033-3.752 0.398-6.854-3.541-6.547-6.201 0.248-2.146 1.108-4.006 3.208-4.99 0.858-0.402 1.2-1.062 1.199-1.946-4e-3 -3.585-0.033-7.17-0.021-10.756 3e-3 -0.943-0.284-1.447-1.331-1.425-2.403 0.051-4.807 0.037-7.211 0.049-1.39 7e-3 -1.622 0.223-1.627 1.634-0.01 2.649 0 5.298 5e-3 7.946 4e-3 1.964-0.246 2.191-2.148 2.171-1.423-0.016-2.847 0.048-4.271 0.08-0.523 0.012-1.14 0.12-1.232-0.609-0.079-0.627 0.23-1.116 0.897-1.251 0.597-0.12 1.203-0.207 1.807-0.281 0.959-0.117 1.424-0.59 1.414-1.609-0.032-3.218-0.012-6.438-0.012-9.656 0.019-4e-3 0.036-4e-3 0.052-4e-3zm15.347 23.482c1.54 0.012 2.667-1.048 2.696-2.533 0.029-1.477-1.308-2.956-2.66-2.943-1.218 0.011-2.749 1.548-2.787 2.798-0.042 1.359 1.301 2.668 2.751 2.678z" clip-rule="evenodd" fill="#808080" fill-rule="evenodd"/>
        </g>
        <g id="neptune" transform="translate(1333.9 339.12)">
            <circle transform="matrix(1.4991 0 0 1.4991 -554.97 -52.417)" cx="406.23" cy="71.23" r="26.517" fill="#ccc" stroke="#e53740" stroke-width="1.3342"/>
            <path transform="translate(0 .36218)" d="m54 14.25c-3.4544 0-6.8046 0.45312-10 1.2812 17.112 4.4348 29.75 19.97 29.75 38.469s-12.638 34.034-29.75 38.469c3.1954 0.82813 6.5456 1.2812 10 1.2812 21.953 0 39.75-17.797 39.75-39.75s-17.797-39.75-39.75-39.75z" fill="#b3b3b3"/>
            <circle transform="matrix(1.4991 0 0 1.4991 -554.97 -52.417)" cx="406.23" cy="71.23" r="26.517" fill="none" stroke="#d45500" stroke-width="1.3342"/>
            <circle transform="matrix(1.4991 0 0 1.4991 -554.97 -52.417)" cx="406.23" cy="71.23" r="26.517" fill="none" stroke="#999" stroke-width="2.6683"/>
            <path transform="translate(30 30.362)" d="m22.121 20.382c1e-3 -1.834-1e-3 -3.667 3e-3 -5.501 1e-3 -0.464 0.048-0.971-0.459-1.197-0.502-0.224-0.753 0.18-0.981 0.537-0.342 0.533-0.701 0.476-1.118 0.078-0.271-0.257-0.597-0.453-0.875-0.702-0.951-0.852-0.886-1.573 0.022-2.463 1.426-1.396 2.813-2.836 4.147-4.321 0.652-0.726 1.137-0.597 1.734-4e-3 1.597 1.584 3.207 3.155 4.816 4.724 0.473 0.459 0.328 0.916-0.02 1.326-0.584 0.692-0.941 1.778-2.227 1.352-1.621-0.536-1.605-0.51-1.594 1.17 0.021 3.376 2e-3 6.752-8e-3 10.128-6e-3 1.553 0.289 1.762 1.84 1.716 3.047-0.089 5.186-1.54 6.549-4.197 0.602-1.176 0.512-2.52 0.738-3.783 0.463-2.563 0.268-5.144-0.041-7.715-0.051-0.421-0.07-0.88-0.514-1.065-0.512-0.214-0.73 0.213-0.969 0.56-0.332 0.479-0.75 0.479-1.184 0.158-0.465-0.345-0.916-0.709-1.369-1.07-0.318-0.254-0.393-0.457-0.154-0.906 0.93-1.738 2.209-3.215 3.412-4.744 0.418-0.531 0.52-1.327 1.33-1.577 0.434-0.133 0.705-0.182 1.105 0.138 1.715 1.37 3.285 2.929 5.207 4.039 0.489 0.28 0.714 0.785 0.452 1.404-0.719 1.692-1.541 1.99-3.158 1.101-0.232-0.128-0.467-0.246-0.693-0.071-0.312 0.245-0.234 0.588-0.146 0.92 0.592 2.24 0.738 4.538 0.535 6.818-0.297 3.353-0.664 6.748-2.852 9.526-1.65 2.097-3.832 3.397-6.521 3.75-0.248 0.032-0.498 0.06-0.746 0.088-2.791 0.325-3.332 1.107-2.777 3.903 0.211 1.062 0.996 1.115 1.801 1.118 0.998 2e-3 1.996-0.082 2.994-0.088 1.176-7e-3 1.643 0.482 1.672 1.68 0.039 1.468-0.336 1.938-1.586 1.961-1.166 0.023-2.334 3e-3 -3.5 0.047-1.004 0.038-1.5 0.547-1.43 1.61 0.066 1.038 0.051 2.083 0.055 3.124 4e-3 1.24-0.4 1.625-1.658 1.617-1.499-9e-3 -1.965-0.382-1.951-1.619 0.013-1.083 0.07-2.164 0.103-3.246 0.033-1.07-0.396-1.654-1.561-1.564-1.036 0.08-2.077 0.098-3.116 0.134-0.843 0.028-1.505-0.031-1.52-1.213-0.024-1.928 0.197-2.527 1.366-2.539 1.081-0.01 2.17-1e-3 3.241 0.126 0.902 0.106 1.36-0.238 1.5-1.072 0.167-0.993 0.114-1.991-0.054-2.982-0.137-0.81-0.718-0.897-1.398-0.903-3.09-0.028-5.786-1.053-7.924-3.321-1.875-1.989-2.644-4.52-2.971-7.127-0.41-3.271-0.284-6.573 0.053-9.856 0.047-0.463 0.162-0.953-0.355-1.211-0.46-0.232-0.8 0.068-1.083 0.39-0.313 0.356-0.583 0.3-0.971 0.07-1.699-1.007-1.88-2.528-0.29-3.555 1.505-0.972 2.814-2.186 4.261-3.226 0.815-0.586 1.321-0.618 1.972 0.209 1.332 1.696 2.427 3.566 3.884 5.171 0.456 0.502 0.274 1.085-0.146 1.581-0.794 0.936-1.819 1.086-2.987 0.435-0.615-0.344-0.905 7e-3 -0.913 0.539-0.059 4.181-0.782 8.401 0.944 12.464 1.217 2.863 4.302 4.065 7.146 3.979 0.81-0.024 0.946-0.659 0.941-1.352-0.013-1.834-4e-3 -3.668-3e-3 -5.501z" clip-rule="evenodd" fill="#808080" fill-rule="evenodd"/>
        </g>
        <g id="pluto" transform="translate(1473.9 339.12)">
            <circle transform="matrix(1.4991 0 0 1.4991 -554.97 -52.417)" cx="406.23" cy="71.23" r="26.517" fill="#ccc" stroke="#e53740" stroke-width="1.3342"/>
            <path transform="translate(0 .36218)" d="m54 14.25c-3.4544 0-6.8046 0.45312-10 1.2812 17.112 4.4348 29.75 19.97 29.75 38.469s-12.638 34.034-29.75 38.469c3.1954 0.82813 6.5456 1.2812 10 1.2812 21.953 0 39.75-17.797 39.75-39.75s-17.797-39.75-39.75-39.75z" fill="#b3b3b3"/>
            <circle transform="matrix(1.4991 0 0 1.4991 -554.97 -52.417)" cx="406.23" cy="71.23" r="26.517" fill="none" stroke="#d45500" stroke-width="1.3342"/>
            <circle transform="matrix(1.4991 0 0 1.4991 -554.97 -52.417)" cx="406.23" cy="71.23" r="26.517" fill="none" stroke="#999" stroke-width="2.6683"/>
            <g transform="translate(30 30.362)" clip-rule="evenodd" fill="#808080" fill-rule="evenodd">
                <path d="m22.14 42.287c0-0.811-0.078-1.632 0.019-2.43 0.128-1.054-0.387-1.414-1.3-1.426-1.622-0.02-3.244-0.013-4.866-3e-3 -0.96 6e-3 -1.654-0.155-1.606-1.405 0.074-1.901 0.127-2.09 1.546-2.115 1.536-0.025 3.074 0.027 4.609 6e-3 1.386-0.019 1.627-0.316 1.594-1.653-0.03-1.237-0.077-2.479 3e-3 -3.712 0.089-1.373-0.594-2.118-1.812-2.379-4.081-0.872-7.221-3.156-9.584-6.49-1.584-2.236-2.455-4.816-2.813-7.538-0.103-0.785-0.05-1.564 1.075-1.651 1.907-0.147 2.33 0.056 2.49 1.334 0.608 4.842 3.166 8.459 7.584 10.266 5.496 2.247 11.635 0.755 15.163-4.396 1.221-1.783 2.084-3.682 2.238-5.886 0.088-1.265 0.808-1.571 2.65-1.309 1.029 0.147 1.045 0.941 0.923 1.654-0.821 4.779-2.77 8.882-7.011 11.624-1.69 1.093-3.405 2.036-5.419 2.426-1.497 0.291-1.8 0.882-1.748 2.466 0.037 1.15 0.045 2.307-0.013 3.456-0.076 1.532 0.095 1.771 1.646 1.791 1.493 0.019 2.987-0.02 4.48 5e-3 1.519 0.025 1.589 0.204 1.622 2.158 0.02 1.267-0.754 1.353-1.682 1.349-1.579-5e-3 -3.158-0.011-4.738-1e-3 -1.036 8e-3 -1.49 0.368-1.371 1.576 0.172 1.732 0.049 3.494 0.065 5.244 5e-3 0.495-0.229 0.787-0.659 0.988-1.743 0.812-3.104-0.015-3.112-1.9-2e-3 -0.683 0-1.366 0-2.049h0.027z"/>
                <path d="m34.195 11.526c-0.369 5.842-4.516 10.221-10.362 10.132-5.78-0.088-9.953-4.603-9.986-10.198-0.031-5.085 4.476-10.365 10.819-9.988 4.963 0.295 9.354 4.858 9.529 10.054zm-16.773-0.088c-0.217 2.888 2.459 6.606 6.508 6.604 4.336-2e-3 6.746-3.771 6.658-6.753-0.101-3.424-3.141-6.312-6.737-6.278-3.509 0.035-6.455 2.98-6.429 6.427z"/>
            </g>
        </g>
        <g id="sun" transform="translate(913.95 339.12)">
            <circle transform="matrix(1.4991 0 0 1.4991 -554.97 -52.417)" cx="406.23" cy="71.23" r="26.517" fill="#ccc" stroke="#e53740" stroke-width="1.3342"/>
            <path transform="translate(0 .36218)" d="m54 14.25c-3.4544 0-6.8046 0.45312-10 1.2812 17.112 4.4348 29.75 19.97 29.75 38.469s-12.638 34.034-29.75 38.469c3.1954 0.82813 6.5456 1.2812 10 1.2812 21.953 0 39.75-17.797 39.75-39.75s-17.797-39.75-39.75-39.75z" fill="#b3b3b3"/>
            <circle transform="matrix(1.4991 0 0 1.4991 -554.97 -52.417)" cx="406.23" cy="71.23" r="26.517" fill="none" stroke="#d45500" stroke-width="1.3342"/>
            <circle transform="matrix(1.4991 0 0 1.4991 -554.97 -52.417)" cx="406.23" cy="71.23" r="26.517" fill="none" stroke="#999" stroke-width="2.6683"/>
            <g transform="translate(30 30.363)" clip-rule="evenodd" fill="#808080" fill-rule="evenodd">
                <path d="m3.071 23.894c-0.227-11.032 9.576-20.941 21.079-20.824 11.227 0.114 21.035 9.687 20.778 21.191-0.261 11.726-9.596 20.654-20.926 20.669-11.398 0.016-20.988-9.091-20.931-21.036zm3.675-0.037c-0.199 9.278 7.64 17.475 17.277 17.428 9.419-0.045 17.006-7.855 17.226-17.008 0.22-9.159-7.668-17.66-17.389-17.605-9.31 0.052-17.322 8.261-17.114 17.185z"/>
                <path d="m23.938 28.662c-2.724 0.301-4.723-2.425-4.769-4.78-0.044-2.329 2.493-4.759 4.841-4.741 2.385 0.019 4.744 2.373 4.751 4.812 0.01 2.285-2.142 5.061-4.823 4.709z"/>
            </g>
        </g>
        <g id="moon" transform="translate(913.95 179.12)">
            <circle transform="matrix(1.4991 0 0 1.4991 -554.97 -52.417)" cx="406.23" cy="71.23" r="26.517" fill="#ccc" stroke="#e53740" stroke-width="1.3342"/>
            <path transform="translate(0 .36218)" d="m54 14.25c-3.4544 0-6.8046 0.45312-10 1.2812 17.112 4.4348 29.75 19.97 29.75 38.469s-12.638 34.034-29.75 38.469c3.1954 0.82813 6.5456 1.2812 10 1.2812 21.953 0 39.75-17.797 39.75-39.75s-17.797-39.75-39.75-39.75z" fill="#b3b3b3"/>
            <circle transform="matrix(1.4991 0 0 1.4991 -554.97 -52.417)" cx="406.23" cy="71.23" r="26.517" fill="none" stroke="#d45500" stroke-width="1.3342"/>
            <circle transform="matrix(1.4991 0 0 1.4991 -554.97 -52.417)" cx="406.23" cy="71.23" r="26.517" fill="none" stroke="#999" stroke-width="2.6683"/>
            <path transform="translate(29.999 30.363)" d="m9.267 24.175c0.368-6.597 2.59-12.135 7.679-16.544 4.331-3.753 9.255-5.427 14.838-5.578 1.735-0.046 3.382 0.514 5.055 0.882 1.003 0.221 1.74 0.718 1.804 1.814 0.065 1.101-0.657 1.669-1.584 2.033-1.633 0.642-3.25 1.31-4.698 2.325-2.865 2.009-4.931 4.612-6.398 7.822-1.818 3.979-1.781 8.083-0.852 12.113 0.819 3.554 2.952 6.565 5.786 8.935 1.476 1.233 3.036 2.36 5.033 2.779 0.848 0.179 1.619 0.866 2.347 1.426 0.532 0.409 0.552 1.118 0.303 1.673-0.394 0.877-1.121 1.573-2.077 1.688-4.771 0.567-9.582 0.851-14.044-1.325-4.263-2.08-7.826-5.036-10.221-9.271-1.917-3.385-2.734-7.028-2.971-10.772zm3.91 0.27c0.115 2.665 0.505 5.606 2.066 8.228 2.503 4.206 6.013 7.237 10.696 8.811 0.699 0.235 1.413 0.476 2.173 0.448 0.337-0.012 0.671-0.079 0.794-0.442 0.124-0.372-0.098-0.629-0.399-0.797-0.574-0.319-1.068-0.731-1.528-1.198-3.366-3.408-5.378-7.499-6.053-12.223-0.807-5.648 0.396-10.862 3.6-15.597 0.967-1.429 2.069-2.735 3.477-3.762 0.426-0.31 0.829-0.795 0.624-1.288-0.224-0.533-0.824-0.21-1.248-0.146-2.28 0.344-4.331 1.263-6.199 2.592-5.176 3.681-8.022 8.606-8.003 15.374z" clip-rule="evenodd" fill="#808080" fill-rule="evenodd"/>
        </g>
        <g id="mercury" transform="translate(1053.9 179.12)">
            <circle transform="matrix(1.4991 0 0 1.4991 -554.97 -52.417)" cx="406.23" cy="71.23" r="26.517" fill="#ccc" stroke="#999" stroke-width="1.3342"/>
            <path d="m54 14.625c-6.004 0-11.678 1.3355-16.781 3.7188 4.5315 10.866-5.46 24.031-8.7188 29.906-5.0868 9.1717-5.5954 22.457-5.25 31.312 6.2179 7.5781 15.185 12.811 25.375 14.188-0.089302-0.25569-0.19118-0.54432-0.28125-0.8125-8.4073-2.0982-15.765-6.88-21.094-13.375-0.34543-8.8552 0.16319-22.141 5.25-31.312 3.2587-5.8756 13.25-19.04 8.7188-29.906 4.4653-2.0853 9.3532-3.368 14.531-3.6562-0.58449-0.024095-1.1584-0.0625-1.75-0.0625z" fill="#e6e6e6"/>
            <path d="m49.938 14.812c-0.65786 0.06681-1.3208 0.1515-1.9688 0.25 0.72219 0.10476 1.4484 0.22777 2.1562 0.375 0.35466 3.4918 1.3679 13.584 1.5 17.812 0.625 20-15.128 13.313-18.125 37.875-0.79427 6.5098 0.33201 13.079 1.7812 18.312 1.4751 0.78928 3.0148 1.4613 4.5938 2.0625-1.7091-5.4942-3.2746-13.002-2.375-20.375 2.9968-24.562 18.75-17.875 18.125-37.875-0.13214-4.2286-1.1453-14.321-1.5-17.812-1.3132-0.27316-2.6456-0.49016-4-0.625-0.06134-0.0061-0.12608 0.0058-0.1875 0z" fill="#e6e6e6"/>
            <path transform="translate(0 .36218)" d="m54 14.25c-3.4544 0-6.8046 0.45312-10 1.2812 17.112 4.4348 29.75 19.97 29.75 38.469s-12.638 34.034-29.75 38.469c3.1954 0.82813 6.5456 1.2812 10 1.2812 21.953 0 39.75-17.797 39.75-39.75s-17.797-39.75-39.75-39.75z" fill="#b3b3b3"/>
            <path d="m70.5 18.219c2.4694 11.295-8.931 30.498-12 36.031-5.0868 9.1717-5.5954 22.457-5.25 31.312 3.1454 3.8335 3.2798 6.5052 3.9688 8.4062 1.7542-0.14103 3.4738-0.3886 5.1562-0.75-2.3703-5.6826-5.5169-13.271-4.7188-19.812 2.532-20.752 14.334-35.426 19.344-51.469-2.0287-1.442-4.2138-2.6728-6.5-3.7188z" fill="#b3b3b3" opacity=".27"/>
            <circle transform="matrix(1.4991 0 0 1.4991 -554.97 -52.417)" cx="406.23" cy="71.23" r="26.517" fill="none" stroke="#999" stroke-width="2.6683"/>
            <path transform="translate(30.001 30.366)" d="m22.529 36.041c-0.016-1.758-0.178-1.771-1.924-2.215-1.869-0.474-3.503-1.511-4.874-2.895-2.835-2.863-3.993-6.271-3.392-10.29 0.506-3.378 2.229-5.95 4.976-7.896 0.229-0.162 0.457-0.324 0.674-0.5 0.425-0.342 0.456-0.685-0.031-1-2.116-1.368-3.232-3.389-3.841-5.771-0.186-0.726-0.279-1.301 0.617-1.562 1.092-0.318 2.06-6e-3 2.232 0.864 0.319 1.612 1.116 2.94 2.324 3.981 0.863 0.744 1.887 1.42 3.051 1.472 1.713 0.077 3.413 0.331 5.107-0.603 2.029-1.118 3.124-2.802 3.824-4.864 0.333-0.979 0.945-1.274 2.238-0.843 0.769 0.256 0.818 0.953 0.581 1.573-0.86 2.25-1.743 4.499-4.038 5.759-0.687 0.377-0.402 0.771 0.069 1.108 1.429 1.021 2.819 2.115 3.721 3.638 1.601 2.706 2.438 5.529 1.698 8.78-0.77 3.382-2.525 5.937-5.414 7.741-0.989 0.617-1.991 1.305-3.219 1.382-1.012 0.063-1.44 0.584-1.382 1.566 0.015 0.244 0.015 0.49 4e-3 0.735-0.065 1.509 0.208 1.781 1.724 1.7 1.204-0.064 1.455 0.229 1.431 1.675-0.021 1.185-0.305 1.457-1.414 1.354-1.445-0.133-1.76 0.175-1.738 1.702 0.02 1.462-0.146 1.643-1.592 1.633-0.934-6e-3 -1.573-0.096-1.445-1.461 0.146-1.552-0.314-1.934-1.865-1.881-1.215 0.042-1.502-0.229-1.496-1.409 8e-3 -1.386 0.24-1.629 1.531-1.607 1.617 0.032 1.877-0.229 1.863-1.866zm1.513-22.341c-4.965-0.318-8.847 3.637-8.987 8.465-0.147 5.024 3.591 9.084 8.681 9.208 5.022 0.122 9.08-3.673 9.198-8.735 0.104-4.506-3.502-9.22-8.892-8.938z" clip-rule="evenodd" fill="#808080" fill-rule="evenodd"/>
        </g>
        <g id="venus" transform="translate(1193.9 179.12)">
            <circle transform="matrix(1.4991 0 0 1.4991 -554.97 -52.417)" cx="406.23" cy="71.23" r="26.517" fill="#ccc" stroke="#e53740" stroke-width="1.3342"/>
            <path transform="translate(0 .36218)" d="m54 14.25c-3.4544 0-6.8046 0.45312-10 1.2812 17.112 4.4348 29.75 19.97 29.75 38.469s-12.638 34.034-29.75 38.469c3.1954 0.82813 6.5456 1.2812 10 1.2812 21.953 0 39.75-17.797 39.75-39.75s-17.797-39.75-39.75-39.75z" fill="#b3b3b3"/>
            <circle transform="matrix(1.4991 0 0 1.4991 -554.97 -52.417)" cx="406.23" cy="71.23" r="26.517" fill="none" stroke="#d45500" stroke-width="1.3342"/>
            <circle transform="matrix(1.4991 0 0 1.4991 -554.97 -52.417)" cx="406.23" cy="71.23" r="26.517" fill="none" stroke="#999" stroke-width="2.6683"/>
            <path transform="translate(29.998 30.362)" d="m24.115 4.82c5.75 0.249 10.239 2.636 12.85 7.838 1.263 2.514 1.615 5.202 0.701 8.116-1.343 4.28-4.218 6.901-8.105 8.657-0.754 0.34-1.622 0.464-2.453 0.587-0.835 0.124-1.247 0.606-1.291 1.367-0.057 0.994-0.048 1.996 0.015 2.989 0.051 0.807 0.467 1.238 1.377 1.116 0.756-0.101 1.53-0.067 2.296-0.091 1.044-0.033 1.424 0.542 1.424 1.512-1e-3 1.319-0.298 1.764-1.361 1.806-0.803 0.03-1.612 0.021-2.413-0.046-1.039-0.087-1.382 0.451-1.373 1.37 7e-3 0.613-0.021 1.232 0.05 1.839 0.113 0.984-0.336 1.343-1.257 1.284-0.229-0.015-0.46 0.016-0.69 0.016-1.535-2e-3 -1.708-0.177-1.691-1.704 0.03-2.844 0.026-2.857-2.903-2.752-0.991 0.035-1.956 0.143-2.147-1.241-0.216-1.557 0.252-2.168 1.838-2.063 3.319 0.218 3.383-0.297 3.252-3.173-0.07-1.553-0.259-1.969-1.807-2.279-3.79-0.759-6.708-2.892-8.708-6.056-2.167-3.428-2.539-7.236-0.781-10.982 2.597-5.544 7.233-7.929 13.177-8.11zm-10.741 12.621c-0.2 2.951 1.179 5.282 3.072 7.008 3.472 3.165 9.062 3.745 13.356 1.28 5.889-3.379 6.72-11.853 0.492-15.865-3.357-2.163-6.856-2.447-10.633-1.063-3.149 1.153-6.53 4.966-6.287 8.64z" clip-rule="evenodd" fill="#808080" fill-rule="evenodd"/>
        </g>
        <g id="mars" transform="translate(1333.9 179.12)">
            <circle transform="matrix(1.4991 0 0 1.4991 -554.97 -52.417)" cx="406.23" cy="71.23" r="26.517" fill="#ccc" stroke="#e53740" stroke-width="1.3342"/>
            <path transform="translate(0 .36218)" d="m54 14.25c-3.4544 0-6.8046 0.45312-10 1.2812 17.112 4.4348 29.75 19.97 29.75 38.469s-12.638 34.034-29.75 38.469c3.1954 0.82813 6.5456 1.2812 10 1.2812 21.953 0 39.75-17.797 39.75-39.75s-17.797-39.75-39.75-39.75z" fill="#b3b3b3"/>
            <circle transform="matrix(1.4991 0 0 1.4991 -554.97 -52.417)" cx="406.23" cy="71.23" r="26.517" fill="none" stroke="#d45500" stroke-width="1.3342"/>
            <circle transform="matrix(1.4991 0 0 1.4991 -554.97 -52.417)" cx="406.23" cy="71.23" r="26.517" fill="none" stroke="#999" stroke-width="2.6683"/>
            <path class="planet" transform="translate(30 30.363)" d="m37.901 4.594c1.508 0 3.016 3e-3 4.523-1e-3 1.378-4e-3 1.761 0.354 1.758 1.681-6e-3 2.938-0.056 5.877-7e-3 8.814 0.021 1.157-0.514 1.487-1.538 1.49-2.545 7e-3 -2.597-0.032-2.506-2.576 8e-3 -0.231 0.07-0.465 0.05-0.692-0.044-0.47 0.268-1.115-0.332-1.344-0.522-0.2-0.925 0.31-1.272 0.637-1.769 1.671-3.511 3.372-5.259 5.065-0.648 0.628-0.407 1.269 0.025 1.872 5.17 7.212 2.686 16.791-4.508 21.232-5.468 3.376-11.055 3.455-16.646 0.712-3.435-1.685-5.89-4.47-7.409-8.116-1.196-2.87-1.09-5.813-0.678-8.666 0.453-3.143 2.229-5.833 4.649-7.944 3.291-2.87 7.137-4.384 11.549-4.258 3.074 0.088 5.912 0.978 8.48 2.676 0.583 0.385 1.094 0.352 1.574-0.097 1.864-1.739 3.724-3.481 5.56-5.25 0.279-0.27 0.688-0.627 0.426-1.095-0.246-0.438-0.744-0.333-1.16-0.319-0.733 0.026-1.467 0.119-2.199 0.11-0.816-0.01-1.301-0.42-1.284-1.298 8e-3 -0.424-0.03-0.851-0.01-1.274 0.044-0.916 0.465-1.41 1.46-1.385 1.584 0.039 3.169 0.01 4.754 0.01v0.016zm-18.138 34.918c5.889 0.051 10.909-3.834 12.056-9.378 1.345-6.491-2.933-12.186-9.229-13.478-5.688-1.167-11.392 1.461-13.831 6.835-1.236 2.724-1.376 5.551-0.375 8.24 1.773 4.767 6.179 7.847 11.379 7.781z" clip-rule="evenodd" fill="#808080" fill-rule="evenodd"/>
        </g>
        <g id="jupiter" transform="translate(1473.8 179.12)">
            <circle transform="matrix(1.4991 0 0 1.4991 -554.97 -52.417)" cx="406.23" cy="71.23" r="26.517" fill="#ccc" stroke="#e53740" stroke-width="1.3342"/>
            <path transform="translate(0 .36218)" d="m54 14.25c-3.4544 0-6.8046 0.45312-10 1.2812 17.112 4.4348 29.75 19.97 29.75 38.469s-12.638 34.034-29.75 38.469c3.1954 0.82813 6.5456 1.2812 10 1.2812 21.953 0 39.75-17.797 39.75-39.75s-17.797-39.75-39.75-39.75z" fill="#b3b3b3"/>
            <circle transform="matrix(1.4991 0 0 1.4991 -554.97 -52.417)" cx="406.23" cy="71.23" r="26.517" fill="none" stroke="#999" stroke-width="2.6683"/>
            <path transform="translate(30.001 30.362)" d="m37.055 17.764c0 4.363 1e-3 8.725-1e-3 13.088-1e-3 1.725 0.39 2.122 2.13 2.141 0.302 4e-3 0.604-8e-3 0.907-6e-3 2.784 0.014 2.503 0.316 2.441 2.963-0.013 0.541-0.361 0.687-0.838 0.794-1.024 0.229-2.054 0.235-3.091 0.21-1.068-0.025-1.586 0.49-1.57 1.578 0.027 1.986-0.021 3.976 0.053 5.959 0.039 1.051-0.362 1.539-1.389 1.56-0.475 9e-3 -0.957 0.089-1.421 0.028-0.908-0.118-1.524-0.354-1.45-1.609 0.108-1.835-0.048-3.687 0.104-5.533 0.121-1.479-0.456-1.996-2.147-1.993-6.393 0.01-12.785 0.035-19.178 0.054-0.648 2e-3 -1.296 3e-3 -1.944-1e-3 -2.27-0.017-2.412-0.192-2.474-2.399-0.028-1.012 0.374-1.531 1.345-1.704 1.356-0.241 2.708-0.527 4.06-0.763 3.474-0.605 5.695-2.873 7.738-5.437 1.683-2.114 2.973-4.534 3.548-7.1 0.757-3.375 1.186-6.857-0.742-10.174-1.32-2.27-5.783-4.206-8.586-2.864-3.865 1.85-5.421 4.912-4.896 7.744 0.104 0.563 0.224 1.097 0.659 1.509 0.936 0.885 1.131 1.979 0.926 3.205-0.218 1.294-0.962 1.654-2.082 0.951-2.857-1.795-3.923-4.438-3.7-7.728 0.394-5.797 7.686-11.799 14.144-10.02 3.36 0.925 5.997 2.897 7.506 6.194 2.047 4.471 1.64 8.904 0.144 13.435-1.181 3.58-2.847 6.792-5.609 9.401-0.375 0.354-0.912 0.825-0.596 1.443 0.292 0.571 0.911 0.311 1.41 0.311 2.722-1e-3 5.442 0.011 8.163 0 1.789-8e-3 2.384-0.562 2.291-2.335-0.265-5.047-0.085-10.096-0.07-15.142 0.011-3.745-0.073-7.487-0.06-11.231 2e-3 -0.53 0.189-0.974 0.639-1.18 0.989-0.454 2.034-0.427 3.017 7e-3 0.865 0.382 0.641 1.237 0.643 1.944 0.013 4.233 6e-3 8.466 6e-3 12.699-0.012 1e-3 -0.021 1e-3 -0.03 1e-3z" clip-rule="evenodd" fill="#808080" fill-rule="evenodd"/>
            <path transform="translate(-100)" d="m189.6 36.58c0.89288 1.1851 9.4588 2.793 7.5348 7.7709-1.356 4.484-5.4125 7.4835-9.0577 10.148-4.1801 2.9042-8.6277 5.3509-13.244 7.3345-4.0963 1.9624-8.4239 3.5034-12.788 4.9394-8.64 2.8177-17.537 4.7973-26.591 5.7354-4.5737 0.32518-9.2382 0.54232-13.758 0.0027-3.5081-0.53753-8.1111-1.2323-10.442-4.5243-2.9429-3.262 8.0525-7.6344 2.3836-8.5037-2.2982 2.765-6.4663 6.36-3.7325 9.8922 2.8098 3.6314 7.6891 4.4644 11.966 5.0708 5.0117 0.53009 10.155 0.31991 15.119-0.21979 3.2318-0.41408 6.6656-0.79438 9.9144-1.5949 4.4393-0.74326 8.8831-1.9441 13.252-3.2232 6.982-2.2782 13.937-4.7625 20.449-8.2295 4.4004-2.1838 8.548-4.9343 12.395-7.9913 2.7679-2.6944 5.936-5.768 6.274-9.8455 0.20214-4.4328-6.2916-7.3206-9.9094-8.4231z" color="#000000" fill="#999" style="text-decoration-line:none;text-indent:0;text-transform:none"/>
        </g>
        <text x="1038.5167" y="35.667999" fill="#000000" font-family="sans-serif" font-size="18.667px" letter-spacing="0px" word-spacing="0px" style="line-height:1.25" xml:space="preserve"><tspan x="1038.5167" y="35.667999">Default template, used if there isn't</tspan><tspan x="1038.5167" y="64.001335">one for the orb.</tspan></text>
        <text x="912.67816" y="149.60289" fill="#000000" font-family="sans-serif" font-size="22.667px" letter-spacing="0px" word-spacing="0px" style="line-height:1.25" xml:space="preserve"><tspan x="912.67816" y="149.60289" font-family="sans-serif" font-size="18.667px" font-weight="bold">#planet</tspan></text>
        <text x="912.67816" y="311.48569" fill="#000000" font-family="sans-serif" font-size="22.667px" letter-spacing="0px" word-spacing="0px" style="line-height:1.25" xml:space="preserve"><tspan x="912.67816" y="311.48569" font-family="sans-serif" font-size="18.667px" font-weight="bold">#moon</tspan></text>
        <text x="1052.6781" y="311.48569" fill="#000000" font-family="sans-serif" font-size="22.667px" letter-spacing="0px" word-spacing="0px" style="line-height:1.25" xml:space="preserve"><tspan x="1052.6781" y="311.48569" font-family="sans-serif" font-size="18.667px" font-weight="bold">#mercury</tspan></text>
        <text x="1192.6781" y="311.48569" fill="#000000" font-family="sans-serif" font-size="22.667px" letter-spacing="0px" word-spacing="0px" style="line-height:1.25" xml:space="preserve"><tspan x="1192.6781" y="311.48569" font-family="sans-serif" font-size="18.667px" font-weight="bold">#venus</tspan></text>
        <text x="1332.678" y="311.48569" fill="#000000" font-family="sans-serif" font-size="22.667px" letter-spacing="0px" word-spacing="0px" style="line-height:1.25" xml:space="preserve"><tspan x="1332.678" y="311.48569" font-family="sans-serif" font-size="18.667px" font-weight="bold">#mars</tspan></text>
        <text x="1472.678" y="311.48569" fill="#000000" font-family="sans-serif" font-size="22.667px" letter-spacing="0px" word-spacing="0px" style="line-height:1.25" xml:space="preserve"><tspan x="1472.678" y="311.48569" font-family="sans-serif" font-size="18.667px" font-weight="bold">#jupiter</tspan></text>
        <text x="912.67816" y="471.48569" fill="#000000" font-family="sans-serif" font-size="22.667px" letter-spacing="0px" word-spacing="0px" style="line-height:1.25" xml:space="preserve"><tspan x="912.67816" y="471.48569" font-family="sans-serif" font-size="18.667px" font-weight="bold">#sun</tspan></text>
        <text x="1052.6781" y="471.48569" fill="#000000" font-family="sans-serif" font-size="22.667px" letter-spacing="0px" word-spacing="0px" style="line-height:1.25" xml:space="preserve"><tspan x="1052.6781" y="471.48569" font-family="sans-serif" font-size="18.667px" font-weight="bold">#saturn</tspan></text>
        <text x="1192.6781" y="471.48569" fill="#000000" font-family="sans-serif" font-size="22.667px" letter-spacing="0px" word-spacing="0px" style="line-height:1.25" xml:space="preserve"><tspan x="1192.6781" y="471.48569" font-family="sans-serif" font-size="18.667px" font-weight="bold">#uranus</tspan></text>
        <text x="1332.678" y="471.48569" fill="#000000" font-family="sans-serif" font-size="22.667px" letter-spacing="0px" word-spacing="0px" style="line-height:1.25" xml:space="preserve"><tspan x="1332.678" y="471.48569" font-family="sans-serif" font-size="18.667px" font-weight="bold">#neptune</tspan></text>
        <text x="1472.678" y="471.48569" fill="#000000" font-family="sans-serif" font-size="22.667px" letter-spacing="0px" word-spacing="0px" style="line-height:1.25" xml:space="preserve"><tspan x="1472.678" y="471.48569" font-family="sans-serif" font-size="18.667px" font-weight="bold">#pluto</tspan></text>
    </g>
    <g id="zodiac" transform="translate(-2)">
        <g id="zodiac-units" fill="none" stroke="#a5a5a5">
            <g id="zodiac-units-major" class="major" stroke-width="2.8346">
                <path d="m54.159 300h495.68"/>
                <path d="m87.363 423.92 429.27-247.84"/>
                <path d="m178.08 514.64 247.84-429.27"/>
                <path d="m302 547.84v-495.68"/>
                <path d="m425.92 514.64-247.84-429.27"/>
                <path d="m516.64 423.92-429.27-247.84"/>
            </g>
            <g id="zodiac-units-medium" stroke-width="1.8898">
                <path d="m62.924 342.16 478.15-84.311"/>
                <path d="m116.03 456.05 371.94-312.09"/>
                <path d="m218.97 528.12 166.06-456.25"/>
                <path d="m344.16 539.08-84.311-478.15"/>
                <path d="m458.05 485.97-312.09-371.94"/>
                <path d="m530.12 383.03-456.25-166.06"/>
                <path d="m73.877 383.03 456.25-166.06"/>
                <path d="m145.95 485.97 312.09-371.94"/>
                <path d="m259.84 539.08 84.311-478.15"/>
                <path d="m385.03 528.12-166.06-456.25"/>
                <path d="m487.97 456.05-371.94-312.09"/>
                <path d="m541.08 342.16-478.15-84.311"/>
            </g>
            <g id="zodiac-units-minor" stroke-width=".94488">
                <path d="m356.93 531.77-109.86-463.55"/>
                <path d="m465.46 473.25-326.92-346.51"/>
                <path d="m530.19 368.31-456.38-136.63"/>
                <path d="m396.35 518.72-188.69-437.43"/>
                <path d="m493.06 442.24-382.12-284.47"/>
                <path d="m538.59 327.65-473.17-55.302"/>
                <path d="m370.31 528.19-136.63-456.37"/>
                <path d="m475.25 463.46-346.51-326.92"/>
                <path d="m533.77 354.93-463.55-109.86"/>
                <path d="m408.9 512.85-213.8-425.71"/>
                <path d="m501.01 430.88-398.02-261.77"/>
                <path d="m539.79 313.84-475.58-27.696"/>
                <path d="m329.65 536.59-55.305-473.17"/>
                <path d="m444.24 491.06-284.48-382.12"/>
                <path d="m520.72 394.35-437.43-188.68"/>
                <path d="m315.86 537.79-27.702-475.58"/>
                <path d="m432.9 499-261.78-398.01"/>
                <path d="m514.87 406.9-425.72-213.8"/>
                <path d="m70.226 354.93 463.55-109.86" fill="none" stroke="#a5a5a5"/>
                <path d="m128.74 463.45 346.51-326.92" fill="none" stroke="#a5a5a5"/>
                <path d="m233.69 528.17 136.63-456.38" fill="none" stroke="#a5a5a5"/>
                <path d="m83.291 394.34 437.43-188.69" fill="none" stroke="#a5a5a5"/>
                <path d="m159.76 491.06 284.47-382.12" fill="none" stroke="#a5a5a5"/>
                <path d="m274.35 536.57 55.302-473.17" fill="none" stroke="#a5a5a5"/>
                <path d="m73.808 368.32 456.37-136.63" fill="none" stroke="#a5a5a5"/>
                <path d="m138.53 473.26 326.92-346.51" fill="none" stroke="#a5a5a5"/>
                <path d="m247.07 531.76 109.86-463.55" fill="none" stroke="#a5a5a5"/>
                <path d="m89.142 406.9 425.71-213.8" fill="none" stroke="#a5a5a5"/>
                <path d="m171.11 499 261.77-398.02" fill="none" stroke="#a5a5a5"/>
                <path d="m288.15 537.77 27.696-475.58" fill="none" stroke="#a5a5a5"/>
                <path d="m65.416 327.65 473.17-55.305" fill="none" stroke="#a5a5a5"/>
                <path d="m110.93 442.24 382.12-284.48" fill="none" stroke="#a5a5a5"/>
                <path d="m207.66 518.7 188.68-437.43" fill="none" stroke="#a5a5a5"/>
                <path d="m64.215 313.85 475.58-27.702" fill="none" stroke="#a5a5a5"/>
                <path d="m102.99 430.88 398.01-261.78" fill="none" stroke="#a5a5a5"/>
                <path d="m195.11 512.84 213.8-425.72" fill="none" stroke="#a5a5a5"/>
            </g>
        </g>
        <g id="zodiac-signs" transform="rotate(255 300 300)" fill="#ccc" stroke="#fff" stroke-width="2.3284">
            <path id="aries" d="m323.82 15.328c-3.7035-4.9037-10.303-6.9822-16.059-5.0564-2.4618 0.82669-4.4415 2.3316-5.8972 4.3054-1.4252-1.7981-3.3077-3.1765-5.6216-3.9521-5.7541-1.929-12.354 0.14808-16.057 5.0531-3.5928 4.7631-3.115 9.258-2.086 12.191 1.1338 3.2213 3.6961 6.3467 5.5986 6.8248 1.508 0.37019 3.0488-0.53656 3.4305-2.0543 0.33122-1.3168-0.32037-2.6568-1.4944-3.2305-0.47918-0.41611-2.1629-2.2512-2.5435-4.7862-0.28807-1.9137 0.24032-3.7211 1.6085-5.5328 2.2245-2.9435 6.3225-4.2434 9.7457-3.101 3.0503 1.0256 4.7295 3.7826 4.7295 7.7608v23.238c1.3e-4 1.5651 1.2648 2.8296 2.8286 2.8297 1.5653-6.1e-5 2.8286-1.2646 2.8284-2.8295v-0.35332l1.4e-4 -22.883-1.4e-4 -0.34845c1.4e-4 -3.9813 1.6793-6.737 4.7296-7.7623 3.4279-1.1442 7.5211 0.15564 9.7458 3.0993 1.368 1.8134 1.8934 3.6236 1.6068 5.5312-0.38204 2.538-2.0644 4.3729-2.5419 4.7862-1.1743 0.57458-1.8271 1.912-1.4959 3.2321 0.38191 1.5202 1.9164 2.4378 3.4322 2.0539 1.9026-0.47802 4.4632-3.6035 5.5986-6.8248 1.0289-2.936 1.5066-7.4323-2.086-12.191z"/>
            <path id="pisces" d="m452.07 73.902-8.8666-5.1191c5.5277-7.683 11.864-8.1224 12.23-8.1417 1.6105-0.04563 2.8807-1.3853 2.8506-2.9973-0.0364-1.6233-1.3791-2.9019-2.9979-2.8716-0.42288 0.01418-9.778 0.35508-17.191 11.061l-5.7252-3.3055c5.5628-11.774 1.1875-20.049 0.98369-20.419-0.77681-1.4085-2.5372-1.9182-3.9508-1.1587-1.419 0.75782-1.955 2.531-1.2111 3.9594 0.13356 0.26259 2.9805 5.9852-0.93606 14.665l-7.4834-4.3205c-1.4053-0.81134-3.1993-0.32896-4.0113 1.0772-0.81046 1.4041-0.33176 3.1999 1.0735 4.0113l7.4681 4.3117c-5.0513 6.7797-10.209 5.5785-10.408 5.5249-1.5541-0.45935-3.1893 0.42802-3.6493 1.9829-0.39262 1.3272 0.19483 2.7138 1.343 3.3766 0.19619 0.11298 0.40904 0.20357 0.63678 0.27317 0.4112 0.11831 9.5438 2.6595 17.201-8.2029l5.7405 3.3141c-5.5796 12.062 1.1869 18.701 1.4979 18.999 0.1717 0.16102 0.3561 0.30007 0.54886 0.41136 1.1297 0.65225 2.5875 0.47153 3.5452-0.50462 1.1229-1.1409 1.1057-2.9916-0.0191-4.1351-0.17246-0.17611-3.7968-4.0453-0.45102-11.81l8.8444 5.1063c1.4042 0.8106 3.2 0.32773 4.0105-1.0761 0.81199-1.4064 0.33152-3.2018-1.0739-4.0131z"/>
            <path id="aquarius" transform="rotate(105 299 300.77)" d="m115.65 78.16c-0.75435-0.0041-1.507 0.27846-2.0801 0.85156-1.9223 1.9223-1.7422 4.9489-1.5488 8.1523 0.10298 1.7339 0.29178 4.9543-0.39649 5.6426-0.44597 0.27409-2.5511-0.21502-3.5625-0.44531-2.8668-0.66333-6.7963-1.5729-9.623 1.2539-2.8179 2.8179-1.6767 6.4342-0.92578 8.8262 0.84789 2.6926 0.88438 3.4203 0.20117 4.1035-0.71371 0.7137-1.7125 0.58832-4.3496-0.13281-2.7317-0.74456-6.4742-1.768-9.4473 1.2051-2.9464 2.9464-2.5572 6.8393-2.2695 9.6816 0.09341 0.96359 0.25905 2.5724 0.04492 3.002-1.122 1.1476-1.1077 2.9997 0.03906 4.1465 1.1558 1.1557 3.0197 1.1638 4.166 0.0176 2.1666-2.1666 1.863-5.2341 1.6113-7.707-0.24525-2.4665-0.32794-4.0295 0.5957-4.9531 0.48598-0.48597 1.4038-0.34773 3.7441 0.29297 2.7177 0.74581 6.8168 1.8706 10.051-1.3633 3.3369-3.337 2.0719-7.3575 1.2344-10.012-0.36763-1.1614-0.82018-2.6076-0.50977-2.918 0.53688-0.53687 2.6341-0.05243 4.1582 0.29883 2.8642 0.6582 6.4296 1.4864 9.0312-1.1152 2.5368-2.5368 2.2948-6.5613 2.0859-10.121-0.0755-1.279-0.18681-3.1788 0.01-3.8398 0.9878-1.152 0.92553-2.8968-0.17383-3.9961-0.5766-0.57661-1.3316-0.86701-2.0859-0.87109zm13.557 13.551c-0.75291-0.0031-1.5052 0.2831-2.0781 0.85547-1.9223 1.9223-1.7429 4.9483-1.5508 8.1504 0.10426 1.7352 0.29374 4.9562-0.39453 5.6445-0.44727 0.2728-2.5511-0.21501-3.5625-0.44531-2.8668-0.66333-6.7963-1.5729-9.623 1.2539-2.8179 2.8179-1.6779 6.435-0.92578 8.8281 0.84659 2.6913 0.8843 3.4184 0.20117 4.1016-0.7137 0.7137-1.7125 0.58832-4.3496-0.13281-2.7292-0.7471-6.4741-1.772-9.4473 1.2012-2.9451 2.9451-2.5553 6.8374-2.2676 9.6797 0.09598 0.96616 0.25711 2.5743 0.04297 3.0039-1.1245 1.1502-1.1116 2.9997 0.03516 4.1465 1.1532 1.1532 3.0217 1.1638 4.168 0.0176 2.1666-2.1666 1.8617-5.2354 1.6113-7.707-0.24525-2.4665-0.3299-4.0295 0.59375-4.9531 0.48598-0.48598 1.4057-0.34587 3.7461 0.29492 2.7176 0.74584 6.8149 1.8686 10.049-1.3652 3.3369-3.337 2.0726-7.3568 1.2363-10.01-0.36891-1.1627-0.82018-2.6095-0.50977-2.9199 0.53687-0.53686 2.6321-0.0524 4.1562 0.29883 2.8655 0.65951 6.4316 1.4883 9.0332-1.1133 2.5368-2.5368 2.2936-6.5605 2.0859-10.119-0.0755-1.279-0.18544-3.1816 0.01-3.8438 0.9878-1.152 0.92554-2.8948-0.17383-3.9941-0.57788-0.57787-1.3325-0.86993-2.0859-0.87305z"/>
            <path id="capricorn" d="m579.09 315.48c-1.1e-4 -3.6983-1.8231-6.9583-4.5931-9.0137 2.222-1.0295 5.2482-2.0388 8.6163-2.0388 4.1372 0 6.919-3.3456 6.9189-8.3252 1e-5 -2.5518-0.77416-5.192-2.2537-7.0068 1.7025-2.2224 2.6576-5.4442 2.6576-8.0629 3e-5 -2.0822-0.56475-3.895-1.6322-5.2404-0.91484-1.153-2.6442-2.5266-5.6938-2.5266-1.3726 0-2.4818 1.1097-2.4817 2.4765-8e-5 1.367 1.1093 2.4765 2.4816 2.4765 1.21 1.4e-4 2.0611 0.33933 2.3041 1.9969 0.44237 2.9445-1.4795 6.3118-2.304 6.5657l-20.284-1.4e-4c-1.3707 1.4e-4 -2.4816 1.1098-2.4816 2.4767 7e-5 1.3668 1.1112 2.4749 2.4817 2.4749l20.284-1.3e-4c0.87472 1.3e-4 1.9522 2.0154 1.9522 4.368-5e-5 1.0847-0.23784 2.0624-0.6451 2.6804-0.32617 0.49161-0.70876 0.69041-1.3067 0.69099-7.1804-2.9e-4 -12.911 3.5007-14.793 4.8008-0.17441-0.0143-0.34228-0.0516-0.51952-0.0516-1.7695-1.5e-4 -3.4185 0.44281-4.9098 1.1647-2.314-1.5172-7.5842-5.7702-7.7432-13.136-0.0302-1.3669-1.1612-2.4532-2.5368-2.4248-1.3542 0.0302-2.4298 1.133-2.4299 2.4768 0.0144 0.0186 3e-4 0.0345 1.4e-4 0.0516 0.17914 8.4473 5.3638 13.728 8.7199 16.273-1.4762 1.9068-2.3948 4.2628-2.3943 6.8515 2e-5 6.2113 5.0639 11.26 11.289 11.26 6.2283-1.5e-4 11.297-5.0449 11.297-11.256zm-17.616-1.6e-4c-5e-5 -3.4758 2.837-6.3049 6.324-6.305 3.4855 1.6e-4 6.3223 2.8291 6.3223 6.305 0 3.4791-2.8369 6.3084-6.3223 6.3082-3.487 1.5e-4 -6.324-2.8288-6.3239-6.3082z"/>
            <path id="sagitarius" d="m539.25 461.41c0.27204 0.14198 0.56621 0.25263 0.87638 0.29326 0.33996 0.044 0.67746 0.0226 1.0023-0.0607 0.0153-0.0118 0.0229-1e-3 0.0249-7.2e-4 0.33359-0.088 0.64692-0.24555 0.9234-0.4575 0.27754-0.21244 0.50817-0.47133 0.68097-0.77063 1e-5 0 1e-5 0 1e-3 4.5e-4l7.0395-12.192c0.72847-1.2617 0.29643-2.8774-0.96633-3.6065-1.264-0.72992-2.878-0.29544-3.6066 0.96619l-3.8468 6.6629-4.5824-17.209 6.3398-1.5731c1.4125-0.35266 2.2774-1.7847 1.924-3.1992-0.34975-1.4152-1.7802-2.2775-3.1974-1.9271l-6.4233 1.5966-5.1648-19.393c-0.37331-1.4071-1.8216-2.2463-3.2325-1.8664-0.70641 0.18634-1.2671 0.64368-1.6061 1.23-0.33669 0.58326-0.45131 1.2965-0.2647 1.9999l5.141 19.304-7.2521 1.8009c-0.72394 0.17924-1.3037 0.64141-1.6514 1.2433-0.32855 0.56912-0.44892 1.2642-0.27503 1.9547 0.3503 1.4141 1.7838 2.2765 3.198 1.9261l7.3373-1.8202 4.6109 17.318-6.4934-3.7491c-1.2639-0.72956-2.8792-0.29596-3.6088 0.96792-0.72847 1.2618-0.29606 2.8764 0.96789 3.6062l12.004 6.9303c0.0307 0.0179 0.0652 0.0157 0.0977 0.0316z"/>
            <path id="scorpio" d="m408.06 538.65 9.1971 0.91667c0.81431 0.0814 1.6006-0.29543 2.0389-0.97854 0.44136-0.68484 0.46037-1.5578 0.0522-2.2651l-1.6566-2.8694c1.4176-0.41929 3.4412-0.73527 4.0123 0.25399l10.046 17.4c2.4248 4.1999 7.8863 3.6462 10.621 2.0672 1.8333-1.0585 3.1397-2.7364 3.6795-4.7296 5e-4 -1e-3 3e-3 -6e-3 4e-3 -0.0107 2.0852 0.51041 4.2571 0.15506 5.988-0.84428 1.8304-1.0568 3.1368-2.7347 3.6751-4.7271 5e-3 -0.013 6e-3 -0.0326 0.0114-0.0476 1.9216 0.33687 3.8789-0.0103 5.4656-0.92639 1.8319-1.0576 3.1383-2.7356 3.6766-4.7279 0.41196-1.5183 0.55746-3.9279-1.0791-6.7626-0.74734-1.2944-2.3945-1.7357-3.684-0.99118-1.2895 0.7445-1.7278 2.3937-0.98218 3.6852 1.508 2.6119-0.10396 3.8106-0.63327 4.1163-1.1107 0.64123-2.8324 0.65373-4.0314-1.4231l-11.427-19.792c-0.74649-1.293-2.3931-1.7365-3.6826-0.99198-1.2895 0.74449-1.727 2.3951-0.98215 3.6852l11.606 20.102c1.508 2.612-0.10453 3.8129-0.63388 4.1186-3.1618 1.8255-4.5026-1.4596-5.0278-2.3693-0.52522-0.90968-10.949-18.963-10.949-18.963-0.74651-1.293-2.3945-1.7357-3.6826-0.99201-1.291 0.74534-1.7284 2.396-0.98359 3.686l11.606 20.103c1.508 2.6119-0.10025 3.8104-0.63248 4.1177-1.1106 0.64124-2.8318 0.6515-4.0308-1.4254l-9.2719-16.059c-2.5735-4.4574-8.1366-3.6367-11.422-2.3184l-1.5806-2.7378c-0.42752-0.74048-1.2467-1.1604-2.0944-1.0798-0.31708 0.0307-0.60978 0.12648-0.8723 0.27802-0.44862 0.259-0.79672 0.67212-0.9696 1.1788l-3.2135 9.4473c-0.21641 0.62817-0.13138 1.3216 0.22988 1.8805 0.35913 0.56782 0.95287 0.93082 1.6122 0.99368z"/>
            <path id="libra" transform="rotate(105 299 300.77)" d="m552.71 202.23c-0.21238 0.0131-0.42698 0.0463-0.64063 0.10351-1.7127 0.45892-2.7278 2.2046-2.2734 3.9004v2e-3l3.2226 12.023c0.45438 1.6958 2.2066 2.6997 3.9141 2.2422l0.61133-0.16797c2.3596-0.65999 7.2753-2.0333 10.762-0.0664 1.8909 1.0686 3.1966 3.0282 3.9902 5.9902 1.1542 4.3076 0.33939 7.427-2.5547 9.8203-2.5613 2.1119-6.0608 3.0492-7.6992 3.4863-1.7075 0.45752-2.7234 2.2024-2.2695 3.8965l3.1699 11.83c0.45438 1.6958 2.2066 2.6997 3.9141 2.2422 1.7075-0.45751 2.7259-2.2046 2.2715-3.9004l-2.373-8.8536c2.1101-0.73552 4.7523-1.9148 7.0684-3.8223 3.3822-2.7903 6.9328-7.8942 4.6641-16.361-1.2388-4.6233-3.5942-7.9419-7.002-9.8652-4.4848-2.535-9.6298-1.9569-13.096-1.1816l-2.4043-8.9727c-0.39759-1.4838-1.7887-2.4372-3.2754-2.3457zm-10.834 2.9082c-0.21209 0.013-0.42545 0.0483-0.63867 0.10547-1.7092 0.45798-2.7259 2.2046-2.2715 3.9004l13.146 49.064c0.45392 1.694 2.2088 2.6963 3.918 2.2383s2.7215-2.2024 2.2676-3.8965l-13.146-49.064c-0.39758-1.4838-1.7907-2.4386-3.2754-2.3477z"/>
            <path id="virgo" d="m145.8 521.43c-2.7606 3.3499-3.4092 7.6238-1.7379 11.435 0.87794 2.0005 2.2945 3.5883 3.8674 4.4799l-1.0808 1.872c-2.8651 4.9625 0.7494 8.1645 3.337 9.6585 1.7337 1.001 3.722 1.2793 5.6057 0.78198 1e-3 -2e-3 3e-3 -5e-3 0.015-1e-3 0.5708 1.9459 1.8876 3.5542 3.5243 4.4992 1.7301 0.99887 3.7197 1.278 5.6033 0.78056 0.0156-2e-3 0.0299-0.0124 0.0447-0.0158 0.63531 1.7309 1.8451 3.1679 3.3437 4.0331 1.7326 1.0003 3.7222 1.2794 5.6058 0.78206 1.4374-0.37991 3.477-1.3946 5.0205-4.0682 0.70352-1.2185 0.28696-2.7734-0.93285-3.4776-1.2184-0.70345-2.7746-0.28758-3.4781 0.93094-1.4221 2.4632-3.1657 1.7121-3.6673 1.4225-1.0492-0.60574-1.8729-2.0074-0.74112-3.9677l10.772-18.657c0.70352-1.2185 0.28557-2.7742-0.93285-3.4776-1.2185-0.70352-2.7754-0.28632-3.4782 0.93095l-10.942 18.952c-1.4221 2.4632-3.4517 1.5404-3.9794 1.2356-0.52769-0.30466-2.2549-1.4894-0.60429-4.3484 2.0631-3.5734 10.797-18.57 10.797-18.57 0.70352-1.2185 0.28685-2.7734-0.93285-3.4776-1.2185-0.70352-2.7754-0.28632-3.4782 0.93095l-10.942 18.952c-1.4221 2.4632-3.1651 1.7108-3.6666 1.4212-1.0493-0.6058-1.8749-2.0068-0.74312-3.9672 0 0 11.558-20.167 12.317-21.474 2.3987-0.0158 4.5354 0.3018 5.991 0.81029 1.3281 0.46473 2.7814-0.23296 3.2474-1.5604 0.41041-1.1737-0.0882-2.4456-1.1288-3.0464-0.13435-0.0776-0.28245-0.14315-0.43303-0.1985-1.9639-0.6858-4.9864-1.1447-8.3796-1.0592-1.6622-2.5711-4.5506-5.0154-6.0485-6.1922-1.0972-0.84756-2.7096-0.67321-3.575 0.43191-0.86886 1.1081-0.67704 2.7075 0.4304 3.5775 1.1504 0.90482 2.2914 1.9436 3.2236 2.9017-4.4106 0.97672-8.7778 3.0307-11.837 6.7426zm12.139-1.5895c-0.56123 0.97208-1.1935 2.0426-1.8427 3.1646-2.073 3.561-4.3883 7.5415-5.7428 9.8877-0.48099-0.31085-1.2689-1.096-1.7476-2.3681-0.43372-1.1515-0.86275-3.4438 1.124-5.8531 2.0379-2.4777 5.0505-3.9994 8.2091-4.8311z"/>
            <path id="leo" d="m58.564 417.87c-0.5078 1.5279 0.3188 3.1877 1.8432 3.6904 1.5288 0.51155 3.1795-0.31553 3.6879-1.8445 0.12204-0.35573 4.9594-2.4345 6.3999-0.44073 1.4386 1.9943-0.46541 5.6298-2.6589 6.5258-4.7969 1.9512-16.194 7.338-18.384 15.164-0.8661 3.0964-0.2148 6.2228 1.9213 9.101 3.3051 4.2387 7.014 6.234 11.035 5.9262 5.6391-0.43019 9.8757-5.3688 11.885-8.247 0.01655 9e-3 0.02624 0.0233 0.04236 0.0325 4.8981 2.8279 11.184 1.1437 14.012-3.7544 2.8272-4.8969 1.1427-11.183-3.7554-14.011-4.8968-2.8272-11.183-1.1429-14.01 3.754-1.7506 3.0323-1.7649 6.5953-0.36399 9.5428-1.2761 2.1095-4.6922 6.602-8.2605 6.8691-1.9472 0.13693-3.9549-1.0978-5.9363-3.6444-1.3465-1.8106-1.1857-3.1488-0.94743-3.9972 1.0046-3.5951 6.8788-8.0442 14.963-11.334 6.0721-2.4715 8.2822-7.6995 5.9173-13.984-1.6989-3.2076-6.2808-4.6248-8.4109-4.5825-3.3575 0.0602-7.7241 1.4704-8.9801 5.233zm23.111 17.196c2.1123 1.2196 2.8374 3.9294 1.6193 6.0394-1.2196 2.1123-3.9289 2.8392-6.0412 1.6196-2.1123-1.2195-2.8374-3.9294-1.6179-6.0417 1.2192-2.1093 3.9286-2.8363 6.0398-1.6174z"/>
            <path id="cancer" transform="rotate(105 299 300.77)" d="m372.75 539.88c-2.2944-5e-3 -4.4805 0.30531-6.541 0.85742-12.703 3.4037-20.744 15.594-21.166 16.248-0.9277 1.4334-0.51686 3.3411 0.90821 4.2676 1.4341 0.93271 3.3429 0.52402 4.2734-0.9043 0.0908-0.13739 7.3692-11.101 18.107-13.729-0.84056 2.0326-1.0821 4.3359-0.46874 6.625 1.4814 5.5289 7.18 8.8222 12.705 7.3418 5.5258-1.4792 8.8156-7.1816 7.334-12.711-1.3211-4.9303-5.9947-8.0562-10.908-7.6328-1.452-0.24413-2.8675-0.36042-4.2441-0.36328zm4.8828 6.4863c1.948-0.11646 3.7792 1.1484 4.3047 3.1094 0.59979 2.2384-0.73176 4.5432-2.9688 5.1426-2.237 0.5994-4.5408-0.73227-5.1406-2.9707-0.60015-2.2398 0.72981-4.5451 2.9668-5.1445 0.27962-0.0749 0.5596-0.12008 0.83789-0.13672zm10.607 14.092c-0.99128 0.017-1.9527 0.51094-2.5332 1.4043h-2e-3c-0.0908 0.13739-7.3682 11.101-18.107 13.729 0.84056-2.0326 1.084-4.336 0.4707-6.625-1.4814-5.5289-7.18-8.8208-12.707-7.3398-5.524 1.4802-8.8136 7.1796-7.332 12.709 1.3207 4.9289 5.9962 8.0545 10.908 7.6309 3.8745 0.65472 7.4864 0.39119 10.783-0.49219 12.705-3.4042 20.746-15.595 21.166-16.248 0.92906-1.4338 0.5165-3.3405-0.9082-4.2656-0.53857-0.35069-1.1435-0.51215-1.7383-0.50196zm-30.441 6.998c1.9489-0.11646 3.7796 1.1476 4.3047 3.1074 0.59979 2.2384-0.73041 4.5448-2.9688 5.1445-2.2356 0.59904-4.5405-0.73091-5.1406-2.9707s0.73117-4.5455 2.9668-5.1445c0.27979-0.075 0.55947-0.12008 0.83789-0.13672z"/>
            <path id="gemini" d="m78.057 163.67-17.035-9.8351c0.85589-2.7305 1.0129-5.1662 0.4343-7.2687-0.80351-2.913-2.6843-4.0962-3.0541-4.3036-1.105-0.6195-2.4471-0.23204-3.1179 0.83903-0.67008 1.0872-0.32162 2.5144 0.72151 3.2313 1.1425 0.78342 2.251 4.0794-1.713 10.945-4.0467 7.0091-7.7558 7.9285-9.1629 7.4323-1.1744-0.48969-2.5536 9e-3 -3.0654 1.1955-0.54397 1.1862-0.02218 2.589 1.1676 3.1354 0.24071 0.1091 4.7074 2.0188 10.106-2.8745l17.49 10.098c-2.0452 7.7344 2.138 10.867 2.3635 11.027 1.034 0.73499 2.4218 0.49248 3.1964-0.50957 0.77278-0.99885 0.58322-2.4694-0.38589-3.2868-1.1385-0.95869-2.2144-4.6308 1.8442-11.661 3.9641-6.8654 7.3727-7.5541 8.5406-7.0031 1.123 0.66686 2.5758 0.29867 3.2399-0.82365-0.0028-0.0173 0.01124-0.0191 0.01395-0.0247 0.64512-1.1176 0.27045-2.5542-0.8452-3.2156-0.3662-0.21157-2.3284-1.2532-5.2532-0.49249-1.8943 0.49064-3.7277 1.6408-5.4864 3.394zm-5.5423 8.1126-16.005-9.2406c0.62768-0.86834 1.2547-1.8036 1.8841-2.8938 0.28001-0.48472 0.52539-0.95757 0.77197-1.43l15.881 9.1691c-0.43956 0.6534-0.875 1.3384-1.3018 2.0775-0.46376 0.80333-0.87344 1.5754-1.2305 2.3173z"/>
            <path id="taurus" d="m170.49 39.402c-0.31024 0.17905-7.1781 4.3208-7.2423 15.945-1.1678 0.33744-2.316 0.79978-3.4152 1.4344-1.2196 0.70415-2.2939 1.5636-3.2363 2.5226-10.156-5.8339-17.219-1.9392-17.53-1.7596l-7e-3 0.01817c-1.2333 0.71196-1.6482 2.2675-0.96016 3.5109 0.69153 1.2446 2.2703 1.6969 3.5296 1.0251 0.20934-0.10663 4.789-2.4415 11.988 1.5294-1.9972 4.3494-1.9425 9.5662 0.6272 14.017 4.2071 7.2867 13.56 9.793 20.849 5.5844 7.2907-4.2093 9.7995-13.562 5.5917-20.85-2.6377-4.5686-7.2991-7.2561-12.204-7.5904 0.24577-7.9535 4.3958-10.716 4.6568-10.882 1.226-0.7319 1.635-2.3108 0.91608-3.5483-0.71763-1.243-2.312-1.6652-3.5586-0.94557zm1.9899 39.301c-4.7973 2.7697-10.956 1.1213-13.725-3.6752-2.7699-4.7976-1.1197-10.957 3.6777-13.727 4.8008-2.7717 10.96-1.1211 13.73 3.6767 2.7689 4.7964 1.1174 10.954-3.6831 13.725z"/>
        </g>
        <circle id="zodiac-track" cx="300" cy="300" r="230.76" fill="#f9f9f9" stroke="#ccc" stroke-width="1.8898"/>
        <circle id="zodiac-inner-track" cx="302" cy="300" r="183" fill="#f2f2f2" stroke="#fff" stroke-linecap="round" stroke-linejoin="round" stroke-miterlimit="2.9" stroke-width="2"/>
    </g>
    <g id="main">
        <g class="houses">
            <g class="house house-1 label" transform="matrix(.85887 0 0 .85327 34.032 3.7076)" fill="#e6e6e6" opacity=".5">
                <path d="m310.7 113.03q0 1.3086 0.0781 1.9141 0.0977 0.60547 0.29297 0.95703 0.21484 0.35156 0.60547 0.58594 0.41016 0.23437 1.3086 0.46875v0.95703h-8.2422v-0.95703q1.2109-0.3125 1.6211-0.6836 0.41016-0.39062 0.52734-1.0938 0.13672-0.70312 0.13672-2.1484v-16.895q0-1.3477-0.0976-1.9531-0.0977-0.625-0.33204-0.95703-0.21484-0.35156-0.58593-0.54688-0.3711-0.21484-1.2695-0.46875v-0.95703h8.2422v0.95703q-0.85937 0.21484-1.25 0.42969-0.37109 0.21484-0.60547 0.54688-0.21484 0.3125-0.33203 0.95703-0.0976 0.64453-0.0976 1.9922v16.895z" fill="#e6e6e6" style=""/>
            </g>
            <g class="house house-2 label" transform="matrix(.85887 0 0 .85327 40.809 5.3486)" fill="#e6e6e6" opacity=".5">
                <path d="m296.32 111.11q0 1.3086 0.0781 1.9141 0.0977 0.60547 0.29296 0.95703 0.21485 0.35156 0.60547 0.58594 0.41016 0.23437 1.3086 0.46875v0.95703h-8.2422v-0.95703q1.2109-0.3125 1.6211-0.68359 0.41016-0.39063 0.52735-1.0938 0.13672-0.70313 0.13672-2.1484v-16.895q0-1.3477-0.0977-1.9531-0.0977-0.625-0.33203-0.95703-0.21485-0.35156-0.58594-0.54688-0.37109-0.21484-1.2695-0.46875v-0.95703h8.2422v0.95703q-0.85938 0.21484-1.25 0.42969-0.3711 0.21484-0.60547 0.54688-0.21485 0.3125-0.33203 0.95703-0.0977 0.64453-0.0977 1.9922v16.895z" style=""/>
                <path d="m309.29 111.11q0 1.3086 0.0781 1.9141 0.0977 0.60547 0.29296 0.95703 0.21485 0.35156 0.60547 0.58594 0.41016 0.23437 1.3086 0.46875v0.95703h-8.2422v-0.95703q1.2109-0.3125 1.6211-0.68359 0.41016-0.39063 0.52735-1.0938 0.13672-0.70313 0.13672-2.1484v-16.895q0-1.3477-0.0977-1.9531-0.0977-0.625-0.33203-0.95703-0.21485-0.35156-0.58594-0.54688-0.37109-0.21484-1.2695-0.46875v-0.95703h8.2422v0.95703q-0.85938 0.21484-1.25 0.42969-0.3711 0.21484-0.60547 0.54688-0.21485 0.3125-0.33203 0.95703-0.0977 0.64453-0.0977 1.9922v16.895z" style=""/>
            </g>
            <g class="house house-3 label" transform="matrix(.85887 0 0 .85327 40.073 5.7292)" fill="#e6e6e6" opacity=".5">
                <path d="m290.69 110.66q0 1.3086 0.0781 1.9141 0.0977 0.60547 0.29297 0.95703 0.21484 0.35156 0.60547 0.58594 0.41015 0.23437 1.3086 0.46875v0.95703h-8.2422v-0.95703q1.2109-0.3125 1.6211-0.6836 0.41015-0.39062 0.52734-1.0938 0.13672-0.70312 0.13672-2.1484v-16.895q0-1.3477-0.0977-1.9531-0.0977-0.625-0.33203-0.95703-0.21484-0.35156-0.58593-0.54688-0.3711-0.21484-1.2695-0.46875v-0.95703h8.2422v0.95703q-0.85937 0.21484-1.25 0.42969-0.37109 0.21484-0.60547 0.54688-0.21484 0.3125-0.33203 0.95703-0.0977 0.64453-0.0977 1.9922v16.895z" style=""/>
                <path d="m303.66 110.66q0 1.3086 0.0781 1.9141 0.0977 0.60547 0.29297 0.95703 0.21484 0.35156 0.60547 0.58594 0.41015 0.23437 1.3086 0.46875v0.95703h-8.2422v-0.95703q1.2109-0.3125 1.6211-0.6836 0.41015-0.39062 0.52734-1.0938 0.13672-0.70312 0.13672-2.1484v-16.895q0-1.3477-0.0977-1.9531-0.0977-0.625-0.33203-0.95703-0.21484-0.35156-0.58593-0.54688-0.3711-0.21484-1.2695-0.46875v-0.95703h8.2422v0.95703q-0.85937 0.21484-1.25 0.42969-0.37109 0.21484-0.60547 0.54688-0.21484 0.3125-0.33203 0.95703-0.0977 0.64453-0.0977 1.9922v16.895z" style=""/>
                <path d="m316.63 110.66q0 1.3086 0.0781 1.9141 0.0977 0.60547 0.29297 0.95703 0.21484 0.35156 0.60547 0.58594 0.41015 0.23437 1.3086 0.46875v0.95703h-8.2422v-0.95703q1.2109-0.3125 1.6211-0.6836 0.41015-0.39062 0.52734-1.0938 0.13672-0.70312 0.13672-2.1484v-16.895q0-1.3477-0.0977-1.9531-0.0977-0.625-0.33203-0.95703-0.21484-0.35156-0.58593-0.54688-0.3711-0.21484-1.2695-0.46875v-0.95703h8.2422v0.95703q-0.85937 0.21484-1.25 0.42969-0.37109 0.21484-0.60547 0.54688-0.21484 0.3125-0.33203 0.95703-0.0977 0.64453-0.0977 1.9922v16.895z" style=""/>
            </g>
            <g class="house house-4 label" transform="matrix(.85887 0 0 .85327 39.275 5.2069)" fill="#e6e6e6" opacity=".5">
                <path d="m291.33 111.12q0 1.3086 0.0781 1.9141 0.0977 0.60547 0.29297 0.95703 0.21484 0.35156 0.60547 0.58594 0.41015 0.23437 1.3086 0.46875v0.95703h-8.2422v-0.95703q1.2109-0.3125 1.6211-0.6836 0.41015-0.39062 0.52734-1.0938 0.13672-0.70312 0.13672-2.1484v-16.895q0-1.3477-0.0977-1.9531-0.0977-0.625-0.33203-0.95703-0.21484-0.35156-0.58594-0.54688-0.37109-0.21484-1.2695-0.46875v-0.95703h8.2422v0.95703q-0.85937 0.21484-1.25 0.42969-0.37109 0.21484-0.60547 0.54688-0.21484 0.3125-0.33203 0.95703-0.0977 0.64453-0.0977 1.9922v16.895z" style=""/>
                <path d="m305.24 89.34v0.95703q-0.89843 0.15625-1.3672 0.39062t-0.70313 0.66406q-0.23437 0.42969-0.23437 1.1523 0 0.66406 0.15625 1.4453 0.15625 0.76172 0.44922 1.7188l4.5703 15.938 5.6055-16.055q0.11718-0.37109 0.23437-0.78125t0.19531-0.80078q0.0977-0.39062 0.11719-0.68359 0.0391-0.29297 0.0391-0.54688 0-1.1719-0.54687-1.6992-0.52734-0.54688-1.8164-0.74219v-0.95703h8.2031v0.95703q-0.80078 0.19531-1.2891 0.56641-0.48829 0.37109-0.97657 1.1914-0.46875 0.82031-1.1523 2.6172l-8.1055 21.641h-2.5586l-6.582-21.777q-0.52735-1.7773-0.91797-2.5195-0.39063-0.76172-0.85938-1.1328-0.46875-0.39062-1.2891-0.58594v-0.95703h8.8281z" style=""/>
            </g>
            <g class="house house-5 label" transform="matrix(.85887 0 0 .85327 38.582 5.0236)" fill="#e6e6e6" opacity=".5">
                <path d="m300.53 89.555v0.95703q-0.89844 0.15625-1.3672 0.39062t-0.70313 0.66406-0.23437 1.1523q0 0.66406 0.15625 1.4453 0.15625 0.76172 0.44922 1.7188l4.5703 15.937 5.6055-16.055q0.11719-0.37109 0.23437-0.78125 0.11719-0.41016 0.19532-0.80078 0.0976-0.39062 0.11718-0.68359 0.0391-0.29297 0.0391-0.54688 0-1.1719-0.54688-1.6992-0.52734-0.54688-1.8164-0.74219v-0.95703h8.2031v0.95703q-0.80078 0.19531-1.2891 0.56641t-0.97656 1.1914q-0.46875 0.82031-1.1524 2.6172l-8.1055 21.641h-2.5586l-6.582-21.777q-0.52735-1.7773-0.91797-2.5195-0.39063-0.76172-0.85938-1.1328-0.46875-0.39062-1.2891-0.58594v-0.95703h8.8281z" fill="#e6e6e6" style=""/>
            </g>
            <g class="house house-6 label" transform="matrix(.85887 0 0 .85327 38.769 4.2906)" fill="#e6e6e6" opacity=".5">
                <path d="m295.02 90.414v0.95703q-0.89844 0.15625-1.3672 0.39062t-0.70312 0.66406q-0.23438 0.42969-0.23438 1.1523 0 0.66406 0.15625 1.4453 0.15625 0.76172 0.44922 1.7188l4.5703 15.938 5.6055-16.055q0.11719-0.37109 0.23438-0.78125 0.11718-0.41016 0.19531-0.80078 0.0977-0.39062 0.11719-0.68359 0.0391-0.29297 0.0391-0.54688 0-1.1719-0.54688-1.6992-0.52734-0.54688-1.8164-0.74219v-0.95703h8.2031v0.95703q-0.80078 0.19531-1.2891 0.56641t-0.97656 1.1914q-0.46875 0.82031-1.1524 2.6172l-8.1055 21.641h-2.5586l-6.582-21.777q-0.52734-1.7773-0.91797-2.5195-0.39062-0.76172-0.85937-1.1328-0.46875-0.39062-1.2891-0.58594v-0.95703h8.8281z" style=""/>
                <path d="m318.22 112.19q0 1.3086 0.0781 1.9141 0.0977 0.60547 0.29297 0.95703 0.21484 0.35156 0.60547 0.58594 0.41015 0.23437 1.3086 0.46875v0.95703h-8.2422v-0.95703q1.2109-0.3125 1.6211-0.6836 0.41015-0.39062 0.52734-1.0938 0.13672-0.70312 0.13672-2.1484v-16.895q0-1.3477-0.0977-1.9531-0.0976-0.625-0.33203-0.95703-0.21484-0.35156-0.58594-0.54688-0.37109-0.21484-1.2695-0.46875v-0.95703h8.2422v0.95703q-0.85938 0.21484-1.25 0.42969-0.37109 0.21484-0.60547 0.54688-0.21484 0.3125-0.33203 0.95703-0.0977 0.64453-0.0977 1.9922v16.895z" style=""/>
            </g>
            <g class="house house-7 label" transform="matrix(.85887 0 0 .85327 38.114 3.77)" fill="#e6e6e6" opacity=".5">
                <path d="m289.29 91.024v0.95703q-0.89844 0.15625-1.3672 0.39062t-0.70313 0.66406-0.23437 1.1523q0 0.66406 0.15625 1.4453 0.15625 0.76172 0.44922 1.7188l4.5703 15.937 5.6055-16.055q0.11719-0.37109 0.23437-0.78125 0.11719-0.41016 0.19532-0.80078 0.0976-0.39062 0.11718-0.68359 0.0391-0.29297 0.0391-0.54688 0-1.1719-0.54688-1.6992-0.52734-0.54688-1.8164-0.74219v-0.95703h8.2031v0.95703q-0.80078 0.19531-1.2891 0.56641t-0.97656 1.1914q-0.46875 0.82031-1.1524 2.6172l-8.1055 21.641h-2.5586l-6.582-21.777q-0.52735-1.7773-0.91797-2.5195-0.39063-0.76172-0.85938-1.1328-0.46875-0.39062-1.2891-0.58594v-0.95703h8.8281z" style=""/>
                <path d="m312.5 112.8q0 1.3086 0.0781 1.9141 0.0976 0.60547 0.29297 0.95703 0.21484 0.35157 0.60546 0.58594 0.41016 0.23438 1.3086 0.46875v0.95703h-8.2422v-0.95703q1.2109-0.3125 1.6211-0.68359 0.41016-0.39063 0.52735-1.0938 0.13672-0.70313 0.13672-2.1484v-16.895q0-1.3477-0.0977-1.9531-0.0977-0.625-0.33203-0.95703-0.21484-0.35156-0.58594-0.54688-0.37109-0.21484-1.2695-0.46875v-0.95703h8.2422v0.95703q-0.85938 0.21484-1.25 0.42969-0.3711 0.21484-0.60547 0.54688-0.21484 0.3125-0.33203 0.95703-0.0977 0.64453-0.0977 1.9922v16.895z" style=""/>
                <path d="m325.46 112.8q0 1.3086 0.0781 1.9141 0.0976 0.60547 0.29297 0.95703 0.21484 0.35157 0.60546 0.58594 0.41016 0.23438 1.3086 0.46875v0.95703h-8.2422v-0.95703q1.2109-0.3125 1.6211-0.68359 0.41016-0.39063 0.52735-1.0938 0.13672-0.70313 0.13672-2.1484v-16.895q0-1.3477-0.0977-1.9531-0.0977-0.625-0.33203-0.95703-0.21484-0.35156-0.58594-0.54688-0.37109-0.21484-1.2695-0.46875v-0.95703h8.2422v0.95703q-0.85938 0.21484-1.25 0.42969-0.3711 0.21484-0.60547 0.54688-0.21484 0.3125-0.33203 0.95703-0.0977 0.64453-0.0977 1.9922v16.895z" style=""/>
            </g>
            <g class="house house-8 label" transform="matrix(.85887 0 0 .85327 37.077 3.5509)" fill="#e6e6e6" opacity=".5">
                <path d="m284.02 91.281v0.95703q-0.89844 0.15625-1.3672 0.39062t-0.70312 0.66406q-0.23438 0.42969-0.23438 1.1523 0 0.66406 0.15625 1.4453 0.15625 0.76172 0.44922 1.7188l4.5703 15.938 5.6055-16.055q0.11719-0.37109 0.23438-0.78125t0.19531-0.80078q0.0977-0.39062 0.11719-0.68359 0.0391-0.29297 0.0391-0.54688 0-1.1719-0.54687-1.6992-0.52735-0.54688-1.8164-0.74219v-0.95703h8.2031v0.95703q-0.80079 0.19531-1.2891 0.56641-0.48828 0.37109-0.97656 1.1914-0.46875 0.82031-1.1523 2.6172l-8.1055 21.641h-2.5586l-6.582-21.777q-0.52734-1.7773-0.91797-2.5195-0.39062-0.76172-0.85937-1.1328-0.46875-0.39062-1.2891-0.58594v-0.95703h8.8281z" style=""/>
                <path d="m307.22 113.06q0 1.3086 0.0781 1.9141 0.0977 0.60547 0.29297 0.95703 0.21484 0.35156 0.60547 0.58594 0.41016 0.23437 1.3086 0.46875v0.95703h-8.2422v-0.95703q1.2109-0.3125 1.6211-0.6836 0.41016-0.39062 0.52734-1.0938 0.13672-0.70312 0.13672-2.1484v-16.895q0-1.3477-0.0976-1.9531-0.0977-0.625-0.33204-0.95703-0.21484-0.35156-0.58593-0.54688-0.3711-0.21484-1.2695-0.46875v-0.95703h8.2422v0.95703q-0.85937 0.21484-1.25 0.42969-0.37109 0.21484-0.60547 0.54688-0.21484 0.3125-0.33203 0.95703-0.0976 0.64453-0.0976 1.9922v16.895z" style=""/>
                <path d="m320.19 113.06q0 1.3086 0.0781 1.9141 0.0977 0.60547 0.29297 0.95703 0.21484 0.35156 0.60547 0.58594 0.41016 0.23437 1.3086 0.46875v0.95703h-8.2422v-0.95703q1.2109-0.3125 1.6211-0.6836 0.41016-0.39062 0.52734-1.0938 0.13672-0.70312 0.13672-2.1484v-16.895q0-1.3477-0.0976-1.9531-0.0977-0.625-0.33204-0.95703-0.21484-0.35156-0.58593-0.54688-0.3711-0.21484-1.2695-0.46875v-0.95703h8.2422v0.95703q-0.85937 0.21484-1.25 0.42969-0.37109 0.21484-0.60547 0.54688-0.21484 0.3125-0.33203 0.95703-0.0976 0.64453-0.0976 1.9922v16.895z" style=""/>
                <path d="m333.16 113.06q0 1.3086 0.0781 1.9141 0.0977 0.60547 0.29297 0.95703 0.21484 0.35156 0.60547 0.58594 0.41016 0.23437 1.3086 0.46875v0.95703h-8.2422v-0.95703q1.2109-0.3125 1.6211-0.6836 0.41016-0.39062 0.52734-1.0938 0.13672-0.70312 0.13672-2.1484v-16.895q0-1.3477-0.0976-1.9531-0.0977-0.625-0.33204-0.95703-0.21484-0.35156-0.58593-0.54688-0.3711-0.21484-1.2695-0.46875v-0.95703h8.2422v0.95703q-0.85937 0.21484-1.25 0.42969-0.37109 0.21484-0.60547 0.54688-0.21484 0.3125-0.33203 0.95703-0.0976 0.64453-0.0976 1.9922v16.895z" style=""/>
            </g>
            <g class="house house-9 label" transform="matrix(.85887 0 0 .85327 37.042 4.7065)" fill="#e6e6e6" opacity=".5">
                <path d="m294.79 111.86q0 1.3086 0.0781 1.9141 0.0977 0.60547 0.29297 0.95703 0.21485 0.35156 0.60547 0.58594 0.41016 0.23437 1.3086 0.46875v0.95703h-8.2422v-0.95703q1.2109-0.3125 1.6211-0.68359 0.41016-0.39063 0.52734-1.0938 0.13672-0.70313 0.13672-2.1484v-16.895q0-1.3477-0.0977-1.9531-0.0977-0.625-0.33203-0.95703-0.21485-0.35156-0.58594-0.54688-0.3711-0.21484-1.2695-0.46875v-0.95703h8.2422v0.95703q-0.85937 0.21484-1.25 0.42969-0.37109 0.21484-0.60546 0.54688-0.21485 0.3125-0.33204 0.95703-0.0976 0.64453-0.0976 1.9922v16.895z" style=""/>
                <path d="m308.83 90.082v0.95703q-0.9375 0.13672-1.3477 0.50781-0.41016 0.37109-0.41016 1.0156 0 0.54688 0.3711 1.3672 0.37109 0.82031 1.0547 1.9531l2.832 4.7461 2.793-4.5117q0.625-1.0156 0.9375-1.6211 0.3125-0.60547 0.42968-1.0156 0.13672-0.41016 0.13672-0.83984 0-0.60547-0.35156-1.0156-0.35156-0.42969-1.1719-0.58594v-0.95703h7.2461v0.95703q-0.72266 0.23438-1.3086 0.68359-0.5664 0.44922-1.2305 1.3086-0.64454 0.85938-1.8555 2.7148l-4.4141 6.8359 4.9609 8.1641q1.0547 1.7383 1.5039 2.4414 0.46875 0.6836 0.85937 1.1719 0.41016 0.46875 0.85938 0.82031 0.46875 0.35156 1.1523 0.60547v0.95703h-8.5742v-0.95703q0.89844-0.15625 1.3281-0.48828 0.42969-0.35156 0.42969-1.0352 0-0.54687-0.29297-1.2109-0.27344-0.66406-0.85938-1.6406l-3.5352-5.8984-3.7305 6.1133q-0.9375 1.543-0.9375 2.5391 0 0.64453 0.35156 1.0547 0.35156 0.41016 1.1719 0.56641v0.95703h-7.3828v-0.95703q0.72266-0.21484 1.1914-0.50781 0.46875-0.3125 0.89844-0.78125 0.42968-0.46875 0.95703-1.1914 0.52734-0.72266 1.6797-2.5195l4.6094-7.1875-5.5078-9.0625q-0.78125-1.25-1.1914-1.8164-0.39062-0.56641-0.74219-0.91797-0.33203-0.35156-0.60547-0.48828-0.27343-0.15625-0.625-0.27344v-0.95703h8.3203z" style=""/>
            </g>
            <g class="house house-10 label" transform="matrix(.85887 0 0 .85327 42.828 5.6723)" fill="#e6e6e6" opacity=".5">
                <path d="m296.59 88.951v0.95703q-0.9375 0.13672-1.3476 0.50781-0.41016 0.37109-0.41016 1.0156 0 0.54688 0.37109 1.3672 0.3711 0.82031 1.0547 1.9531l2.832 4.7461 2.793-4.5117q0.625-1.0156 0.9375-1.6211t0.42969-1.0156q0.13672-0.41016 0.13672-0.83984 0-0.60547-0.35157-1.0156-0.35156-0.42969-1.1719-0.58594v-0.95703h7.2461v0.95703q-0.72265 0.23438-1.3086 0.68359-0.56641 0.44922-1.2305 1.3086-0.64453 0.85938-1.8555 2.7148l-4.4141 6.8359 4.9609 8.1641q1.0547 1.7383 1.5039 2.4414 0.46875 0.6836 0.85938 1.1719 0.41015 0.46875 0.85937 0.82031 0.46875 0.35156 1.1524 0.60547v0.95703h-8.5742v-0.95703q0.89844-0.15625 1.3281-0.48828 0.42969-0.35157 0.42969-1.0352 0-0.54687-0.29297-1.2109-0.27344-0.66406-0.85937-1.6406l-3.5352-5.8984-3.7305 6.1133q-0.9375 1.543-0.9375 2.5391 0 0.64454 0.35156 1.0547 0.35157 0.41016 1.1719 0.56641v0.95703h-7.3828v-0.95703q0.72265-0.21485 1.1914-0.50781 0.46875-0.3125 0.89844-0.78125t0.95703-1.1914q0.52735-0.72266 1.6797-2.5195l4.6094-7.1875-5.5078-9.0625q-0.78125-1.25-1.1914-1.8164-0.39063-0.56641-0.74219-0.91797-0.33203-0.35156-0.60547-0.48828-0.27344-0.15625-0.625-0.27344v-0.95703h8.3203z" fill="#e6e6e6" style=""/>
            </g>
            <g class="house house-11 label" transform="matrix(.85887 0 0 .85327 43.021 4.5886)" fill="#e6e6e6" opacity=".5">
                <path d="m290.84 90.221v0.95703q-0.9375 0.13672-1.3477 0.50781-0.41016 0.37109-0.41016 1.0156 0 0.54688 0.3711 1.3672 0.37109 0.82031 1.0547 1.9531l2.832 4.7461 2.793-4.5117q0.625-1.0156 0.9375-1.6211 0.3125-0.60547 0.42968-1.0156 0.13672-0.41016 0.13672-0.83984 0-0.60547-0.35156-1.0156-0.35156-0.42969-1.1719-0.58594v-0.95703h7.2461v0.95703q-0.72266 0.23438-1.3086 0.68359-0.5664 0.44922-1.2305 1.3086-0.64454 0.85938-1.8555 2.7148l-4.4141 6.8359 4.9609 8.1641q1.0547 1.7383 1.5039 2.4414 0.46875 0.68359 0.85937 1.1719 0.41016 0.46875 0.85938 0.82031 0.46875 0.35157 1.1523 0.60547v0.95703h-8.5742v-0.95703q0.89844-0.15625 1.3281-0.48828 0.42969-0.35156 0.42969-1.0352 0-0.54687-0.29297-1.2109-0.27344-0.66407-0.85938-1.6406l-3.5352-5.8984-3.7305 6.1133q-0.9375 1.543-0.9375 2.5391 0 0.64453 0.35156 1.0547 0.35156 0.41015 1.1719 0.5664v0.95703h-7.3828v-0.95703q0.72266-0.21484 1.1914-0.50781 0.46875-0.3125 0.89844-0.78125 0.42968-0.46875 0.95703-1.1914 0.52734-0.72265 1.6797-2.5195l4.6094-7.1875-5.5078-9.0625q-0.78125-1.25-1.1914-1.8164-0.39062-0.56641-0.74219-0.91797-0.33203-0.35156-0.60547-0.48828-0.27343-0.15625-0.625-0.27344v-0.95703h8.3203z" style=""/>
                <path d="m312.65 112q0 1.3086 0.0781 1.9141 0.0977 0.60547 0.29297 0.95703 0.21484 0.35157 0.60547 0.58594 0.41015 0.23438 1.3086 0.46875v0.95703h-8.2422v-0.95703q1.2109-0.3125 1.6211-0.68359 0.41015-0.39063 0.52734-1.0938 0.13672-0.70313 0.13672-2.1484v-16.895q0-1.3477-0.0977-1.9531-0.0976-0.625-0.33203-0.95703-0.21484-0.35156-0.58594-0.54688-0.37109-0.21484-1.2695-0.46875v-0.95703h8.2422v0.95703q-0.85938 0.21484-1.25 0.42969-0.37109 0.21484-0.60547 0.54688-0.21484 0.3125-0.33203 0.95703-0.0977 0.64453-0.0977 1.9922v16.895z" style=""/>
            </g>
            <g class="house house-12 label" transform="matrix(.85887 0 0 .85327 42.222 3.6186)" fill="#e6e6e6" opacity=".5">
                <path d="m285.28 91.357v0.95703q-0.9375 0.13672-1.3477 0.50781t-0.41016 1.0156q0 0.54688 0.3711 1.3672 0.37109 0.82031 1.0547 1.9531l2.832 4.7461 2.793-4.5117q0.625-1.0156 0.9375-1.6211 0.3125-0.60547 0.42968-1.0156 0.13672-0.41016 0.13672-0.83984 0-0.60547-0.35156-1.0156-0.35156-0.42969-1.1719-0.58594v-0.95703h7.2461v0.95703q-0.72266 0.23438-1.3086 0.68359-0.5664 0.44922-1.2305 1.3086-0.64454 0.85938-1.8555 2.7148l-4.4141 6.8359 4.9609 8.1641q1.0547 1.7383 1.5039 2.4414 0.46875 0.68359 0.85937 1.1719 0.41016 0.46875 0.85938 0.82031 0.46875 0.35157 1.1523 0.60547v0.95703h-8.5742v-0.95703q0.89844-0.15625 1.3281-0.48828 0.42969-0.35156 0.42969-1.0352 0-0.54687-0.29297-1.2109-0.27344-0.66407-0.85938-1.6406l-3.5352-5.8984-3.7305 6.1133q-0.9375 1.543-0.9375 2.5391 0 0.64453 0.35156 1.0547 0.35156 0.41015 1.1719 0.5664v0.95703h-7.3828v-0.95703q0.72266-0.21484 1.1914-0.50781 0.46875-0.3125 0.89844-0.78125 0.42968-0.46875 0.95703-1.1914 0.52734-0.72265 1.6797-2.5195l4.6094-7.1875-5.5078-9.0625q-0.78125-1.25-1.1914-1.8164-0.39062-0.56641-0.74219-0.91797-0.33203-0.35156-0.60547-0.48828-0.27343-0.15625-0.625-0.27344v-0.95703h8.3203z" style=""/>
                <path d="m307.1 113.13q0 1.3086 0.0781 1.9141 0.0976 0.60547 0.29297 0.95703 0.21484 0.35157 0.60547 0.58594 0.41015 0.23438 1.3086 0.46875v0.95703h-8.2422v-0.95703q1.2109-0.3125 1.6211-0.68359 0.41015-0.39063 0.52734-1.0938 0.13672-0.70313 0.13672-2.1484v-16.895q0-1.3477-0.0977-1.9531-0.0976-0.625-0.33203-0.95703-0.21484-0.35156-0.58594-0.54688-0.37109-0.21484-1.2695-0.46875v-0.95703h8.2422v0.95703q-0.85938 0.21484-1.25 0.42969-0.37109 0.21484-0.60547 0.54688-0.21484 0.3125-0.33203 0.95703-0.0977 0.64453-0.0977 1.9922v16.895z" style=""/>
                <path d="m320.07 113.13q0 1.3086 0.0781 1.9141 0.0976 0.60547 0.29297 0.95703 0.21484 0.35157 0.60547 0.58594 0.41015 0.23438 1.3086 0.46875v0.95703h-8.2422v-0.95703q1.2109-0.3125 1.6211-0.68359 0.41015-0.39063 0.52734-1.0938 0.13672-0.70313 0.13672-2.1484v-16.895q0-1.3477-0.0977-1.9531-0.0976-0.625-0.33203-0.95703-0.21484-0.35156-0.58594-0.54688-0.37109-0.21484-1.2695-0.46875v-0.95703h8.2422v0.95703q-0.85938 0.21484-1.25 0.42969-0.37109 0.21484-0.60547 0.54688-0.21484 0.3125-0.33203 0.95703-0.0977 0.64453-0.0977 1.9922v16.895z" style=""/>
            </g>
            <path class="house house-1 start-divider" transform="rotate(0,300,300)" d="m60 300h240" fill="none" stroke="#f00" stroke-width="4"/>
            <path class="house house-2 start-divider" transform="rotate(-30,300,300)" d="m60 300h240" fill="none" stroke="#cf0" stroke-width="2"/>
            <path class="house house-3 start-divider" transform="rotate(-60,300,300)" d="m60 300h240" fill="none" stroke="#6f0" stroke-width="2"/>
            <path class="house house-4 start-divider" transform="rotate(-90,300,300)" d="m60 300h240" fill="none" stroke="#5fd35f" stroke-width="4"/>
            <path class="house house-5 start-divider" transform="rotate(240 300 300)" d="m60 300h240" fill="none" stroke="#00d4aa" stroke-width="2"/>
            <path class="house house-6 start-divider" transform="rotate(210 300 300)" d="m60 300h240" fill="none" stroke="#0cf" stroke-width="2"/>
            <path class="house house-7 start-divider" transform="rotate(180 300 300)" d="m60 300h240" fill="none" stroke="#2a7fff" stroke-width="4"/>
            <path class="house house-8 start-divider" transform="rotate(150 300 300)" d="m60 300h240" fill="none" stroke="#0000d4" stroke-width="2"/>
            <path class="house house-9 start-divider" transform="rotate(120 300 300)" d="m60 300h240" fill="none" stroke="#8d5fd3" stroke-width="2"/>
            <path class="house house-10 start-divider" transform="rotate(90 300 300)" d="m60 300h240" fill="none" stroke="#c0f" stroke-width="4"/>
            <path class="house house-11 start-divider" transform="rotate(60 300 300)" d="m60 300h240" fill="#f0c" stroke="#f0c" stroke-width="2"/>
            <path class="house house-12 start-divider" transform="rotate(30 300 300)" d="m60 300h240" fill="none" stroke="#f06" stroke-width="2"/>
        </g>
    </g>
    <g id="synastry">
        <g class="houses">
            <g class="house house-1 label" transform="matrix(.74498 0 0 .74012 69.209 63.541)" fill="#e6e6e6" opacity=".6" stroke-width="1.1529">
                <path d="m310.7 113.03q0 1.3086 0.0781 1.9141 0.0977 0.60547 0.29297 0.95703 0.21484 0.35156 0.60547 0.58594 0.41016 0.23437 1.3086 0.46875v0.95703h-8.2422v-0.95703q1.2109-0.3125 1.6211-0.6836 0.41016-0.39062 0.52734-1.0938 0.13672-0.70312 0.13672-2.1484v-16.895q0-1.3477-0.0976-1.9531-0.0977-0.625-0.33204-0.95703-0.21484-0.35156-0.58593-0.54688-0.3711-0.21484-1.2695-0.46875v-0.95703h8.2422v0.95703q-0.85937 0.21484-1.25 0.42969-0.37109 0.21484-0.60547 0.54688-0.21484 0.3125-0.33203 0.95703-0.0976 0.64453-0.0976 1.9922v16.895z" fill="#e6e6e6" stroke-width="1.1529"/>
            </g>
            <g class="house house-2 label" transform="matrix(.74498 0 0 .74012 75.087 64.965)" fill="#e6e6e6" opacity=".6" stroke-width="1.3291">
                <path d="m296.32 111.11q0 1.3086 0.0781 1.9141 0.0977 0.60547 0.29296 0.95703 0.21485 0.35156 0.60547 0.58594 0.41016 0.23437 1.3086 0.46875v0.95703h-8.2422v-0.95703q1.2109-0.3125 1.6211-0.68359 0.41016-0.39063 0.52735-1.0938 0.13672-0.70313 0.13672-2.1484v-16.895q0-1.3477-0.0977-1.9531-0.0977-0.625-0.33203-0.95703-0.21485-0.35156-0.58594-0.54688-0.37109-0.21484-1.2695-0.46875v-0.95703h8.2422v0.95703q-0.85938 0.21484-1.25 0.42969-0.3711 0.21484-0.60547 0.54688-0.21485 0.3125-0.33203 0.95703-0.0977 0.64453-0.0977 1.9922v16.895z"/>
                <path d="m309.29 111.11q0 1.3086 0.0781 1.9141 0.0977 0.60547 0.29296 0.95703 0.21485 0.35156 0.60547 0.58594 0.41016 0.23437 1.3086 0.46875v0.95703h-8.2422v-0.95703q1.2109-0.3125 1.6211-0.68359 0.41016-0.39063 0.52735-1.0938 0.13672-0.70313 0.13672-2.1484v-16.895q0-1.3477-0.0977-1.9531-0.0977-0.625-0.33203-0.95703-0.21485-0.35156-0.58594-0.54688-0.37109-0.21484-1.2695-0.46875v-0.95703h8.2422v0.95703q-0.85938 0.21484-1.25 0.42969-0.3711 0.21484-0.60547 0.54688-0.21485 0.3125-0.33203 0.95703-0.0977 0.64453-0.0977 1.9922v16.895z"/>
            </g>
            <g class="house house-3 label" transform="matrix(.74498 0 0 .74012 74.449 65.294)" fill="#e6e6e6" opacity=".6" stroke-width="1.3291">
                <path d="m290.69 110.66q0 1.3086 0.0781 1.9141 0.0977 0.60547 0.29297 0.95703 0.21484 0.35156 0.60547 0.58594 0.41015 0.23437 1.3086 0.46875v0.95703h-8.2422v-0.95703q1.2109-0.3125 1.6211-0.6836 0.41015-0.39062 0.52734-1.0938 0.13672-0.70312 0.13672-2.1484v-16.895q0-1.3477-0.0977-1.9531-0.0977-0.625-0.33203-0.95703-0.21484-0.35156-0.58593-0.54688-0.3711-0.21484-1.2695-0.46875v-0.95703h8.2422v0.95703q-0.85937 0.21484-1.25 0.42969-0.37109 0.21484-0.60547 0.54688-0.21484 0.3125-0.33203 0.95703-0.0977 0.64453-0.0977 1.9922v16.895z"/>
                <path d="m303.66 110.66q0 1.3086 0.0781 1.9141 0.0977 0.60547 0.29297 0.95703 0.21484 0.35156 0.60547 0.58594 0.41015 0.23437 1.3086 0.46875v0.95703h-8.2422v-0.95703q1.2109-0.3125 1.6211-0.6836 0.41015-0.39062 0.52734-1.0938 0.13672-0.70312 0.13672-2.1484v-16.895q0-1.3477-0.0977-1.9531-0.0977-0.625-0.33203-0.95703-0.21484-0.35156-0.58593-0.54688-0.3711-0.21484-1.2695-0.46875v-0.95703h8.2422v0.95703q-0.85937 0.21484-1.25 0.42969-0.37109 0.21484-0.60547 0.54688-0.21484 0.3125-0.33203 0.95703-0.0977 0.64453-0.0977 1.9922v16.895z"/>
                <path d="m316.63 110.66q0 1.3086 0.0781 1.9141 0.0977 0.60547 0.29297 0.95703 0.21484 0.35156 0.60547 0.58594 0.41015 0.23437 1.3086 0.46875v0.95703h-8.2422v-0.95703q1.2109-0.3125 1.6211-0.6836 0.41015-0.39062 0.52734-1.0938 0.13672-0.70312 0.13672-2.1484v-16.895q0-1.3477-0.0977-1.9531-0.0977-0.625-0.33203-0.95703-0.21484-0.35156-0.58593-0.54688-0.3711-0.21484-1.2695-0.46875v-0.95703h8.2422v0.95703q-0.85937 0.21484-1.25 0.42969-0.37109 0.21484-0.60547 0.54688-0.21484 0.3125-0.33203 0.95703-0.0977 0.64453-0.0977 1.9922v16.895z"/>
            </g>
            <g class="house house-4 label" transform="matrix(.74498 0 0 .74012 73.757 64.842)" fill="#e6e6e6" opacity=".6" stroke-width="1.3291">
                <path d="m291.33 111.12q0 1.3086 0.0781 1.9141 0.0977 0.60547 0.29297 0.95703 0.21484 0.35156 0.60547 0.58594 0.41015 0.23437 1.3086 0.46875v0.95703h-8.2422v-0.95703q1.2109-0.3125 1.6211-0.6836 0.41015-0.39062 0.52734-1.0938 0.13672-0.70312 0.13672-2.1484v-16.895q0-1.3477-0.0977-1.9531-0.0977-0.625-0.33203-0.95703-0.21484-0.35156-0.58594-0.54688-0.37109-0.21484-1.2695-0.46875v-0.95703h8.2422v0.95703q-0.85937 0.21484-1.25 0.42969-0.37109 0.21484-0.60547 0.54688-0.21484 0.3125-0.33203 0.95703-0.0977 0.64453-0.0977 1.9922v16.895z"/>
                <path d="m305.24 89.34v0.95703q-0.89843 0.15625-1.3672 0.39062t-0.70313 0.66406q-0.23437 0.42969-0.23437 1.1523 0 0.66406 0.15625 1.4453 0.15625 0.76172 0.44922 1.7188l4.5703 15.938 5.6055-16.055q0.11718-0.37109 0.23437-0.78125t0.19531-0.80078q0.0977-0.39062 0.11719-0.68359 0.0391-0.29297 0.0391-0.54688 0-1.1719-0.54687-1.6992-0.52734-0.54688-1.8164-0.74219v-0.95703h8.2031v0.95703q-0.80078 0.19531-1.2891 0.56641-0.48829 0.37109-0.97657 1.1914-0.46875 0.82031-1.1523 2.6172l-8.1055 21.641h-2.5586l-6.582-21.777q-0.52735-1.7773-0.91797-2.5195-0.39063-0.76172-0.85938-1.1328-0.46875-0.39062-1.2891-0.58594v-0.95703h8.8281z"/>
            </g>
            <g class="house house-5 label" transform="matrix(.74498 0 0 .74012 73.156 64.683)" fill="#e6e6e6" opacity=".6" stroke-width="1.1529">
                <path d="m300.53 89.555v0.95703q-0.89844 0.15625-1.3672 0.39062t-0.70313 0.66406-0.23437 1.1523q0 0.66406 0.15625 1.4453 0.15625 0.76172 0.44922 1.7188l4.5703 15.937 5.6055-16.055q0.11719-0.37109 0.23437-0.78125 0.11719-0.41016 0.19532-0.80078 0.0976-0.39062 0.11718-0.68359 0.0391-0.29297 0.0391-0.54688 0-1.1719-0.54688-1.6992-0.52734-0.54688-1.8164-0.74219v-0.95703h8.2031v0.95703q-0.80078 0.19531-1.2891 0.56641t-0.97656 1.1914q-0.46875 0.82031-1.1524 2.6172l-8.1055 21.641h-2.5586l-6.582-21.777q-0.52735-1.7773-0.91797-2.5195-0.39063-0.76172-0.85938-1.1328-0.46875-0.39062-1.2891-0.58594v-0.95703h8.8281z" fill="#e6e6e6" stroke-width="1.1529"/>
            </g>
            <g class="house house-6 label" transform="matrix(.74498 0 0 .74012 73.318 64.047)" fill="#e6e6e6" opacity=".6" stroke-width="1.3291">
                <path d="m295.02 90.414v0.95703q-0.89844 0.15625-1.3672 0.39062t-0.70312 0.66406q-0.23438 0.42969-0.23438 1.1523 0 0.66406 0.15625 1.4453 0.15625 0.76172 0.44922 1.7188l4.5703 15.938 5.6055-16.055q0.11719-0.37109 0.23438-0.78125 0.11718-0.41016 0.19531-0.80078 0.0977-0.39062 0.11719-0.68359 0.0391-0.29297 0.0391-0.54688 0-1.1719-0.54688-1.6992-0.52734-0.54688-1.8164-0.74219v-0.95703h8.2031v0.95703q-0.80078 0.19531-1.2891 0.56641t-0.97656 1.1914q-0.46875 0.82031-1.1524 2.6172l-8.1055 21.641h-2.5586l-6.582-21.777q-0.52734-1.7773-0.91797-2.5195-0.39062-0.76172-0.85937-1.1328-0.46875-0.39062-1.2891-0.58594v-0.95703h8.8281z"/>
                <path d="m318.22 112.19q0 1.3086 0.0781 1.9141 0.0977 0.60547 0.29297 0.95703 0.21484 0.35156 0.60547 0.58594 0.41015 0.23437 1.3086 0.46875v0.95703h-8.2422v-0.95703q1.2109-0.3125 1.6211-0.6836 0.41015-0.39062 0.52734-1.0938 0.13672-0.70312 0.13672-2.1484v-16.895q0-1.3477-0.0977-1.9531-0.0976-0.625-0.33203-0.95703-0.21484-0.35156-0.58594-0.54688-0.37109-0.21484-1.2695-0.46875v-0.95703h8.2422v0.95703q-0.85938 0.21484-1.25 0.42969-0.37109 0.21484-0.60547 0.54688-0.21484 0.3125-0.33203 0.95703-0.0977 0.64453-0.0977 1.9922v16.895z"/>
            </g>
            <g class="house house-7 label" transform="matrix(.74498 0 0 .74012 72.75 63.595)" fill="#e6e6e6" opacity=".6" stroke-width="1.3291">
                <path d="m289.29 91.024v0.95703q-0.89844 0.15625-1.3672 0.39062t-0.70313 0.66406-0.23437 1.1523q0 0.66406 0.15625 1.4453 0.15625 0.76172 0.44922 1.7188l4.5703 15.937 5.6055-16.055q0.11719-0.37109 0.23437-0.78125 0.11719-0.41016 0.19532-0.80078 0.0976-0.39062 0.11718-0.68359 0.0391-0.29297 0.0391-0.54688 0-1.1719-0.54688-1.6992-0.52734-0.54688-1.8164-0.74219v-0.95703h8.2031v0.95703q-0.80078 0.19531-1.2891 0.56641t-0.97656 1.1914q-0.46875 0.82031-1.1524 2.6172l-8.1055 21.641h-2.5586l-6.582-21.777q-0.52735-1.7773-0.91797-2.5195-0.39063-0.76172-0.85938-1.1328-0.46875-0.39062-1.2891-0.58594v-0.95703h8.8281z"/>
                <path d="m312.5 112.8q0 1.3086 0.0781 1.9141 0.0976 0.60547 0.29297 0.95703 0.21484 0.35157 0.60546 0.58594 0.41016 0.23438 1.3086 0.46875v0.95703h-8.2422v-0.95703q1.2109-0.3125 1.6211-0.68359 0.41016-0.39063 0.52735-1.0938 0.13672-0.70313 0.13672-2.1484v-16.895q0-1.3477-0.0977-1.9531-0.0977-0.625-0.33203-0.95703-0.21484-0.35156-0.58594-0.54688-0.37109-0.21484-1.2695-0.46875v-0.95703h8.2422v0.95703q-0.85938 0.21484-1.25 0.42969-0.3711 0.21484-0.60547 0.54688-0.21484 0.3125-0.33203 0.95703-0.0977 0.64453-0.0977 1.9922v16.895z"/>
                <path d="m325.46 112.8q0 1.3086 0.0781 1.9141 0.0976 0.60547 0.29297 0.95703 0.21484 0.35157 0.60546 0.58594 0.41016 0.23438 1.3086 0.46875v0.95703h-8.2422v-0.95703q1.2109-0.3125 1.6211-0.68359 0.41016-0.39063 0.52735-1.0938 0.13672-0.70313 0.13672-2.1484v-16.895q0-1.3477-0.0977-1.9531-0.0977-0.625-0.33203-0.95703-0.21484-0.35156-0.58594-0.54688-0.37109-0.21484-1.2695-0.46875v-0.95703h8.2422v0.95703q-0.85938 0.21484-1.25 0.42969-0.3711 0.21484-0.60547 0.54688-0.21484 0.3125-0.33203 0.95703-0.0977 0.64453-0.0977 1.9922v16.895z"/>
            </g>
            <g class="house house-8 label" transform="matrix(.74498 0 0 .74012 71.85 63.405)" fill="#e6e6e6" opacity=".6" stroke-width="1.3291">
                <path d="m284.02 91.281v0.95703q-0.89844 0.15625-1.3672 0.39062t-0.70312 0.66406q-0.23438 0.42969-0.23438 1.1523 0 0.66406 0.15625 1.4453 0.15625 0.76172 0.44922 1.7188l4.5703 15.938 5.6055-16.055q0.11719-0.37109 0.23438-0.78125t0.19531-0.80078q0.0977-0.39062 0.11719-0.68359 0.0391-0.29297 0.0391-0.54688 0-1.1719-0.54687-1.6992-0.52735-0.54688-1.8164-0.74219v-0.95703h8.2031v0.95703q-0.80079 0.19531-1.2891 0.56641-0.48828 0.37109-0.97656 1.1914-0.46875 0.82031-1.1523 2.6172l-8.1055 21.641h-2.5586l-6.582-21.777q-0.52734-1.7773-0.91797-2.5195-0.39062-0.76172-0.85937-1.1328-0.46875-0.39062-1.2891-0.58594v-0.95703h8.8281z"/>
                <path d="m307.22 113.06q0 1.3086 0.0781 1.9141 0.0977 0.60547 0.29297 0.95703 0.21484 0.35156 0.60547 0.58594 0.41016 0.23437 1.3086 0.46875v0.95703h-8.2422v-0.95703q1.2109-0.3125 1.6211-0.6836 0.41016-0.39062 0.52734-1.0938 0.13672-0.70312 0.13672-2.1484v-16.895q0-1.3477-0.0976-1.9531-0.0977-0.625-0.33204-0.95703-0.21484-0.35156-0.58593-0.54688-0.3711-0.21484-1.2695-0.46875v-0.95703h8.2422v0.95703q-0.85937 0.21484-1.25 0.42969-0.37109 0.21484-0.60547 0.54688-0.21484 0.3125-0.33203 0.95703-0.0976 0.64453-0.0976 1.9922v16.895z"/>
                <path d="m320.19 113.06q0 1.3086 0.0781 1.9141 0.0977 0.60547 0.29297 0.95703 0.21484 0.35156 0.60547 0.58594 0.41016 0.23437 1.3086 0.46875v0.95703h-8.2422v-0.95703q1.2109-0.3125 1.6211-0.6836 0.41016-0.39062 0.52734-1.0938 0.13672-0.70312 0.13672-2.1484v-16.895q0-1.3477-0.0976-1.9531-0.0977-0.625-0.33204-0.95703-0.21484-0.35156-0.58593-0.54688-0.3711-0.21484-1.2695-0.46875v-0.95703h8.2422v0.95703q-0.85937 0.21484-1.25 0.42969-0.37109 0.21484-0.60547 0.54688-0.21484 0.3125-0.33203 0.95703-0.0976 0.64453-0.0976 1.9922v16.895z"/>
                <path d="m333.16 113.06q0 1.3086 0.0781 1.9141 0.0977 0.60547 0.29297 0.95703 0.21484 0.35156 0.60547 0.58594 0.41016 0.23437 1.3086 0.46875v0.95703h-8.2422v-0.95703q1.2109-0.3125 1.6211-0.6836 0.41016-0.39062 0.52734-1.0938 0.13672-0.70312 0.13672-2.1484v-16.895q0-1.3477-0.0976-1.9531-0.0977-0.625-0.33204-0.95703-0.21484-0.35156-0.58593-0.54688-0.3711-0.21484-1.2695-0.46875v-0.95703h8.2422v0.95703q-0.85937 0.21484-1.25 0.42969-0.37109 0.21484-0.60547 0.54688-0.21484 0.3125-0.33203 0.95703-0.0976 0.64453-0.0976 1.9922v16.895z"/>
            </g>
            <g class="house house-9 label" transform="matrix(.74498 0 0 .74012 71.82 64.407)" fill="#e6e6e6" opacity=".6" stroke-width="1.3291">
                <path d="m294.79 111.86q0 1.3086 0.0781 1.9141 0.0977 0.60547 0.29297 0.95703 0.21485 0.35156 0.60547 0.58594 0.41016 0.23437 1.3086 0.46875v0.95703h-8.2422v-0.95703q1.2109-0.3125 1.6211-0.68359 0.41016-0.39063 0.52734-1.0938 0.13672-0.70313 0.13672-2.1484v-16.895q0-1.3477-0.0977-1.9531-0.0977-0.625-0.33203-0.95703-0.21485-0.35156-0.58594-0.54688-0.3711-0.21484-1.2695-0.46875v-0.95703h8.2422v0.95703q-0.85937 0.21484-1.25 0.42969-0.37109 0.21484-0.60546 0.54688-0.21485 0.3125-0.33204 0.95703-0.0976 0.64453-0.0976 1.9922v16.895z"/>
                <path d="m308.83 90.082v0.95703q-0.9375 0.13672-1.3477 0.50781-0.41016 0.37109-0.41016 1.0156 0 0.54688 0.3711 1.3672 0.37109 0.82031 1.0547 1.9531l2.832 4.7461 2.793-4.5117q0.625-1.0156 0.9375-1.6211 0.3125-0.60547 0.42968-1.0156 0.13672-0.41016 0.13672-0.83984 0-0.60547-0.35156-1.0156-0.35156-0.42969-1.1719-0.58594v-0.95703h7.2461v0.95703q-0.72266 0.23438-1.3086 0.68359-0.5664 0.44922-1.2305 1.3086-0.64454 0.85938-1.8555 2.7148l-4.4141 6.8359 4.9609 8.1641q1.0547 1.7383 1.5039 2.4414 0.46875 0.6836 0.85937 1.1719 0.41016 0.46875 0.85938 0.82031 0.46875 0.35156 1.1523 0.60547v0.95703h-8.5742v-0.95703q0.89844-0.15625 1.3281-0.48828 0.42969-0.35156 0.42969-1.0352 0-0.54687-0.29297-1.2109-0.27344-0.66406-0.85938-1.6406l-3.5352-5.8984-3.7305 6.1133q-0.9375 1.543-0.9375 2.5391 0 0.64453 0.35156 1.0547 0.35156 0.41016 1.1719 0.56641v0.95703h-7.3828v-0.95703q0.72266-0.21484 1.1914-0.50781 0.46875-0.3125 0.89844-0.78125 0.42968-0.46875 0.95703-1.1914 0.52734-0.72266 1.6797-2.5195l4.6094-7.1875-5.5078-9.0625q-0.78125-1.25-1.1914-1.8164-0.39062-0.56641-0.74219-0.91797-0.33203-0.35156-0.60547-0.48828-0.27343-0.15625-0.625-0.27344v-0.95703h8.3203z"/>
            </g>
            <g class="house house-10 label" transform="matrix(.74498 0 0 .74012 76.839 65.245)" fill="#e6e6e6" opacity=".6" stroke-width="1.1529">
                <path d="m296.59 88.951v0.95703q-0.9375 0.13672-1.3476 0.50781-0.41016 0.37109-0.41016 1.0156 0 0.54688 0.37109 1.3672 0.3711 0.82031 1.0547 1.9531l2.832 4.7461 2.793-4.5117q0.625-1.0156 0.9375-1.6211t0.42969-1.0156q0.13672-0.41016 0.13672-0.83984 0-0.60547-0.35157-1.0156-0.35156-0.42969-1.1719-0.58594v-0.95703h7.2461v0.95703q-0.72265 0.23438-1.3086 0.68359-0.56641 0.44922-1.2305 1.3086-0.64453 0.85938-1.8555 2.7148l-4.4141 6.8359 4.9609 8.1641q1.0547 1.7383 1.5039 2.4414 0.46875 0.6836 0.85938 1.1719 0.41015 0.46875 0.85937 0.82031 0.46875 0.35156 1.1524 0.60547v0.95703h-8.5742v-0.95703q0.89844-0.15625 1.3281-0.48828 0.42969-0.35157 0.42969-1.0352 0-0.54687-0.29297-1.2109-0.27344-0.66406-0.85937-1.6406l-3.5352-5.8984-3.7305 6.1133q-0.9375 1.543-0.9375 2.5391 0 0.64454 0.35156 1.0547 0.35157 0.41016 1.1719 0.56641v0.95703h-7.3828v-0.95703q0.72265-0.21485 1.1914-0.50781 0.46875-0.3125 0.89844-0.78125t0.95703-1.1914q0.52735-0.72266 1.6797-2.5195l4.6094-7.1875-5.5078-9.0625q-0.78125-1.25-1.1914-1.8164-0.39063-0.56641-0.74219-0.91797-0.33203-0.35156-0.60547-0.48828-0.27344-0.15625-0.625-0.27344v-0.95703h8.3203z" fill="#e6e6e6" stroke-width="1.1529"/>
            </g>
            <g class="house house-11 label" transform="matrix(.74498 0 0 .74012 77.006 64.306)" fill="#e6e6e6" opacity=".6" stroke-width="1.3291">
                <path d="m290.84 90.221v0.95703q-0.9375 0.13672-1.3477 0.50781-0.41016 0.37109-0.41016 1.0156 0 0.54688 0.3711 1.3672 0.37109 0.82031 1.0547 1.9531l2.832 4.7461 2.793-4.5117q0.625-1.0156 0.9375-1.6211 0.3125-0.60547 0.42968-1.0156 0.13672-0.41016 0.13672-0.83984 0-0.60547-0.35156-1.0156-0.35156-0.42969-1.1719-0.58594v-0.95703h7.2461v0.95703q-0.72266 0.23438-1.3086 0.68359-0.5664 0.44922-1.2305 1.3086-0.64454 0.85938-1.8555 2.7148l-4.4141 6.8359 4.9609 8.1641q1.0547 1.7383 1.5039 2.4414 0.46875 0.68359 0.85937 1.1719 0.41016 0.46875 0.85938 0.82031 0.46875 0.35157 1.1523 0.60547v0.95703h-8.5742v-0.95703q0.89844-0.15625 1.3281-0.48828 0.42969-0.35156 0.42969-1.0352 0-0.54687-0.29297-1.2109-0.27344-0.66407-0.85938-1.6406l-3.5352-5.8984-3.7305 6.1133q-0.9375 1.543-0.9375 2.5391 0 0.64453 0.35156 1.0547 0.35156 0.41015 1.1719 0.5664v0.95703h-7.3828v-0.95703q0.72266-0.21484 1.1914-0.50781 0.46875-0.3125 0.89844-0.78125 0.42968-0.46875 0.95703-1.1914 0.52734-0.72265 1.6797-2.5195l4.6094-7.1875-5.5078-9.0625q-0.78125-1.25-1.1914-1.8164-0.39062-0.56641-0.74219-0.91797-0.33203-0.35156-0.60547-0.48828-0.27343-0.15625-0.625-0.27344v-0.95703h8.3203z"/>
                <path d="m312.65 112q0 1.3086 0.0781 1.9141 0.0977 0.60547 0.29297 0.95703 0.21484 0.35157 0.60547 0.58594 0.41015 0.23438 1.3086 0.46875v0.95703h-8.2422v-0.95703q1.2109-0.3125 1.6211-0.68359 0.41015-0.39063 0.52734-1.0938 0.13672-0.70313 0.13672-2.1484v-16.895q0-1.3477-0.0977-1.9531-0.0976-0.625-0.33203-0.95703-0.21484-0.35156-0.58594-0.54688-0.37109-0.21484-1.2695-0.46875v-0.95703h8.2422v0.95703q-0.85938 0.21484-1.25 0.42969-0.37109 0.21484-0.60547 0.54688-0.21484 0.3125-0.33203 0.95703-0.0977 0.64453-0.0977 1.9922v16.895z"/>
            </g>
            <g class="house house-12 label" transform="matrix(.74498 0 0 .74012 76.313 63.464)" fill="#e6e6e6" opacity=".6" stroke-width="1.3291">
                <path d="m285.28 91.357v0.95703q-0.9375 0.13672-1.3477 0.50781t-0.41016 1.0156q0 0.54688 0.3711 1.3672 0.37109 0.82031 1.0547 1.9531l2.832 4.7461 2.793-4.5117q0.625-1.0156 0.9375-1.6211 0.3125-0.60547 0.42968-1.0156 0.13672-0.41016 0.13672-0.83984 0-0.60547-0.35156-1.0156-0.35156-0.42969-1.1719-0.58594v-0.95703h7.2461v0.95703q-0.72266 0.23438-1.3086 0.68359-0.5664 0.44922-1.2305 1.3086-0.64454 0.85938-1.8555 2.7148l-4.4141 6.8359 4.9609 8.1641q1.0547 1.7383 1.5039 2.4414 0.46875 0.68359 0.85937 1.1719 0.41016 0.46875 0.85938 0.82031 0.46875 0.35157 1.1523 0.60547v0.95703h-8.5742v-0.95703q0.89844-0.15625 1.3281-0.48828 0.42969-0.35156 0.42969-1.0352 0-0.54687-0.29297-1.2109-0.27344-0.66407-0.85938-1.6406l-3.5352-5.8984-3.7305 6.1133q-0.9375 1.543-0.9375 2.5391 0 0.64453 0.35156 1.0547 0.35156 0.41015 1.1719 0.5664v0.95703h-7.3828v-0.95703q0.72266-0.21484 1.1914-0.50781 0.46875-0.3125 0.89844-0.78125 0.42968-0.46875 0.95703-1.1914 0.52734-0.72265 1.6797-2.5195l4.6094-7.1875-5.5078-9.0625q-0.78125-1.25-1.1914-1.8164-0.39062-0.56641-0.74219-0.91797-0.33203-0.35156-0.60547-0.48828-0.27343-0.15625-0.625-0.27344v-0.95703h8.3203z"/>
                <path d="m307.1 113.13q0 1.3086 0.0781 1.9141 0.0976 0.60547 0.29297 0.95703 0.21484 0.35157 0.60547 0.58594 0.41015 0.23438 1.3086 0.46875v0.95703h-8.2422v-0.95703q1.2109-0.3125 1.6211-0.68359 0.41015-0.39063 0.52734-1.0938 0.13672-0.70313 0.13672-2.1484v-16.895q0-1.3477-0.0977-1.9531-0.0976-0.625-0.33203-0.95703-0.21484-0.35156-0.58594-0.54688-0.37109-0.21484-1.2695-0.46875v-0.95703h8.2422v0.95703q-0.85938 0.21484-1.25 0.42969-0.37109 0.21484-0.60547 0.54688-0.21484 0.3125-0.33203 0.95703-0.0977 0.64453-0.0977 1.9922v16.895z"/>
                <path d="m320.07 113.13q0 1.3086 0.0781 1.9141 0.0976 0.60547 0.29297 0.95703 0.21484 0.35157 0.60547 0.58594 0.41015 0.23438 1.3086 0.46875v0.95703h-8.2422v-0.95703q1.2109-0.3125 1.6211-0.68359 0.41015-0.39063 0.52734-1.0938 0.13672-0.70313 0.13672-2.1484v-16.895q0-1.3477-0.0977-1.9531-0.0976-0.625-0.33203-0.95703-0.21484-0.35156-0.58594-0.54688-0.37109-0.21484-1.2695-0.46875v-0.95703h8.2422v0.95703q-0.85938 0.21484-1.25 0.42969-0.37109 0.21484-0.60547 0.54688-0.21484 0.3125-0.33203 0.95703-0.0977 0.64453-0.0977 1.9922v16.895z"/>
            </g>
            <path class="house house-1 start-divider" d="m120 300h180" fill="none" stroke="#ff0000" stroke-width="4"/>
            <path class="house house-2 start-divider" transform="rotate(-30,300,300)" d="m120 300h180" fill="none" stroke="#ccff00" stroke-width="2"/>
            <path class="house house-3 start-divider" transform="rotate(-60,300,300)" d="m120 300h180" fill="none" stroke="#66ff00" stroke-width="2"/>
            <path class="house house-4 start-divider" transform="rotate(-90,300,300)" d="m120 300h180" fill="none" stroke="#5fd35f" stroke-width="4"/>
            <path class="house house-5 start-divider" transform="rotate(240 300 300)" d="m120 300h180" fill="none" stroke="#00d4aa" stroke-width="2"/>
            <path class="house house-6 start-divider" transform="rotate(210 300 300)" d="m120 300h180" fill="none" stroke="#00ccff" stroke-width="2"/>
            <path class="house house-7 start-divider" transform="rotate(180,300,300)" d="m120 300h180" fill="none" stroke="#2a7fff" stroke-width="4"/>
            <path class="house house-8 start-divider" transform="rotate(150,300,300)" d="m120 300h180" fill="none" stroke="#0000d4" stroke-width="2"/>
            <path class="house house-9 start-divider" transform="rotate(120,300,300)" d="m120 300h180" fill="none" stroke="#8d5fd3" stroke-width="2"/>
            <path class="house house-10 start-divider" transform="rotate(90,300,300)" d="m120 300h180" fill="none" stroke="#cc00ff" stroke-width="4"/>
            <path class="house house-11 start-divider" transform="rotate(60,300,300)" d="m120 300h180" fill="#ff00cc" stroke="#ff00cc" stroke-width="2"/>
            <path class="house house-12 start-divider" transform="rotate(30,300,300)" d="m120 300h180" fill="none" stroke="#ff0066" stroke-width="2"/>
        </g>
        <circle class="background" cx="300" cy="300" r="133.43" fill="#f9f9f9" stroke="#ffffff" stroke-linecap="round" stroke-linejoin="round" stroke-miterlimit="2.9" stroke-width="1.4608"/>
    </g>
    <g id="top">
        <circle id="synastry-cover" class="background" cx="300" cy="300" r="118.73" fill="#ffffff"/>
        <circle id="cover" class="background" cx="300" cy="300" r="162.37" fill="#ffffff"/>
        <circle id="self" cx="300" cy="300" r="13.5" fill="#4d4d4d"/>
    </g>
</svg>
