<?xml version="1.0" encoding="UTF-8" standalone="no"?>
<!-- Created with Inkscape (http://www.inkscape.org/) -->

<svg
   xmlns:dc="http://purl.org/dc/elements/1.1/"
   xmlns:cc="http://creativecommons.org/ns#"
   xmlns:rdf="http://www.w3.org/1999/02/22-rdf-syntax-ns#"
   xmlns:svg="http://www.w3.org/2000/svg"
   xmlns="http://www.w3.org/2000/svg"
   xmlns:xlink="http://www.w3.org/1999/xlink"
   xmlns:sodipodi="http://sodipodi.sourceforge.net/DTD/sodipodi-0.dtd"
   xmlns:inkscape="http://www.inkscape.org/namespaces/inkscape"
   width="600"
   height="600"
   id="svg2985"
   version="1.1"
   inkscape:version="0.91 r13725"
   sodipodi:docname="zodiac.svg">
  <defs
     id="defs2987">
    <linearGradient
       id="linearGradient3909">
      <stop
         style="stop-color:#959595;stop-opacity:1;"
         offset="0"
         id="stop3911" />
      <stop
         id="stop3919"
         offset="0.81430256"
         style="stop-color:#ffffff;stop-opacity:1;" />
      <stop
         id="stop3917"
         offset="0.93488532"
         style="stop-color:#ffffff;stop-opacity:1;" />
      <stop
         style="stop-color:#f2f2f2;stop-opacity:1;"
         offset="1"
         id="stop3913" />
    </linearGradient>
    <radialGradient
       inkscape:collect="always"
       xlink:href="#linearGradient3909"
       id="radialGradient3915"
       cx="275"
       cy="268"
       fx="275"
       fy="268"
       r="165"
       gradientUnits="userSpaceOnUse"
       gradientTransform="matrix(1.3985512,0,0,1.3985512,-84.60155,-74.811694)" />
  </defs>
  <sodipodi:namedview
     id="base"
     pagecolor="#ffffff"
     bordercolor="#666666"
     borderopacity="1.0"
     inkscape:pageopacity="0.0"
     inkscape:pageshadow="2"
     inkscape:zoom="1.1479719"
     inkscape:cx="312.8769"
     inkscape:cy="294.6284"
     inkscape:current-layer="layer2"
     inkscape:document-units="px"
     showgrid="false"
     inkscape:window-width="1280"
     inkscape:window-height="657"
     inkscape:window-x="-8"
     inkscape:window-y="-8"
     inkscape:window-maximized="1"
     showguides="true"
     inkscape:guide-bbox="true">
    <sodipodi:guide
       orientation="0,1"
       position="300,300"
       id="guide3017" />
  </sodipodi:namedview>
  <metadata
     id="metadata2990">
    <rdf:RDF>
      <cc:Work
         rdf:about="">
        <dc:format>image/svg+xml</dc:format>
        <dc:type
           rdf:resource="http://purl.org/dc/dcmitype/StillImage" />
        <dc:title />
      </cc:Work>
    </rdf:RDF>
  </metadata>
  <g
     id="layer1"
     inkscape:label="Zodiac"
     inkscape:groupmode="layer">
    <circle
       id="path3906"
       style="display:inline;fill:url(#radialGradient3915);fill-opacity:1;stroke:none"
       cx="300.00003"
       cy="300.00003"
       r="230.76094" />
    <g
       id="zodiac"
       inkscape:label="">
      <path
         id="path3535"
         d="m 324.57812,18.53125 c 5.02705,19.322945 10.4726,38.519864 15.5,57.84375 18.62289,-4.830766 39.78795,-7.84375 59.92188,-7.84375 20.13393,0 41.29899,3.012984 59.92187,7.84375 5.02743,-19.32391 10.47296,-38.520745 15.5,-57.84375 -48.913,1.97e-4 -101.93061,-1.2e-5 -150.84375,0 z m 0,0 C 282.2182,42.987746 236.29746,69.480825 193.9375,93.9375 c 14.02637,14.23211 28.36331,28.15762 42.39062,42.39062 27.71849,-27.31594 65.13614,-49.326204 103.75,-59.95312 -5.30566,-19.238619 -10.19432,-38.604285 -15.5,-57.84375 z m 150.84375,0 c -5.30566,19.239476 -10.19434,38.605132 -15.5,57.84375 38.61386,10.626916 76.03152,32.63718 103.75,59.95312 C 577.69917,122.0951 592.03614,108.16964 606.0625,93.9375 563.70248,69.480942 517.78185,42.987883 475.42187,18.53125 Z M 193.9375,93.9375 c -24.45651,42.35977 -50.94979,88.28054 -75.40625,130.64062 19.23946,5.30562 38.60513,10.19436 57.84375,15.5 10.62692,-38.61386 32.63718,-76.03151 59.95312,-103.75 z m 412.125,0 c -14.23215,14.0264 -28.1576,28.36332 -42.39063,42.39062 27.31594,27.71849 49.32621,65.13614 59.95313,103.75 19.23862,-5.30566 38.60426,-10.1943 57.84375,-15.5 C 657.01208,182.2183 630.51895,136.29759 606.0625,93.9375 Z M 118.53125,224.57812 c -4e-5,48.91301 0,101.93061 0,150.84375 19.32296,-5.02708 38.51986,-10.47258 57.84375,-15.5 -4.83077,-18.62288 -7.84375,-39.78794 -7.84375,-59.92187 0,-20.13393 3.01298,-41.29899 7.84375,-59.92188 -19.32389,-5.02742 -38.52079,-10.47294 -57.84375,-15.5 z m 562.9375,0 c -19.32296,5.02703 -38.51986,10.47259 -57.84375,15.5 4.83077,18.62289 7.84375,39.78795 7.84375,59.92188 0,20.13393 -3.01298,41.29899 -7.84375,59.92187 19.32389,5.02742 39.08327,10.47296 58.40625,15.5 4e-5,-48.91314 -0.56257,-101.93061 -0.5625,-150.84375 z M 176.375,359.92187 l -57.84375,15.5 c 24.45649,42.35992 50.94973,88.28072 75.40625,130.64063 14.23214,-14.02636 28.1576,-28.36332 42.39062,-42.39063 -27.31594,-27.71848 -49.3262,-65.13614 -59.95312,-103.75 z m 447.25,0 c -10.62692,38.61386 -32.63719,76.03152 -59.95313,103.75 14.23302,14.02731 28.15846,28.36428 42.39063,42.39063 24.45636,-42.35985 50.38731,-88.28067 74.84375,-130.64063 -19.23947,-5.30568 -38.04264,-10.19434 -57.28125,-15.5 z m -387.29688,103.75 c -14.02731,14.23302 -28.36423,28.1585 -42.39062,42.39063 42.36002,24.45656 88.28071,50.94973 130.64062,75.40625 5.30566,-19.23947 10.19434,-38.60514 15.5,-57.84375 -38.61386,-10.62692 -76.03151,-32.63719 -103.75,-59.95313 z m 327.34375,0 c -27.71848,27.31594 -65.13614,49.32621 -103.75,59.95313 5.30566,19.23862 10.19437,38.60427 15.5,57.84375 42.36002,-24.45657 88.28064,-50.94971 130.64063,-75.40625 -14.02638,-14.23214 -28.36333,-28.15761 -42.39063,-42.39063 z M 340.07812,523.625 c -5.02742,19.32389 -10.47295,38.52079 -15.5,57.84375 l 150.84375,0 c -5.02708,-19.32296 -10.47257,-38.51986 -15.5,-57.84375 -18.62288,4.83077 -39.78794,7.84375 -59.92187,7.84375 -20.13393,0 -41.29899,-3.01298 -59.92188,-7.84375 z"
         style="display:inline;fill:none;stroke:#cccccc;stroke-width:2"
         inkscape:connector-curvature="0"
         sodipodi:nodetypes="ccsccccccccccccccccccccccccccsccccscccccccccccccccccccccccccccsc"
         transform="translate(-100,0)" />
      <path
         style="fill:#ffffff;fill-opacity:1;stroke:none"
         d="m 4.71875,8.375 0,588.09375 591.59375,0 0,-588.09375 -591.59375,0 z m 220.4375,12.25 149.6875,0 L 504.5,95.5 l 74.875,129.65625 0,149.6875 L 504.5,504.5 l -129.65625,74.875 -149.6875,0 L 95.5,504.5 20.625,374.84375 l 0,-149.6875 L 95.5,95.5 225.15625,20.625 Z"
         id="rect3032"
         inkscape:connector-curvature="0" />
      <path
         transform="matrix(1.23219,0,0,1.23219,-427.27258,-285.89945)"
         id="path3537"
         d="m 607.9342,244.46504 c -3.00564,-3.97963 -8.36182,-5.66647 -13.03293,-4.10359 -1.99786,0.67091 -3.60458,1.89224 -4.78592,3.4941 -1.15663,-1.45924 -2.68442,-2.57791 -4.56232,-3.20735 -4.66982,-1.56551 -10.026,0.12018 -13.03164,4.10094 -2.91575,3.86556 -2.52806,7.51349 -1.69296,9.89367 0.92015,2.61429 2.99963,5.15072 4.54363,5.53875 1.22387,0.30043 2.47426,-0.43545 2.78409,-1.66721 0.26881,-1.0687 -0.26,-2.15619 -1.2128,-2.62175 -0.38888,-0.3377 -1.75536,-1.827 -2.06423,-3.88428 -0.23379,-1.55309 0.19503,-3.01987 1.30538,-4.49023 1.8053,-2.38887 5.13108,-3.44382 7.90926,-2.51662 2.47554,0.83236 3.83827,3.06979 3.83827,6.29842 l 0,18.57248 0,0.28642 c 1.1e-4,1.27019 1.02647,2.29641 2.29555,2.29648 1.27037,-5e-5 2.29555,-1.02628 2.29544,-2.29635 l 0,-0.28674 1.1e-4,-18.57101 -1.1e-4,-0.28279 c 1.1e-4,-3.23109 1.36283,-5.46748 3.83838,-6.29958 2.78194,-0.92862 6.10385,0.12631 7.90937,2.51529 1.11024,1.47167 1.53659,2.94077 1.30398,4.48894 -0.31005,2.05975 -1.67535,3.54892 -2.06294,3.88432 -0.95302,0.46631 -1.48279,1.55168 -1.21398,2.62304 0.30994,1.23374 1.55528,1.97841 2.78548,1.66685 1.54411,-0.38794 3.62219,-2.92446 4.54363,-5.53875 0.83499,-2.38274 1.22269,-6.0318 -1.69296,-9.89373 z"
         inkscape:connector-curvature="0"
         style="display:inline;fill:#cccccc;fill-opacity:1;stroke:#ffffff;stroke-width:1.8896358" />
      <path
         transform="matrix(1.0671078,0.616095,-0.616095,1.0671078,-122.25525,-620.32763)"
         id="path3581"
         d="m 685.36049,254.87782 -8.30898,10e-6 c 0.76742,-7.64293 5.04235,-10.52283 5.2919,-10.685 1.11338,-0.68557 1.46252,-2.14261 0.78724,-3.26331 -0.68432,-1.12614 -2.14684,-1.47996 -3.27224,-0.80176 -0.29146,0.18156 -6.72821,4.21728 -7.5942,14.75009 l -5.36517,-2e-5 c -0.86807,-10.53269 -7.3007,-14.57267 -7.5942,-14.75019 -1.1175,-0.6747 -2.5616,-0.31867 -3.24695,0.78875 -0.68983,1.10844 -0.34698,2.57219 0.75542,3.27426 0.20043,0.13036 4.52344,2.99715 5.29304,10.68716 l -7.01279,0 c -1.31691,0 -2.38208,1.06702 -2.3822,2.38479 1.2e-4,1.31569 1.06529,2.38363 2.3822,2.38364 l 6.99848,0 c -0.79913,6.81473 -4.91184,8.06353 -5.07291,8.10627 -1.27868,0.30778 -2.06786,1.59498 -1.76026,2.87445 0.2626,1.09211 1.23815,1.82831 2.31408,1.8282 0.18373,-2e-4 0.37009,-0.0229 0.5584,-0.0664 0.33701,-0.0837 7.78687,-2.00347 8.76116,-12.74526 l 5.37947,-1.1e-4 c 0.97315,10.74191 8.42277,12.66219 8.7623,12.74548 0.18602,0.0435 0.37204,0.0664 0.55268,0.0664 1.05866,1e-5 2.00994,-0.71856 2.28696,-1.79326 0.32625,-1.25751 -0.43683,-2.55123 -1.69134,-2.89854 -0.19267,-0.0538 -4.31006,-1.30253 -5.1091,-8.11717 l 8.28815,1e-5 c 1.31587,-9e-5 2.38209,-1.06818 2.38209,-2.3837 0,-1.31796 -1.06622,-2.38484 -2.38324,-2.3848 z"
         inkscape:connector-curvature="0"
         style="display:inline;fill:#cccccc;fill-opacity:1;stroke:#ffffff;stroke-width:1.8896358" />
      <path
         style="fill:#cccccc;stroke:#ffffff;stroke-width:1.28881574"
         inkscape:connector-curvature="0"
         d="m 1.631,12.874 c 1.703,0 2.789,-1.314 3.662,-2.376 C 6.166,9.441 6.748,8.8 7.474,8.8 c 0.382,0 0.688,0.412 1.356,1.574 0.775,1.35 1.944,3.386 4.486,3.386 2.623,0 3.706,-2.061 4.42,-3.422 0.312,-0.596 0.703,-1.336 0.947,-1.336 0.422,0 1.055,1.006 1.516,1.737 0.867,1.373 1.943,3.086 3.988,3.086 1.994,0 3.48,-1.663 4.797,-3.132 C 29.457,10.165 30.161,9.381 30.498,9.2 31.339,9.136 32,8.432 32,7.575 32,6.676 31.271,5.943 30.37,5.943 c -1.511,0 -2.63,1.25 -3.813,2.574 -0.641,0.716 -1.832,2.045 -2.373,2.045 C 23.901,10.495 23.266,9.484 22.959,9 22.093,7.624 20.906,5.738 18.684,5.738 c -2.215,0 -3.188,1.854 -3.833,3.079 -0.725,1.38 -0.996,1.678 -1.533,1.678 -0.561,0 -0.905,-0.438 -1.658,-1.747 C 10.879,7.393 9.811,5.535 7.474,5.535 5.158,5.535 3.781,7.204 2.777,8.424 2.435,8.836 1.867,9.528 1.614,9.612 0.722,9.622 0,10.349 0,11.243 c 0,0.901 0.73,1.631 1.631,1.631 z"
         id="path3529"
         transform="matrix(0.89957688,1.5581128,-1.5710582,0.90705092,543.21292,126.3413)" />
      <path
         style="fill:#cccccc;stroke:#ffffff;stroke-width:1.28881574"
         inkscape:connector-curvature="0"
         d="m 30.37,16.513 c -1.511,0 -2.63,1.25 -3.813,2.573 -0.641,0.717 -1.832,2.046 -2.373,2.046 -0.283,-0.068 -0.918,-1.078 -1.225,-1.562 -0.866,-1.376 -2.053,-3.262 -4.275,-3.262 -2.215,0 -3.188,1.854 -3.833,3.08 -0.725,1.379 -0.996,1.677 -1.533,1.677 -0.561,0 -0.905,-0.438 -1.658,-1.747 -0.779,-1.355 -1.848,-3.214 -4.185,-3.214 -2.315,0 -3.692,1.669 -4.696,2.889 -0.342,0.414 -0.91,1.104 -1.163,1.188 C 0.722,20.191 0,20.917 0,21.811 c 0,0.899 0.73,1.631 1.631,1.631 1.703,0 2.789,-1.315 3.662,-2.376 0.873,-1.057 1.455,-1.699 2.181,-1.699 0.382,0 0.688,0.413 1.356,1.575 0.775,1.35 1.944,3.385 4.486,3.385 2.623,0 3.706,-2.06 4.42,-3.42 0.312,-0.597 0.703,-1.337 0.947,-1.337 0.422,0 1.055,1.006 1.516,1.737 0.867,1.374 1.943,3.086 3.988,3.086 1.994,0 3.48,-1.663 4.797,-3.131 0.473,-0.528 1.177,-1.312 1.514,-1.494 C 31.339,19.704 32,19 32,18.143 c 0,-0.901 -0.729,-1.63 -1.63,-1.63 z"
         id="path3531"
         transform="matrix(0.89957688,1.5581128,-1.5710582,0.90705092,543.21292,126.3413)" />
      <path
         transform="matrix(0,1.23219,-1.23219,0,885.89954,-722.99783)"
         id="path3553"
         d="m 842.78966,248.99163 c -3.00137,9e-5 -5.6471,1.47954 -7.31522,3.72761 -0.83547,-1.80327 -1.65463,-4.25926 -1.65463,-6.99265 0,-3.35764 -2.71514,-5.61517 -6.75641,-5.61514 -2.07096,-1e-5 -4.21368,0.62828 -5.68646,1.82904 -1.80361,-1.38169 -4.41835,-2.15678 -6.54359,-2.15683 -1.6898,-2e-5 -3.16107,0.45833 -4.25293,1.32464 -0.93576,0.74245 -2.05046,2.14591 -2.05046,4.62087 0,1.11393 0.90059,2.01412 2.0098,2.01405 1.10945,7e-5 2.00981,-0.90028 2.00981,-2.01397 1.1e-4,-0.98199 0.27538,-1.67271 1.6206,-1.86992 2.38968,-0.35901 5.12242,1.20074 5.32849,1.86983 l -1.2e-4,16.46195 c 1.2e-4,1.11241 0.9007,2.01395 2.01003,2.014 1.10922,-6e-5 2.00852,-0.90178 2.00852,-2.01407 l -1.1e-4,-16.46174 c 1.1e-4,-0.70989 1.63563,-1.58434 3.5449,-1.58436 0.88032,4e-5 1.67373,0.19302 2.17534,0.52354 0.39897,0.2647 0.56031,0.5752 0.56078,1.06046 -2.3e-4,5.82735 2.84107,10.47811 3.89612,12.00526 -0.0116,0.14154 -0.0419,0.27778 -0.0419,0.42162 -1.2e-4,1.43608 0.35937,2.77435 0.9452,3.98464 -1.2313,1.87791 -4.6829,6.15503 -10.66093,6.28405 -1.10934,0.0245 -1.99093,0.94238 -1.96787,2.05877 0.0245,1.09898 0.91946,1.9719 2.01004,1.97199 0.0151,-0.0117 0.028,-2.4e-4 0.0419,-1.1e-4 6.85555,-0.14539 11.14099,-4.3531 13.20635,-7.07677 1.54746,1.19805 3.45952,1.94352 5.56042,1.94314 5.04087,-10e-6 9.13782,-4.10967 9.13782,-9.16181 -1.2e-4,-5.05464 -4.09427,-9.16853 -9.13514,-9.16853 z m -1.3e-4,14.29683 c -2.82079,4e-5 -5.11681,-2.30243 -5.11694,-5.13229 1.3e-4,-2.82874 2.29602,-5.13095 5.11694,-5.13095 2.82349,0 5.11963,2.30231 5.11951,5.13097 1.2e-4,2.82995 -2.29579,5.13233 -5.11951,5.13227 z"
         inkscape:connector-curvature="0"
         style="display:inline;fill:#cccccc;stroke:#ffffff;stroke-width:1.8896358" />
      <path
         transform="matrix(-0.616095,1.0671078,-1.0671078,-0.616095,1368.1907,-378.36081)"
         id="path3587"
         d="m 926.58612,241.84591 c -0.0106,-0.24881 -0.0522,-0.50047 -0.14951,-0.73495 -0.10701,-0.2568 -0.25903,-0.4853 -0.44939,-0.67978 -0.0145,-0.006 -0.01,-0.0157 -0.0106,-0.0172 l 0,0 c -0.19721,-0.19875 -0.43509,-0.35504 -0.69625,-0.46335 -0.26193,-0.10886 -0.53747,-0.1659 -0.81795,-0.1659 0,-1e-5 0,-1e-5 -9e-5,-9e-4 l -11.42575,-1.7e-4 c -1.18235,-2e-5 -2.14266,0.95928 -2.14266,2.14263 -9e-5,1.1846 0.96021,2.14266 2.14256,2.14277 l 6.24388,0 -10.23539,10.20359 -3.6782,-3.81749 c -0.82103,-0.84966 -2.17848,-0.87647 -3.02927,-0.0541 -0.85271,0.82007 -0.87831,2.17535 -0.057,3.02922 l 3.72862,3.86662 -11.53441,11.49944 c -0.83745,0.83334 -0.83958,2.19182 -9e-5,3.02924 0.41761,0.42088 0.96658,0.62939 1.51622,0.62968 0.54656,-4e-5 1.09437,-0.20891 1.51304,-0.6255 l 11.4811,-11.44635 4.20852,4.36627 c 0.41974,0.43608 0.97982,0.65601 1.54395,0.65614 0.53332,-2e-5 1.0707,-0.19748 1.48542,-0.59987 0.85175,-0.82003 0.87618,-2.1775 0.056,-3.02927 l -4.25663,-4.41827 10.30077,-10.26806 -9e-5,6.0851 c 9e-5,1.18433 0.9603,2.14367 2.14468,2.14364 1.18244,-2e-5 2.14178,-0.95911 2.14178,-2.14358 l 0,-11.24874 c 10e-5,-0.0288 -0.0154,-0.0522 -0.0174,-0.0815 z"
         inkscape:connector-curvature="0"
         style="display:inline;fill:#cccccc;fill-opacity:1;stroke:#ffffff;stroke-width:1.8896358" />
      <path
         transform="matrix(-1.0671078,0.616095,-0.616095,-1.0671078,1649.6294,197.32989)"
         id="path3593"
         d="m 1011.121,263.91502 -6.0921,-4.3763 c -0.5393,-0.38762 -1.2448,-0.44184 -1.8301,-0.13961 -0.5881,0.30223 -0.9557,0.90808 -0.9558,1.57081 l 0,2.68893 c -1.1665,-0.28056 -2.71692,-0.87959 -2.71692,-1.80664 l 0,-16.30577 c 0,-3.9358 -4.0632,-5.76278 -6.62602,-5.76278 -1.71803,0 -3.31708,0.64918 -4.50523,1.83103 -9e-4,7.6e-4 -0.005,0.003 -0.007,0.006 -1.25843,-1.20487 -2.92914,-1.83645 -4.55118,-1.83644 -1.7153,-10e-6 -3.31438,0.64919 -4.50117,1.83104 -0.009,0.007 -0.0173,0.0206 -0.0273,0.0288 -1.21385,-1.0165 -2.73041,-1.56676 -4.21732,-1.56674 -1.71667,-1e-5 -3.31573,0.64919 -4.50251,1.83101 -0.90563,0.89994 -1.98566,2.53443 -1.98566,5.19085 10e-6,1.21301 0.97863,2.19155 2.18707,2.19155 1.20841,0 2.1857,-0.98124 2.18571,-2.19155 -10e-6,-2.44769 1.61935,-2.63606 2.11539,-2.63609 1.04081,1e-5 2.25599,0.68988 2.25598,2.63609 l 10e-6,18.54747 c 0,1.21165 0.97729,2.19154 2.18573,2.19153 1.20841,10e-6 2.18568,-0.9826 2.18567,-2.19154 l -3e-5,-18.83831 c 0,-2.44769 1.62069,-2.63744 2.11675,-2.63744 2.96293,-1e-5 2.57229,2.85295 2.57229,3.70543 1e-5,0.85248 0,17.77086 0,17.77086 1e-5,1.21166 0.97863,2.19155 2.18572,2.19155 1.20978,0 2.18704,-0.98262 2.18703,-2.19155 l 2.5e-4,-18.83832 c 0,-2.44768 1.61666,-2.63742 2.11542,-2.63742 1.04081,0 2.25465,0.6912 2.25464,2.63743 l 0,15.0494 c 0,4.17706 4.24296,5.85766 7.08698,6.26426 l 0,2.56559 c 0,0.69392 0.4054,1.32144 1.0339,1.60879 0.2353,0.10711 0.4799,0.15855 0.7259,0.15856 0.4204,1e-5 0.8327,-0.14909 1.1598,-0.43505 l 6.0921,-5.33587 c 0.407,-0.35369 0.6286,-0.87552 0.6015,-1.41495 -0.022,-0.54481 -0.292,-1.04087 -0.7299,-1.3526 z"
         inkscape:connector-curvature="0"
         style="display:inline;fill:#cccccc;fill-opacity:1;stroke:#ffffff;stroke-width:1.8896358" />
      <path
         style="fill:#cccccc;stroke:#ffffff;stroke-width:1.29857433"
         inkscape:connector-curvature="0"
         d="m 1.78,18.259 6.97,0 c 0.983,0 1.78,-0.796 1.78,-1.778 l -0.002,-0.352 c -0.015,-1.361 -0.046,-4.196 1.523,-5.784 0.852,-0.861 2.101,-1.28 3.818,-1.28 2.497,0 4.066,0.885 4.941,2.782 0.771,1.678 0.771,3.691 0.77,4.633 0,0.982 0.797,1.778 1.779,1.778 l 6.857,0 c 0.983,0 1.78,-0.796 1.78,-1.778 0,-0.982 -0.797,-1.779 -1.78,-1.779 l -5.132,0 C 24.992,13.463 24.737,11.876 24.041,10.359 23.022,8.143 20.776,5.504 15.868,5.504 c -2.68,0 -4.816,0.786 -6.35,2.338 -2.021,2.042 -2.454,4.886 -2.537,6.857 l -5.201,0 c -0.983,0 -1.78,0.796 -1.78,1.779 0,0.985 0.797,1.781 1.78,1.781 z"
         id="path3573"
         transform="matrix(-1.7859626,0,0,-1.8001371,328.57548,600.34834)" />
      <path
         style="fill:#cccccc;stroke:#ffffff;stroke-width:1.29857433"
         inkscape:connector-curvature="0"
         d="m 30.221,20.93 -28.441,0 C 0.797,20.93 0,21.727 0,22.708 c 0,0.983 0.797,1.78 1.78,1.78 l 28.441,0 c 0.982,0 1.779,-0.797 1.779,-1.78 0,-0.983 -0.797,-1.778 -1.779,-1.778 z"
         id="path3575"
         transform="matrix(-1.7859626,0,0,-1.8001371,328.57548,600.34834)" />
      <path
         transform="matrix(-1.0671078,-0.616095,0.616095,-1.0671078,1234.4674,1516.0532)"
         id="path3605"
         d="m 1168.7541,257.29342 c 0.5809,-3.47466 -0.6975,-6.7417 -3.4186,-8.74204 -1.4288,-1.04975 -3.0687,-1.59095 -4.536,-1.57929 l 0,-1.75424 c 0,-4.65038 -3.8397,-5.43419 -6.2646,-5.43419 -1.6247,0 -3.1351,0.61119 -4.2572,1.72509 0,0.002 0,0.005 -0.01,0.007 -1.1908,-1.13605 -2.7689,-1.73208 -4.3027,-1.73208 -1.6213,0 -3.1329,0.61119 -4.2549,1.72509 -0.01,0.008 -0.016,0.0209 -0.025,0.0292 -1.1489,-0.95877 -2.5823,-1.4778 -3.9866,-1.4778 -1.6236,0 -3.1352,0.61119 -4.2573,1.72508 -0.8561,0.85029 -1.8778,2.39108 -1.8778,4.89648 0,1.14189 0.9237,2.06566 2.0668,2.06566 1.1418,0 2.0668,-0.92377 2.0668,-2.06566 0,-2.30828 1.5302,-2.4879 2.0003,-2.4879 0.9832,0 2.1309,0.65085 2.1309,2.4879 l 0,17.4841 c 0,1.1419 0.925,2.06567 2.0668,2.06567 1.1419,0 2.0668,-0.92495 2.0668,-2.06567 l 0,-17.76053 c 0,-2.30827 1.8009,-2.48323 2.2955,-2.48323 0.4945,0 2.1892,0.13179 2.1892,2.81098 0,3.34869 -0.053,17.43278 -0.053,17.43278 0,1.1419 0.9238,2.06567 2.0668,2.06567 1.1419,0 2.0668,-0.92495 2.0668,-2.06567 l 0,-17.76053 c 0,-2.30827 1.5303,-2.48674 2.0003,-2.48674 0.9833,0 2.1321,0.64968 2.1321,2.48674 0,0 0.06,18.86393 0.057,20.09097 -1.6795,0.98442 -3.3101,1.62827 -4.5395,1.86155 -1.122,0.21228 -1.8603,1.29235 -1.6492,2.41441 0.1878,0.99143 1.0544,1.68309 2.0295,1.68309 0.1259,0 0.2566,-0.014 0.3849,-0.0362 1.6586,-0.31492 3.9691,-1.21886 6.3193,-2.65585 2.2115,1.13256 5.2335,1.67843 6.7638,1.89771 1.1151,0.15046 2.1776,-0.62636 2.3374,-1.75424 0.161,-1.1314 -0.6228,-2.17764 -1.7542,-2.33977 -1.1757,-0.16913 -2.3992,-0.43623 -3.4431,-0.73133 2.7036,-2.47622 4.9395,-5.69195 5.5834,-9.54219 z m -7.8869,6.04305 c 0,-0.91095 0.01,-1.91988 0.011,-2.97195 0.012,-3.34403 0.024,-7.08112 0.024,-9.27976 0.4642,0.0233 1.3366,0.25544 2.1892,0.95527 0.7721,0.63334 2.0038,2.07033 1.5851,4.56989 -0.4269,2.56838 -1.9268,4.86032 -3.8093,6.72655 z"
         inkscape:connector-curvature="0"
         inkscape:transform-center-x="24.993665"
         inkscape:transform-center-y="33.325299"
         style="display:inline;fill:#cccccc;fill-opacity:1;stroke:#ffffff;stroke-width:1.88963592" />
      <path
         transform="matrix(-0.616095,-1.0671078,1.0671078,-0.616095,550.53328,1905.7355)"
         id="path3565"
         d="m 1245.3543,257.97509 c -0.8678,-0.97689 -2.3698,-1.06945 -3.3417,-0.20201 -0.9799,0.86693 -1.0684,2.36267 -0.2001,3.34049 0.2005,0.23012 -0.3014,4.47353 -2.2872,4.67691 -1.9854,0.20185 -3.768,-2.6116 -3.5076,-4.51678 0.5751,-4.16317 1.4139,-14.35936 -3.1983,-19.07423 -1.8248,-1.86518 -4.2864,-2.67605 -7.1761,-2.34268 -4.3203,0.60297 -7.2276,2.40008 -8.6429,5.35104 -1.9859,4.13794 -0.234,9.11955 0.9736,11.69963 -0.013,0.008 -0.027,0.009 -0.04,0.0166 -3.9751,2.29502 -5.3421,7.39648 -3.0471,11.37156 2.2945,3.97409 7.3962,5.34101 11.3714,3.04604 3.9741,-2.29445 5.3411,-7.39596 3.0466,-11.37004 -1.4208,-2.46084 -3.9192,-3.9167 -6.5593,-4.12811 -0.9648,-1.7529 -2.7361,-5.97677 -1.4759,-8.59309 0.6939,-1.42412 2.3764,-2.3342 4.9703,-2.69341 1.8189,-0.21165 2.6942,0.44436 3.1938,0.95609 2.1191,2.16491 2.8624,8.09886 1.8942,15.11547 -0.7269,5.27055 2.0507,8.94528 7.4271,9.83326 2.9438,0.10751 5.7991,-2.53766 6.6337,-4.05197 1.3201,-2.38422 2.1009,-6.02543 -0.034,-8.43497 z m -21.4642,9.26536 c -1.7143,0.98971 -3.9131,0.39976 -4.9018,-1.3126 -0.9897,-1.71426 -0.4012,-3.91345 1.3131,-4.90316 1.7142,-0.98973 3.9131,-0.39977 4.9028,1.3145 0.9878,1.71279 0.3993,3.91206 -1.3141,4.90126 z"
         inkscape:connector-curvature="0"
         style="display:inline;fill:#cccccc;fill-opacity:1;stroke:#ffffff;stroke-width:1.8896358" />
      <path
         style="fill:#cccccc;fill-opacity:1;stroke:#ffffff;stroke-width:1.64229298"
         inkscape:connector-curvature="0"
         d="m 27.955,17.946 c -0.087,0.077 -7.049,6.216 -14.847,6.046 0.944,-1.231 1.53,-2.756 1.53,-4.427 0,-4.036 -3.283,-7.318 -7.319,-7.318 C 3.283,12.246 0,15.529 0,19.565 c 0,3.599 2.614,6.581 6.04,7.189 2.52,1.15 5.032,1.632 7.44,1.632 9.279,0 16.985,-6.836 17.392,-7.204 0.894,-0.807 0.962,-2.181 0.16,-3.072 -0.807,-0.897 -2.182,-0.967 -3.077,-0.164 z M 7.319,22.527 c -1.634,0 -2.962,-1.326 -2.962,-2.962 0,-1.634 1.328,-2.961 2.962,-2.961 1.634,0 2.962,1.327 2.962,2.961 0,1.635 -1.328,2.962 -2.962,2.962 z"
         id="path3545"
         transform="matrix(0,-1.4173147,1.4182214,0,9.5594,322.67723)" />
      <path
         style="fill:#cccccc;fill-opacity:1;stroke:#ffffff;stroke-width:1.64229298"
         inkscape:connector-curvature="0"
         d="m 4.045,10.44 c 0.087,-0.077 7.049,-6.215 14.848,-6.045 -0.944,1.231 -1.531,2.755 -1.531,4.426 0,4.036 3.283,7.318 7.32,7.318 C 28.717,16.139 32,12.857 32,8.821 32,5.223 29.385,2.241 25.96,1.633 23.439,0.48 20.928,0 18.52,0 9.24,0 1.534,6.836 1.128,7.204 0.233,8.011 0.166,9.385 0.968,10.275 1.776,11.174 3.151,11.244 4.045,10.44 Z M 24.682,5.859 c 1.633,0 2.961,1.327 2.961,2.962 0,1.635 -1.328,2.962 -2.961,2.962 -1.635,0 -2.963,-1.327 -2.963,-2.962 0,-1.634 1.328,-2.962 2.963,-2.962 z"
         id="path3547"
         transform="matrix(0,-1.4173147,1.4182214,0,9.5594,322.67723)" />
      <path
         transform="matrix(0.616095,-1.0671078,1.0671078,0.616095,-1063.9165,1490.5734)"
         id="path3559"
         d="m 1395.9849,264.18566 10e-5,-15.96346 c 2.2664,-0.50644 4.042,-1.38442 5.2849,-2.64425 1.7213,-1.74677 1.7897,-3.54873 1.7854,-3.89284 -0.013,-1.02805 -0.8299,-1.81406 -1.8549,-1.85093 -1.036,-0.0298 -1.8977,0.79424 -1.9783,1.81831 -0.087,1.12089 -1.9537,3.23745 -8.3876,3.23734 -6.5683,-3e-5 -8.7196,-2.23384 -8.9418,-3.42413 -0.1324,-1.02415 -1.0428,-1.79095 -2.0841,-1.66934 -1.0544,0.099 -1.8286,1.03496 -1.7299,2.09291 0.021,0.21345 0.4913,4.12767 6.1213,5.93676 l 10e-5,16.39019 c -6.2659,1.701 -6.7702,5.91232 -6.7914,6.13592 -0.097,1.02496 0.6366,1.90198 1.6552,2.03978 1.0156,0.13782 1.9722,-0.59211 2.1535,-1.60495 0.2118,-1.18923 2.3561,-3.43545 8.9439,-3.43552 6.4338,2.8e-4 8.301,2.1165 8.3876,3.16091 -0.013,1.05987 0.8353,1.93155 1.8936,1.94292 0.011,-0.009 0.018,1.4e-4 0.023,-2.1e-4 1.0473,-1.1e-4 1.9049,-0.84635 1.9171,-1.89889 1e-4,-0.34323 -0.064,-2.14503 -1.7855,-3.89195 -1.1135,-1.13226 -2.6658,-1.95416 -4.6117,-2.47879 z m -7.9508,-0.60337 0,-14.99864 c 0.865,0.0888 1.7768,0.15 2.7984,0.14998 0.4543,1.1e-4 0.8862,-0.0193 1.3183,-0.0377 l -2e-4,14.88219 c -0.6376,-0.0438 -1.2957,-0.0719 -1.9884,-0.0719 -0.7528,3e-5 -1.4617,0.0254 -2.128,0.0755 z"
         inkscape:connector-curvature="0"
         style="display:inline;fill:#cccccc;stroke:#ffffff;stroke-width:1.8896358" />
      <path
         transform="matrix(1.0671078,-0.616095,0.616095,1.0671078,-1561.8412,698.39611)"
         id="path3599"
         d="m 1484.9488,239.78377 0,0 c -0.2907,-5e-5 -6.7983,0.12407 -11.5603,8.26786 -0.9577,-0.23671 -1.9523,-0.37768 -2.9824,-0.37767 -1.1429,1e-5 -2.2467,0.16817 -3.2982,0.45974 -4.7708,-8.22144 -11.3152,-8.35005 -11.6066,-8.35004 0,0 0,0 -0.012,0.0101 -1.1557,-6e-5 -2.0785,0.92486 -2.0995,2.07798 -0.019,1.15534 0.9071,2.11391 2.0648,2.15273 0.1904,0.01 4.3566,0.22732 7.8052,5.93957 -3.1686,2.2465 -5.247,5.93521 -5.247,10.1061 10e-5,6.82854 5.5565,12.38518 12.3875,12.38518 6.8322,-6e-5 12.3907,-5.55556 12.3907,-12.38524 0,-4.28126 -2.1857,-8.06167 -5.4975,-10.28705 3.4001,-5.49024 7.438,-5.74806 7.6886,-5.75851 1.1587,-0.0169 2.0868,-0.96064 2.0837,-2.12216 0,-1.16481 -0.9492,-2.10854 -2.1174,-2.10859 z m -14.5491,28.4296 c -4.4956,10e-6 -8.1549,-3.65745 -8.1549,-8.15231 0,-4.49591 3.6591,-8.15517 8.1549,-8.15533 4.4989,5e-5 8.158,3.65946 8.1581,8.15552 -2e-4,4.49462 -3.6594,8.15201 -8.1581,8.15212 z"
         inkscape:connector-curvature="0"
         style="display:inline;fill:#cccccc;fill-opacity:1;stroke:#ffffff;stroke-width:1.88963556" />
    </g>
    <path
       id="path3025"
       d="M 326.625,17.96875 C 331.65205,37.291695 336.69134,56.613614 341.71875,75.9375 360.34164,71.106734 379.86607,68.53125 400,68.53125 420.13393,68.53125 439.65836,71.106734 458.28125,75.9375 463.30868,56.61359 468.34795,37.291755 473.375,17.96875 424.46199,17.968947 375.53814,17.968738 326.625,17.96875 z M 322.53125,19.09375 C 280.17133,43.550246 237.79746,67.980825 195.4375,92.4375 209.46387,106.66961 223.50394,120.89199 237.53125,135.125 265.24974,107.80906 299.82364,87.439416 338.4375,76.8125 333.13184,57.573881 327.83693,38.333215 322.53125,19.09375 z M 477.46875,19.09375 C 472.16309,38.333226 466.86815,57.573882 461.5625,76.8125 500.17636,87.439416 534.75026,107.80906 562.46875,135.125 576.49605,120.89198 590.53614,106.66964 604.5625,92.4375 562.20248,67.980942 519.82873,43.550383 477.46875,19.09375 z M 192.4375,95.4375 C 167.98099,137.79727 143.55021,180.17117 119.09375,222.53125 138.33321,227.83687 157.57388,233.13186 176.8125,238.4375 187.43942,199.82364 207.80906,165.24974 235.125,137.53125 L 192.4375,95.4375 z M 607.5625,95.4375 C 593.33035,109.4639 579.10803,123.50394 564.875,137.53125 592.19094,165.24974 612.56058,199.82364 623.1875,238.4375 642.42612,233.13183 661.66676,227.83695 680.90625,222.53125 656.44958,180.17143 632.01895,137.79759 607.5625,95.4375 z M 117.96875,226.625 C 117.96871,275.53801 117.96875,324.46186 117.96875,373.375 137.29171,368.34792 156.61361,363.30867 175.9375,358.28125 171.10673,339.65836 168.53125,320.13393 168.53125,300 168.53125,279.86607 171.10673,260.34164 175.9375,241.71875 156.61361,236.69132 137.29171,231.65205 117.96875,226.625 z M 682.03125,226.625 C 662.70829,231.65203 643.38639,236.69134 624.0625,241.71875 628.89327,260.34164 631.46875,279.86607 631.46875,300 631.46875,320.13393 628.89327,339.65836 624.0625,358.28125 643.38639,363.30867 662.70827,368.34795 682.03125,373.375 682.03129,324.46186 682.03118,275.53814 682.03125,226.625 z M 176.8125,361.5625 119.09375,377.46875 C 143.55024,419.82867 167.98098,462.20259 192.4375,504.5625 206.66964,490.53614 220.89198,476.49605 235.125,462.46875 207.80906,434.75026 187.43942,400.17636 176.8125,361.5625 z M 623.1875,361.5625 C 612.56058,400.17636 592.19094,434.75026 564.875,462.46875 579.10802,476.49605 593.33033,490.53615 607.5625,504.5625 632.01886,462.20265 656.44981,419.8287 680.90625,377.46875 661.66678,372.16307 642.42611,366.86815 623.1875,361.5625 z M 237.53125,464.875 C 223.50394,479.10802 209.46389,493.33037 195.4375,507.5625 237.79752,532.01906 280.17134,556.44973 322.53125,580.90625 327.83691,561.66678 333.13184,542.42611 338.4375,523.1875 299.82364,512.56058 265.24974,492.19094 237.53125,464.875 z M 562.46875,464.875 C 534.75026,492.19094 500.17636,512.56058 461.5625,523.1875 466.86815,542.42612 472.16312,561.66677 477.46875,580.90625 519.82877,556.44968 562.20251,532.01904 604.5625,507.5625 590.53612,493.33036 576.49605,479.10802 562.46875,464.875 z M 341.71875,524.0625 C 336.69133,543.38639 331.65205,562.70829 326.625,582.03125 L 473.375,582.03125 C 468.34792,562.70829 463.30868,543.38639 458.28125,524.0625 439.65836,528.89327 420.13393,531.46875 400,531.46875 379.86607,531.46875 360.34164,528.89327 341.71875,524.0625 z"
       style="fill:none;stroke:#cccccc;stroke-width:2;display:inline"
       inkscape:connector-curvature="0"
       transform="translate(600,0)" />
    <path
       sodipodi:type="star"
       style="opacity:0.68000034;fill:#999999;fill-opacity:1;stroke:#999999;stroke-width:2.12655616;stroke-linecap:round;stroke-linejoin:round;stroke-miterlimit:2.9000001;stroke-opacity:1;stroke-dasharray:1.06327805, 1.06327805;stroke-dashoffset:0"
       id="path3027"
       sodipodi:sides="12"
       sodipodi:cx="71.889191"
       sodipodi:cy="63.777359"
       sodipodi:r1="307.52115"
       sodipodi:r2="297.04263"
       sodipodi:arg1="0.78539816"
       sodipodi:arg2="1.0471976"
       inkscape:flatsided="true"
       inkscape:rounded="0"
       inkscape:randomized="0"
       d="M 289.33948,281.22765 151.48152,360.81998 -7.7031384,360.81998 -145.5611,281.22765 -225.15343,143.36969 -225.15343,-15.81497 -145.5611,-153.67293 -7.7031404,-233.26526 151.48152,-233.26526 289.33948,-153.67293 368.93181,-15.814972 368.93181,143.36969 z"
       transform="matrix(0.94048777,0,0,0.94048777,1032.3891,240.01817)" />
  </g>
  <g
     inkscape:groupmode="layer"
     id="layer2"
     inkscape:label="House"
     style="display:inline">
    <rect
       style="fill:#999999;fill-opacity:1;stroke:none"
       id="house-5"
       width="640.40302"
       height="24.794653"
       x="-47.140453"
       y="300"
       transform="matrix(0.35602579,0.61665477,-0.06985582,0.04033127,224.60599,119.01622)"
       rx="1.4043926"
       ry="12.397326"
       inkscape:label="" />
    <rect
       inkscape:label=""
       ry="12.397326"
       rx="1.4043926"
       transform="matrix(0.61665476,0.3560258,-0.04033128,0.06985581,144.21499,180.96045)"
       y="300"
       x="-47.140453"
       height="24.794653"
       width="640.40302"
       id="house-6"
       style="fill:#999999;fill-opacity:1;stroke:none" />
    <rect
       inkscape:label=""
       ry="12.397326"
       rx="1.4043926"
       transform="matrix(0.61665477,-0.35602579,0.04033127,0.06985582,119.01622,375.39401)"
       y="300"
       x="-47.140453"
       height="24.794653"
       width="640.40302"
       id="house-2"
       style="fill:#999999;fill-opacity:1;stroke:none" />
    <rect
       style="fill:#999999;fill-opacity:1;stroke:none"
       id="house-3"
       width="640.40302"
       height="24.794653"
       x="-47.140453"
       y="300"
       transform="matrix(0.3560258,-0.61665476,0.06985581,0.04033128,180.96045,455.78501)"
       rx="1.4043926"
       ry="12.397326"
       inkscape:label="" />
    <rect
       inkscape:label=""
       ry="14.876793"
       rx="2.8087852"
       transform="matrix(0.71205159,0,0,0.13443758,93.566435,257.16873)"
       y="300"
       x="-47.140453"
       height="37.191982"
       width="674.10846"
       id="ascendant"
       style="fill:#4d4d4d;fill-opacity:1;stroke:none" />
    <rect
       style="fill:#4d4d4d;fill-opacity:1;stroke:none"
       id="mc"
       width="674.10846"
       height="37.191982"
       x="-47.140453"
       y="300"
       transform="matrix(0,0.71205159,-0.08066255,0,325.69877,93.566435)"
       rx="1.4043926"
       ry="12.397326"
       inkscape:label="" />
    <path
       sodipodi:type="arc"
       style="fill:#ffffff;fill-opacity:1;stroke:#999999;stroke-width:2;stroke-linecap:round;stroke-linejoin:round;stroke-miterlimit:2.9000001;stroke-opacity:1;stroke-dasharray:none;stroke-dashoffset:0"
       id="path3020"
       sodipodi:cx="275"
       sodipodi:cy="268"
       sodipodi:rx="165"
       sodipodi:ry="165"
       d="M 440,268 A 165,165 0 1 1 110,268 165,165 0 1 1 440,268 z"
       transform="translate(25,32)" />
    <path
       sodipodi:type="arc"
       style="fill:#4d4d4d;fill-opacity:1;stroke:none"
       id="path3892"
       sodipodi:cx="205.65022"
       sodipodi:cy="281.80194"
       sodipodi:rx="28.873528"
       sodipodi:ry="28.873528"
       d="M 234.52375,281.80194 A 28.873528,28.873528 0 1 1 176.7767,281.80194 28.873528,28.873528 0 1 1 234.52375,281.80194 z"
       transform="matrix(0.46755631,0,0,0.46755631,203.84694,168.24172)" />
    <g
       id="g3921"
       style="fill:#ececec">
      <text
         inkscape:transform-center-x="191.42961"
         inkscape:transform-center-y="51.29342"
         transform="matrix(-0.25881904,-0.96592583,0.96592583,-0.25881904,-62.406759,658.18256)"
         sodipodi:linespacing="125%"
         id="house-1-text"
         y="258"
         x="245"
         style="font-style:normal;font-weight:bold;font-size:40px;line-height:125%;font-family:Sans;-inkscape-font-specification:'Sans Bold';letter-spacing:0px;word-spacing:0px;fill:#ececec;fill-opacity:1;stroke:none"
         xml:space="preserve"><tspan
           style="font-style:normal;font-variant:normal;font-weight:bold;font-stretch:normal;font-family:'Bitstream Charter';-inkscape-font-specification:'Sans Bold';fill:#ececec"
           y="258"
           x="245"
           id="tspan3802"
           sodipodi:role="line">I</tspan></text>
      <text
         inkscape:transform-center-x="51.293414"
         xml:space="preserve"
         style="font-style:normal;font-weight:bold;font-size:40px;line-height:125%;font-family:Sans;-inkscape-font-specification:'Sans Bold';letter-spacing:0px;word-spacing:0px;fill:#ececec;fill-opacity:1;stroke:none"
         x="245"
         y="258"
         id="house-10-text"
         sodipodi:linespacing="125%"
         transform="matrix(0.96592583,-0.25881905,0.25881905,0.96592583,-63.68833,-60.931517)"
         inkscape:transform-center-y="-191.42963"><tspan
           sodipodi:role="line"
           id="tspan3838"
           x="245"
           y="258"
           style="font-style:normal;font-variant:normal;font-weight:bold;font-stretch:normal;font-family:'Bitstream Charter';-inkscape-font-specification:'Sans Bold';fill:#ececec">X</tspan></text>
      <text
         inkscape:transform-center-x="140.13622"
         xml:space="preserve"
         style="font-style:normal;font-weight:bold;font-size:40px;line-height:125%;font-family:Sans;-inkscape-font-specification:'Sans Bold';letter-spacing:0px;word-spacing:0px;fill:#ececec;fill-opacity:1;stroke:none"
         x="245"
         y="258"
         id="house-11-text"
         sodipodi:linespacing="125%"
         transform="matrix(0.70710678,-0.70710679,0.70710679,0.70710678,-199.97888,173.81809)"
         inkscape:transform-center-y="-140.13622"><tspan
           sodipodi:role="line"
           id="tspan3842"
           x="245"
           y="258"
           style="font-style:normal;font-variant:normal;font-weight:bold;font-stretch:normal;font-family:'Bitstream Charter';-inkscape-font-specification:'Sans Bold';fill:#ececec">XI</tspan></text>
      <text
         inkscape:transform-center-x="191.42962"
         xml:space="preserve"
         style="font-style:normal;font-weight:bold;font-size:40px;line-height:125%;font-family:Sans;-inkscape-font-specification:'Sans Bold';letter-spacing:0px;word-spacing:0px;fill:#ececec;fill-opacity:1;stroke:none"
         x="245"
         y="258"
         id="house-12-text"
         sodipodi:linespacing="125%"
         transform="matrix(0.25881904,-0.96592583,0.96592583,0.25881904,-197.91529,447.54209)"
         inkscape:transform-center-y="-51.293419"><tspan
           sodipodi:role="line"
           id="tspan3846"
           x="245"
           y="258"
           style="font-style:normal;font-variant:normal;font-weight:bold;font-stretch:normal;font-family:'Bitstream Charter';-inkscape-font-specification:'Sans Bold';fill:#ececec">XII</tspan></text>
      <text
         inkscape:transform-center-x="-51.293413"
         xml:space="preserve"
         style="font-style:normal;font-weight:bold;font-size:40px;line-height:125%;font-family:Sans;-inkscape-font-specification:'Sans Bold';letter-spacing:0px;word-spacing:0px;fill:#ececec;fill-opacity:1;stroke:none"
         x="245"
         y="258"
         id="house-9-text"
         sodipodi:linespacing="125%"
         transform="matrix(0.96592583,0.25881905,-0.25881905,0.96592583,158.09347,-196.40525)"
         inkscape:transform-center-y="-191.42963"><tspan
           sodipodi:role="line"
           id="tspan3850"
           x="245"
           y="258"
           style="font-style:normal;font-variant:normal;font-weight:bold;font-stretch:normal;font-family:'Bitstream Charter';-inkscape-font-specification:'Sans Bold';fill:#ececec">IX</tspan></text>
      <text
         inkscape:transform-center-x="-191.42962"
         xml:space="preserve"
         style="font-style:normal;font-weight:bold;font-size:40px;line-height:125%;font-family:Sans;-inkscape-font-specification:'Sans Bold';letter-spacing:0px;word-spacing:0px;fill:#ececec;fill-opacity:1;stroke:none"
         x="245"
         y="258"
         id="house-7-text"
         sodipodi:linespacing="125%"
         transform="matrix(0.25881904,0.96592583,-0.96592583,0.25881904,657.59369,-76.259798)"
         inkscape:transform-center-y="-51.303773"><tspan
           sodipodi:role="line"
           id="tspan3862"
           x="245"
           y="258"
           style="font-style:normal;font-variant:normal;font-weight:bold;font-stretch:normal;font-family:'Bitstream Charter';-inkscape-font-specification:'Sans Bold';fill:#ececec">VII</tspan></text>
      <text
         inkscape:transform-center-y="51.293414"
         inkscape:transform-center-x="-191.46827"
         xml:space="preserve"
         style="font-style:normal;font-weight:bold;font-size:40px;line-height:125%;font-family:Sans;-inkscape-font-specification:'Sans Bold';letter-spacing:0px;word-spacing:0px;fill:#ececec;fill-opacity:1;stroke:none"
         x="245"
         y="258"
         id="house-6-text"
         sodipodi:linespacing="125%"
         transform="matrix(-0.25881905,0.96592583,-0.96592583,-0.25881905,796.00519,159.78107)"><tspan
           sodipodi:role="line"
           id="tspan3866"
           x="245"
           y="258"
           style="font-style:normal;font-variant:normal;font-weight:bold;font-stretch:normal;font-family:'Bitstream Charter';-inkscape-font-specification:'Sans Bold';fill:#ececec">VI</tspan></text>
      <text
         inkscape:transform-center-x="-140.13623"
         xml:space="preserve"
         style="font-style:normal;font-weight:bold;font-size:40px;line-height:125%;font-family:Sans;-inkscape-font-specification:'Sans Bold';letter-spacing:0px;word-spacing:0px;fill:#ececec;fill-opacity:1;stroke:none"
         x="245"
         y="258"
         id="house-5-text"
         sodipodi:linespacing="125%"
         transform="matrix(-0.70710679,0.70710678,-0.70710678,-0.70710679,795.38669,430.87068)"
         inkscape:transform-center-y="140.1362"><tspan
           sodipodi:role="line"
           id="tspan3870"
           x="245"
           y="258"
           style="font-style:normal;font-variant:normal;font-weight:bold;font-stretch:normal;font-family:'Bitstream Charter';-inkscape-font-specification:'Sans Bold';fill:#ececec">V</tspan></text>
      <text
         inkscape:transform-center-y="191.46826"
         inkscape:transform-center-x="-51.293418"
         xml:space="preserve"
         style="font-style:normal;font-weight:bold;font-size:40px;line-height:125%;font-family:Sans;-inkscape-font-specification:'Sans Bold';letter-spacing:0px;word-spacing:0px;fill:#ececec;fill-opacity:1;stroke:none"
         x="245"
         y="258"
         id="house-4-text"
         sodipodi:linespacing="125%"
         transform="matrix(-0.96592583,0.25881904,-0.25881904,-0.96592583,671.41674,658.9421)"><tspan
           sodipodi:role="line"
           id="tspan3874"
           x="245"
           y="258"
           style="font-style:normal;font-variant:normal;font-weight:bold;font-stretch:normal;font-family:'Bitstream Charter';-inkscape-font-specification:'Sans Bold';fill:#ececec">IV</tspan></text>
      <text
         inkscape:transform-center-x="51.293413"
         inkscape:transform-center-y="191.42963"
         xml:space="preserve"
         style="font-style:normal;font-weight:bold;font-size:40px;line-height:125%;font-family:Sans;-inkscape-font-specification:'Sans Bold';letter-spacing:0px;word-spacing:0px;fill:#ececec;fill-opacity:1;stroke:none"
         x="245"
         y="258"
         id="house-3-text"
         sodipodi:linespacing="125%"
         transform="matrix(-0.96592583,-0.25881905,0.25881905,-0.96592583,442.6506,796.60462)"><tspan
           sodipodi:role="line"
           id="tspan3882"
           x="245"
           y="258"
           style="font-style:normal;font-variant:normal;font-weight:bold;font-stretch:normal;font-family:'Bitstream Charter';-inkscape-font-specification:'Sans Bold';fill:#ececec">III</tspan></text>
      <text
         inkscape:transform-center-x="140.13622"
         inkscape:transform-center-y="140.13622"
         xml:space="preserve"
         style="font-style:normal;font-weight:bold;font-size:40px;line-height:125%;font-family:Sans;-inkscape-font-specification:'Sans Bold';letter-spacing:0px;word-spacing:0px;fill:#ececec;fill-opacity:1;stroke:none"
         x="245"
         y="258"
         id="house-2-text"
         sodipodi:linespacing="125%"
         transform="matrix(-0.70710678,-0.70710679,0.70710679,-0.70710678,170.23724,796.39805)"><tspan
           sodipodi:role="line"
           id="tspan3886"
           x="245"
           y="258"
           style="font-style:normal;font-variant:normal;font-weight:bold;font-stretch:normal;font-family:'Bitstream Charter';-inkscape-font-specification:'Sans Bold';fill:#ececec">II</tspan></text>
      <text
         inkscape:transform-center-x="-140.13621"
         inkscape:transform-center-y="-140.16452"
         transform="matrix(0.70710678,0.70710679,-0.70710679,0.70710678,416.53586,-209.6415)"
         sodipodi:linespacing="125%"
         id="house-8-text"
         y="258"
         x="245"
         style="font-style:normal;font-weight:bold;font-size:40px;line-height:125%;font-family:Sans;-inkscape-font-specification:'Sans Bold';letter-spacing:0px;word-spacing:0px;fill:#ececec;fill-opacity:1;stroke:none"
         xml:space="preserve"><tspan
           style="font-style:normal;font-variant:normal;font-weight:bold;font-stretch:normal;font-family:'Bitstream Charter';-inkscape-font-specification:'Sans Bold';fill:#ececec"
           y="258"
           x="245"
           id="tspan3890"
           sodipodi:role="line">VIII</tspan></text>
    </g>
    <circle
       id="path3898"
       style="fill:none;fill-opacity:1;stroke:#999999;stroke-width:2;stroke-linecap:round;stroke-linejoin:round;stroke-miterlimit:2.9000001;stroke-dasharray:none;stroke-dashoffset:0;stroke-opacity:1"
       cx="300"
       cy="300"
       r="165" />
  </g>
</svg>
