<?xml version="1.0" encoding="UTF-8" standalone="no"?>
<!-- Created with Inkscape (http://www.inkscape.org/) -->

<svg
   xmlns:dc="http://purl.org/dc/elements/1.1/"
   xmlns:cc="http://creativecommons.org/ns#"
   xmlns:rdf="http://www.w3.org/1999/02/22-rdf-syntax-ns#"
   xmlns:svg="http://www.w3.org/2000/svg"
   xmlns="http://www.w3.org/2000/svg"
   xmlns:sodipodi="http://sodipodi.sourceforge.net/DTD/sodipodi-0.dtd"
   xmlns:inkscape="http://www.inkscape.org/namespaces/inkscape"
   width="600"
   height="600"
   id="svg2985"
   version="1.1"
   inkscape:version="0.48.4 r9939"
   sodipodi:docname="zodiac.svg">
  <defs
     id="defs2987">
    <linearGradient
       id="linearGradient3909">
      <stop
         style="stop-color:#ffffff;stop-opacity:1"
         offset="0"
         id="stop3911" />
      <stop
         id="stop3919"
         offset="0.81430256"
         style="stop-color:#ffffff;stop-opacity:1;" />
      <stop
         id="stop3917"
         offset="0.93488532"
         style="stop-color:#ffffff;stop-opacity:1;" />
      <stop
         style="stop-color:#f2f2f2;stop-opacity:1;"
         offset="1"
         id="stop3913" />
    </linearGradient>
  </defs>
  <sodipodi:namedview
     id="base"
     pagecolor="#ffffff"
     bordercolor="#666666"
     borderopacity="1.0"
     inkscape:pageopacity="0.0"
     inkscape:pageshadow="2"
     inkscape:zoom="1.4142136"
     inkscape:cx="703.00083"
     inkscape:cy="338.1445"
     inkscape:current-layer="svg2985"
     inkscape:document-units="px"
     showgrid="false"
     inkscape:window-width="1855"
     inkscape:window-height="1056"
     inkscape:window-x="65"
     inkscape:window-y="24"
     inkscape:window-maximized="1"
     showguides="false"
     inkscape:guide-bbox="true">
    <sodipodi:guide
       orientation="0,1"
       position="300,300"
       id="guide3017" />
  </sodipodi:namedview>
  <metadata
     id="metadata2990">
    <rdf:RDF>
      <cc:Work
         rdf:about="">
        <dc:format>image/svg+xml</dc:format>
        <dc:type
           rdf:resource="http://purl.org/dc/dcmitype/StillImage" />
        <dc:title />
      </cc:Work>
    </rdf:RDF>
  </metadata>
  <g
     inkscape:groupmode="layer"
     id="design"
     inkscape:label="Design">
    <path
       id="path3025"
       d="M 326.625,17.96875 C 331.65205,37.291695 336.69134,56.613614 341.71875,75.9375 360.34164,71.106734 379.86607,68.53125 400,68.53125 420.13393,68.53125 439.65836,71.106734 458.28125,75.9375 463.30868,56.61359 468.34795,37.291755 473.375,17.96875 424.46199,17.968947 375.53814,17.968738 326.625,17.96875 z M 322.53125,19.09375 C 280.17133,43.550246 237.79746,67.980825 195.4375,92.4375 209.46387,106.66961 223.50394,120.89199 237.53125,135.125 265.24974,107.80906 299.82364,87.439416 338.4375,76.8125 333.13184,57.573881 327.83693,38.333215 322.53125,19.09375 z M 477.46875,19.09375 C 472.16309,38.333226 466.86815,57.573882 461.5625,76.8125 500.17636,87.439416 534.75026,107.80906 562.46875,135.125 576.49605,120.89198 590.53614,106.66964 604.5625,92.4375 562.20248,67.980942 519.82873,43.550383 477.46875,19.09375 z M 192.4375,95.4375 C 167.98099,137.79727 143.55021,180.17117 119.09375,222.53125 138.33321,227.83687 157.57388,233.13186 176.8125,238.4375 187.43942,199.82364 207.80906,165.24974 235.125,137.53125 L 192.4375,95.4375 z M 607.5625,95.4375 C 593.33035,109.4639 579.10803,123.50394 564.875,137.53125 592.19094,165.24974 612.56058,199.82364 623.1875,238.4375 642.42612,233.13183 661.66676,227.83695 680.90625,222.53125 656.44958,180.17143 632.01895,137.79759 607.5625,95.4375 z M 117.96875,226.625 C 117.96871,275.53801 117.96875,324.46186 117.96875,373.375 137.29171,368.34792 156.61361,363.30867 175.9375,358.28125 171.10673,339.65836 168.53125,320.13393 168.53125,300 168.53125,279.86607 171.10673,260.34164 175.9375,241.71875 156.61361,236.69132 137.29171,231.65205 117.96875,226.625 z M 682.03125,226.625 C 662.70829,231.65203 643.38639,236.69134 624.0625,241.71875 628.89327,260.34164 631.46875,279.86607 631.46875,300 631.46875,320.13393 628.89327,339.65836 624.0625,358.28125 643.38639,363.30867 662.70827,368.34795 682.03125,373.375 682.03129,324.46186 682.03118,275.53814 682.03125,226.625 z M 176.8125,361.5625 119.09375,377.46875 C 143.55024,419.82867 167.98098,462.20259 192.4375,504.5625 206.66964,490.53614 220.89198,476.49605 235.125,462.46875 207.80906,434.75026 187.43942,400.17636 176.8125,361.5625 z M 623.1875,361.5625 C 612.56058,400.17636 592.19094,434.75026 564.875,462.46875 579.10802,476.49605 593.33033,490.53615 607.5625,504.5625 632.01886,462.20265 656.44981,419.8287 680.90625,377.46875 661.66678,372.16307 642.42611,366.86815 623.1875,361.5625 z M 237.53125,464.875 C 223.50394,479.10802 209.46389,493.33037 195.4375,507.5625 237.79752,532.01906 280.17134,556.44973 322.53125,580.90625 327.83691,561.66678 333.13184,542.42611 338.4375,523.1875 299.82364,512.56058 265.24974,492.19094 237.53125,464.875 z M 562.46875,464.875 C 534.75026,492.19094 500.17636,512.56058 461.5625,523.1875 466.86815,542.42612 472.16312,561.66677 477.46875,580.90625 519.82877,556.44968 562.20251,532.01904 604.5625,507.5625 590.53612,493.33036 576.49605,479.10802 562.46875,464.875 z M 341.71875,524.0625 C 336.69133,543.38639 331.65205,562.70829 326.625,582.03125 L 473.375,582.03125 C 468.34792,562.70829 463.30868,543.38639 458.28125,524.0625 439.65836,528.89327 420.13393,531.46875 400,531.46875 379.86607,531.46875 360.34164,528.89327 341.71875,524.0625 z"
       style="fill:none;stroke:#cccccc;stroke-width:2;display:inline"
       inkscape:connector-curvature="0"
       transform="translate(598,0)" />
    <path
       sodipodi:type="star"
       style="opacity:0.68000034;fill:#999999;fill-opacity:1;stroke:#999999;stroke-width:2.12655616;stroke-linecap:round;stroke-linejoin:round;stroke-miterlimit:2.9000001;stroke-opacity:1;stroke-dasharray:1.06327805, 1.06327805;stroke-dashoffset:0;display:inline"
       id="path3027"
       sodipodi:sides="12"
       sodipodi:cx="71.889191"
       sodipodi:cy="63.777359"
       sodipodi:r1="307.52115"
       sodipodi:r2="297.04263"
       sodipodi:arg1="0.78539816"
       sodipodi:arg2="1.0471976"
       inkscape:flatsided="true"
       inkscape:rounded="0"
       inkscape:randomized="0"
       d="M 289.33948,281.22765 151.48152,360.81998 -7.7031384,360.81998 -145.5611,281.22765 -225.15343,143.36969 -225.15343,-15.81497 -145.5611,-153.67293 -7.7031404,-233.26526 151.48152,-233.26526 289.33948,-153.67293 368.93181,-15.814972 368.93181,143.36969 z"
       transform="matrix(0.94048777,0,0,0.94048777,1030.3891,240.01817)" />
  </g>
  <g
     id="zodiac"
     inkscape:label="Zodiac"
     inkscape:groupmode="layer"
     transform="translate(-2,0)">
    <g
       id="g3782"
       transform="translate(3.3766498e-7,-4.1931609e-6)">
      <g
         id="g3662"
         transform="matrix(0.8660254,0.5,-0.5,0.8660254,190.19238,-109.80763)">
        <rect
           style="display:inline;fill:#cccccc;fill-opacity:1;stroke:none"
           id="rect3664"
           width="490"
           height="1.9999999"
           x="27.711655"
           y="-326.0051"
           transform="matrix(-0.08715576,0.9961947,-0.99619469,-0.08715585,0,0)"
           rx="1"
           ry="0.99999994"
           inkscape:label="" />
        <rect
           inkscape:label=""
           ry="0.99999994"
           rx="1"
           transform="matrix(0.08715573,0.9961947,-0.99619471,0.08715564,0,0)"
           y="-273.71164"
           x="80.005096"
           height="1.9999999"
           width="490"
           id="rect3666"
           style="display:inline;fill:#cccccc;fill-opacity:1;stroke:none" />
        <rect
           style="display:inline;fill:#cccccc;fill-opacity:1;stroke:none"
           id="rect3668"
           width="480"
           height="1.2"
           x="46.62862"
           y="-313.4003"
           transform="matrix(-0.0436194,0.99904822,-0.99904822,-0.04361948,0,0)"
           inkscape:label="" />
        <rect
           inkscape:label=""
           transform="matrix(-1.2691638e-8,1,-1,-9.2615496e-8,0,0)"
           y="-300.60001"
           x="59.999973"
           height="1.2"
           width="480"
           id="rect3670"
           style="display:inline;fill:#cccccc;fill-opacity:1;stroke:none" />
        <rect
           style="display:inline;fill:#cccccc;fill-opacity:1;stroke:none"
           id="rect3672"
           width="480"
           height="1.2"
           x="72.800255"
           y="-287.22867"
           transform="matrix(0.04361937,0.99904822,-0.99904823,0.04361929,0,0)"
           inkscape:label="" />
        <rect
           inkscape:label=""
           transform="matrix(0.13052618,0.99144486,-0.99144487,0.1305261,0,0)"
           y="-258.87561"
           x="96.591293"
           height="1.2"
           width="480"
           id="rect3674"
           style="display:inline;fill:#cccccc;fill-opacity:1;stroke:none" />
        <rect
           style="display:inline;fill:#cccccc;fill-opacity:1;stroke:none"
           id="rect3676"
           width="480"
           height="1.2"
           x="107.53676"
           y="-243.94789"
           transform="matrix(0.17364817,0.98480775,-0.98480777,0.17364809,0,0)"
           inkscape:label="" />
        <rect
           inkscape:label=""
           transform="matrix(0.21643961,0.97629601,-0.97629603,0.21643953,0,0)"
           y="-228.55692"
           x="117.82067"
           height="1.2"
           width="480"
           id="rect3678"
           style="display:inline;fill:#cccccc;fill-opacity:1;stroke:none" />
        <rect
           style="display:inline;fill:#cccccc;fill-opacity:1;stroke:none"
           id="rect3680"
           width="480"
           height="1.2"
           x="18.275578"
           y="-337.19135"
           transform="matrix(-0.1305262,0.99144486,-0.99144485,-0.13052629,0,0)"
           inkscape:label="" />
        <rect
           inkscape:label=""
           transform="matrix(-0.17364819,0.98480775,-0.98480774,-0.17364827,0,0)"
           y="-348.13681"
           x="3.3478477"
           height="1.2"
           width="480"
           id="rect3682"
           style="display:inline;fill:#cccccc;fill-opacity:1;stroke:none" />
        <rect
           style="display:inline;fill:#cccccc;fill-opacity:1;stroke:none"
           id="rect3684"
           width="480"
           height="1.2"
           x="-12.043111"
           y="-358.42072"
           transform="matrix(-0.21643963,0.976296,-0.97629599,-0.2164397,0,0)"
           inkscape:label="" />
      </g>
      <g
         id="g3649">
        <rect
           inkscape:label=""
           ry="0.99999994"
           rx="1"
           transform="matrix(-0.08715576,0.9961947,-0.99619469,-0.08715585,0,0)"
           y="-326.0051"
           x="27.711655"
           height="1.9999999"
           width="490"
           id="rect3620"
           style="display:inline;fill:#cccccc;fill-opacity:1;stroke:none" />
        <rect
           style="display:inline;fill:#cccccc;fill-opacity:1;stroke:none"
           id="rect3623"
           width="490"
           height="1.9999999"
           x="80.005096"
           y="-273.71164"
           transform="matrix(0.08715573,0.9961947,-0.99619471,0.08715564,0,0)"
           rx="1"
           ry="0.99999994"
           inkscape:label="" />
        <rect
           inkscape:label=""
           transform="matrix(-0.0436194,0.99904822,-0.99904822,-0.04361948,0,0)"
           y="-313.4003"
           x="46.62862"
           height="1.2"
           width="480"
           id="rect3625"
           style="display:inline;fill:#cccccc;fill-opacity:1;stroke:none" />
        <rect
           style="display:inline;fill:#cccccc;fill-opacity:1;stroke:none"
           id="rect3633"
           width="480"
           height="1.2"
           x="59.999973"
           y="-300.60001"
           transform="matrix(-1.2691638e-8,1,-1,-9.2615496e-8,0,0)"
           inkscape:label="" />
        <rect
           inkscape:label=""
           transform="matrix(0.04361937,0.99904822,-0.99904823,0.04361929,0,0)"
           y="-287.22867"
           x="72.800255"
           height="1.2"
           width="480"
           id="rect3635"
           style="display:inline;fill:#cccccc;fill-opacity:1;stroke:none" />
        <rect
           style="display:inline;fill:#cccccc;fill-opacity:1;stroke:none"
           id="rect3637"
           width="480"
           height="1.2"
           x="96.591293"
           y="-258.87561"
           transform="matrix(0.13052618,0.99144486,-0.99144487,0.1305261,0,0)"
           inkscape:label="" />
        <rect
           inkscape:label=""
           transform="matrix(0.17364817,0.98480775,-0.98480777,0.17364809,0,0)"
           y="-243.94789"
           x="107.53676"
           height="1.2"
           width="480"
           id="rect3639"
           style="display:inline;fill:#cccccc;fill-opacity:1;stroke:none" />
        <rect
           style="display:inline;fill:#cccccc;fill-opacity:1;stroke:none"
           id="rect3641"
           width="480"
           height="1.2"
           x="117.82067"
           y="-228.55692"
           transform="matrix(0.21643961,0.97629601,-0.97629603,0.21643953,0,0)"
           inkscape:label="" />
        <rect
           inkscape:label=""
           transform="matrix(-0.1305262,0.99144486,-0.99144485,-0.13052629,0,0)"
           y="-337.19135"
           x="18.275578"
           height="1.2"
           width="480"
           id="rect3643"
           style="display:inline;fill:#cccccc;fill-opacity:1;stroke:none" />
        <rect
           style="display:inline;fill:#cccccc;fill-opacity:1;stroke:none"
           id="rect3645"
           width="480"
           height="1.2"
           x="3.3478477"
           y="-348.13681"
           transform="matrix(-0.17364819,0.98480775,-0.98480774,-0.17364827,0,0)"
           inkscape:label="" />
        <rect
           inkscape:label=""
           transform="matrix(-0.21643963,0.976296,-0.97629599,-0.2164397,0,0)"
           y="-358.42072"
           x="-12.043111"
           height="1.2"
           width="480"
           id="rect3647"
           style="display:inline;fill:#cccccc;fill-opacity:1;stroke:none" />
      </g>
      <g
         transform="matrix(0.5,0.8660254,-0.8660254,0.5,409.80763,-109.80764)"
         id="g3686">
        <rect
           inkscape:label=""
           ry="0.99999994"
           rx="1"
           transform="matrix(-0.08715576,0.9961947,-0.99619469,-0.08715585,0,0)"
           y="-326.0051"
           x="27.711655"
           height="1.9999999"
           width="490"
           id="rect3688"
           style="display:inline;fill:#cccccc;fill-opacity:1;stroke:none" />
        <rect
           style="display:inline;fill:#cccccc;fill-opacity:1;stroke:none"
           id="rect3690"
           width="490"
           height="1.9999999"
           x="80.005096"
           y="-273.71164"
           transform="matrix(0.08715573,0.9961947,-0.99619471,0.08715564,0,0)"
           rx="1"
           ry="0.99999994"
           inkscape:label="" />
        <rect
           inkscape:label=""
           transform="matrix(-0.0436194,0.99904822,-0.99904822,-0.04361948,0,0)"
           y="-313.4003"
           x="46.62862"
           height="1.2"
           width="480"
           id="rect3692"
           style="display:inline;fill:#cccccc;fill-opacity:1;stroke:none" />
        <rect
           style="display:inline;fill:#cccccc;fill-opacity:1;stroke:none"
           id="rect3694"
           width="480"
           height="1.2"
           x="59.999973"
           y="-300.60001"
           transform="matrix(-1.2691638e-8,1,-1,-9.2615496e-8,0,0)"
           inkscape:label="" />
        <rect
           inkscape:label=""
           transform="matrix(0.04361937,0.99904822,-0.99904823,0.04361929,0,0)"
           y="-287.22867"
           x="72.800255"
           height="1.2"
           width="480"
           id="rect3696"
           style="display:inline;fill:#cccccc;fill-opacity:1;stroke:none" />
        <rect
           style="display:inline;fill:#cccccc;fill-opacity:1;stroke:none"
           id="rect3698"
           width="480"
           height="1.2"
           x="96.591293"
           y="-258.87561"
           transform="matrix(0.13052618,0.99144486,-0.99144487,0.1305261,0,0)"
           inkscape:label="" />
        <rect
           inkscape:label=""
           transform="matrix(0.17364817,0.98480775,-0.98480777,0.17364809,0,0)"
           y="-243.94789"
           x="107.53676"
           height="1.2"
           width="480"
           id="rect3700"
           style="display:inline;fill:#cccccc;fill-opacity:1;stroke:none" />
        <rect
           style="display:inline;fill:#cccccc;fill-opacity:1;stroke:none"
           id="rect3702"
           width="480"
           height="1.2"
           x="117.82067"
           y="-228.55692"
           transform="matrix(0.21643961,0.97629601,-0.97629603,0.21643953,0,0)"
           inkscape:label="" />
        <rect
           inkscape:label=""
           transform="matrix(-0.1305262,0.99144486,-0.99144485,-0.13052629,0,0)"
           y="-337.19135"
           x="18.275578"
           height="1.2"
           width="480"
           id="rect3704"
           style="display:inline;fill:#cccccc;fill-opacity:1;stroke:none" />
        <rect
           style="display:inline;fill:#cccccc;fill-opacity:1;stroke:none"
           id="rect3706"
           width="480"
           height="1.2"
           x="3.3478477"
           y="-348.13681"
           transform="matrix(-0.17364819,0.98480775,-0.98480774,-0.17364827,0,0)"
           inkscape:label="" />
        <rect
           inkscape:label=""
           transform="matrix(-0.21643963,0.976296,-0.97629599,-0.2164397,0,0)"
           y="-358.42072"
           x="-12.043111"
           height="1.2"
           width="480"
           id="rect3708"
           style="display:inline;fill:#cccccc;fill-opacity:1;stroke:none" />
      </g>
      <g
         id="g3710"
         transform="matrix(0,1,-1,0,600.00001,-2.2452048e-5)">
        <rect
           style="display:inline;fill:#cccccc;fill-opacity:1;stroke:none"
           id="rect3712"
           width="490"
           height="1.9999999"
           x="27.711655"
           y="-326.0051"
           transform="matrix(-0.08715576,0.9961947,-0.99619469,-0.08715585,0,0)"
           rx="1"
           ry="0.99999994"
           inkscape:label="" />
        <rect
           inkscape:label=""
           ry="0.99999994"
           rx="1"
           transform="matrix(0.08715573,0.9961947,-0.99619471,0.08715564,0,0)"
           y="-273.71164"
           x="80.005096"
           height="1.9999999"
           width="490"
           id="rect3714"
           style="display:inline;fill:#cccccc;fill-opacity:1;stroke:none" />
        <rect
           style="display:inline;fill:#cccccc;fill-opacity:1;stroke:none"
           id="rect3716"
           width="480"
           height="1.2"
           x="46.62862"
           y="-313.4003"
           transform="matrix(-0.0436194,0.99904822,-0.99904822,-0.04361948,0,0)"
           inkscape:label="" />
        <rect
           inkscape:label=""
           transform="matrix(-1.2691638e-8,1,-1,-9.2615496e-8,0,0)"
           y="-300.60001"
           x="59.999973"
           height="1.2"
           width="480"
           id="rect3718"
           style="display:inline;fill:#cccccc;fill-opacity:1;stroke:none" />
        <rect
           style="display:inline;fill:#cccccc;fill-opacity:1;stroke:none"
           id="rect3720"
           width="480"
           height="1.2"
           x="72.800255"
           y="-287.22867"
           transform="matrix(0.04361937,0.99904822,-0.99904823,0.04361929,0,0)"
           inkscape:label="" />
        <rect
           inkscape:label=""
           transform="matrix(0.13052618,0.99144486,-0.99144487,0.1305261,0,0)"
           y="-258.87561"
           x="96.591293"
           height="1.2"
           width="480"
           id="rect3722"
           style="display:inline;fill:#cccccc;fill-opacity:1;stroke:none" />
        <rect
           style="display:inline;fill:#cccccc;fill-opacity:1;stroke:none"
           id="rect3724"
           width="480"
           height="1.2"
           x="107.53676"
           y="-243.94789"
           transform="matrix(0.17364817,0.98480775,-0.98480777,0.17364809,0,0)"
           inkscape:label="" />
        <rect
           inkscape:label=""
           transform="matrix(0.21643961,0.97629601,-0.97629603,0.21643953,0,0)"
           y="-228.55692"
           x="117.82067"
           height="1.2"
           width="480"
           id="rect3726"
           style="display:inline;fill:#cccccc;fill-opacity:1;stroke:none" />
        <rect
           style="display:inline;fill:#cccccc;fill-opacity:1;stroke:none"
           id="rect3728"
           width="480"
           height="1.2"
           x="18.275578"
           y="-337.19135"
           transform="matrix(-0.1305262,0.99144486,-0.99144485,-0.13052629,0,0)"
           inkscape:label="" />
        <rect
           inkscape:label=""
           transform="matrix(-0.17364819,0.98480775,-0.98480774,-0.17364827,0,0)"
           y="-348.13681"
           x="3.3478477"
           height="1.2"
           width="480"
           id="rect3730"
           style="display:inline;fill:#cccccc;fill-opacity:1;stroke:none" />
        <rect
           style="display:inline;fill:#cccccc;fill-opacity:1;stroke:none"
           id="rect3732"
           width="480"
           height="1.2"
           x="-12.043111"
           y="-358.42072"
           transform="matrix(-0.21643963,0.976296,-0.97629599,-0.2164397,0,0)"
           inkscape:label="" />
      </g>
      <g
         transform="matrix(-0.5,0.8660254,-0.8660254,-0.5,709.80764,190.19236)"
         id="g3734">
        <rect
           inkscape:label=""
           ry="0.99999994"
           rx="1"
           transform="matrix(-0.08715576,0.9961947,-0.99619469,-0.08715585,0,0)"
           y="-326.0051"
           x="27.711655"
           height="1.9999999"
           width="490"
           id="rect3736"
           style="display:inline;fill:#cccccc;fill-opacity:1;stroke:none" />
        <rect
           style="display:inline;fill:#cccccc;fill-opacity:1;stroke:none"
           id="rect3738"
           width="490"
           height="1.9999999"
           x="80.005096"
           y="-273.71164"
           transform="matrix(0.08715573,0.9961947,-0.99619471,0.08715564,0,0)"
           rx="1"
           ry="0.99999994"
           inkscape:label="" />
        <rect
           inkscape:label=""
           transform="matrix(-0.0436194,0.99904822,-0.99904822,-0.04361948,0,0)"
           y="-313.4003"
           x="46.62862"
           height="1.2"
           width="480"
           id="rect3740"
           style="display:inline;fill:#cccccc;fill-opacity:1;stroke:none" />
        <rect
           style="display:inline;fill:#cccccc;fill-opacity:1;stroke:none"
           id="rect3742"
           width="480"
           height="1.2"
           x="59.999973"
           y="-300.60001"
           transform="matrix(-1.2691638e-8,1,-1,-9.2615496e-8,0,0)"
           inkscape:label="" />
        <rect
           inkscape:label=""
           transform="matrix(0.04361937,0.99904822,-0.99904823,0.04361929,0,0)"
           y="-287.22867"
           x="72.800255"
           height="1.2"
           width="480"
           id="rect3744"
           style="display:inline;fill:#cccccc;fill-opacity:1;stroke:none" />
        <rect
           style="display:inline;fill:#cccccc;fill-opacity:1;stroke:none"
           id="rect3746"
           width="480"
           height="1.2"
           x="96.591293"
           y="-258.87561"
           transform="matrix(0.13052618,0.99144486,-0.99144487,0.1305261,0,0)"
           inkscape:label="" />
        <rect
           inkscape:label=""
           transform="matrix(0.17364817,0.98480775,-0.98480777,0.17364809,0,0)"
           y="-243.94789"
           x="107.53676"
           height="1.2"
           width="480"
           id="rect3748"
           style="display:inline;fill:#cccccc;fill-opacity:1;stroke:none" />
        <rect
           style="display:inline;fill:#cccccc;fill-opacity:1;stroke:none"
           id="rect3750"
           width="480"
           height="1.2"
           x="117.82067"
           y="-228.55692"
           transform="matrix(0.21643961,0.97629601,-0.97629603,0.21643953,0,0)"
           inkscape:label="" />
        <rect
           inkscape:label=""
           transform="matrix(-0.1305262,0.99144486,-0.99144485,-0.13052629,0,0)"
           y="-337.19135"
           x="18.275578"
           height="1.2"
           width="480"
           id="rect3752"
           style="display:inline;fill:#cccccc;fill-opacity:1;stroke:none" />
        <rect
           style="display:inline;fill:#cccccc;fill-opacity:1;stroke:none"
           id="rect3754"
           width="480"
           height="1.2"
           x="3.3478477"
           y="-348.13681"
           transform="matrix(-0.17364819,0.98480775,-0.98480774,-0.17364827,0,0)"
           inkscape:label="" />
        <rect
           inkscape:label=""
           transform="matrix(-0.21643963,0.976296,-0.97629599,-0.2164397,0,0)"
           y="-358.42072"
           x="-12.043111"
           height="1.2"
           width="480"
           id="rect3756"
           style="display:inline;fill:#cccccc;fill-opacity:1;stroke:none" />
      </g>
      <g
         id="g3758"
         transform="matrix(-0.8660254,0.5,-0.5,-0.8660254,709.80765,409.80761)">
        <rect
           style="display:inline;fill:#cccccc;fill-opacity:1;stroke:none"
           id="rect3760"
           width="490"
           height="1.9999999"
           x="27.711655"
           y="-326.0051"
           transform="matrix(-0.08715576,0.9961947,-0.99619469,-0.08715585,0,0)"
           rx="1"
           ry="0.99999994"
           inkscape:label="" />
        <rect
           inkscape:label=""
           ry="0.99999994"
           rx="1"
           transform="matrix(0.08715573,0.9961947,-0.99619471,0.08715564,0,0)"
           y="-273.71164"
           x="80.005096"
           height="1.9999999"
           width="490"
           id="rect3762"
           style="display:inline;fill:#cccccc;fill-opacity:1;stroke:none" />
        <rect
           style="display:inline;fill:#cccccc;fill-opacity:1;stroke:none"
           id="rect3764"
           width="480"
           height="1.2"
           x="46.62862"
           y="-313.4003"
           transform="matrix(-0.0436194,0.99904822,-0.99904822,-0.04361948,0,0)"
           inkscape:label="" />
        <rect
           inkscape:label=""
           transform="matrix(-1.2691638e-8,1,-1,-9.2615496e-8,0,0)"
           y="-300.60001"
           x="59.999973"
           height="1.2"
           width="480"
           id="rect3766"
           style="display:inline;fill:#cccccc;fill-opacity:1;stroke:none" />
        <rect
           style="display:inline;fill:#cccccc;fill-opacity:1;stroke:none"
           id="rect3768"
           width="480"
           height="1.2"
           x="72.800255"
           y="-287.22867"
           transform="matrix(0.04361937,0.99904822,-0.99904823,0.04361929,0,0)"
           inkscape:label="" />
        <rect
           inkscape:label=""
           transform="matrix(0.13052618,0.99144486,-0.99144487,0.1305261,0,0)"
           y="-258.87561"
           x="96.591293"
           height="1.2"
           width="480"
           id="rect3770"
           style="display:inline;fill:#cccccc;fill-opacity:1;stroke:none" />
        <rect
           style="display:inline;fill:#cccccc;fill-opacity:1;stroke:none"
           id="rect3772"
           width="480"
           height="1.2"
           x="107.53676"
           y="-243.94789"
           transform="matrix(0.17364817,0.98480775,-0.98480777,0.17364809,0,0)"
           inkscape:label="" />
        <rect
           inkscape:label=""
           transform="matrix(0.21643961,0.97629601,-0.97629603,0.21643953,0,0)"
           y="-228.55692"
           x="117.82067"
           height="1.2"
           width="480"
           id="rect3774"
           style="display:inline;fill:#cccccc;fill-opacity:1;stroke:none" />
        <rect
           style="display:inline;fill:#cccccc;fill-opacity:1;stroke:none"
           id="rect3776"
           width="480"
           height="1.2"
           x="18.275578"
           y="-337.19135"
           transform="matrix(-0.1305262,0.99144486,-0.99144485,-0.13052629,0,0)"
           inkscape:label="" />
        <rect
           inkscape:label=""
           transform="matrix(-0.17364819,0.98480775,-0.98480774,-0.17364827,0,0)"
           y="-348.13681"
           x="3.3478477"
           height="1.2"
           width="480"
           id="rect3778"
           style="display:inline;fill:#cccccc;fill-opacity:1;stroke:none" />
        <rect
           style="display:inline;fill:#cccccc;fill-opacity:1;stroke:none"
           id="rect3780"
           width="480"
           height="1.2"
           x="-12.043111"
           y="-358.42072"
           transform="matrix(-0.21643963,0.976296,-0.97629599,-0.2164397,0,0)"
           inkscape:label="" />
      </g>
    </g>
    <circle
       id="path3906"
       style="fill:#f9f9f9;fill-opacity:1;stroke:none;display:inline"
       cx="302"
       cy="300"
       r="230.76094"
       sodipodi:cx="302"
       sodipodi:cy="300"
       sodipodi:rx="230.76094"
       sodipodi:ry="230.76094"
       d="M 532.76094,300 C 532.76094,427.44575 429.44575,530.76094 302,530.76094 174.55425,530.76094 71.239059,427.44575 71.239059,300 71.239059,172.55425 174.55425,69.239059 302,69.239059 429.44575,69.239059 532.76094,172.55425 532.76094,300 z" />
    <g
       id="g4413">
      <path
         id="path3535"
         d="m 226.55568,18.53125 c 5.02705,19.322945 10.4726,38.519864 15.5,57.84375 18.62289,-4.830766 39.78795,-7.84375 59.92188,-7.84375 20.13393,0 41.29899,3.012984 59.92187,7.84375 5.02743,-19.32391 10.47296,-38.520745 15.5,-57.84375 -48.913,1.97e-4 -101.93061,-1.2e-5 -150.84375,0 z m 0,0 C 184.19576,42.987746 138.27502,69.480825 95.915064,93.9375 c 14.026366,14.23211 28.363306,28.15762 42.390616,42.39062 27.71849,-27.31594 65.13614,-49.326204 103.75,-59.95312 -5.30566,-19.238619 -10.19432,-38.604285 -15.5,-57.84375 z m 150.84375,0 c -5.30566,19.239476 -10.19434,38.605132 -15.5,57.84375 38.61386,10.626916 76.03152,32.63718 103.75,59.95312 C 479.67673,122.0951 494.0137,108.16964 508.04006,93.9375 465.68004,69.480942 419.75941,42.987883 377.39943,18.53125 Z M 95.915064,93.9375 c -24.45651,42.35977 -50.94979,88.28054 -75.40625,130.64062 19.23946,5.30562 38.60513,10.19436 57.84375,15.5 10.62692,-38.61386 32.637176,-76.03151 59.953116,-103.75 z m 412.124996,0 c -14.23215,14.0264 -28.1576,28.36332 -42.39063,42.39062 27.31594,27.71849 49.32621,65.13614 59.95313,103.75 19.23862,-5.30566 38.60426,-10.1943 57.84375,-15.5 C 558.98964,182.2183 532.49651,136.29759 508.04006,93.9375 Z M 20.508814,224.57812 c -4e-5,48.91301 0,101.93061 0,150.84375 19.32296,-5.02708 38.51986,-10.47258 57.84375,-15.5 -4.83077,-18.62288 -7.84375,-39.78794 -7.84375,-59.92187 0,-20.13393 3.01298,-41.29899 7.84375,-59.92188 -19.32389,-5.02742 -38.52079,-10.47294 -57.84375,-15.5 z m 562.937496,0 c -19.32296,5.02703 -38.51986,10.47259 -57.84375,15.5 4.83077,18.62289 7.84375,39.78795 7.84375,59.92188 0,20.13393 -3.01298,41.29899 -7.84375,59.92187 19.32389,5.02742 39.08327,10.47296 58.40625,15.5 4e-5,-48.91314 -0.56257,-101.93061 -0.5625,-150.84375 z m -505.093746,135.34375 -57.84375,15.5 c 24.45649,42.35992 50.94973,88.28072 75.40625,130.64063 14.232136,-14.02636 28.157596,-28.36332 42.390616,-42.39063 -27.31594,-27.71848 -49.326196,-65.13614 -59.953116,-103.75 z m 447.249996,0 c -10.62692,38.61386 -32.63719,76.03152 -59.95313,103.75 14.23302,14.02731 28.15846,28.36428 42.39063,42.39063 24.45636,-42.35985 50.38731,-88.28067 74.84375,-130.64063 -19.23947,-5.30568 -38.04264,-10.19434 -57.28125,-15.5 z m -387.29688,103.75 c -14.02731,14.23302 -28.36423,28.1585 -42.390616,42.39063 42.360016,24.45656 88.280706,50.94973 130.640616,75.40625 5.30566,-19.23947 10.19434,-38.60514 15.5,-57.84375 -38.61386,-10.62692 -76.03151,-32.63719 -103.75,-59.95313 z m 327.34375,0 c -27.71848,27.31594 -65.13614,49.32621 -103.75,59.95313 5.30566,19.23862 10.19437,38.60427 15.5,57.84375 42.36002,-24.45657 88.28064,-50.94971 130.64063,-75.40625 -14.02638,-14.23214 -28.36333,-28.15761 -42.39063,-42.39063 z M 242.05568,523.625 c -5.02742,19.32389 -10.47295,38.52079 -15.5,57.84375 l 150.84375,0 c -5.02708,-19.32296 -10.47257,-38.51986 -15.5,-57.84375 -18.62288,4.83077 -39.78794,7.84375 -59.92187,7.84375 -20.13393,0 -41.29899,-3.01298 -59.92188,-7.84375 z"
         style="display:inline;fill:none;stroke:#cccccc;stroke-width:2"
         inkscape:connector-curvature="0"
         sodipodi:nodetypes="ccsccccccccccccccccccccccccccsccccscccccccccccccccccccccccccccsc" />
      <path
         style="fill:#ffffff;fill-opacity:1;stroke:#ffffff;stroke-width:60;stroke-miterlimit:4;stroke-dasharray:none"
         d="M 6.2031275,8.375 6.2031275,596.46875 597.79687,596.46875 597.79687,8.375 z M 226.64062,20.625 376.32812,20.625 505.98437,95.5 580.85937,225.15625 580.85937,374.84375 505.98437,504.5 376.32812,579.375 226.64062,579.375 96.984377,504.5 22.109377,374.84375 22.109377,225.15625 96.984377,95.5 z"
         id="rect3032"
         inkscape:connector-curvature="0"
         sodipodi:nodetypes="cccccccccccccccccc" />
    </g>
    <g
       id="g4417">
      <path
         id="path3537"
         d="m 323.81783,15.327928 c -3.70352,-4.903661 -10.30335,-6.982168 -16.05904,-5.056403 -2.46175,0.826689 -4.44153,2.331599 -5.89717,4.305395 -1.42518,-1.798061 -3.30771,-3.176475 -5.62164,-3.952064 -5.75411,-1.9290062 -12.35394,0.148084 -16.05746,5.053137 -3.59276,4.763104 -3.11505,9.258047 -2.08605,12.190881 1.1338,3.221302 3.69612,6.346666 5.59862,6.824792 1.50804,0.370187 3.04876,-0.536557 3.43053,-2.054319 0.33122,-1.316842 -0.32037,-2.656836 -1.4944,-3.230494 -0.47918,-0.416111 -2.16294,-2.251211 -2.54353,-4.786171 -0.28807,-1.913702 0.24032,-3.721054 1.60848,-5.532817 2.22447,-2.943541 6.32246,-4.24344 9.74571,-3.100954 3.05034,1.025626 4.72948,3.782565 4.72948,7.76085 l 0,22.884825 0,0.352923 c 1.3e-4,1.565116 1.2648,2.829614 2.82855,2.8297 1.56534,-6.1e-5 2.82856,-1.264572 2.82842,-2.829539 l 0,-0.353319 1.4e-4,-22.883012 -1.4e-4,-0.348451 c 1.4e-4,-3.981317 1.67927,-6.736975 4.72961,-7.76228 3.42788,-1.144236 7.52111,0.155638 9.74585,3.099315 1.36803,1.813377 1.89337,3.623588 1.60675,5.531227 -0.38204,2.538004 -2.06435,4.372944 -2.54193,4.786221 -1.1743,0.574582 -1.82708,1.911964 -1.49586,3.232083 0.38191,1.520202 1.9164,2.437777 3.43224,2.053876 1.90264,-0.478016 4.46323,-3.60349 5.59862,-6.824792 1.02887,-2.935989 1.50659,-7.432324 -2.08605,-12.190955 z"
         inkscape:connector-curvature="0"
         style="display:inline;fill:#cccccc;fill-opacity:1;stroke:#ffffff;stroke-width:2.32839036" />
      <path
         id="path3581"
         d="m 452.06932,73.901651 -8.86658,-5.119111 c 5.52769,-7.683026 11.86379,-8.122427 12.23,-8.141733 1.61048,-0.04563 2.88072,-1.385345 2.85058,-2.997289 -0.0364,-1.623319 -1.37911,-2.901934 -2.99787,-2.871575 -0.42288,0.01418 -9.77797,0.355076 -17.19129,11.061187 l -5.7252,-3.305476 c 5.56281,-11.774329 1.18752,-20.048534 0.98369,-20.418791 -0.77681,-1.408464 -2.53717,-1.918244 -3.95079,-1.158748 -1.41903,0.757824 -1.95498,2.531031 -1.21114,3.959399 0.13356,0.262592 2.98047,5.98515 -0.93606,14.665367 l -7.48341,-4.320545 c -1.40528,-0.811342 -3.19932,-0.328962 -4.01132,1.077166 -0.81046,1.404057 -0.33176,3.19991 1.07352,4.011263 l 7.46813,4.311728 c -5.05128,6.779712 -10.20936,5.578496 -10.40757,5.52487 -1.55412,-0.459354 -3.18929,0.428017 -3.64933,1.98286 -0.39262,1.327186 0.19483,2.713822 1.34303,3.37658 0.19619,0.112982 0.40904,0.203574 0.63678,0.273172 0.4112,0.118313 9.54376,2.659533 17.2014,-8.20286 l 5.74054,3.314147 c -5.57958,12.062329 1.18689,18.701148 1.49789,18.999211 0.1717,0.161025 0.3561,0.300067 0.54886,0.411359 1.1297,0.652246 2.58753,0.471533 3.54525,-0.504617 1.12289,-1.140898 1.10566,-2.991566 -0.0191,-4.135081 -0.17246,-0.176113 -3.79682,-4.045346 -0.45102,-11.809586 l 8.84435,5.106298 c 1.40423,0.810605 3.20005,0.327731 4.01053,-1.076071 0.81199,-1.406405 0.33152,-3.201774 -1.07391,-4.013141 z"
         inkscape:connector-curvature="0"
         style="display:inline;fill:#cccccc;fill-opacity:1;stroke:#ffffff;stroke-width:2.32839036" />
      <path
         style="fill:#cccccc;stroke:#ffffff;stroke-width:2.32839036"
         inkscape:connector-curvature="0"
         d="m 524.45433,140.55996 c 1.53198,2.65346 4.57329,3.15371 7.02708,3.55065 2.44594,0.40148 3.97654,0.72688 4.62964,1.85807 0.34363,0.5952 -0.0284,1.44569 -1.25302,3.5405 -1.42376,2.43206 -3.57083,6.10025 -1.28411,10.06097 2.3596,4.08693 6.57179,3.90493 9.3523,3.78293 1.21701,-0.0545 2.73133,-0.11647 2.95083,0.26371 0.37962,0.65753 -0.63143,2.55631 -1.36517,3.93765 -1.37713,2.59626 -3.10041,5.82657 -1.26077,9.01291 1.79375,3.10688 5.74319,3.91381 9.23582,4.63339 1.25502,0.25806 3.12003,0.64384 3.70755,1.00475 0.85709,1.25232 2.55774,1.64367 3.90413,0.86633 1.41239,-0.81544 1.90818,-2.61617 1.09766,-4.02003 -1.35926,-2.35431 -4.32971,-2.96402 -7.47399,-3.60634 -1.70151,-0.3493 -4.86084,-0.99954 -5.34751,-1.84248 -0.14932,-0.50172 0.86779,-2.40815 1.35201,-3.3255 1.38274,-2.59743 3.27796,-6.15761 1.2791,-9.61973 -1.99256,-3.45122 -5.78059,-3.28559 -8.28536,-3.17944 -2.82026,0.1221 -3.53222,-0.0298 -4.01529,-0.86655 -0.50466,-0.87411 -0.12599,-1.80738 1.25314,-4.16797 1.42621,-2.44594 3.38449,-5.79531 1.28218,-9.43662 -2.08342,-3.60859 -5.94423,-4.24024 -8.7641,-4.69798 -0.95493,-0.15917 -2.55306,-0.4165 -2.91262,-0.73451 -0.81814,-1.38077 -2.60979,-1.8463 -4.01432,-1.0354 -1.41552,0.81726 -1.9057,2.61683 -1.09518,4.02069 z"
         id="path3529" />
      <path
         style="fill:#cccccc;stroke:#ffffff;stroke-width:2.32839036"
         inkscape:connector-curvature="0"
         d="m 544.59019,188.63932 c -1.35926,-2.35431 -4.32971,-2.96403 -7.47242,-3.60724 -1.70308,-0.3484 -4.86241,-0.99864 -5.34908,-1.84158 -0.14775,-0.50263 0.86778,-2.40815 1.35201,-3.3255 1.38274,-2.59743 3.27796,-6.15761 1.2791,-9.61973 -1.99257,-3.45122 -5.7806,-3.2856 -8.28694,-3.17853 -2.81868,0.12119 -3.53064,-0.0308 -4.01372,-0.86747 -0.50466,-0.8741 -0.12599,-1.80738 1.25314,-4.16797 1.42802,-2.44282 3.38697,-5.79465 1.28466,-9.43596 -2.08252,-3.60703 -5.94334,-4.23868 -8.7632,-4.69643 -0.95808,-0.15735 -2.55307,-0.41649 -2.91263,-0.73451 -0.81993,-1.38388 -2.61001,-1.85032 -4.01454,-1.03941 -1.41238,0.81544 -1.90571,2.61682 -1.09519,4.02068 1.53198,2.65347 4.57487,3.1528 7.02709,3.55066 2.44594,0.40148 3.97811,0.72597 4.6312,1.85716 0.34364,0.5952 -0.0299,1.44659 -1.25459,3.54141 -1.42375,2.43205 -3.56925,6.09934 -1.28253,10.06006 2.35959,4.08693 6.57021,3.90584 9.34915,3.78474 1.21859,-0.0554 2.73291,-0.11737 2.95241,0.26281 0.37962,0.65752 -0.63144,2.5563 -1.36517,3.93764 -1.3787,2.59718 -3.10041,5.82658 -1.26078,9.01292 1.79376,3.10687 5.7432,3.9138 9.23426,4.63429 1.25502,0.25806 3.12003,0.64385 3.70912,1.00385 0.85709,1.25232 2.55773,1.64367 3.90413,0.86632 1.41552,-0.81725 1.90503,-2.61435 1.09452,-4.01821 z"
         id="path3531" />
      <path
         id="path3553"
         d="m 579.09454,315.47916 c -1.1e-4,-3.69826 -1.82307,-6.9583 -4.59312,-9.01374 2.22197,-1.02946 5.24822,-2.03882 8.61627,-2.03882 4.13725,0 6.91896,-3.34557 6.91892,-8.32518 10e-6,-2.55182 -0.77416,-5.19205 -2.25372,-7.0068 1.7025,-2.22239 2.65756,-5.44424 2.65762,-8.06294 3e-5,-2.08216 -0.56475,-3.89504 -1.63221,-5.24042 -0.91484,-1.15304 -2.64417,-2.52656 -5.69379,-2.52656 -1.37257,0 -2.48177,1.1097 -2.48169,2.47646 -8e-5,1.36705 1.10932,2.47646 2.4816,2.47646 1.20999,1.4e-4 2.06109,0.33933 2.30409,1.99689 0.44237,2.94454 -1.47954,6.3118 -2.30398,6.56571 l -20.28425,-1.4e-4 c -1.3707,1.4e-4 -2.48157,1.10983 -2.48163,2.47673 7e-5,1.36677 1.11116,2.47488 2.48171,2.47488 l 20.28399,-1.3e-4 c 0.87472,1.3e-4 1.95221,2.0154 1.95224,4.36799 -5e-5,1.08472 -0.23784,2.06235 -0.6451,2.68043 -0.32617,0.49161 -0.70876,0.69041 -1.30669,0.69099 -7.1804,-2.9e-4 -12.91102,3.50074 -14.79276,4.80076 -0.17441,-0.0143 -0.34228,-0.0516 -0.51952,-0.0516 -1.76952,-1.5e-4 -3.41853,0.44281 -4.90983,1.16466 -2.31395,-1.51719 -7.58417,-5.77022 -7.74315,-13.13629 -0.0302,-1.36691 -1.16119,-2.4532 -2.53679,-2.42479 -1.35415,0.0302 -2.42976,1.13295 -2.42987,2.47676 0.0144,0.0186 3e-4,0.0345 1.4e-4,0.0516 0.17914,8.44734 5.36384,13.72782 8.71992,16.27274 -1.47622,1.90676 -2.39478,4.26278 -2.39432,6.85149 2e-5,6.21131 5.0639,11.25953 11.28909,11.25953 6.22828,-1.5e-4 11.29738,-5.04492 11.29738,-11.25623 z m -17.61641,-1.6e-4 c -5e-5,-3.47575 2.83703,-6.30488 6.32396,-6.30504 3.48554,1.6e-4 6.3223,2.82913 6.3223,6.30504 0,3.47908 -2.83688,6.30836 -6.32233,6.30821 -3.48703,1.5e-4 -6.324,-2.82885 -6.32393,-6.30821 z"
         inkscape:connector-curvature="0"
         style="display:inline;fill:#cccccc;stroke:#ffffff;stroke-width:2.32839036" />
      <path
         id="path3587"
         d="m 539.24997,461.40641 c 0.27204,0.14198 0.56621,0.25263 0.87638,0.29326 0.33996,0.044 0.67746,0.0226 1.00227,-0.0607 0.0153,-0.0118 0.0229,-10e-4 0.0249,-7.2e-4 l 0,0 c 0.33359,-0.088 0.64692,-0.24555 0.9234,-0.4575 0.27754,-0.21244 0.50817,-0.47133 0.68097,-0.77063 10e-6,0 10e-6,0 10e-4,4.5e-4 l 7.03952,-12.1924 c 0.72847,-1.26168 0.29643,-2.87745 -0.96633,-3.60651 -1.26404,-0.72992 -2.87803,-0.29544 -3.60659,0.96619 l -3.84682,6.6629 -4.58236,-17.20865 6.3398,-1.5731 c 1.41251,-0.35266 2.27743,-1.78468 1.92404,-3.19923 -0.34975,-1.41517 -1.78021,-2.27747 -3.19738,-1.92711 l -6.42329,1.59664 -5.16485,-19.39321 c -0.37331,-1.40707 -1.82164,-2.24629 -3.23247,-1.8664 -0.70641,0.18634 -1.26713,0.64368 -1.60607,1.23003 -0.33669,0.58326 -0.45131,1.29652 -0.2647,1.99994 l 5.14104,19.30362 -7.25213,1.8009 c -0.72394,0.17924 -1.30369,0.64141 -1.65139,1.24332 -0.32855,0.56912 -0.44892,1.26422 -0.27503,1.95468 0.3503,1.41412 1.78381,2.27652 3.19805,1.92608 l 7.33726,-1.82021 4.61088,17.31813 -6.49341,-3.7491 c -1.26386,-0.72956 -2.87916,-0.29596 -3.60882,0.96792 -0.72847,1.26181 -0.29606,2.87642 0.96789,3.60616 l 12.00362,6.93029 c 0.0307,0.0179 0.0652,0.0157 0.0977,0.0316 z"
         inkscape:connector-curvature="0"
         style="display:inline;fill:#cccccc;fill-opacity:1;stroke:#ffffff;stroke-width:2.32839036" />
      <path
         id="path3593"
         d="m 408.05757,538.65071 9.19714,0.91667 c 0.81431,0.0814 1.60056,-0.29543 2.03893,-0.97854 0.44136,-0.68484 0.46037,-1.55782 0.0522,-2.26509 l -1.65663,-2.86937 c 1.41763,-0.41929 3.44116,-0.73527 4.01231,0.25399 l 10.0459,17.40002 c 2.42483,4.19992 7.88629,3.64619 10.6211,2.06725 1.83332,-1.05847 3.13972,-2.73638 3.67947,-4.72956 5e-4,-0.001 0.003,-0.006 0.004,-0.0107 2.08519,0.51041 4.25713,0.15506 5.98802,-0.84428 1.83042,-1.05678 3.13684,-2.73473 3.67514,-4.72707 0.005,-0.013 0.006,-0.0326 0.0114,-0.0476 1.92157,0.33687 3.87891,-0.0103 5.46559,-0.92639 1.83188,-1.05762 3.13828,-2.73556 3.67659,-4.72786 0.41196,-1.51829 0.55746,-3.92786 -1.07914,-6.76255 -0.74734,-1.29441 -2.39451,-1.73569 -3.68405,-0.99118 -1.2895,0.7445 -1.72784,2.39369 -0.98218,3.68523 1.50802,2.61194 -0.10396,3.81063 -0.63327,4.11627 -1.11066,0.64123 -2.83241,0.65373 -4.03145,-1.42309 l -11.42702,-19.79215 c -0.74649,-1.29296 -2.39307,-1.7365 -3.6826,-0.99198 -1.28951,0.74449 -1.72698,2.39513 -0.98215,3.68519 l 11.60622,20.10249 c 1.50801,2.61195 -0.10453,3.81293 -0.63388,4.11855 -3.16176,1.82546 -4.5026,-1.45963 -5.02781,-2.36932 -0.52522,-0.90968 -10.94854,-18.96342 -10.94854,-18.96342 -0.74651,-1.29296 -2.39451,-1.73569 -3.6826,-0.99201 -1.29097,0.74534 -1.72842,2.39599 -0.98359,3.68604 l 11.60592,20.10267 c 1.50801,2.61194 -0.10025,3.81043 -0.63248,4.11771 -1.11065,0.64124 -2.8318,0.6515 -4.03085,-1.42535 l -9.27186,-16.05933 c -2.57346,-4.45737 -8.13657,-3.63669 -11.42195,-2.31839 l -1.58065,-2.73776 c -0.42752,-0.74048 -1.24673,-1.16035 -2.09445,-1.07977 -0.31708,0.0307 -0.60978,0.12648 -0.8723,0.27802 -0.44862,0.259 -0.79672,0.67212 -0.9696,1.1788 l -3.21352,9.44726 c -0.21641,0.62817 -0.13138,1.32155 0.22988,1.88048 0.35913,0.56782 0.95287,0.93082 1.61221,0.99368 z"
         inkscape:connector-curvature="0"
         style="display:inline;fill:#cccccc;fill-opacity:1;stroke:#ffffff;stroke-width:2.32839036" />
      <path
         style="fill:#cccccc;stroke:#ffffff;stroke-width:2.32839036"
         inkscape:connector-curvature="0"
         d="m 325.39647,567.47964 -12.44816,0 c -1.7556,0 -3.17902,1.43291 -3.17902,3.20064 l 0.004,0.63365 c 0.0268,2.44999 0.0822,7.55337 -2.72003,10.41199 -1.52164,1.54992 -3.7523,2.30418 -6.8188,2.30418 -4.45955,0 -7.26172,-1.59312 -8.82444,-5.00798 -1.37698,-3.02063 -1.37698,-6.64431 -1.37519,-8.34004 0,-1.76773 -1.42342,-3.20064 -3.17723,-3.20064 l -12.24635,0 c -1.7556,0 -3.17901,1.43291 -3.17901,3.20064 0,1.76774 1.42341,3.20244 3.17901,3.20244 l 9.16556,0 c 0.16431,2.22857 0.61973,5.08539 1.86276,7.8162 1.8199,3.9891 5.83117,8.73967 14.59668,8.73967 4.78638,0 8.60119,-1.41491 11.34086,-4.20873 3.60943,-3.67588 4.38275,-8.79547 4.53099,-12.34354 l 9.28879,0 c 1.7556,0 3.17901,-1.4329 3.17901,-3.20244 0,-1.77313 -1.42341,-3.20604 -3.17901,-3.20604 z"
         id="path3573" />
      <path
         style="fill:#cccccc;stroke:#ffffff;stroke-width:2.32839036"
         inkscape:connector-curvature="0"
         d="m 274.6019,562.67147 50.79457,0 c 1.7556,0 3.17901,-1.43471 3.17901,-3.20064 0,-1.76954 -1.42341,-3.20425 -3.17901,-3.20425 l -50.79457,0 c -1.75381,0 -3.17722,1.43471 -3.17722,3.20425 0,1.76953 1.42341,3.20064 3.17722,3.20064 z"
         id="path3575" />
      <path
         id="path3605"
         d="m 145.79797,521.42983 c -2.7606,3.34994 -3.40922,7.62384 -1.73791,11.43488 0.87794,2.00047 2.29446,3.58832 3.86741,4.47988 l -1.08078,1.87196 c -2.86508,4.96246 0.7494,8.16449 3.33703,9.65846 1.73373,1.00097 3.72204,1.27931 5.60571,0.78198 10e-4,-0.002 0.003,-0.005 0.015,-10e-4 0.5708,1.94593 1.88759,3.55422 3.52432,4.49919 1.7301,0.99887 3.71969,1.27796 5.60326,0.78056 0.0156,-0.002 0.0299,-0.0124 0.0447,-0.0158 0.63531,1.73094 1.84513,3.16791 3.34367,4.03309 1.73256,1.0003 3.72215,1.27938 5.60581,0.78206 1.43741,-0.37991 3.47695,-1.39464 5.02051,-4.06817 0.70352,-1.21852 0.28696,-2.77337 -0.93285,-3.47763 -1.21843,-0.70345 -2.77463,-0.28758 -3.47814,0.93094 -1.42212,2.46318 -3.16567,1.71211 -3.66732,1.42248 -1.04918,-0.60574 -1.87292,-2.00736 -0.74112,-3.96769 l 10.77187,-18.65742 c 0.70352,-1.21853 0.28557,-2.77418 -0.93285,-3.47764 -1.21853,-0.70352 -2.77536,-0.28632 -3.47815,0.93095 l -10.94217,18.9524 c -1.42212,2.46317 -3.45166,1.54035 -3.97945,1.23563 -0.52769,-0.30466 -2.25492,-1.48939 -0.60429,-4.34838 2.06312,-3.57341 10.79681,-18.57 10.79681,-18.57 0.70352,-1.21853 0.28685,-2.77344 -0.93285,-3.47764 -1.21853,-0.70352 -2.77536,-0.28632 -3.47815,0.93095 l -10.94217,18.9524 c -1.42211,2.46317 -3.16506,1.71081 -3.6666,1.42124 -1.04929,-0.6058 -1.87492,-2.00685 -0.74312,-3.96719 0,0 11.55795,-20.16681 12.31712,-21.47435 2.39871,-0.0158 4.53541,0.3018 5.99103,0.81029 1.32808,0.46473 2.78135,-0.23296 3.24738,-1.56037 0.41041,-1.17367 -0.0882,-2.44565 -1.12875,-3.04641 -0.13435,-0.0776 -0.28245,-0.14315 -0.43303,-0.1985 -1.96393,-0.6858 -4.98639,-1.14469 -8.37963,-1.05921 -1.66215,-2.57106 -4.55064,-5.0154 -6.04854,-6.19221 -1.09723,-0.84756 -2.70963,-0.67321 -3.57503,0.43191 -0.86886,1.10813 -0.67704,2.70748 0.4304,3.57754 1.15039,0.90482 2.29144,1.94364 3.22359,2.90168 -4.41062,0.97672 -8.77776,3.03072 -11.83699,6.74264 z m 12.13927,-1.58951 c -0.56123,0.97208 -1.1935,2.04256 -1.84274,3.16462 -2.07305,3.56104 -4.38826,7.54153 -5.74283,9.88771 -0.48099,-0.31085 -1.26892,-1.09605 -1.74757,-2.36813 -0.43372,-1.15153 -0.86275,-3.44379 1.12401,-5.85314 2.03792,-2.47772 5.05052,-3.99939 8.20913,-4.83106 z"
         inkscape:connector-curvature="0"
         inkscape:transform-center-x="24.993665"
         inkscape:transform-center-y="33.325299"
         style="display:inline;fill:#cccccc;fill-opacity:1;stroke:#ffffff;stroke-width:2.32839036" />
      <path
         id="path3565"
         d="m 58.563953,417.87105 c -0.507799,1.52789 0.318804,3.18771 1.843239,3.69041 1.528819,0.51155 3.179459,-0.31553 3.687943,-1.84453 0.122036,-0.35573 4.95943,-2.43449 6.3999,-0.44073 1.43859,1.99428 -0.465413,5.62985 -2.658877,6.52575 -4.796867,1.95122 -16.194081,7.33795 -18.383803,15.16447 -0.866098,3.09639 -0.214804,6.22275 1.921268,9.10099 3.305149,4.23873 7.014032,6.23395 11.034984,5.92615 5.639131,-0.43019 9.875709,-5.3688 11.884936,-8.24702 0.01655,0.009 0.02624,0.0233 0.04236,0.0325 4.898073,2.82791 11.184082,1.14366 14.011983,-3.75438 2.827153,-4.89689 1.142672,-11.18311 -3.755409,-14.01116 -4.896849,-2.82719 -11.182912,-1.14291 -14.010054,3.75398 -1.750634,3.03226 -1.764941,6.59527 -0.363986,9.54279 -1.276125,2.10949 -4.692161,6.60197 -8.260459,6.8691 -1.947198,0.13693 -3.954931,-1.09779 -5.936336,-3.64445 -1.346468,-1.81057 -1.185703,-3.14877 -0.947433,-3.99717 1.004625,-3.5951 6.878846,-8.04416 14.962829,-11.33388 6.072084,-2.47148 8.282152,-7.69946 5.917349,-13.98374 -1.698936,-3.20759 -6.280753,-4.62483 -8.410878,-4.58248 -3.357527,0.0602 -7.724137,1.47036 -8.980075,5.23303 z m 23.111125,17.19627 c 2.112298,1.21959 2.837428,3.92941 1.619288,6.03944 -1.219551,2.11226 -3.928895,2.83918 -6.041194,1.61959 -2.112259,-1.21947 -2.837439,-3.9294 -1.617878,-6.04167 1.219153,-2.10933 3.928583,-2.8363 6.039784,-1.61736 z"
         inkscape:connector-curvature="0"
         style="display:inline;fill:#cccccc;fill-opacity:1;stroke:#ffffff;stroke-width:2.32839036" />
      <path
         style="fill:#cccccc;fill-opacity:1;stroke:#ffffff;stroke-width:2.32839036"
         inkscape:connector-curvature="0"
         d="m 35.010801,283.0562 c 0.109203,0.1233 8.815664,9.99065 8.574567,21.04287 -1.745831,-1.33795 -3.908618,-2.16849 -6.278466,-2.16849 -5.723942,0 -10.378545,4.65304 -10.378545,10.37332 -0.0014,5.72029 4.654603,10.37333 10.378545,10.37333 5.104179,0 9.333315,-3.70486 10.195593,-8.56058 1.630955,-3.57163 2.314538,-7.13193 2.314538,-10.54482 0,-13.15127 -9.694962,-24.07309 -10.216867,-24.64994 -1.144505,-1.26708 -3.093141,-1.36346 -4.356776,-0.22677 -1.272145,1.14377 -1.371421,3.09258 -0.232589,4.36108 z m 6.496872,29.2477 c 0,2.3159 -1.880561,4.19809 -4.200771,4.19809 -2.317374,0 -4.199354,-1.88219 -4.199354,-4.19809 0,-2.31589 1.88198,-4.19808 4.199354,-4.19808 2.318792,0 4.200771,1.88219 4.200771,4.19808 z"
         id="path3545" />
      <path
         style="fill:#cccccc;fill-opacity:1;stroke:#ffffff;stroke-width:2.32839036"
         inkscape:connector-curvature="0"
         d="m 24.365631,316.94419 c -0.109203,-0.1233 -8.814246,-9.99065 -8.573148,-21.04429 1.745831,1.33795 3.9072,2.16991 6.277048,2.16991 5.723942,0 10.378544,-4.65304 10.378544,-10.37474 0,-5.71887 -4.654602,-10.37191 -10.378544,-10.37191 -5.102761,0 -9.331897,3.70628 -10.194175,8.56058 -1.63521,3.57305 -2.315956,7.13193 -2.315956,10.54482 0,13.15268 9.694961,24.07451 10.216867,24.64994 1.144505,1.2685 3.093141,1.36346 4.355358,0.22677 1.274981,-1.14519 1.374256,-3.094 0.234006,-4.36108 z m -6.496872,-29.24912 c 0,-2.31448 1.88198,-4.19667 4.200772,-4.19667 2.318792,0 4.200772,1.88219 4.200772,4.19667 0,2.31731 -1.88198,4.1995 -4.200772,4.1995 -2.317374,0 -4.200772,-1.88219 -4.200772,-4.1995 z"
         id="path3547" />
      <path
         id="path3559"
         d="m 78.057395,163.67049 -17.034671,-9.83512 c 0.855892,-2.7305 1.012931,-5.16618 0.434301,-7.26866 -0.803508,-2.91299 -2.684252,-4.09616 -3.054104,-4.30358 -1.105049,-0.6195 -2.447095,-0.23204 -3.117936,0.83903 -0.670075,1.08717 -0.321624,2.51438 0.721512,3.23131 1.14251,0.78342 2.251043,4.07939 -1.712968,10.94499 -4.046729,7.00906 -7.75585,7.92849 -9.162914,7.43227 -1.17445,-0.48969 -2.553601,0.009 -3.065369,1.19549 -0.543967,1.18615 -0.02218,2.58895 1.167577,3.13542 0.240713,0.1091 4.707357,2.01877 10.106466,-2.87448 l 17.490161,10.09781 c -2.045239,7.73437 2.137996,10.86708 2.36354,11.02746 1.033982,0.73499 2.421824,0.49248 3.196426,-0.50957 0.772775,-0.99885 0.583217,-2.46935 -0.385894,-3.28682 -1.138548,-0.95869 -2.214414,-4.63078 1.844222,-11.66071 3.964131,-6.86539 7.372738,-7.5541 8.54059,-7.00306 1.122986,0.66686 2.575796,0.29867 3.239942,-0.82365 -0.0028,-0.0173 0.01124,-0.0191 0.01395,-0.0247 0.645118,-1.11765 0.270452,-2.55417 -0.845205,-3.21565 -0.366202,-0.21157 -2.328408,-1.25325 -5.253168,-0.49249 -1.894265,0.49064 -3.727685,1.64075 -5.486381,3.39401 z m -5.542309,8.11263 -16.005165,-9.24059 c 0.627681,-0.86834 1.254743,-1.80362 1.884125,-2.89379 0.280009,-0.48472 0.525388,-0.95757 0.771968,-1.43 l 15.880778,9.16906 c -0.439562,0.6534 -0.875,1.33835 -1.301769,2.07754 -0.463764,0.80333 -0.873441,1.57544 -1.230483,2.31732 z"
         inkscape:connector-curvature="0"
         style="display:inline;fill:#cccccc;stroke:#ffffff;stroke-width:2.32839036" />
      <path
         id="path3599"
         d="m 170.48883,39.40171 0,0 c -0.31024,0.179046 -7.17808,4.320795 -7.2423,15.944941 -1.16781,0.337439 -2.316,0.799777 -3.41522,1.434427 -1.21959,0.704146 -2.29387,1.563637 -3.23629,2.522597 -10.15615,-5.833897 -17.21897,-1.939165 -17.52992,-1.759625 0,0 0,0 -0.007,0.01817 -1.23329,0.711957 -1.64818,2.267479 -0.96016,3.510921 0.69153,1.244578 2.27034,1.69691 3.52965,1.025082 0.20934,-0.106634 4.78901,-2.441505 11.98833,1.529416 -1.99718,4.349417 -1.94246,9.56616 0.6272,14.016949 4.20714,7.286727 13.55984,9.79299 20.84925,5.584445 7.29066,-4.209348 9.79946,-13.562229 5.59173,-20.850234 -2.63767,-4.568566 -7.29913,-7.256072 -12.20423,-7.590409 0.24577,-7.953463 4.3958,-10.716315 4.65678,-10.881859 1.22604,-0.731904 1.63499,-2.310774 0.91608,-3.548331 -0.71763,-1.242978 -2.31196,-1.665242 -3.55859,-0.945573 z m 1.98988,39.301076 c -4.79729,2.769727 -10.9555,1.1213 -13.72476,-3.6752 -2.76991,-4.797621 -1.1197,-10.956799 3.6777,-13.72681 4.80084,-2.771696 10.96004,-1.121065 13.73015,3.676655 2.7689,4.796367 1.11744,10.953611 -3.68309,13.725355 z"
         inkscape:connector-curvature="0"
         style="display:inline;fill:#cccccc;fill-opacity:1;stroke:#ffffff;stroke-width:2.32838988" />
    </g>
  </g>
  <g
     inkscape:groupmode="layer"
     id="houses"
     inkscape:label="House"
     style="display:inline">
    <circle
       id="path3898"
       style="fill:#f2f2f2;stroke:#ffffff;stroke-width:1.80646050000000002;stroke-linecap:round;stroke-linejoin:round;stroke-miterlimit:2.90000010000000019;stroke-opacity:1;stroke-dasharray:none;stroke-dashoffset:0"
       cx="300"
       cy="300"
       r="165"
       sodipodi:cx="300"
       sodipodi:cy="300"
       sodipodi:rx="165"
       sodipodi:ry="165"
       transform="matrix(1.1071374,0,0,1.1071374,-32.141217,-32.141217)" />
    <rect
       inkscape:label=""
       ry="12.397326"
       rx="1.4043926"
       y="300"
       x="-47.140453"
       height="24.794653"
       width="320.20151"
       id="house-11"
       style="fill:#ececec;fill-opacity:1;stroke:none"
       transform="matrix(0.35602579,0.61665477,-0.06985582,0.04033127,224.60599,119.01622)" />
    <rect
       style="fill:#ececec;fill-opacity:1;stroke:none"
       id="house-12"
       width="228"
       height="1.9999999"
       x="181.80763"
       y="108.80761"
       rx="1"
       ry="0.99999994"
       inkscape:label=""
       transform="matrix(0.8660254,0.50000001,-0.50000009,0.86602535,0,0)" />
    <rect
       inkscape:label=""
       ry="0.99999994"
       rx="1"
       y="408.80762"
       x="-109.80757"
       height="1.9999999"
       width="227.99998"
       id="house-9"
       style="fill:#ececec;fill-opacity:1;stroke:none"
       transform="matrix(0.50000001,-0.8660254,0.86602535,0.50000009,0,0)" />
    <rect
       inkscape:label=""
       ry="0.99999994"
       rx="1"
       transform="matrix(0,1,-1,0,0,0)"
       y="-301.5"
       x="60"
       height="3.0000002"
       width="240"
       id="house-10"
       style="fill:#4d4d4d;fill-opacity:1;stroke:none" />
    <rect
       inkscape:label=""
       ry="0.99999994"
       rx="1"
       y="408.80762"
       x="109.80765"
       height="1.9999999"
       width="228"
       id="house-8"
       style="fill:#ececec;fill-opacity:1;stroke:none"
       transform="matrix(0.86602541,-0.49999999,0.49999994,0.86602544,0,0)" />
    <path
       style="fill:#4d4d4d;fill-opacity:1;stroke:none"
       d="m 540,297.5 0,5 -238,0 c -1.108,0 -2,-0.892 -2,-2 l 0,-1 c 0,-1.108 0.892,-2 2,-2 l 238,0 z"
       id="house-7"
       inkscape:connector-curvature="0" />
    <rect
       style="fill:#ececec;fill-opacity:1;stroke:none"
       id="house-5"
       width="228"
       height="1.9999999"
       x="409.80762"
       y="-110.80762"
       transform="matrix(0.49999999,0.86602541,-0.86602544,0.49999994,0,0)"
       rx="1"
       ry="0.99999994"
       inkscape:label="" />
    <rect
       inkscape:label=""
       ry="0.99999994"
       rx="1"
       y="108.80762"
       x="409.80759"
       height="1.9999999"
       width="228"
       id="house-6"
       style="fill:#ececec;fill-opacity:1;stroke:none"
       transform="matrix(0.8660254,0.50000001,-0.50000009,0.86602535,0,0)" />
    <rect
       inkscape:label=""
       ry="12.397326"
       rx="1.4043926"
       y="300"
       x="-47.140453"
       height="24.794653"
       width="320.20151"
       id="house-2"
       style="fill:#ececec;fill-opacity:1;stroke:none"
       transform="matrix(0.61665477,-0.35602579,0.04033127,0.06985582,119.01622,375.39401)" />
    <rect
       style="fill:#ececec;fill-opacity:1;stroke:none"
       id="house-3"
       width="320.20151"
       height="24.794653"
       x="-47.140453"
       y="300"
       rx="1.4043926"
       ry="12.397326"
       inkscape:label=""
       transform="matrix(0.3560258,-0.61665476,0.06985581,0.04033128,180.96045,455.78501)" />
    <path
       style="fill:#4d4d4d;fill-opacity:1;stroke:none"
       d="m 298,297.5 c 1.108,0 2,0.892 2,2 l 0,1 c 0,1.108 -0.892,2 -2,2 l -238,0 0,-5 238,0 z"
       id="house-1"
       inkscape:connector-curvature="0" />
    <rect
       style="fill:#4d4d4d;fill-opacity:1;stroke:none"
       id="house-4"
       width="240"
       height="3.0000002"
       x="-540"
       y="-301.5"
       transform="matrix(0,-1,-1,0,0,0)"
       rx="1"
       ry="0.99999994"
       inkscape:label="" />
    <g
       transform="matrix(0.85886774,0,0,0.85327319,34.032074,3.707612)"
       id="house-1-text"
       style="font-size:40px;font-style:normal;font-variant:normal;font-weight:normal;font-stretch:normal;line-height:125%;letter-spacing:0px;word-spacing:0px;fill:#e6e6e6;fill-opacity:1;stroke:none;stroke-width:2.33626866000000000;font-family:Cambria Math;-inkscape-font-specification:Cambria Math"
       inkscape:transform-center-y="-171.0138"
       inkscape:transform-center-x="-4.3878817">
      <path
         inkscape:connector-curvature="0"
         id="path3441"
         style="font-style:normal;font-variant:normal;font-weight:normal;font-stretch:normal;fill:#e6e6e6;stroke:none;stroke-width:2.33626866000000000;font-family:Cambria Math;-inkscape-font-specification:Cambria Math"
         d="M 310.69617,113.03049 Q 310.69617,114.33909 310.77427,114.94456 310.87197,115.55003 311.06724,115.90159 311.28208,116.25315 311.67271,116.48753 312.08287,116.7219 312.9813,116.95628 L 312.9813,117.91331 304.73912,117.91331 304.73912,116.95628 Q 305.95005,116.64378 306.36021,116.27268 306.77037,115.88206 306.88755,115.17893 307.02427,114.47581 307.02427,113.03049 L 307.02427,96.135963 Q 307.02427,94.788307 306.92667,94.182838 306.82897,93.557838 306.59463,93.225807 306.37979,92.874245 306.0087,92.678932 305.6376,92.464088 304.73917,92.210182 L 304.73917,91.253151 312.98135,91.253151 312.98135,92.210182 Q 312.12198,92.425026 311.73135,92.63987 311.36026,92.854713 311.12588,93.186745 310.91104,93.499245 310.79385,94.143776 310.69625,94.788307 310.69625,96.135963 L 310.69625,113.03049 z" />
    </g>
    <g
       transform="matrix(0.85886774,0,0,0.85327319,42.828262,5.672299)"
       id="house-10-text"
       style="font-size:40px;font-style:normal;font-variant:normal;font-weight:normal;font-stretch:normal;line-height:125%;letter-spacing:0px;word-spacing:0px;fill:#e6e6e6;fill-opacity:1;stroke:none;stroke-width:2.33626866000000000;font-family:Cambria Math;-inkscape-font-specification:Cambria Math"
       inkscape:transform-center-y="-169.10384"
       inkscape:transform-center-x="-1.2814941e-05">
      <path
         inkscape:connector-curvature="0"
         id="path3444"
         style="font-style:normal;font-variant:normal;font-weight:normal;font-stretch:normal;fill:#e6e6e6;stroke:none;stroke-width:2.33626866000000000;font-family:Cambria Math;-inkscape-font-specification:Cambria Math"
         d="M 296.58737,88.950623 296.58737,89.907654 Q 295.64987,90.044373 295.23972,90.415466 294.82956,90.78656 294.82956,91.431091 294.82956,91.977966 295.20065,92.798279 295.57175,93.618591 296.25534,94.751404 L 299.08737,99.497498 301.88034,94.985779 Q 302.50534,93.970154 302.81784,93.364685 303.13034,92.759216 303.24753,92.34906 303.38425,91.938904 303.38425,91.509216 303.38425,90.903748 303.03268,90.493591 302.68112,90.063904 301.86081,89.907654 L 301.86081,88.950623 309.1069,88.950623 309.1069,89.907654 Q 308.38425,90.142029 307.79831,90.591248 307.2319,91.040466 306.56784,91.899841 305.92331,92.759216 304.71237,94.614685 L 300.29831,101.45062 305.25925,109.61469 Q 306.31393,111.35297 306.76315,112.05609 307.2319,112.73969 307.62253,113.22797 308.03268,113.69672 308.4819,114.04828 308.95065,114.39984 309.63425,114.65375 L 309.63425,115.61078 301.06003,115.61078 301.06003,114.65375 Q 301.95847,114.4975 302.38815,114.16547 302.81784,113.8139 302.81784,113.13031 302.81784,112.58344 302.52487,111.91937 302.25143,111.25531 301.6655,110.27875 L 298.13034,104.38031 294.39987,110.49359 Q 293.46237,112.03656 293.46237,113.03265 293.46237,113.67719 293.81393,114.08734 294.1655,114.4975 294.98581,114.65375 L 294.98581,115.61078 287.603,115.61078 287.603,114.65375 Q 288.32565,114.4389 288.7944,114.14594 289.26315,113.83344 289.69284,113.36469 290.12253,112.89594 290.64987,112.17328 291.17722,111.45062 292.32956,109.65375 L 296.93893,102.46625 291.43112,93.403748 Q 290.64987,92.153748 290.23972,91.587341 289.84909,91.020935 289.49753,90.669373 289.1655,90.31781 288.89206,90.181091 288.61862,90.024841 288.26706,89.907654 L 288.26706,88.950623 296.58737,88.950623 z" />
    </g>
    <g
       transform="matrix(0.85886774,0,0,0.85327319,43.021267,4.58864)"
       id="house-11-text"
       style="font-size:40px;font-style:normal;font-variant:normal;font-weight:normal;font-stretch:normal;line-height:125%;letter-spacing:0px;word-spacing:0px;fill:#e6e6e6;fill-opacity:1;stroke:none;stroke-width:2.33626866000000000;font-family:Cambria Math;-inkscape-font-specification:Cambria Math"
       inkscape:transform-center-y="-169.10385"
       inkscape:transform-center-x="1.1637507e-05">
      <path
         inkscape:connector-curvature="0"
         id="path3447"
         style="font-style:normal;font-variant:normal;font-weight:normal;font-stretch:normal;fill:#e6e6e6;stroke:none;stroke-width:2.33626866000000000;font-family:Cambria Math;-inkscape-font-specification:Cambria Math"
         d="M 290.83533,90.220627 290.83533,91.177658 Q 289.89783,91.314377 289.48767,91.685471 289.07751,92.056564 289.07751,92.701096 289.07751,93.247971 289.44861,94.068283 289.8197,94.888596 290.5033,96.021408 L 293.33533,100.7675 296.1283,96.255783 Q 296.7533,95.240158 297.0658,94.634689 297.3783,94.029221 297.49548,93.619064 297.6322,93.208908 297.6322,92.779221 297.6322,92.173752 297.28064,91.763596 296.92908,91.333908 296.10876,91.177658 L 296.10876,90.220627 303.35486,90.220627 303.35486,91.177658 Q 302.6322,91.412033 302.04626,91.861252 301.47986,92.310471 300.8158,93.169846 300.17126,94.029221 298.96033,95.884689 L 294.54626,102.72063 299.5072,110.88469 Q 300.56189,112.62297 301.01111,113.3261 301.47986,114.00969 301.87048,114.49797 302.28064,114.96672 302.72986,115.31828 303.19861,115.66985 303.8822,115.92375 L 303.8822,116.88078 295.30798,116.88078 295.30798,115.92375 Q 296.20642,115.7675 296.63611,115.43547 297.0658,115.08391 297.0658,114.40031 297.0658,113.85344 296.77283,113.18938 296.49939,112.52531 295.91345,111.54875 L 292.3783,105.65031 288.64783,111.7636 Q 287.71033,113.30656 287.71033,114.30266 287.71033,114.94719 288.06189,115.35735 288.41345,115.7675 289.23376,115.92375 L 289.23376,116.88078 281.85095,116.88078 281.85095,115.92375 Q 282.57361,115.70891 283.04236,115.41594 283.51111,115.10344 283.9408,114.63469 284.37048,114.16594 284.89783,113.44328 285.42517,112.72063 286.57751,110.92375 L 291.18689,103.73625 285.67908,94.673752 Q 284.89783,93.423752 284.48767,92.857346 284.09705,92.290939 283.74548,91.939377 283.41345,91.587814 283.14001,91.451096 282.86658,91.294846 282.51501,91.177658 L 282.51501,90.220627 290.83533,90.220627 z" />
      <path
         inkscape:connector-curvature="0"
         id="path3449"
         style="font-style:normal;font-variant:normal;font-weight:normal;font-stretch:normal;fill:#e6e6e6;stroke:none;stroke-width:2.33626866000000000;font-family:Cambria Math;-inkscape-font-specification:Cambria Math"
         d="M 312.65173,111.99797 Q 312.65173,113.30656 312.72983,113.91203 312.82753,114.5175 313.0228,114.86906 313.23764,115.22063 313.62827,115.455 314.03842,115.68938 314.93686,115.92375 L 314.93686,116.88078 306.69467,116.88078 306.69467,115.92375 Q 307.90561,115.61125 308.31577,115.24016 308.72592,114.84953 308.84311,114.14641 308.97983,113.44328 308.97983,111.99797 L 308.97983,95.103439 Q 308.97983,93.755783 308.88213,93.150314 308.78453,92.525314 308.5501,92.193283 308.33526,91.841721 307.96416,91.646408 307.59307,91.431564 306.69463,91.177658 L 306.69463,90.220627 314.93682,90.220627 314.93682,91.177658 Q 314.07744,91.392502 313.68682,91.607346 313.31573,91.822189 313.08135,92.154221 312.86651,92.466721 312.74932,93.111252 312.65162,93.755783 312.65162,95.103439 L 312.65162,111.99797 z" />
    </g>
    <g
       transform="matrix(0.85886774,0,0,0.85327319,42.222396,3.61863)"
       id="house-12-text"
       style="font-size:40px;font-style:normal;font-variant:normal;font-weight:normal;font-stretch:normal;line-height:125%;letter-spacing:0px;word-spacing:0px;fill:#e6e6e6;fill-opacity:1;stroke:none;stroke-width:2.33626866000000000;font-family:Cambria Math;-inkscape-font-specification:Cambria Math"
       inkscape:transform-center-y="-169.10383">
      <path
         inkscape:connector-curvature="0"
         id="path3452"
         style="font-style:normal;font-variant:normal;font-weight:normal;font-stretch:normal;fill:#e6e6e6;stroke:none;stroke-width:2.33626866000000000;font-family:Cambria Math;-inkscape-font-specification:Cambria Math"
         d="M 285.2811,91.357437 285.2811,92.314468 Q 284.3436,92.451187 283.93344,92.822281 283.52328,93.193375 283.52328,93.837906 283.52328,94.384781 283.89438,95.205093 284.26547,96.025406 284.94907,97.158218 L 287.7811,101.90431 290.57407,97.392593 Q 291.19907,96.376968 291.51157,95.7715 291.82407,95.166031 291.94125,94.755875 292.07797,94.345718 292.07797,93.916031 292.07797,93.310562 291.72641,92.900406 291.37485,92.470718 290.55453,92.314468 L 290.55453,91.357437 297.80063,91.357437 297.80063,92.314468 Q 297.07797,92.548843 296.49203,92.998062 295.92563,93.447281 295.26157,94.306656 294.61703,95.166031 293.4061,97.0215 L 288.99203,103.85744 293.95297,112.0215 Q 295.00766,113.75978 295.45688,114.46291 295.92563,115.1465 296.31625,115.63478 296.72641,116.10353 297.17563,116.45509 297.64438,116.80666 298.32797,117.06056 L 298.32797,118.01759 289.75375,118.01759 289.75375,117.06056 Q 290.65219,116.90431 291.08188,116.57228 291.51157,116.22072 291.51157,115.53712 291.51157,114.99025 291.2186,114.32619 290.94516,113.66212 290.35922,112.68556 L 286.82407,106.78712 283.0936,112.90041 Q 282.1561,114.44337 282.1561,115.43947 282.1561,116.084 282.50766,116.49416 282.85922,116.90431 283.67953,117.06056 L 283.67953,118.01759 276.29672,118.01759 276.29672,117.06056 Q 277.01938,116.84572 277.48813,116.55275 277.95688,116.24025 278.38657,115.7715 278.81625,115.30275 279.3436,114.58009 279.87094,113.85744 281.02328,112.06056 L 285.63266,104.87306 280.12485,95.810562 Q 279.3436,94.560562 278.93344,93.994156 278.54282,93.42775 278.19125,93.076187 277.85922,92.724625 277.58578,92.587906 277.31235,92.431656 276.96078,92.314468 L 276.96078,91.357437 285.2811,91.357437 z" />
      <path
         inkscape:connector-curvature="0"
         id="path3454"
         style="font-style:normal;font-variant:normal;font-weight:normal;font-stretch:normal;fill:#e6e6e6;stroke:none;stroke-width:2.33626866000000000;font-family:Cambria Math;-inkscape-font-specification:Cambria Math"
         d="M 307.0975,113.13478 Q 307.0975,114.44337 307.1756,115.04884 307.2732,115.65431 307.46857,116.00587 307.68341,116.35744 308.07404,116.59181 308.48419,116.82619 309.38263,117.06056 L 309.38263,118.01759 301.14044,118.01759 301.14044,117.06056 Q 302.35138,116.74806 302.76154,116.37697 303.17169,115.98634 303.28888,115.28322 303.4256,114.58009 303.4256,113.13478 L 303.4256,96.24025 Q 303.4256,94.892593 303.3279,94.287125 303.2303,93.662125 302.99587,93.330093 302.78103,92.978531 302.40993,92.783218 302.03884,92.568375 301.1404,92.314468 L 301.1404,91.357437 309.38259,91.357437 309.38259,92.314468 Q 308.52321,92.529312 308.13259,92.744156 307.7615,92.959 307.52712,93.291031 307.31228,93.603531 307.19509,94.248062 307.09739,94.892593 307.09739,96.24025 L 307.09739,113.13478 z" />
      <path
         inkscape:connector-curvature="0"
         id="path3456"
         style="font-style:normal;font-variant:normal;font-weight:normal;font-stretch:normal;fill:#e6e6e6;stroke:none;stroke-width:2.33626866000000000;font-family:Cambria Math;-inkscape-font-specification:Cambria Math"
         d="M 320.06625,113.13478 Q 320.06625,114.44337 320.14435,115.04884 320.24195,115.65431 320.43732,116.00587 320.65216,116.35744 321.04279,116.59181 321.45294,116.82619 322.35138,117.06056 L 322.35138,118.01759 314.10919,118.01759 314.10919,117.06056 Q 315.32013,116.74806 315.73029,116.37697 316.14044,115.98634 316.25763,115.28322 316.39435,114.58009 316.39435,113.13478 L 316.39435,96.24025 Q 316.39435,94.892593 316.29665,94.287125 316.19905,93.662125 315.96462,93.330093 315.74978,92.978531 315.37868,92.783218 315.00759,92.568375 314.10915,92.314468 L 314.10915,91.357437 322.35134,91.357437 322.35134,92.314468 Q 321.49196,92.529312 321.10134,92.744156 320.73025,92.959 320.49587,93.291031 320.28103,93.603531 320.16384,94.248062 320.06614,94.892593 320.06614,96.24025 L 320.06614,113.13478 z" />
    </g>
    <g
       transform="matrix(0.85886774,0,0,0.85327319,37.04247,4.706521)"
       id="house-9-text"
       style="font-size:40px;font-style:normal;font-variant:normal;font-weight:normal;font-stretch:normal;line-height:125%;letter-spacing:0px;word-spacing:0px;fill:#e6e6e6;fill-opacity:1;stroke:none;stroke-width:2.33626866000000000;font-family:Cambria Math;-inkscape-font-specification:Cambria Math"
       inkscape:transform-center-y="-169.10376">
      <path
         inkscape:connector-curvature="0"
         id="path3459"
         style="font-style:normal;font-variant:normal;font-weight:normal;font-stretch:normal;fill:#e6e6e6;stroke:none;stroke-width:2.33626866000000000;font-family:Cambria Math;-inkscape-font-specification:Cambria Math"
         d="M 294.78879,111.85982 Q 294.78879,113.16841 294.86689,113.77388 294.96459,114.37935 295.15986,114.73091 295.37471,115.08247 295.76533,115.31685 296.17549,115.55122 297.07392,115.7856 L 297.07392,116.74263 288.83174,116.74263 288.83174,115.7856 Q 290.04267,115.4731 290.45283,115.10201 290.86299,114.71138 290.98017,114.00826 291.11689,113.30513 291.11689,111.85982 L 291.11689,94.965286 Q 291.11689,93.61763 291.01919,93.012161 290.92149,92.387161 290.68716,92.05513 290.47231,91.703568 290.10122,91.508255 289.73012,91.293411 288.83169,91.039505 L 288.83169,90.082474 297.07387,90.082474 297.07387,91.039505 Q 296.2145,91.254349 295.82387,91.469193 295.45278,91.684036 295.21841,92.016068 295.00356,92.328568 294.88637,92.973099 294.78877,93.61763 294.78877,94.965286 L 294.78877,111.85982 z" />
      <path
         inkscape:connector-curvature="0"
         id="path3461"
         style="font-style:normal;font-variant:normal;font-weight:normal;font-stretch:normal;fill:#e6e6e6;stroke:none;stroke-width:2.33626866000000000;font-family:Cambria Math;-inkscape-font-specification:Cambria Math"
         d="M 308.83176,90.082474 308.83176,91.039505 Q 307.89426,91.176224 307.4841,91.547318 307.07394,91.918411 307.07394,92.562943 307.07394,93.109818 307.44504,93.93013 307.81613,94.750443 308.49973,95.883255 L 311.33176,100.62935 314.12473,96.11763 Q 314.74973,95.102005 315.06223,94.496536 315.37473,93.891068 315.49191,93.480911 315.62863,93.070755 315.62863,92.641068 315.62863,92.035599 315.27707,91.625443 314.92551,91.195755 314.10519,91.039505 L 314.10519,90.082474 321.35129,90.082474 321.35129,91.039505 Q 320.62863,91.27388 320.04269,91.723099 319.47629,92.172318 318.81223,93.031693 318.16769,93.891068 316.95676,95.746536 L 312.54269,102.58247 317.50363,110.74654 Q 318.55832,112.48482 319.00754,113.18794 319.47629,113.87154 319.86691,114.35982 320.27707,114.82857 320.72629,115.18013 321.19504,115.53169 321.87863,115.7856 L 321.87863,116.74263 313.30441,116.74263 313.30441,115.7856 Q 314.20285,115.62935 314.63254,115.29732 315.06223,114.94576 315.06223,114.26216 315.06223,113.71529 314.76926,113.05122 314.49582,112.38716 313.90988,111.4106 L 310.37473,105.51216 306.64426,111.62544 Q 305.70676,113.16841 305.70676,114.16451 305.70676,114.80904 306.05832,115.21919 306.40988,115.62935 307.23019,115.7856 L 307.23019,116.74263 299.84738,116.74263 299.84738,115.7856 Q 300.57004,115.57076 301.03879,115.27779 301.50754,114.96529 301.93723,114.49654 302.36691,114.02779 302.89426,113.30513 303.4216,112.58247 304.57394,110.7856 L 309.18332,103.5981 303.67551,94.535599 Q 302.89426,93.285599 302.4841,92.719193 302.09348,92.152786 301.74191,91.801224 301.40988,91.449661 301.13644,91.312943 300.86301,91.156693 300.51144,91.039505 L 300.51144,90.082474 308.83176,90.082474 z" />
    </g>
    <g
       transform="matrix(0.85886774,0,0,0.85327319,38.114216,3.770018)"
       id="house-7-text"
       style="font-size:40px;font-style:normal;font-variant:normal;font-weight:normal;font-stretch:normal;line-height:125%;letter-spacing:0px;word-spacing:0px;fill:#e6e6e6;fill-opacity:1;stroke:none;stroke-width:2.33626866000000000;font-family:Cambria Math;-inkscape-font-specification:Cambria Math"
       inkscape:transform-center-y="-169.09719"
       inkscape:transform-center-x="-0.024941789">
      <path
         inkscape:connector-curvature="0"
         id="path3464"
         style="font-style:normal;font-variant:normal;font-weight:normal;font-stretch:normal;fill:#e6e6e6;stroke:none;stroke-width:2.33626866000000000;font-family:Cambria Math;-inkscape-font-specification:Cambria Math"
         d="M 289.29285,91.023766 289.29285,91.980797 Q 288.39441,92.137047 287.92566,92.371422 287.45691,92.605797 287.22253,93.035484 286.98816,93.465172 286.98816,94.187828 286.98816,94.851891 287.14441,95.633141 287.30066,96.394859 287.59363,97.351891 L 292.16394,113.28939 297.76941,97.234703 Q 297.8866,96.863609 298.00378,96.453453 298.12097,96.043297 298.1991,95.652672 298.2967,95.262047 298.31628,94.969078 298.35538,94.676109 298.35538,94.422203 298.35538,93.250328 297.8085,92.722984 297.28116,92.176109 295.9921,91.980797 L 295.9921,91.023766 304.19522,91.023766 304.19522,91.980797 Q 303.39444,92.176109 302.90616,92.547203 302.41788,92.918297 301.9296,93.738609 301.46085,94.558922 300.77725,96.355797 L 292.67178,117.99642 290.11319,117.99642 283.53116,96.219078 Q 283.00381,94.441734 282.61319,93.699547 282.22256,92.937828 281.75381,92.566734 281.28506,92.176109 280.46475,91.980797 L 280.46475,91.023766 289.29288,91.023766 z" />
      <path
         inkscape:connector-curvature="0"
         id="path3466"
         style="font-style:normal;font-variant:normal;font-weight:normal;font-stretch:normal;fill:#e6e6e6;stroke:none;stroke-width:2.33626866000000000;font-family:Cambria Math;-inkscape-font-specification:Cambria Math"
         d="M 312.49597,112.80111 Q 312.49597,114.1097 312.57407,114.71517 312.67167,115.32064 312.86704,115.6722 313.08188,116.02377 313.4725,116.25814 313.88266,116.49252 314.7811,116.72689 L 314.7811,117.68392 306.53891,117.68392 306.53891,116.72689 Q 307.74985,116.41439 308.16,116.0433 308.57016,115.65267 308.68735,114.94955 308.82407,114.24642 308.82407,112.80111 L 308.82407,95.906578 Q 308.82407,94.558922 308.72637,93.953453 308.62867,93.328453 308.39434,92.996422 308.1795,92.644859 307.8084,92.449547 307.43731,92.234703 306.53887,91.980797 L 306.53887,91.023766 314.78106,91.023766 314.78106,91.980797 Q 313.92168,92.195641 313.53106,92.410484 313.15996,92.625328 312.92559,92.957359 312.71075,93.269859 312.59356,93.914391 312.49586,94.558922 312.49586,95.906578 L 312.49586,112.80111 z" />
      <path
         inkscape:connector-curvature="0"
         id="path3468"
         style="font-style:normal;font-variant:normal;font-weight:normal;font-stretch:normal;fill:#e6e6e6;stroke:none;stroke-width:2.33626866000000000;font-family:Cambria Math;-inkscape-font-specification:Cambria Math"
         d="M 325.46472,112.80111 Q 325.46472,114.1097 325.54282,114.71517 325.64042,115.32064 325.83579,115.6722 326.05063,116.02377 326.44125,116.25814 326.85141,116.49252 327.74985,116.72689 L 327.74985,117.68392 319.50766,117.68392 319.50766,116.72689 Q 320.7186,116.41439 321.12875,116.0433 321.53891,115.65267 321.6561,114.94955 321.79282,114.24642 321.79282,112.80111 L 321.79282,95.906578 Q 321.79282,94.558922 321.69512,93.953453 321.59742,93.328453 321.36309,92.996422 321.14825,92.644859 320.77715,92.449547 320.40606,92.234703 319.50762,91.980797 L 319.50762,91.023766 327.74981,91.023766 327.74981,91.980797 Q 326.89043,92.195641 326.49981,92.410484 326.12871,92.625328 325.89434,92.957359 325.6795,93.269859 325.56231,93.914391 325.46461,94.558922 325.46461,95.906578 L 325.46461,112.80111 z" />
    </g>
    <g
       transform="matrix(0.85886774,0,0,0.85327319,38.768665,4.290611)"
       id="house-6-text"
       style="font-size:40px;font-style:normal;font-variant:normal;font-weight:normal;font-stretch:normal;line-height:125%;letter-spacing:0px;word-spacing:0px;fill:#e6e6e6;fill-opacity:1;stroke:none;stroke-width:2.33626866000000000;font-family:Cambria Math;-inkscape-font-specification:Cambria Math"
       inkscape:transform-center-y="-169.01131"
       inkscape:transform-center-x="-0.024959926">
      <path
         inkscape:connector-curvature="0"
         id="path3471"
         style="font-style:normal;font-variant:normal;font-weight:normal;font-stretch:normal;fill:#e6e6e6;stroke:none;stroke-width:2.33626866000000000;font-family:Cambria Math;-inkscape-font-specification:Cambria Math"
         d="M 295.01523,90.413651 295.01523,91.370682 Q 294.11679,91.526932 293.64804,91.761307 293.17929,91.995682 292.94492,92.425369 292.71054,92.855057 292.71054,93.577713 292.71054,94.241776 292.86679,95.023026 293.02304,95.784744 293.31601,96.741776 L 297.88632,112.67928 303.49179,96.624588 Q 303.60898,96.253494 303.72617,95.843338 303.84335,95.433182 303.92148,95.042557 304.01918,94.651932 304.03867,94.358963 304.07777,94.065994 304.07777,93.812088 304.07777,92.640213 303.53089,92.112869 303.00355,91.565994 301.71449,91.370682 L 301.71449,90.413651 309.91761,90.413651 309.91761,91.370682 Q 309.11683,91.565994 308.62855,91.937088 308.14027,92.308182 307.65199,93.128494 307.18324,93.948807 306.49964,95.745682 L 298.39417,117.38631 295.83558,117.38631 289.25355,95.608963 Q 288.72621,93.831619 288.33558,93.089432 287.94496,92.327713 287.47621,91.956619 287.00746,91.565994 286.18714,91.370682 L 286.18714,90.413651 295.01527,90.413651 z" />
      <path
         inkscape:connector-curvature="0"
         id="path3473"
         style="font-style:normal;font-variant:normal;font-weight:normal;font-stretch:normal;fill:#e6e6e6;stroke:none;stroke-width:2.33626866000000000;font-family:Cambria Math;-inkscape-font-specification:Cambria Math"
         d="M 318.21835,112.19099 Q 318.21835,113.49959 318.29645,114.10506 318.39415,114.71053 318.58942,115.06209 318.80426,115.41365 319.19489,115.64803 319.60504,115.8824 320.50348,116.11678 L 320.50348,117.07381 312.26129,117.07381 312.26129,116.11678 Q 313.47223,115.80428 313.88239,115.43318 314.29254,115.04256 314.40973,114.33943 314.54645,113.63631 314.54645,112.19099 L 314.54645,95.296463 Q 314.54645,93.948807 314.44875,93.343338 314.35115,92.718338 314.11672,92.386307 313.90188,92.034744 313.53078,91.839432 313.15969,91.624588 312.26125,91.370682 L 312.26125,90.413651 320.50344,90.413651 320.50344,91.370682 Q 319.64406,91.585526 319.25344,91.800369 318.88235,92.015213 318.64797,92.347244 318.43313,92.659744 318.31594,93.304276 318.21824,93.948807 318.21824,95.296463 L 318.21824,112.19099 z" />
    </g>
    <g
       transform="matrix(0.85886774,0,0,0.85327319,38.581814,5.023596)"
       id="house-5-text"
       style="font-size:40px;font-style:normal;font-variant:normal;font-weight:normal;font-stretch:normal;line-height:125%;letter-spacing:0px;word-spacing:0px;fill:#e6e6e6;fill-opacity:1;stroke:none;stroke-width:2.33626866000000000;font-family:Cambria Math;-inkscape-font-specification:Cambria Math"
       inkscape:transform-center-y="-169.10387"
       inkscape:transform-center-x="3.7964046e-05">
      <path
         inkscape:connector-curvature="0"
         id="path3476"
         style="font-style:normal;font-variant:normal;font-weight:normal;font-stretch:normal;fill:#e6e6e6;stroke:none;stroke-width:2.33626866000000000;font-family:Cambria Math;-inkscape-font-specification:Cambria Math"
         d="M 300.52573,89.554626 300.52573,90.511658 Q 299.62729,90.667908 299.15854,90.902283 298.68979,91.136658 298.45541,91.566345 298.22104,91.996033 298.22104,92.718689 298.22104,93.382751 298.37729,94.164001 298.53354,94.92572 298.82651,95.882751 L 303.39682,111.82025 309.00229,95.765564 Q 309.11948,95.39447 309.23666,94.984314 309.35385,94.574158 309.43198,94.183533 309.52958,93.792908 309.54916,93.499939 309.58826,93.20697 309.58826,92.953064 309.58826,91.781189 309.04138,91.253845 308.51404,90.70697 307.22498,90.511658 L 307.22498,89.554626 315.4281,89.554626 315.4281,90.511658 Q 314.62732,90.70697 314.13904,91.078064 313.65076,91.449158 313.16248,92.26947 312.69373,93.089783 312.01013,94.886658 L 303.90466,116.52728 301.34607,116.52728 294.76404,94.749939 Q 294.23669,92.972595 293.84607,92.230408 293.45544,91.468689 292.98669,91.097595 292.51794,90.70697 291.69763,90.511658 L 291.69763,89.554626 300.52576,89.554626 z" />
    </g>
    <g
       transform="matrix(0.85886774,0,0,0.85327319,39.275122,5.206941)"
       id="house-4-text"
       style="font-size:40px;font-style:normal;font-variant:normal;font-weight:normal;font-stretch:normal;line-height:125%;letter-spacing:0px;word-spacing:0px;fill:#e6e6e6;fill-opacity:1;stroke:none;stroke-width:2.33626866000000000;font-family:Cambria Math;-inkscape-font-specification:Cambria Math"
       inkscape:transform-center-y="-169.01128"
       inkscape:transform-center-x="0.024974057">
      <path
         inkscape:connector-curvature="0"
         id="path3479"
         style="font-style:normal;font-variant:normal;font-weight:normal;font-stretch:normal;fill:#e6e6e6;stroke:none;stroke-width:2.33626866000000000;font-family:Cambria Math;-inkscape-font-specification:Cambria Math"
         d="M 291.32986,111.1171 Q 291.32986,112.42569 291.40796,113.03116 291.50566,113.63663 291.70093,113.98819 291.91577,114.33975 292.3064,114.57413 292.71655,114.8085 293.61499,115.04288 L 293.61499,115.99991 285.3728,115.99991 285.3728,115.04288 Q 286.58374,114.73038 286.9939,114.35928 287.40405,113.96866 287.52124,113.26553 287.65796,112.56241 287.65796,111.1171 L 287.65796,94.222565 Q 287.65796,92.874908 287.56026,92.26944 287.46256,91.64444 287.22823,91.312408 287.01339,90.960846 286.64229,90.765533 286.2712,90.55069 285.37276,90.296783 L 285.37276,89.339752 293.61495,89.339752 293.61495,90.296783 Q 292.75558,90.511627 292.36495,90.726471 291.99386,90.941315 291.75948,91.273346 291.54464,91.585846 291.42745,92.230377 291.32975,92.874908 291.32975,94.222565 L 291.32975,111.1171 z" />
      <path
         inkscape:connector-curvature="0"
         id="path3481"
         style="font-style:normal;font-variant:normal;font-weight:normal;font-stretch:normal;fill:#e6e6e6;stroke:none;stroke-width:2.33626866000000000;font-family:Cambria Math;-inkscape-font-specification:Cambria Math"
         d="M 305.23611,89.339752 305.23611,90.296783 Q 304.33768,90.453033 303.86893,90.687408 303.40018,90.921783 303.1658,91.351471 302.93143,91.781158 302.93143,92.503815 302.93143,93.167877 303.08768,93.949127 303.24393,94.710846 303.5369,95.667877 L 308.10721,111.60538 313.71268,95.55069 Q 313.82986,95.179596 313.94705,94.76944 314.06424,94.359283 314.14236,93.968658 314.24006,93.578033 314.25955,93.285065 314.29865,92.992096 314.29865,92.73819 314.29865,91.566315 313.75178,91.038971 313.22444,90.492096 311.93537,90.296783 L 311.93537,89.339752 320.1385,89.339752 320.1385,90.296783 Q 319.33772,90.492096 318.84944,90.86319 318.36115,91.234283 317.87287,92.054596 317.40412,92.874908 316.72053,94.671783 L 308.61506,116.31241 306.05647,116.31241 299.47444,94.535065 Q 298.94709,92.757721 298.55647,92.015533 298.16584,91.253815 297.69709,90.882721 297.22834,90.492096 296.40803,90.296783 L 296.40803,89.339752 305.23615,89.339752 z" />
    </g>
    <g
       transform="matrix(0.85886774,0,0,0.85327319,40.072628,5.729228)"
       id="house-3-text"
       style="font-size:40px;font-style:normal;font-variant:normal;font-weight:normal;font-stretch:normal;line-height:125%;letter-spacing:0px;word-spacing:0px;fill:#e6e6e6;fill-opacity:1;stroke:none;stroke-width:2.33626866000000000;font-family:Cambria Math;-inkscape-font-specification:Cambria Math"
       inkscape:transform-center-y="-169.10383"
       inkscape:transform-center-x="2.6014224e-05">
      <path
         inkscape:connector-curvature="0"
         id="path3484"
         style="font-style:normal;font-variant:normal;font-weight:normal;font-stretch:normal;fill:#e6e6e6;stroke:none;stroke-width:2.33626866000000000;font-family:Cambria Math;-inkscape-font-specification:Cambria Math"
         d="M 290.69431,110.66125 Q 290.69431,111.96984 290.77241,112.57531 290.87011,113.18078 291.06538,113.53234 291.28022,113.8839 291.67085,114.11828 292.081,114.35265 292.97944,114.58703 L 292.97944,115.54406 284.73725,115.54406 284.73725,114.58703 Q 285.94819,114.27453 286.35835,113.90343 286.7685,113.51281 286.88569,112.80968 287.02241,112.10656 287.02241,110.66125 L 287.02241,93.766716 Q 287.02241,92.41906 286.92471,91.813591 286.82701,91.188591 286.59268,90.85656 286.37784,90.504997 286.00675,90.309685 285.63565,90.094841 284.73721,89.840935 L 284.73721,88.883904 292.9794,88.883904 292.9794,89.840935 Q 292.12003,90.055779 291.7294,90.270622 291.35831,90.485466 291.12393,90.817497 290.90909,91.129997 290.7919,91.774529 290.6942,92.41906 290.6942,93.766716 L 290.6942,110.66125 z" />
      <path
         inkscape:connector-curvature="0"
         id="path3486"
         style="font-style:normal;font-variant:normal;font-weight:normal;font-stretch:normal;fill:#e6e6e6;stroke:none;stroke-width:2.33626866000000000;font-family:Cambria Math;-inkscape-font-specification:Cambria Math"
         d="M 303.66306,110.66125 Q 303.66306,111.96984 303.74116,112.57531 303.83886,113.18078 304.03413,113.53234 304.24897,113.8839 304.6396,114.11828 305.04975,114.35265 305.94819,114.58703 L 305.94819,115.54406 297.706,115.54406 297.706,114.58703 Q 298.91694,114.27453 299.3271,113.90343 299.73725,113.51281 299.85444,112.80968 299.99116,112.10656 299.99116,110.66125 L 299.99116,93.766716 Q 299.99116,92.41906 299.89346,91.813591 299.79576,91.188591 299.56143,90.85656 299.34659,90.504997 298.9755,90.309685 298.6044,90.094841 297.70596,89.840935 L 297.70596,88.883904 305.94815,88.883904 305.94815,89.840935 Q 305.08878,90.055779 304.69815,90.270622 304.32706,90.485466 304.09268,90.817497 303.87784,91.129997 303.76065,91.774529 303.66295,92.41906 303.66295,93.766716 L 303.66295,110.66125 z" />
      <path
         inkscape:connector-curvature="0"
         id="path3488"
         style="font-style:normal;font-variant:normal;font-weight:normal;font-stretch:normal;fill:#e6e6e6;stroke:none;stroke-width:2.33626866000000000;font-family:Cambria Math;-inkscape-font-specification:Cambria Math"
         d="M 316.63181,110.66125 Q 316.63181,111.96984 316.70991,112.57531 316.80761,113.18078 317.00288,113.53234 317.21772,113.8839 317.60835,114.11828 318.0185,114.35265 318.91694,114.58703 L 318.91694,115.54406 310.67475,115.54406 310.67475,114.58703 Q 311.88569,114.27453 312.29585,113.90343 312.706,113.51281 312.82319,112.80968 312.95991,112.10656 312.95991,110.66125 L 312.95991,93.766716 Q 312.95991,92.41906 312.86221,91.813591 312.76451,91.188591 312.53018,90.85656 312.31534,90.504997 311.94425,90.309685 311.57315,90.094841 310.67471,89.840935 L 310.67471,88.883904 318.9169,88.883904 318.9169,89.840935 Q 318.05753,90.055779 317.6669,90.270622 317.29581,90.485466 317.06143,90.817497 316.84659,91.129997 316.7294,91.774529 316.6317,92.41906 316.6317,93.766716 L 316.6317,110.66125 z" />
    </g>
    <g
       transform="matrix(0.85886774,0,0,0.85327319,40.808966,5.348592)"
       id="house-2-text"
       style="font-size:40px;font-style:normal;font-variant:normal;font-weight:normal;font-stretch:normal;line-height:125%;letter-spacing:0px;word-spacing:0px;fill:#e6e6e6;fill-opacity:1;stroke:none;stroke-width:2.33626866000000000;font-family:Cambria Math;-inkscape-font-specification:Cambria Math"
       inkscape:transform-center-y="-169.10386"
       inkscape:transform-center-x="-1.0646102e-05">
      <path
         inkscape:connector-curvature="0"
         id="path3491"
         style="font-style:normal;font-variant:normal;font-weight:normal;font-stretch:normal;fill:#e6e6e6;stroke:none;stroke-width:2.33626866000000000;font-family:Cambria Math;-inkscape-font-specification:Cambria Math"
         d="M 296.32135,111.10734 Q 296.32135,112.41593 296.39945,113.0214 296.49715,113.62687 296.69241,113.97843 296.90726,114.32999 297.29788,114.56437 297.70804,114.79874 298.60648,115.03312 L 298.60648,115.99015 290.36429,115.99015 290.36429,115.03312 Q 291.57523,114.72062 291.98538,114.34953 292.39554,113.9589 292.51273,113.25578 292.64945,112.55265 292.64945,111.10734 L 292.64945,94.212807 Q 292.64945,92.86515 292.55175,92.259682 292.45405,91.634682 292.21972,91.30265 292.00487,90.951088 291.63378,90.755775 291.26269,90.540932 290.36425,90.287025 L 290.36425,89.329994 298.60644,89.329994 298.60644,90.287025 Q 297.74706,90.501869 297.35644,90.716713 296.98534,90.931557 296.75097,91.263588 296.53612,91.576088 296.41894,92.220619 296.32124,92.86515 296.32124,94.212807 L 296.32124,111.10734 z" />
      <path
         inkscape:connector-curvature="0"
         id="path3493"
         style="font-style:normal;font-variant:normal;font-weight:normal;font-stretch:normal;fill:#e6e6e6;stroke:none;stroke-width:2.33626866000000000;font-family:Cambria Math;-inkscape-font-specification:Cambria Math"
         d="M 309.2901,111.10734 Q 309.2901,112.41593 309.3682,113.0214 309.4659,113.62687 309.66116,113.97843 309.87601,114.32999 310.26663,114.56437 310.67679,114.79874 311.57523,115.03312 L 311.57523,115.99015 303.33304,115.99015 303.33304,115.03312 Q 304.54398,114.72062 304.95413,114.34953 305.36429,113.9589 305.48148,113.25578 305.6182,112.55265 305.6182,111.10734 L 305.6182,94.212807 Q 305.6182,92.86515 305.5205,92.259682 305.4228,91.634682 305.18847,91.30265 304.97362,90.951088 304.60253,90.755775 304.23144,90.540932 303.333,90.287025 L 303.333,89.329994 311.57519,89.329994 311.57519,90.287025 Q 310.71581,90.501869 310.32519,90.716713 309.95409,90.931557 309.71972,91.263588 309.50487,91.576088 309.38769,92.220619 309.28999,92.86515 309.28999,94.212807 L 309.28999,111.10734 z" />
    </g>
    <g
       transform="matrix(0.85886774,0,0,0.85327319,37.077005,3.550924)"
       id="house-8-text"
       style="font-size:40px;font-style:normal;font-variant:normal;font-weight:normal;font-stretch:normal;line-height:125%;letter-spacing:0px;word-spacing:0px;fill:#e6e6e6;fill-opacity:1;stroke:none;stroke-width:2.33626866000000000;font-family:Cambria Math;-inkscape-font-specification:Cambria Math"
       inkscape:transform-center-y="-167.59757"
       inkscape:transform-center-x="-0.55299396">
      <path
         inkscape:connector-curvature="0"
         id="path3496"
         style="font-style:normal;font-variant:normal;font-weight:normal;font-stretch:normal;fill:#e6e6e6;stroke:none;stroke-width:2.33626866000000000;font-family:Cambria Math;-inkscape-font-specification:Cambria Math"
         d="M 284.01605,91.280533 284.01605,92.237564 Q 283.11761,92.393814 282.64886,92.628189 282.18011,92.862564 281.94574,93.292252 281.71136,93.721939 281.71136,94.444595 281.71136,95.108658 281.86761,95.889908 282.02386,96.651627 282.31683,97.608658 L 286.88715,113.54616 292.49261,97.49147 Q 292.6098,97.120377 292.72699,96.71022 292.84418,96.300064 292.9223,95.909439 293.02,95.518814 293.03949,95.225845 293.07859,94.932877 293.07859,94.67897 293.07859,93.507095 292.53172,92.979752 292.00437,92.432877 290.71531,92.237564 L 290.71531,91.280533 298.91844,91.280533 298.91844,92.237564 Q 298.11765,92.432877 297.62937,92.80397 297.14109,93.175064 296.65281,93.995377 296.18406,94.815689 295.50047,96.612564 L 287.395,118.25319 284.8364,118.25319 278.25437,96.475845 Q 277.72703,94.698502 277.3364,93.956314 276.94578,93.194595 276.47703,92.823502 276.00828,92.432877 275.18797,92.237564 L 275.18797,91.280533 284.01609,91.280533 z" />
      <path
         inkscape:connector-curvature="0"
         id="path3498"
         style="font-style:normal;font-variant:normal;font-weight:normal;font-stretch:normal;fill:#e6e6e6;stroke:none;stroke-width:2.33626866000000000;font-family:Cambria Math;-inkscape-font-specification:Cambria Math"
         d="M 307.21918,113.05788 Q 307.21918,114.36647 307.29728,114.97194 307.39498,115.57741 307.59025,115.92897 307.80509,116.28053 308.19572,116.51491 308.60588,116.74928 309.50431,116.98366 L 309.50431,117.94069 301.26213,117.94069 301.26213,116.98366 Q 302.47306,116.67116 302.88322,116.30006 303.29338,115.90944 303.41056,115.20631 303.54728,114.50319 303.54728,113.05788 L 303.54728,96.163345 Q 303.54728,94.815689 303.44968,94.21022 303.35198,93.58522 303.11764,93.253189 302.9028,92.901627 302.53171,92.706314 302.16061,92.49147 301.26218,92.237564 L 301.26218,91.280533 309.50436,91.280533 309.50436,92.237564 Q 308.64499,92.452408 308.25436,92.667252 307.88327,92.882095 307.64889,93.214127 307.43405,93.526627 307.31686,94.171158 307.21926,94.815689 307.21926,96.163345 L 307.21926,113.05788 z" />
      <path
         inkscape:connector-curvature="0"
         id="path3500"
         style="font-style:normal;font-variant:normal;font-weight:normal;font-stretch:normal;fill:#e6e6e6;stroke:none;stroke-width:2.33626866000000000;font-family:Cambria Math;-inkscape-font-specification:Cambria Math"
         d="M 320.18793,113.05788 Q 320.18793,114.36647 320.26603,114.97194 320.36373,115.57741 320.559,115.92897 320.77384,116.28053 321.16447,116.51491 321.57463,116.74928 322.47306,116.98366 L 322.47306,117.94069 314.23088,117.94069 314.23088,116.98366 Q 315.44181,116.67116 315.85197,116.30006 316.26213,115.90944 316.37931,115.20631 316.51603,114.50319 316.51603,113.05788 L 316.51603,96.163345 Q 316.51603,94.815689 316.41843,94.21022 316.32073,93.58522 316.08639,93.253189 315.87155,92.901627 315.50046,92.706314 315.12936,92.49147 314.23093,92.237564 L 314.23093,91.280533 322.47311,91.280533 322.47311,92.237564 Q 321.61374,92.452408 321.22311,92.667252 320.85202,92.882095 320.61764,93.214127 320.4028,93.526627 320.28561,94.171158 320.18801,94.815689 320.18801,96.163345 L 320.18801,113.05788 z" />
      <path
         inkscape:connector-curvature="0"
         id="path3502"
         style="font-style:normal;font-variant:normal;font-weight:normal;font-stretch:normal;fill:#e6e6e6;stroke:none;stroke-width:2.33626866000000000;font-family:Cambria Math;-inkscape-font-specification:Cambria Math"
         d="M 333.15668,113.05788 Q 333.15668,114.36647 333.23478,114.97194 333.33248,115.57741 333.52775,115.92897 333.74259,116.28053 334.13322,116.51491 334.54338,116.74928 335.44181,116.98366 L 335.44181,117.94069 327.19963,117.94069 327.19963,116.98366 Q 328.41056,116.67116 328.82072,116.30006 329.23088,115.90944 329.34806,115.20631 329.48478,114.50319 329.48478,113.05788 L 329.48478,96.163345 Q 329.48478,94.815689 329.38718,94.21022 329.28948,93.58522 329.05514,93.253189 328.8403,92.901627 328.46921,92.706314 328.09811,92.49147 327.19968,92.237564 L 327.19968,91.280533 335.44186,91.280533 335.44186,92.237564 Q 334.58249,92.452408 334.19186,92.667252 333.82077,92.882095 333.58639,93.214127 333.37155,93.526627 333.25436,94.171158 333.15676,94.815689 333.15676,96.163345 L 333.15676,113.05788 z" />
    </g>
  </g>
  <g
     inkscape:groupmode="layer"
     id="top"
     inkscape:label="Top">
    <circle
       style="fill:#ffffff;fill-opacity:1;stroke:none;display:inline"
       transform="translate(25,32)"
       cx="275"
       cy="268"
       r="165"
       id="path3020"
       sodipodi:cx="275"
       sodipodi:cy="268"
       sodipodi:rx="165"
       sodipodi:ry="165" />
    <circle
       style="fill:#4d4d4d;fill-opacity:1;stroke:none;display:inline"
       id="path3892"
       cx="300"
       cy="300"
       r="13.5"
       sodipodi:cx="300"
       sodipodi:cy="300"
       sodipodi:rx="13.5"
       sodipodi:ry="13.5" />
  </g>
</svg>
