<?xml version="1.0" encoding="UTF-8" standalone="no"?>
<!-- Created with Inkscape (http://www.inkscape.org/) -->

<svg
   xmlns:dc="http://purl.org/dc/elements/1.1/"
   xmlns:cc="http://creativecommons.org/ns#"
   xmlns:rdf="http://www.w3.org/1999/02/22-rdf-syntax-ns#"
   xmlns:svg="http://www.w3.org/2000/svg"
   xmlns="http://www.w3.org/2000/svg"
   xmlns:xlink="http://www.w3.org/1999/xlink"
   xmlns:sodipodi="http://sodipodi.sourceforge.net/DTD/sodipodi-0.dtd"
   xmlns:inkscape="http://www.inkscape.org/namespaces/inkscape"
   width="600"
   height="600"
   id="svg2985"
   version="1.1"
   inkscape:version="0.48.4 r9939"
   sodipodi:docname="zodiac.svg">
  <defs
     id="defs2987">
    <linearGradient
       id="linearGradient3909">
      <stop
         style="stop-color:#959595;stop-opacity:1;"
         offset="0"
         id="stop3911" />
      <stop
         id="stop3919"
         offset="0.81430256"
         style="stop-color:#ffffff;stop-opacity:1;" />
      <stop
         id="stop3917"
         offset="0.93488532"
         style="stop-color:#ffffff;stop-opacity:1;" />
      <stop
         style="stop-color:#f2f2f2;stop-opacity:1;"
         offset="1"
         id="stop3913" />
    </linearGradient>
    <radialGradient
       inkscape:collect="always"
       xlink:href="#linearGradient3909"
       id="radialGradient3915"
       cx="275"
       cy="268"
       fx="275"
       fy="268"
       r="165"
       gradientUnits="userSpaceOnUse" />
  </defs>
  <sodipodi:namedview
     id="base"
     pagecolor="#ffffff"
     bordercolor="#666666"
     borderopacity="1.0"
     inkscape:pageopacity="0.0"
     inkscape:pageshadow="2"
     inkscape:zoom="1.4142136"
     inkscape:cx="321.9409"
     inkscape:cy="329.06653"
     inkscape:current-layer="layer2"
     inkscape:document-units="px"
     showgrid="false"
     inkscape:window-width="1855"
     inkscape:window-height="1056"
     inkscape:window-x="65"
     inkscape:window-y="24"
     inkscape:window-maximized="1"
     showguides="true"
     inkscape:guide-bbox="true">
    <sodipodi:guide
       orientation="0,1"
       position="300,300"
       id="guide3017" />
  </sodipodi:namedview>
  <metadata
     id="metadata2990">
    <rdf:RDF>
      <cc:Work
         rdf:about="">
        <dc:format>image/svg+xml</dc:format>
        <dc:type
           rdf:resource="http://purl.org/dc/dcmitype/StillImage" />
        <dc:title />
      </cc:Work>
    </rdf:RDF>
  </metadata>
  <g
     id="layer1"
     inkscape:label="Zodiac"
     inkscape:groupmode="layer">
    <path
       style="fill:#ececec;fill-opacity:1;stroke:none;stroke-width:2;stroke-linecap:round;stroke-linejoin:round;stroke-miterlimit:2.90000010000000019;stroke-opacity:1;stroke-dasharray:none;stroke-dashoffset:0;display:inline"
       d="M 465.3125 138.6875 C 505.94639 180.32179 531 237.22771 531 300 C 531 427.57778 427.57778 531 300 531 C 237.22771 531 180.32179 505.94639 138.6875 465.3125 C 180.63753 508.29533 239.19451 535 304 535 C 431.57778 535 535 431.57778 535 304 C 535 239.19451 508.29533 180.63753 465.3125 138.6875 z "
       id="path3900" />
    <path
       transform="matrix(1.3985512,0,0,1.3985512,-84.601552,-74.811694)"
       d="M 440,268 A 165,165 0 1 1 110,268 165,165 0 1 1 440,268 z"
       sodipodi:ry="165"
       sodipodi:rx="165"
       sodipodi:cy="268"
       sodipodi:cx="275"
       id="path3906"
       style="fill:url(#radialGradient3915);fill-opacity:1;stroke:none;display:inline"
       sodipodi:type="arc" />
    <g
       id="zodiac"
       inkscape:label="">
      <path
         id="path3535"
         d="M 324.57812,18.53125 C 329.60517,37.854195 335.05072,57.051114 340.07812,76.375 358.70101,71.544234 379.86607,68.53125 400,68.53125 420.13393,68.53125 441.29899,71.544234 459.92187,76.375 464.9493,57.05109 470.39483,37.854255 475.42187,18.53125 426.50887,18.531447 373.49126,18.531238 324.57812,18.53125 z M 324.57812,18.53125 C 282.2182,42.987746 236.29746,69.480825 193.9375,93.9375 207.96387,108.16961 222.30081,122.09512 236.32812,136.32812 264.04661,109.01218 301.46426,87.001916 340.07812,76.375 334.77246,57.136381 329.8838,37.770715 324.57812,18.53125 z M 475.42187,18.53125 C 470.11621,37.770726 465.22753,57.136382 459.92187,76.375 498.53573,87.001916 535.95339,109.01218 563.67187,136.32812 577.69917,122.0951 592.03614,108.16964 606.0625,93.9375 563.70248,69.480942 517.78185,42.987883 475.42187,18.53125 z M 193.9375,93.9375 C 169.48099,136.29727 142.98771,182.21804 118.53125,224.57812 137.77071,229.88374 157.13638,234.77248 176.375,240.07812 187.00192,201.46426 209.01218,164.04661 236.32812,136.32812 z M 606.0625,93.9375 C 591.83035,107.9639 577.9049,122.30082 563.67187,136.32812 590.98781,164.04661 612.99808,201.46426 623.625,240.07812 642.86362,234.77246 662.22926,229.88382 681.46875,224.57812 657.01208,182.2183 630.51895,136.29759 606.0625,93.9375 z M 118.53125,224.57812 C 118.53121,273.49113 118.53125,326.50873 118.53125,375.42187 137.85421,370.39479 157.05111,364.94929 176.375,359.92187 171.54423,341.29899 168.53125,320.13393 168.53125,300 168.53125,279.86607 171.54423,258.70101 176.375,240.07812 157.05111,235.0507 137.85421,229.60518 118.53125,224.57812 z M 681.46875,224.57812 C 662.14579,229.60515 642.94889,235.05071 623.625,240.07812 628.45577,258.70101 631.46875,279.86607 631.46875,300 631.46875,320.13393 628.45577,341.29899 623.625,359.92187 642.94889,364.94929 662.70827,370.39483 682.03125,375.42187 682.03129,326.50873 681.46868,273.49126 681.46875,224.57812 z M 176.375,359.92187 118.53125,375.42187 C 142.98774,417.78179 169.48098,463.70259 193.9375,506.0625 208.16964,492.03614 222.0951,477.69918 236.32812,463.67187 209.01218,435.95339 187.00192,398.53573 176.375,359.92187 z M 623.625,359.92187 C 612.99808,398.53573 590.98781,435.95339 563.67187,463.67187 577.90489,477.69918 591.83033,492.03615 606.0625,506.0625 630.51886,463.70265 656.44981,417.78183 680.90625,375.42187 661.66678,370.11619 642.86361,365.22753 623.625,359.92187 z M 236.32812,463.67187 C 222.30081,477.90489 207.96389,491.83037 193.9375,506.0625 236.29752,530.51906 282.21821,557.01223 324.57812,581.46875 329.88378,562.22928 334.77246,542.86361 340.07812,523.625 301.46426,512.99808 264.04661,490.98781 236.32812,463.67187 z M 563.67187,463.67187 C 535.95339,490.98781 498.53573,512.99808 459.92187,523.625 465.22753,542.86362 470.11624,562.22927 475.42187,581.46875 517.78189,557.01218 563.70251,530.51904 606.0625,506.0625 592.03612,491.83036 577.69917,477.90489 563.67187,463.67187 z M 340.07812,523.625 C 335.0507,542.94889 329.60517,562.14579 324.57812,581.46875 L 475.42187,581.46875 C 470.39479,562.14579 464.9493,542.94889 459.92187,523.625 441.29899,528.45577 420.13393,531.46875 400,531.46875 379.86607,531.46875 358.70101,528.45577 340.07812,523.625 z"
         style="fill:none;stroke:#cccccc;stroke-width:2;display:inline"
         inkscape:connector-curvature="0"
         transform="translate(-100,0)"
         sodipodi:nodetypes="ccsccccccccccccccccccccccccccsccccscccccccccccccccccccccccccccsc" />
      <path
         style="fill:#ffffff;fill-opacity:1;stroke:none"
         d="M 4.71875,8.375 4.71875,596.46875 596.3125,596.46875 596.3125,8.375 4.71875,8.375 z M 225.15625,20.625 374.84375,20.625 504.5,95.5 579.375,225.15625 579.375,374.84375 504.5,504.5 374.84375,579.375 225.15625,579.375 95.5,504.5 20.625,374.84375 20.625,225.15625 95.5,95.5 225.15625,20.625 z"
         id="rect3032"
         inkscape:connector-curvature="0" />
      <path
         transform="matrix(1.23219,0,0,1.23219,-427.27258,-285.89945)"
         id="path3537"
         d="M 607.9342,244.46504 C 604.92856,240.48541 599.57238,238.79857 594.90127,240.36145 592.90341,241.03236 591.29669,242.25369 590.11535,243.85555 588.95872,242.39631 587.43093,241.27764 585.55303,240.6482 580.88321,239.08269 575.52703,240.76838 572.52139,244.74914 569.60564,248.6147 569.99333,252.26263 570.82843,254.64281 571.74858,257.2571 573.82806,259.79353 575.37206,260.18156 576.59593,260.48199 577.84632,259.74611 578.15615,258.51435 578.42496,257.44565 577.89615,256.35816 576.94335,255.8926 576.55447,255.5549 575.18799,254.0656 574.87912,252.00832 574.64533,250.45523 575.07415,248.98845 576.1845,247.51809 577.9898,245.12922 581.31558,244.07427 584.09376,245.00147 586.5693,245.83383 587.93203,248.07126 587.93203,251.29989 L 587.93203,269.87237 587.93203,270.15879 C 587.93214,271.42898 588.9585,272.4552 590.22758,272.45527 591.49795,272.45522 592.52313,271.42899 592.52302,270.15892 L 592.52302,269.87218 592.52313,251.30117 592.52302,251.01838 C 592.52313,247.78729 593.88585,245.5509 596.3614,244.7188 599.14334,243.79018 602.46525,244.84511 604.27077,247.23409 605.38101,248.70576 605.80736,250.17486 605.57475,251.72303 605.2647,253.78278 603.8994,255.27195 603.51181,255.60735 602.55879,256.07366 602.02902,257.15903 602.29783,258.23039 602.60777,259.46413 603.85311,260.2088 605.08331,259.89724 606.62742,259.5093 608.7055,256.97278 609.62694,254.35849 610.46193,251.97575 610.84963,248.32669 607.93398,244.46476 z"
         inkscape:connector-curvature="0"
         style="fill:#cccccc;fill-opacity:1;stroke:#ffffff;stroke-width:1.8896358;display:inline" />
      <path
         transform="matrix(1.0671078,0.616095,-0.616095,1.0671078,-122.25525,-620.32763)"
         id="path3581"
         d="M 685.36049,254.87782 677.05151,254.87783 C 677.81893,247.2349 682.09386,244.355 682.34341,244.19283 683.45679,243.50726 683.80593,242.05022 683.13065,240.92952 682.44633,239.80338 680.98381,239.44956 679.85841,240.12776 679.56695,240.30932 673.1302,244.34504 672.26421,254.87785 L 666.89904,254.87783 C 666.03097,244.34514 659.59834,240.30516 659.30484,240.12764 658.18734,239.45294 656.74324,239.80897 656.05789,240.91639 655.36806,242.02483 655.71091,243.48858 656.81331,244.19065 657.01374,244.32101 661.33675,247.1878 662.10635,254.87781 L 655.09356,254.87781 C 653.77665,254.87781 652.71148,255.94483 652.71136,257.2626 652.71148,258.57829 653.77665,259.64623 655.09356,259.64624 L 662.09204,259.64624 C 661.29291,266.46097 657.1802,267.70977 657.01913,267.75251 655.74045,268.06029 654.95127,269.34749 655.25887,270.62696 655.52147,271.71907 656.49702,272.45527 657.57295,272.45516 657.75668,272.45496 657.94304,272.43226 658.13135,272.38876 658.46836,272.30506 665.91822,270.38529 666.89251,259.6435 L 672.27198,259.64339 C 673.24513,270.3853 680.69475,272.30558 681.03428,272.38887 681.2203,272.43237 681.40632,272.45527 681.58696,272.45527 682.64562,272.45528 683.5969,271.73671 683.87392,270.66201 684.20017,269.4045 683.43709,268.11078 682.18258,267.76347 681.98991,267.70967 677.87252,266.46094 677.07348,259.6463 L 685.36163,259.64631 C 686.6775,259.64622 687.74372,258.57813 687.74372,257.26261 687.74372,255.94465 686.6775,254.87777 685.36048,254.87781 z"
         inkscape:connector-curvature="0"
         style="fill:#cccccc;fill-opacity:1;stroke:#ffffff;stroke-width:1.8896358;display:inline" />
      <path
         style="fill:#cccccc;stroke:#ffffff;stroke-width:1.28881574"
         inkscape:connector-curvature="0"
         d="M 1.631,12.874 C 3.334,12.874 4.42,11.56 5.293,10.498 6.166,9.441 6.748,8.8 7.474,8.8 7.856,8.8 8.162,9.212 8.83,10.374 9.605,11.724 10.774,13.76 13.316,13.76 15.939,13.76 17.022,11.699 17.736,10.338 18.048,9.742 18.439,9.002 18.683,9.002 19.105,9.002 19.738,10.008 20.199,10.739 21.066,12.112 22.142,13.825 24.187,13.825 26.181,13.825 27.667,12.162 28.984,10.693 29.457,10.165 30.161,9.381 30.498,9.2 31.339,9.136 32,8.432 32,7.575 32,6.676 31.271,5.943 30.37,5.943 28.859,5.943 27.74,7.193 26.557,8.517 25.916,9.233 24.725,10.562 24.184,10.562 23.901,10.495 23.266,9.484 22.959,9 22.093,7.624 20.906,5.738 18.684,5.738 16.469,5.738 15.496,7.592 14.851,8.817 14.126,10.197 13.855,10.495 13.318,10.495 12.757,10.495 12.413,10.057 11.66,8.748 10.879,7.393 9.811,5.535 7.474,5.535 5.158,5.535 3.781,7.204 2.777,8.424 2.435,8.836 1.867,9.528 1.614,9.612 0.722,9.622 0,10.349 0,11.243 0,12.144 0.73,12.874 1.631,12.874 z"
         id="path3529"
         transform="matrix(0.89957688,1.5581128,-1.5710582,0.90705092,543.21292,126.3413)" />
      <path
         style="fill:#cccccc;stroke:#ffffff;stroke-width:1.28881574"
         inkscape:connector-curvature="0"
         d="M 30.37,16.513 C 28.859,16.513 27.74,17.763 26.557,19.086 25.916,19.803 24.725,21.132 24.184,21.132 23.901,21.064 23.266,20.054 22.959,19.57 22.093,18.194 20.906,16.308 18.684,16.308 16.469,16.308 15.496,18.162 14.851,19.388 14.126,20.767 13.855,21.065 13.318,21.065 12.757,21.065 12.413,20.627 11.66,19.318 10.881,17.963 9.812,16.104 7.475,16.104 5.16,16.104 3.783,17.773 2.779,18.993 2.437,19.407 1.869,20.097 1.616,20.181 0.722,20.191 0,20.917 0,21.811 0,22.71 0.73,23.442 1.631,23.442 3.334,23.442 4.42,22.127 5.293,21.066 6.166,20.009 6.748,19.367 7.474,19.367 7.856,19.367 8.162,19.78 8.83,20.942 9.605,22.292 10.774,24.327 13.316,24.327 15.939,24.327 17.022,22.267 17.736,20.907 18.048,20.31 18.439,19.57 18.683,19.57 19.105,19.57 19.738,20.576 20.199,21.307 21.066,22.681 22.142,24.393 24.187,24.393 26.181,24.393 27.667,22.73 28.984,21.262 29.457,20.734 30.161,19.95 30.498,19.768 31.339,19.704 32,19 32,18.143 32,17.242 31.271,16.513 30.37,16.513 z"
         id="path3531"
         transform="matrix(0.89957688,1.5581128,-1.5710582,0.90705092,543.21292,126.3413)" />
      <path
         transform="matrix(0,1.23219,-1.23219,0,885.89954,-722.99783)"
         id="path3553"
         d="M 842.78966,248.99163 C 839.78829,248.99172 837.14256,250.47117 835.47444,252.71924 834.63897,250.91597 833.81981,248.45998 833.81981,245.72659 833.81981,242.36895 831.10467,240.11142 827.0634,240.11145 824.99244,240.11144 822.84972,240.73973 821.37694,241.94049 819.57333,240.5588 816.95859,239.78371 814.83335,239.78366 813.14355,239.78364 811.67228,240.24199 810.58042,241.1083 809.64466,241.85075 808.52996,243.25421 808.52996,245.72917 808.52996,246.8431 809.43055,247.74329 810.53976,247.74322 811.64921,247.74329 812.54957,246.84294 812.54957,245.72925 812.54968,244.74726 812.82495,244.05654 814.17017,243.85933 816.55985,243.50032 819.29259,245.06007 819.49866,245.72916 L 819.49854,262.19111 C 819.49866,263.30352 820.39924,264.20506 821.50857,264.20511 822.61779,264.20505 823.51709,263.30333 823.51709,262.19104 L 823.51698,245.7293 C 823.51709,245.01941 825.15261,244.14496 827.06188,244.14494 827.9422,244.14498 828.73561,244.33796 829.23722,244.66848 829.63619,244.93318 829.79753,245.24368 829.798,245.72894 829.79777,251.55629 832.63907,256.20705 833.69412,257.7342 833.68252,257.87574 833.65222,258.01198 833.65222,258.15582 833.6521,259.5919 834.01159,260.93017 834.59742,262.14046 833.36612,264.01837 829.91452,268.29549 823.93649,268.42451 822.82715,268.44901 821.94556,269.36689 821.96862,270.48328 821.99312,271.58226 822.88808,272.45518 823.97866,272.45527 823.99376,272.44357 824.00666,272.45503 824.02056,272.45516 830.87611,272.30977 835.16155,268.10206 837.22691,265.37839 838.77437,266.57644 840.68643,267.32191 842.78733,267.32153 847.8282,267.32152 851.92515,263.21186 851.92515,258.15972 851.92503,253.10508 847.83088,248.99119 842.79001,248.99119 z M 842.78953,263.28846 C 839.96874,263.2885 837.67272,260.98603 837.67259,258.15617 837.67272,255.32743 839.96861,253.02522 842.78953,253.02522 845.61302,253.02522 847.90916,255.32753 847.90904,258.15619 847.90916,260.98614 845.61325,263.28852 842.78953,263.28846 z"
         inkscape:connector-curvature="0"
         style="fill:#cccccc;stroke:#ffffff;stroke-width:1.8896358;display:inline" />
      <path
         transform="matrix(-0.616095,1.0671078,-1.0671078,-0.616095,1368.1907,-378.36081)"
         id="path3587"
         d="M 926.58612,241.84591 C 926.57552,241.5971 926.53392,241.34544 926.43661,241.11096 926.3296,240.85416 926.17758,240.62566 925.98722,240.43118 925.97272,240.42518 925.97722,240.41548 925.97662,240.41398 L 925.97662,240.41398 C 925.77941,240.21523 925.54153,240.05894 925.28037,239.95063 925.01844,239.84177 924.7429,239.78473 924.46242,239.78473 924.46242,239.78472 924.46242,239.78472 924.46233,239.78383 L 913.03658,239.78366 C 911.85423,239.78364 910.89392,240.74294 910.89392,241.92629 910.89383,243.11089 911.85413,244.06895 913.03648,244.06906 L 919.28036,244.06906 909.04497,254.27265 905.36677,250.45516 C 904.54574,249.6055 903.18829,249.57869 902.3375,250.40106 901.48479,251.22113 901.45919,252.57641 902.2805,253.43028 L 906.00912,257.2969 894.47471,268.79634 C 893.63726,269.62968 893.63513,270.98816 894.47462,271.82558 894.89223,272.24646 895.4412,272.45497 895.99084,272.45526 896.5374,272.45522 897.08521,272.24635 897.50388,271.82976 L 908.98498,260.38341 913.1935,264.74968 C 913.61324,265.18576 914.17332,265.40569 914.73745,265.40582 915.27077,265.4058 915.80815,265.20834 916.22287,264.80595 917.07462,263.98592 917.09905,262.62845 916.27887,261.77668 L 912.02224,257.35841 922.32301,247.09035 922.32292,253.17545 C 922.32301,254.35978 923.28322,255.31912 924.4676,255.31909 925.65004,255.31907 926.60938,254.35998 926.60938,253.17551 L 926.60938,241.92677 C 926.60948,241.89797 926.59398,241.87457 926.59198,241.84527 z"
         inkscape:connector-curvature="0"
         style="fill:#cccccc;fill-opacity:1;stroke:#ffffff;stroke-width:1.8896358;display:inline" />
      <path
         transform="matrix(-1.0671078,0.616095,-0.616095,-1.0671078,1649.6294,197.32989)"
         id="path3593"
         d="M 1011.121,263.91502 1005.0289,259.53872 C 1004.4896,259.1511 1003.7841,259.09688 1003.1988,259.39911 1002.6107,259.70134 1002.2431,260.30719 1002.243,260.96992 L 1002.243,263.65885 C 1001.0765,263.37829 999.52608,262.77926 999.52608,261.85221 L 999.52608,245.54644 C 999.52608,241.61064 995.46288,239.78366 992.90006,239.78366 991.18203,239.78366 989.58298,240.43284 988.39483,241.61469 988.39393,241.61545 988.38983,241.61769 988.38783,241.62069 987.1294,240.41582 985.45869,239.78424 983.83665,239.78425 982.12135,239.78424 980.52227,240.43344 979.33548,241.61529 979.32648,241.62229 979.31818,241.63589 979.30818,241.64409 978.09433,240.62759 976.57777,240.07733 975.09086,240.07735 973.37419,240.07734 971.77513,240.72654 970.58835,241.90836 969.68272,242.8083 968.60269,244.44279 968.60269,247.09921 968.6027,248.31222 969.58132,249.29076 970.78976,249.29076 971.99817,249.29076 972.97546,248.30952 972.97547,247.09921 972.97546,244.65152 974.59482,244.46315 975.09086,244.46312 976.13167,244.46313 977.34685,245.153 977.34684,247.09921 L 977.34685,265.64668 C 977.34685,266.85833 978.32414,267.83822 979.53258,267.83821 980.74099,267.83822 981.71826,266.85561 981.71825,265.64667 L 981.71822,246.80836 C 981.71822,244.36067 983.33891,244.17092 983.83497,244.17092 986.7979,244.17091 986.40726,247.02387 986.40726,247.87635 986.40727,248.72883 986.40726,265.64721 986.40726,265.64721 986.40727,266.85887 987.38589,267.83876 988.59298,267.83876 989.80276,267.83876 990.78002,266.85614 990.78001,265.64721 L 990.78026,246.80889 C 990.78026,244.36121 992.39692,244.17147 992.89568,244.17147 993.93649,244.17147 995.15033,244.86267 995.15032,246.8089 L 995.15032,261.8583 C 995.15032,266.03536 999.39328,267.71596 1002.2373,268.12256 L 1002.2373,270.68815 C 1002.2373,271.38207 1002.6427,272.00959 1003.2712,272.29694 1003.5065,272.40405 1003.7511,272.45549 1003.9971,272.4555 1004.4175,272.45551 1004.8298,272.30641 1005.1569,272.02045 L 1011.249,266.68458 C 1011.656,266.33089 1011.8776,265.80906 1011.8505,265.26963 1011.8285,264.72482 1011.5585,264.22876 1011.1206,263.91703 z"
         inkscape:connector-curvature="0"
         style="fill:#cccccc;fill-opacity:1;stroke:#ffffff;stroke-width:1.8896358;display:inline" />
      <path
         style="fill:#cccccc;stroke:#ffffff;stroke-width:1.29857433"
         inkscape:connector-curvature="0"
         d="M 1.78,18.259 8.75,18.259 C 9.733,18.259 10.53,17.463 10.53,16.481 L 10.528,16.129 C 10.513,14.768 10.482,11.933 12.051,10.345 12.903,9.484 14.152,9.065 15.869,9.065 18.366,9.065 19.935,9.95 20.81,11.847 21.581,13.525 21.581,15.538 21.58,16.48 21.58,17.462 22.377,18.258 23.359,18.258 L 30.216,18.258 C 31.199,18.258 31.996,17.462 31.996,16.48 31.996,15.498 31.199,14.701 30.216,14.701 L 25.084,14.701 C 24.992,13.463 24.737,11.876 24.041,10.359 23.022,8.143 20.776,5.504 15.868,5.504 13.188,5.504 11.052,6.29 9.518,7.842 7.497,9.884 7.064,12.728 6.981,14.699 L 1.78,14.699 C 0.797,14.699 0,15.495 0,16.478 0,17.463 0.797,18.259 1.78,18.259 z"
         id="path3573"
         transform="matrix(-1.7859626,0,0,-1.8001371,328.57548,600.34834)" />
      <path
         style="fill:#cccccc;stroke:#ffffff;stroke-width:1.29857433"
         inkscape:connector-curvature="0"
         d="M 30.221,20.93 1.78,20.93 C 0.797,20.93 0,21.727 0,22.708 0,23.691 0.797,24.488 1.78,24.488 L 30.221,24.488 C 31.203,24.488 32,23.691 32,22.708 32,21.725 31.203,20.93 30.221,20.93 z"
         id="path3575"
         transform="matrix(-1.7859626,0,0,-1.8001371,328.57548,600.34834)" />
      <path
         transform="matrix(-1.0671078,-0.616095,0.616095,-1.0671078,1234.4674,1516.0532)"
         id="path3605"
         d="M 1168.7541,257.29342 C 1169.335,253.81876 1168.0566,250.55172 1165.3355,248.55138 1163.9067,247.50163 1162.2668,246.96043 1160.7995,246.97209 L 1160.7995,245.21785 C 1160.7995,240.56747 1156.9598,239.78366 1154.5349,239.78366 1152.9102,239.78366 1151.3998,240.39485 1150.2777,241.50875 1150.2777,241.51075 1150.2777,241.51375 1150.2677,241.51575 1149.0769,240.3797 1147.4988,239.78367 1145.965,239.78367 1144.3437,239.78367 1142.8321,240.39486 1141.7101,241.50876 1141.7001,241.51676 1141.6941,241.52966 1141.6851,241.53796 1140.5362,240.57919 1139.1028,240.06016 1137.6985,240.06016 1136.0749,240.06016 1134.5633,240.67135 1133.4412,241.78524 1132.5851,242.63553 1131.5634,244.17632 1131.5634,246.68172 1131.5634,247.82361 1132.4871,248.74738 1133.6302,248.74738 1134.772,248.74738 1135.697,247.82361 1135.697,246.68172 1135.697,244.37344 1137.2272,244.19382 1137.6973,244.19382 1138.6805,244.19382 1139.8282,244.84467 1139.8282,246.68172 L 1139.8282,264.16582 C 1139.8282,265.30772 1140.7532,266.23149 1141.895,266.23149 1143.0369,266.23149 1143.9618,265.30654 1143.9618,264.16582 L 1143.9618,246.40529 C 1143.9618,244.09702 1145.7627,243.92206 1146.2573,243.92206 1146.7518,243.92206 1148.4465,244.05385 1148.4465,246.73304 1148.4465,250.08173 1148.3935,264.16582 1148.3935,264.16582 1148.3935,265.30772 1149.3173,266.23149 1150.4603,266.23149 1151.6022,266.23149 1152.5271,265.30654 1152.5271,264.16582 L 1152.5271,246.40529 C 1152.5271,244.09702 1154.0574,243.91855 1154.5274,243.91855 1155.5107,243.91855 1156.6595,244.56823 1156.6595,246.40529 1156.6595,246.40529 1156.7195,265.26922 1156.7165,266.49626 1155.037,267.48068 1153.4064,268.12453 1152.177,268.35781 1151.055,268.57009 1150.3167,269.65016 1150.5278,270.77222 1150.7156,271.76365 1151.5822,272.45531 1152.5573,272.45531 1152.6832,272.45531 1152.8139,272.44131 1152.9422,272.41911 1154.6008,272.10419 1156.9113,271.20025 1159.2615,269.76326 1161.473,270.89582 1164.495,271.44169 1166.0253,271.66097 1167.1404,271.81143 1168.2029,271.03461 1168.3627,269.90673 1168.5237,268.77533 1167.7399,267.72909 1166.6085,267.56696 1165.4328,267.39783 1164.2093,267.13073 1163.1654,266.83563 1165.869,264.35941 1168.1049,261.14368 1168.7488,257.29344 z M 1160.8672,263.33647 C 1160.8672,262.42552 1160.8772,261.41659 1160.8782,260.36452 1160.8902,257.02049 1160.9022,253.2834 1160.9022,251.08476 1161.3664,251.10806 1162.2388,251.3402 1163.0914,252.04003 1163.8635,252.67337 1165.0952,254.11036 1164.6765,256.60992 1164.2496,259.1783 1162.7497,261.47024 1160.8672,263.33647 z"
         inkscape:connector-curvature="0"
         inkscape:transform-center-x="24.993665"
         inkscape:transform-center-y="33.325299"
         style="fill:#cccccc;fill-opacity:1;stroke:#ffffff;stroke-width:1.88963592;display:inline" />
      <path
         transform="matrix(-0.616095,-1.0671078,1.0671078,-0.616095,550.53328,1905.7355)"
         id="path3565"
         d="M 1245.3543,257.97509 C 1244.4865,256.9982 1242.9845,256.90564 1242.0126,257.77308 1241.0327,258.64001 1240.9442,260.13575 1241.8125,261.11357 1242.013,261.34369 1241.5111,265.5871 1239.5253,265.79048 1237.5399,265.99233 1235.7573,263.17888 1236.0177,261.2737 1236.5928,257.11053 1237.4316,246.91434 1232.8194,242.19947 1230.9946,240.33429 1228.533,239.52342 1225.6433,239.85679 1221.323,240.45976 1218.4157,242.25687 1217.0004,245.20783 1215.0145,249.34577 1216.7664,254.32738 1217.974,256.90746 1217.961,256.91546 1217.947,256.91646 1217.934,256.92406 1213.9589,259.21908 1212.5919,264.32054 1214.8869,268.29562 1217.1814,272.26971 1222.2831,273.63663 1226.2583,271.34166 1230.2324,269.04721 1231.5994,263.9457 1229.3049,259.97162 1227.8841,257.51078 1225.3857,256.05492 1222.7456,255.84351 1221.7808,254.09061 1220.0095,249.86674 1221.2697,247.25042 1221.9636,245.8263 1223.6461,244.91622 1226.24,244.55701 1228.0589,244.34536 1228.9342,245.00137 1229.4338,245.5131 1231.5529,247.67801 1232.2962,253.61196 1231.328,260.62857 1230.6011,265.89912 1233.3787,269.57385 1238.7551,270.46183 1241.6989,270.56934 1244.5542,267.92417 1245.3888,266.40986 1246.7089,264.02564 1247.4897,260.38443 1245.3548,257.97489 z M 1223.8901,267.24045 C 1222.1758,268.23016 1219.977,267.64021 1218.9883,265.92785 1217.9986,264.21359 1218.5871,262.0144 1220.3014,261.02469 1222.0156,260.03496 1224.2145,260.62492 1225.2042,262.33919 1226.192,264.05198 1225.6035,266.25125 1223.8901,267.24045 z"
         inkscape:connector-curvature="0"
         style="fill:#cccccc;fill-opacity:1;stroke:#ffffff;stroke-width:1.8896358;display:inline" />
      <path
         style="fill:#cccccc;fill-opacity:1;stroke:#ffffff;stroke-width:1.64229298"
         inkscape:connector-curvature="0"
         d="M 27.955,17.946 C 27.868,18.023 20.906,24.162 13.108,23.992 14.052,22.761 14.638,21.236 14.638,19.565 14.638,15.529 11.355,12.247 7.319,12.247 3.283,12.246 0,15.529 0,19.565 0,23.164 2.614,26.146 6.04,26.754 8.56,27.904 11.072,28.386 13.48,28.386 22.759,28.386 30.465,21.55 30.872,21.182 31.766,20.375 31.834,19.001 31.032,18.11 30.225,17.213 28.85,17.143 27.955,17.946 z M 7.319,22.527 C 5.685,22.527 4.357,21.201 4.357,19.565 4.357,17.931 5.685,16.604 7.319,16.604 8.953,16.604 10.281,17.931 10.281,19.565 10.281,21.2 8.953,22.527 7.319,22.527 z"
         id="path3545"
         transform="matrix(0,-1.4173147,1.4182214,0,9.5594,322.67723)" />
      <path
         style="fill:#cccccc;fill-opacity:1;stroke:#ffffff;stroke-width:1.64229298"
         inkscape:connector-curvature="0"
         d="M 4.045,10.44 C 4.132,10.363 11.094,4.225 18.893,4.395 17.949,5.626 17.362,7.15 17.362,8.821 17.362,12.857 20.645,16.139 24.682,16.139 28.717,16.139 32,12.857 32,8.821 32,5.223 29.385,2.241 25.96,1.633 23.439,0.48 20.928,0 18.52,0 9.24,0 1.534,6.836 1.128,7.204 0.233,8.011 0.166,9.385 0.968,10.275 1.776,11.174 3.151,11.244 4.045,10.44 z M 24.682,5.859 C 26.315,5.859 27.643,7.186 27.643,8.821 27.643,10.456 26.315,11.783 24.682,11.783 23.047,11.783 21.719,10.456 21.719,8.821 21.719,7.187 23.047,5.859 24.682,5.859 z"
         id="path3547"
         transform="matrix(0,-1.4173147,1.4182214,0,9.5594,322.67723)" />
      <path
         transform="matrix(0.616095,-1.0671078,1.0671078,0.616095,-1063.9165,1490.5734)"
         id="path3559"
         d="M 1395.9849,264.18566 1395.985,248.2222 C 1398.2514,247.71576 1400.027,246.83778 1401.2699,245.57795 1402.9912,243.83118 1403.0596,242.02922 1403.0553,241.68511 1403.0423,240.65706 1402.2254,239.87105 1401.2004,239.83418 1400.1644,239.80438 1399.3027,240.62842 1399.2221,241.65249 1399.1351,242.77338 1397.2684,244.88994 1390.8345,244.88983 1384.2662,244.8898 1382.1149,242.65599 1381.8927,241.4657 1381.7603,240.44155 1380.8499,239.67475 1379.8086,239.79636 1378.7542,239.89536 1377.98,240.83132 1378.0787,241.88927 1378.0997,242.10272 1378.57,246.01694 1384.2,247.82603 L 1384.2001,264.21622 C 1377.9342,265.91722 1377.4299,270.12854 1377.4087,270.35214 1377.3117,271.3771 1378.0453,272.25412 1379.0639,272.39192 1380.0795,272.52974 1381.0361,271.79981 1381.2174,270.78697 1381.4292,269.59774 1383.5735,267.35152 1390.1613,267.35145 1396.5951,267.35173 1398.4623,269.46795 1398.5489,270.51236 1398.5359,271.57223 1399.3842,272.44391 1400.4425,272.45528 1400.4535,272.44628 1400.4605,272.45542 1400.4655,272.45507 1401.5128,272.45496 1402.3704,271.60872 1402.3826,270.55618 1402.3827,270.21295 1402.3186,268.41115 1400.5971,266.66423 1399.4836,265.53197 1397.9313,264.71007 1395.9854,264.18544 z M 1388.0341,263.58229 1388.0341,248.58365 C 1388.8991,248.67245 1389.8109,248.73365 1390.8325,248.73363 1391.2868,248.73374 1391.7187,248.71433 1392.1508,248.69593 L 1392.1506,263.57812 C 1391.513,263.53432 1390.8549,263.50622 1390.1622,263.50622 1389.4094,263.50625 1388.7005,263.53162 1388.0342,263.58172 z"
         inkscape:connector-curvature="0"
         style="fill:#cccccc;stroke:#ffffff;stroke-width:1.8896358;display:inline" />
      <path
         transform="matrix(1.0671078,-0.616095,0.616095,1.0671078,-1561.8412,698.39611)"
         id="path3599"
         d="M 1484.9488,239.78377 1484.9488,239.78377 C 1484.6581,239.78372 1478.1505,239.90784 1473.3885,248.05163 1472.4308,247.81492 1471.4362,247.67395 1470.4061,247.67396 1469.2632,247.67397 1468.1594,247.84213 1467.1079,248.1337 1462.3371,239.91226 1455.7927,239.78365 1455.5013,239.78366 1455.5013,239.78366 1455.5013,239.78366 1455.4893,239.79376 1454.3336,239.7937 1453.4108,240.71862 1453.3898,241.87174 1453.3708,243.02708 1454.2969,243.98565 1455.4546,244.02447 1455.645,244.03447 1459.8112,244.25179 1463.2598,249.96404 1460.0912,252.21054 1458.0128,255.89925 1458.0128,260.07014 1458.0129,266.89868 1463.5693,272.45532 1470.4003,272.45532 1477.2325,272.45526 1482.791,266.89976 1482.791,260.07008 1482.791,255.78882 1480.6053,252.00841 1477.2935,249.78303 1480.6936,244.29279 1484.7315,244.03497 1484.9821,244.02452 1486.1408,244.00762 1487.0689,243.06388 1487.0658,241.90236 1487.0658,240.73755 1486.1166,239.79382 1484.9484,239.79377 z M 1470.3997,268.21337 C 1465.9041,268.21338 1462.2448,264.55592 1462.2448,260.06106 1462.2448,255.56515 1465.9039,251.90589 1470.3997,251.90573 1474.8986,251.90578 1478.5577,255.56519 1478.5578,260.06125 1478.5576,264.55587 1474.8984,268.21326 1470.3997,268.21337 z"
         inkscape:connector-curvature="0"
         style="fill:#cccccc;fill-opacity:1;stroke:#ffffff;stroke-width:1.88963556;display:inline" />
    </g>
    <path
       id="path3025"
       d="M 326.625,17.96875 C 331.65205,37.291695 336.69134,56.613614 341.71875,75.9375 360.34164,71.106734 379.86607,68.53125 400,68.53125 420.13393,68.53125 439.65836,71.106734 458.28125,75.9375 463.30868,56.61359 468.34795,37.291755 473.375,17.96875 424.46199,17.968947 375.53814,17.968738 326.625,17.96875 z M 322.53125,19.09375 C 280.17133,43.550246 237.79746,67.980825 195.4375,92.4375 209.46387,106.66961 223.50394,120.89199 237.53125,135.125 265.24974,107.80906 299.82364,87.439416 338.4375,76.8125 333.13184,57.573881 327.83693,38.333215 322.53125,19.09375 z M 477.46875,19.09375 C 472.16309,38.333226 466.86815,57.573882 461.5625,76.8125 500.17636,87.439416 534.75026,107.80906 562.46875,135.125 576.49605,120.89198 590.53614,106.66964 604.5625,92.4375 562.20248,67.980942 519.82873,43.550383 477.46875,19.09375 z M 192.4375,95.4375 C 167.98099,137.79727 143.55021,180.17117 119.09375,222.53125 138.33321,227.83687 157.57388,233.13186 176.8125,238.4375 187.43942,199.82364 207.80906,165.24974 235.125,137.53125 L 192.4375,95.4375 z M 607.5625,95.4375 C 593.33035,109.4639 579.10803,123.50394 564.875,137.53125 592.19094,165.24974 612.56058,199.82364 623.1875,238.4375 642.42612,233.13183 661.66676,227.83695 680.90625,222.53125 656.44958,180.17143 632.01895,137.79759 607.5625,95.4375 z M 117.96875,226.625 C 117.96871,275.53801 117.96875,324.46186 117.96875,373.375 137.29171,368.34792 156.61361,363.30867 175.9375,358.28125 171.10673,339.65836 168.53125,320.13393 168.53125,300 168.53125,279.86607 171.10673,260.34164 175.9375,241.71875 156.61361,236.69132 137.29171,231.65205 117.96875,226.625 z M 682.03125,226.625 C 662.70829,231.65203 643.38639,236.69134 624.0625,241.71875 628.89327,260.34164 631.46875,279.86607 631.46875,300 631.46875,320.13393 628.89327,339.65836 624.0625,358.28125 643.38639,363.30867 662.70827,368.34795 682.03125,373.375 682.03129,324.46186 682.03118,275.53814 682.03125,226.625 z M 176.8125,361.5625 119.09375,377.46875 C 143.55024,419.82867 167.98098,462.20259 192.4375,504.5625 206.66964,490.53614 220.89198,476.49605 235.125,462.46875 207.80906,434.75026 187.43942,400.17636 176.8125,361.5625 z M 623.1875,361.5625 C 612.56058,400.17636 592.19094,434.75026 564.875,462.46875 579.10802,476.49605 593.33033,490.53615 607.5625,504.5625 632.01886,462.20265 656.44981,419.8287 680.90625,377.46875 661.66678,372.16307 642.42611,366.86815 623.1875,361.5625 z M 237.53125,464.875 C 223.50394,479.10802 209.46389,493.33037 195.4375,507.5625 237.79752,532.01906 280.17134,556.44973 322.53125,580.90625 327.83691,561.66678 333.13184,542.42611 338.4375,523.1875 299.82364,512.56058 265.24974,492.19094 237.53125,464.875 z M 562.46875,464.875 C 534.75026,492.19094 500.17636,512.56058 461.5625,523.1875 466.86815,542.42612 472.16312,561.66677 477.46875,580.90625 519.82877,556.44968 562.20251,532.01904 604.5625,507.5625 590.53612,493.33036 576.49605,479.10802 562.46875,464.875 z M 341.71875,524.0625 C 336.69133,543.38639 331.65205,562.70829 326.625,582.03125 L 473.375,582.03125 C 468.34792,562.70829 463.30868,543.38639 458.28125,524.0625 439.65836,528.89327 420.13393,531.46875 400,531.46875 379.86607,531.46875 360.34164,528.89327 341.71875,524.0625 z"
       style="fill:none;stroke:#cccccc;stroke-width:2;display:inline"
       inkscape:connector-curvature="0"
       transform="translate(600,0)" />
    <path
       sodipodi:type="star"
       style="opacity:0.68000034;fill:#999999;fill-opacity:1;stroke:#999999;stroke-width:2.12655616;stroke-linecap:round;stroke-linejoin:round;stroke-miterlimit:2.9000001;stroke-opacity:1;stroke-dasharray:1.06327805, 1.06327805;stroke-dashoffset:0"
       id="path3027"
       sodipodi:sides="12"
       sodipodi:cx="71.889191"
       sodipodi:cy="63.777359"
       sodipodi:r1="307.52115"
       sodipodi:r2="297.04263"
       sodipodi:arg1="0.78539816"
       sodipodi:arg2="1.0471976"
       inkscape:flatsided="true"
       inkscape:rounded="0"
       inkscape:randomized="0"
       d="M 289.33948,281.22765 151.48152,360.81998 -7.7031384,360.81998 -145.5611,281.22765 -225.15343,143.36969 -225.15343,-15.81497 -145.5611,-153.67293 -7.7031404,-233.26526 151.48152,-233.26526 289.33948,-153.67293 368.93181,-15.814972 368.93181,143.36969 z"
       transform="matrix(0.94048777,0,0,0.94048777,1032.3891,240.01817)" />
  </g>
  <g
     inkscape:groupmode="layer"
     id="layer2"
     inkscape:label="House"
     style="display:inline">
    <rect
       style="fill:#999999;fill-opacity:1;stroke:none"
       id="house-4"
       width="640.40302"
       height="24.794653"
       x="-47.140453"
       y="300"
       transform="matrix(0.35602579,0.61665477,-0.06985582,0.04033127,224.60599,119.01622)"
       rx="1.4043926"
       ry="12.397326"
       inkscape:label="" />
    <rect
       inkscape:label=""
       ry="12.397326"
       rx="1.4043926"
       transform="matrix(0.61665476,0.3560258,-0.04033128,0.06985581,144.21499,180.96045)"
       y="300"
       x="-47.140453"
       height="24.794653"
       width="640.40302"
       id="house-5"
       style="fill:#999999;fill-opacity:1;stroke:none" />
    <rect
       inkscape:label=""
       ry="12.397326"
       rx="1.4043926"
       transform="matrix(0.61665477,-0.35602579,0.04033127,0.06985582,119.01622,375.39401)"
       y="300"
       x="-47.140453"
       height="24.794653"
       width="640.40302"
       id="house-1"
       style="fill:#999999;fill-opacity:1;stroke:none" />
    <rect
       style="fill:#999999;fill-opacity:1;stroke:none"
       id="house-2"
       width="640.40302"
       height="24.794653"
       x="-47.140453"
       y="300"
       transform="matrix(0.3560258,-0.61665476,0.06985581,0.04033128,180.96045,455.78501)"
       rx="1.4043926"
       ry="12.397326"
       inkscape:label="" />
    <rect
       inkscape:label=""
       ry="14.876793"
       rx="2.8087852"
       transform="matrix(0.71205159,0,0,0.13443758,93.566435,257.16873)"
       y="300"
       x="-47.140453"
       height="37.191982"
       width="674.10846"
       id="ascendant"
       style="fill:#4d4d4d;fill-opacity:1;stroke:none" />
    <rect
       style="fill:#4d4d4d;fill-opacity:1;stroke:none"
       id="mc"
       width="674.10846"
       height="37.191982"
       x="-47.140453"
       y="300"
       transform="matrix(0,0.71205159,-0.08066255,0,325.69877,93.566435)"
       rx="1.4043926"
       ry="12.397326"
       inkscape:label="" />
    <path
       sodipodi:type="arc"
       style="fill:#ffffff;fill-opacity:1;stroke:#999999;stroke-width:2;stroke-linecap:round;stroke-linejoin:round;stroke-miterlimit:2.9000001;stroke-opacity:1;stroke-dasharray:none;stroke-dashoffset:0"
       id="path3020"
       sodipodi:cx="275"
       sodipodi:cy="268"
       sodipodi:rx="165"
       sodipodi:ry="165"
       d="M 440,268 A 165,165 0 1 1 110,268 165,165 0 1 1 440,268 z"
       transform="translate(25,32)" />
    <path
       sodipodi:type="arc"
       style="fill:#4d4d4d;fill-opacity:1;stroke:none"
       id="path3892"
       sodipodi:cx="205.65022"
       sodipodi:cy="281.80194"
       sodipodi:rx="28.873528"
       sodipodi:ry="28.873528"
       d="M 234.52375,281.80194 A 28.873528,28.873528 0 1 1 176.7767,281.80194 28.873528,28.873528 0 1 1 234.52375,281.80194 z"
       transform="matrix(0.46755631,0,0,0.46755631,203.84694,168.24172)" />
    <g
       id="g3921"
       style="fill:#ececec">
      <text
         inkscape:transform-center-x="191.42961"
         inkscape:transform-center-y="51.29342"
         transform="matrix(-0.25881904,-0.96592583,0.96592583,-0.25881904,-62.406759,658.18256)"
         sodipodi:linespacing="125%"
         id="text3800"
         y="258"
         x="245"
         style="font-size:40px;font-style:normal;font-weight:bold;line-height:125%;letter-spacing:0px;word-spacing:0px;fill:#ececec;fill-opacity:1;stroke:none;font-family:Sans;-inkscape-font-specification:Sans Bold"
         xml:space="preserve"><tspan
           style="font-style:normal;font-variant:normal;font-weight:bold;font-stretch:normal;font-family:Bitstream Charter;-inkscape-font-specification:Sans Bold;fill:#ececec"
           y="258"
           x="245"
           id="tspan3802"
           sodipodi:role="line">I</tspan></text>
      <text
         inkscape:transform-center-x="51.293414"
         xml:space="preserve"
         style="font-size:40px;font-style:normal;font-weight:bold;line-height:125%;letter-spacing:0px;word-spacing:0px;fill:#ececec;fill-opacity:1;stroke:none;font-family:Sans;-inkscape-font-specification:Sans Bold"
         x="245"
         y="258"
         id="text3836"
         sodipodi:linespacing="125%"
         transform="matrix(0.96592583,-0.25881905,0.25881905,0.96592583,-63.68833,-60.931517)"
         inkscape:transform-center-y="-191.42963"><tspan
           sodipodi:role="line"
           id="tspan3838"
           x="245"
           y="258"
           style="font-style:normal;font-variant:normal;font-weight:bold;font-stretch:normal;font-family:Bitstream Charter;-inkscape-font-specification:Sans Bold;fill:#ececec">X</tspan></text>
      <text
         inkscape:transform-center-x="140.13622"
         xml:space="preserve"
         style="font-size:40px;font-style:normal;font-weight:bold;line-height:125%;letter-spacing:0px;word-spacing:0px;fill:#ececec;fill-opacity:1;stroke:none;font-family:Sans;-inkscape-font-specification:Sans Bold"
         x="245"
         y="258"
         id="text3840"
         sodipodi:linespacing="125%"
         transform="matrix(0.70710678,-0.70710679,0.70710679,0.70710678,-199.97888,173.81809)"
         inkscape:transform-center-y="-140.13622"><tspan
           sodipodi:role="line"
           id="tspan3842"
           x="245"
           y="258"
           style="font-style:normal;font-variant:normal;font-weight:bold;font-stretch:normal;font-family:Bitstream Charter;-inkscape-font-specification:Sans Bold;fill:#ececec">XI</tspan></text>
      <text
         inkscape:transform-center-x="191.42962"
         xml:space="preserve"
         style="font-size:40px;font-style:normal;font-weight:bold;line-height:125%;letter-spacing:0px;word-spacing:0px;fill:#ececec;fill-opacity:1;stroke:none;font-family:Sans;-inkscape-font-specification:Sans Bold"
         x="245"
         y="258"
         id="text3844"
         sodipodi:linespacing="125%"
         transform="matrix(0.25881904,-0.96592583,0.96592583,0.25881904,-197.91529,447.54209)"
         inkscape:transform-center-y="-51.293419"><tspan
           sodipodi:role="line"
           id="tspan3846"
           x="245"
           y="258"
           style="font-style:normal;font-variant:normal;font-weight:bold;font-stretch:normal;font-family:Bitstream Charter;-inkscape-font-specification:Sans Bold;fill:#ececec">XII</tspan></text>
      <text
         inkscape:transform-center-x="-51.293413"
         xml:space="preserve"
         style="font-size:40px;font-style:normal;font-weight:bold;line-height:125%;letter-spacing:0px;word-spacing:0px;fill:#ececec;fill-opacity:1;stroke:none;font-family:Sans;-inkscape-font-specification:Sans Bold"
         x="245"
         y="258"
         id="text3848"
         sodipodi:linespacing="125%"
         transform="matrix(0.96592583,0.25881905,-0.25881905,0.96592583,158.09347,-196.40525)"
         inkscape:transform-center-y="-191.42963"><tspan
           sodipodi:role="line"
           id="tspan3850"
           x="245"
           y="258"
           style="font-style:normal;font-variant:normal;font-weight:bold;font-stretch:normal;font-family:Bitstream Charter;-inkscape-font-specification:Sans Bold;fill:#ececec">IX</tspan></text>
      <text
         inkscape:transform-center-x="-191.42962"
         xml:space="preserve"
         style="font-size:40px;font-style:normal;font-weight:bold;line-height:125%;letter-spacing:0px;word-spacing:0px;fill:#ececec;fill-opacity:1;stroke:none;font-family:Sans;-inkscape-font-specification:Sans Bold"
         x="245"
         y="258"
         id="text3860"
         sodipodi:linespacing="125%"
         transform="matrix(0.25881904,0.96592583,-0.96592583,0.25881904,657.59369,-76.259798)"
         inkscape:transform-center-y="-51.303773"><tspan
           sodipodi:role="line"
           id="tspan3862"
           x="245"
           y="258"
           style="font-style:normal;font-variant:normal;font-weight:bold;font-stretch:normal;font-family:Bitstream Charter;-inkscape-font-specification:Sans Bold;fill:#ececec">VII</tspan></text>
      <text
         inkscape:transform-center-y="51.293414"
         inkscape:transform-center-x="-191.46827"
         xml:space="preserve"
         style="font-size:40px;font-style:normal;font-weight:bold;line-height:125%;letter-spacing:0px;word-spacing:0px;fill:#ececec;fill-opacity:1;stroke:none;font-family:Sans;-inkscape-font-specification:Sans Bold"
         x="245"
         y="258"
         id="text3864"
         sodipodi:linespacing="125%"
         transform="matrix(-0.25881905,0.96592583,-0.96592583,-0.25881905,796.00519,159.78107)"><tspan
           sodipodi:role="line"
           id="tspan3866"
           x="245"
           y="258"
           style="font-style:normal;font-variant:normal;font-weight:bold;font-stretch:normal;font-family:Bitstream Charter;-inkscape-font-specification:Sans Bold;fill:#ececec">VI</tspan></text>
      <text
         inkscape:transform-center-x="-140.13623"
         xml:space="preserve"
         style="font-size:40px;font-style:normal;font-weight:bold;line-height:125%;letter-spacing:0px;word-spacing:0px;fill:#ececec;fill-opacity:1;stroke:none;font-family:Sans;-inkscape-font-specification:Sans Bold"
         x="245"
         y="258"
         id="text3868"
         sodipodi:linespacing="125%"
         transform="matrix(-0.70710679,0.70710678,-0.70710678,-0.70710679,795.38669,430.87068)"
         inkscape:transform-center-y="140.1362"><tspan
           sodipodi:role="line"
           id="tspan3870"
           x="245"
           y="258"
           style="font-style:normal;font-variant:normal;font-weight:bold;font-stretch:normal;font-family:Bitstream Charter;-inkscape-font-specification:Sans Bold;fill:#ececec">V</tspan></text>
      <text
         inkscape:transform-center-y="191.46826"
         inkscape:transform-center-x="-51.293418"
         xml:space="preserve"
         style="font-size:40px;font-style:normal;font-weight:bold;line-height:125%;letter-spacing:0px;word-spacing:0px;fill:#ececec;fill-opacity:1;stroke:none;font-family:Sans;-inkscape-font-specification:Sans Bold"
         x="245"
         y="258"
         id="text3872"
         sodipodi:linespacing="125%"
         transform="matrix(-0.96592583,0.25881904,-0.25881904,-0.96592583,671.41674,658.9421)"><tspan
           sodipodi:role="line"
           id="tspan3874"
           x="245"
           y="258"
           style="font-style:normal;font-variant:normal;font-weight:bold;font-stretch:normal;font-family:Bitstream Charter;-inkscape-font-specification:Sans Bold;fill:#ececec">IV</tspan></text>
      <text
         inkscape:transform-center-x="51.293413"
         inkscape:transform-center-y="191.42963"
         xml:space="preserve"
         style="font-size:40px;font-style:normal;font-weight:bold;line-height:125%;letter-spacing:0px;word-spacing:0px;fill:#ececec;fill-opacity:1;stroke:none;font-family:Sans;-inkscape-font-specification:Sans Bold"
         x="245"
         y="258"
         id="text3880"
         sodipodi:linespacing="125%"
         transform="matrix(-0.96592583,-0.25881905,0.25881905,-0.96592583,442.6506,796.60462)"><tspan
           sodipodi:role="line"
           id="tspan3882"
           x="245"
           y="258"
           style="font-style:normal;font-variant:normal;font-weight:bold;font-stretch:normal;font-family:Bitstream Charter;-inkscape-font-specification:Sans Bold;fill:#ececec">III</tspan></text>
      <text
         inkscape:transform-center-x="140.13622"
         inkscape:transform-center-y="140.13622"
         xml:space="preserve"
         style="font-size:40px;font-style:normal;font-weight:bold;line-height:125%;letter-spacing:0px;word-spacing:0px;fill:#ececec;fill-opacity:1;stroke:none;font-family:Sans;-inkscape-font-specification:Sans Bold"
         x="245"
         y="258"
         id="text3884"
         sodipodi:linespacing="125%"
         transform="matrix(-0.70710678,-0.70710679,0.70710679,-0.70710678,170.23724,796.39805)"><tspan
           sodipodi:role="line"
           id="tspan3886"
           x="245"
           y="258"
           style="font-style:normal;font-variant:normal;font-weight:bold;font-stretch:normal;font-family:Bitstream Charter;-inkscape-font-specification:Sans Bold;fill:#ececec">II</tspan></text>
      <text
         inkscape:transform-center-x="-140.13621"
         inkscape:transform-center-y="-140.16452"
         transform="matrix(0.70710678,0.70710679,-0.70710679,0.70710678,416.53586,-209.6415)"
         sodipodi:linespacing="125%"
         id="text3888"
         y="258"
         x="245"
         style="font-size:40px;font-style:normal;font-weight:bold;line-height:125%;letter-spacing:0px;word-spacing:0px;fill:#ececec;fill-opacity:1;stroke:none;font-family:Sans;-inkscape-font-specification:Sans Bold"
         xml:space="preserve"><tspan
           style="font-style:normal;font-variant:normal;font-weight:bold;font-stretch:normal;font-family:Bitstream Charter;-inkscape-font-specification:Sans Bold;fill:#ececec"
           y="258"
           x="245"
           id="tspan3890"
           sodipodi:role="line">VIII</tspan></text>
    </g>
    <path
       style="fill:#e6e6e6;fill-opacity:1;stroke:none;stroke-width:2;stroke-linecap:round;stroke-linejoin:round;stroke-miterlimit:2.90000010000000019;stroke-opacity:1;stroke-dasharray:none;stroke-dashoffset:0"
       d="M 300 135 C 208.87302 135 135 208.87302 135 300 C 135 346.58165 154.30055 388.65396 185.34375 418.65625 C 156.65301 388.9701 139 348.54533 139 304 C 139 212.87302 212.87302 139 304 139 C 348.54533 139 388.9701 156.65301 418.65625 185.34375 C 388.65396 154.30055 346.58165 135 300 135 z "
       id="path3895" />
    <path
       transform="translate(25,32)"
       d="M 440,268 A 165,165 0 1 1 110,268 165,165 0 1 1 440,268 z"
       sodipodi:ry="165"
       sodipodi:rx="165"
       sodipodi:cy="268"
       sodipodi:cx="275"
       id="path3898"
       style="fill:none;fill-opacity:1;stroke:#999999;stroke-width:2;stroke-linecap:round;stroke-linejoin:round;stroke-miterlimit:2.90000010000000019;stroke-opacity:1;stroke-dasharray:none;stroke-dashoffset:0"
       sodipodi:type="arc" />
  </g>
</svg>
