<?xml version="1.0" encoding="UTF-8" standalone="no"?>
<!-- Created with Inkscape (http://www.inkscape.org/) -->

<svg
   xmlns:dc="http://purl.org/dc/elements/1.1/"
   xmlns:cc="http://creativecommons.org/ns#"
   xmlns:rdf="http://www.w3.org/1999/02/22-rdf-syntax-ns#"
   xmlns:svg="http://www.w3.org/2000/svg"
   xmlns="http://www.w3.org/2000/svg"
   xmlns:xlink="http://www.w3.org/1999/xlink"
   xmlns:sodipodi="http://sodipodi.sourceforge.net/DTD/sodipodi-0.dtd"
   xmlns:inkscape="http://www.inkscape.org/namespaces/inkscape"
   width="600"
   height="600"
   id="svg2985"
   version="1.1"
   inkscape:version="0.91 r13725"
   sodipodi:docname="zodiac.svg">
  <defs
     id="defs2987">
    <linearGradient
       id="linearGradient3909">
      <stop
         style="stop-color:#959595;stop-opacity:1;"
         offset="0"
         id="stop3911" />
      <stop
         id="stop3919"
         offset="0.81430256"
         style="stop-color:#ffffff;stop-opacity:1;" />
      <stop
         id="stop3917"
         offset="0.93488532"
         style="stop-color:#ffffff;stop-opacity:1;" />
      <stop
         style="stop-color:#f2f2f2;stop-opacity:1;"
         offset="1"
         id="stop3913" />
    </linearGradient>
    <radialGradient
       inkscape:collect="always"
       xlink:href="#linearGradient3909"
       id="radialGradient3915"
       cx="275"
       cy="268"
       fx="275"
       fy="268"
       r="165"
       gradientUnits="userSpaceOnUse"
       gradientTransform="matrix(1.3985512,0,0,1.3985512,-82.601581,-74.811725)" />
  </defs>
  <sodipodi:namedview
     id="base"
     pagecolor="#ffffff"
     bordercolor="#666666"
     borderopacity="1.0"
     inkscape:pageopacity="0.0"
     inkscape:pageshadow="2"
     inkscape:zoom="1.4142136"
     inkscape:cx="351.99483"
     inkscape:cy="281.11682"
     inkscape:current-layer="layer2"
     inkscape:document-units="px"
     showgrid="false"
     inkscape:window-width="1600"
     inkscape:window-height="837"
     inkscape:window-x="-8"
     inkscape:window-y="-8"
     inkscape:window-maximized="1"
     showguides="false"
     inkscape:guide-bbox="true">
    <sodipodi:guide
       orientation="0,1"
       position="300,300"
       id="guide3017" />
  </sodipodi:namedview>
  <metadata
     id="metadata2990">
    <rdf:RDF>
      <cc:Work
         rdf:about="">
        <dc:format>image/svg+xml</dc:format>
        <dc:type
           rdf:resource="http://purl.org/dc/dcmitype/StillImage" />
        <dc:title />
      </cc:Work>
    </rdf:RDF>
  </metadata>
  <g
     id="zodiac"
     inkscape:label="Zodiac"
     inkscape:groupmode="layer"
     transform="translate(-2,0)">
    <g
       id="g3782"
       transform="translate(3.3766498e-7,-4.1931609e-6)">
      <g
         id="g3662"
         transform="matrix(0.8660254,0.5,-0.5,0.8660254,190.19238,-109.80763)">
        <rect
           style="display:inline;fill:#cccccc;fill-opacity:1;stroke:none"
           id="rect3664"
           width="490"
           height="1.9999999"
           x="27.711655"
           y="-326.0051"
           transform="matrix(-0.08715576,0.9961947,-0.99619469,-0.08715585,0,0)"
           rx="1"
           ry="0.99999994"
           inkscape:label="" />
        <rect
           inkscape:label=""
           ry="0.99999994"
           rx="1"
           transform="matrix(0.08715573,0.9961947,-0.99619471,0.08715564,0,0)"
           y="-273.71164"
           x="80.005096"
           height="1.9999999"
           width="490"
           id="rect3666"
           style="display:inline;fill:#cccccc;fill-opacity:1;stroke:none" />
        <rect
           style="display:inline;fill:#cccccc;fill-opacity:1;stroke:none"
           id="rect3668"
           width="480"
           height="1.2"
           x="46.62862"
           y="-313.4003"
           transform="matrix(-0.0436194,0.99904822,-0.99904822,-0.04361948,0,0)"
           inkscape:label="" />
        <rect
           inkscape:label=""
           transform="matrix(-1.2691638e-8,1,-1,-9.2615496e-8,0,0)"
           y="-300.60001"
           x="59.999973"
           height="1.2"
           width="480"
           id="rect3670"
           style="display:inline;fill:#cccccc;fill-opacity:1;stroke:none" />
        <rect
           style="display:inline;fill:#cccccc;fill-opacity:1;stroke:none"
           id="rect3672"
           width="480"
           height="1.2"
           x="72.800255"
           y="-287.22867"
           transform="matrix(0.04361937,0.99904822,-0.99904823,0.04361929,0,0)"
           inkscape:label="" />
        <rect
           inkscape:label=""
           transform="matrix(0.13052618,0.99144486,-0.99144487,0.1305261,0,0)"
           y="-258.87561"
           x="96.591293"
           height="1.2"
           width="480"
           id="rect3674"
           style="display:inline;fill:#cccccc;fill-opacity:1;stroke:none" />
        <rect
           style="display:inline;fill:#cccccc;fill-opacity:1;stroke:none"
           id="rect3676"
           width="480"
           height="1.2"
           x="107.53676"
           y="-243.94789"
           transform="matrix(0.17364817,0.98480775,-0.98480777,0.17364809,0,0)"
           inkscape:label="" />
        <rect
           inkscape:label=""
           transform="matrix(0.21643961,0.97629601,-0.97629603,0.21643953,0,0)"
           y="-228.55692"
           x="117.82067"
           height="1.2"
           width="480"
           id="rect3678"
           style="display:inline;fill:#cccccc;fill-opacity:1;stroke:none" />
        <rect
           style="display:inline;fill:#cccccc;fill-opacity:1;stroke:none"
           id="rect3680"
           width="480"
           height="1.2"
           x="18.275578"
           y="-337.19135"
           transform="matrix(-0.1305262,0.99144486,-0.99144485,-0.13052629,0,0)"
           inkscape:label="" />
        <rect
           inkscape:label=""
           transform="matrix(-0.17364819,0.98480775,-0.98480774,-0.17364827,0,0)"
           y="-348.13681"
           x="3.3478477"
           height="1.2"
           width="480"
           id="rect3682"
           style="display:inline;fill:#cccccc;fill-opacity:1;stroke:none" />
        <rect
           style="display:inline;fill:#cccccc;fill-opacity:1;stroke:none"
           id="rect3684"
           width="480"
           height="1.2"
           x="-12.043111"
           y="-358.42072"
           transform="matrix(-0.21643963,0.976296,-0.97629599,-0.2164397,0,0)"
           inkscape:label="" />
      </g>
      <g
         id="g3649">
        <rect
           inkscape:label=""
           ry="0.99999994"
           rx="1"
           transform="matrix(-0.08715576,0.9961947,-0.99619469,-0.08715585,0,0)"
           y="-326.0051"
           x="27.711655"
           height="1.9999999"
           width="490"
           id="rect3620"
           style="display:inline;fill:#cccccc;fill-opacity:1;stroke:none" />
        <rect
           style="display:inline;fill:#cccccc;fill-opacity:1;stroke:none"
           id="rect3623"
           width="490"
           height="1.9999999"
           x="80.005096"
           y="-273.71164"
           transform="matrix(0.08715573,0.9961947,-0.99619471,0.08715564,0,0)"
           rx="1"
           ry="0.99999994"
           inkscape:label="" />
        <rect
           inkscape:label=""
           transform="matrix(-0.0436194,0.99904822,-0.99904822,-0.04361948,0,0)"
           y="-313.4003"
           x="46.62862"
           height="1.2"
           width="480"
           id="rect3625"
           style="display:inline;fill:#cccccc;fill-opacity:1;stroke:none" />
        <rect
           style="display:inline;fill:#cccccc;fill-opacity:1;stroke:none"
           id="rect3633"
           width="480"
           height="1.2"
           x="59.999973"
           y="-300.60001"
           transform="matrix(-1.2691638e-8,1,-1,-9.2615496e-8,0,0)"
           inkscape:label="" />
        <rect
           inkscape:label=""
           transform="matrix(0.04361937,0.99904822,-0.99904823,0.04361929,0,0)"
           y="-287.22867"
           x="72.800255"
           height="1.2"
           width="480"
           id="rect3635"
           style="display:inline;fill:#cccccc;fill-opacity:1;stroke:none" />
        <rect
           style="display:inline;fill:#cccccc;fill-opacity:1;stroke:none"
           id="rect3637"
           width="480"
           height="1.2"
           x="96.591293"
           y="-258.87561"
           transform="matrix(0.13052618,0.99144486,-0.99144487,0.1305261,0,0)"
           inkscape:label="" />
        <rect
           inkscape:label=""
           transform="matrix(0.17364817,0.98480775,-0.98480777,0.17364809,0,0)"
           y="-243.94789"
           x="107.53676"
           height="1.2"
           width="480"
           id="rect3639"
           style="display:inline;fill:#cccccc;fill-opacity:1;stroke:none" />
        <rect
           style="display:inline;fill:#cccccc;fill-opacity:1;stroke:none"
           id="rect3641"
           width="480"
           height="1.2"
           x="117.82067"
           y="-228.55692"
           transform="matrix(0.21643961,0.97629601,-0.97629603,0.21643953,0,0)"
           inkscape:label="" />
        <rect
           inkscape:label=""
           transform="matrix(-0.1305262,0.99144486,-0.99144485,-0.13052629,0,0)"
           y="-337.19135"
           x="18.275578"
           height="1.2"
           width="480"
           id="rect3643"
           style="display:inline;fill:#cccccc;fill-opacity:1;stroke:none" />
        <rect
           style="display:inline;fill:#cccccc;fill-opacity:1;stroke:none"
           id="rect3645"
           width="480"
           height="1.2"
           x="3.3478477"
           y="-348.13681"
           transform="matrix(-0.17364819,0.98480775,-0.98480774,-0.17364827,0,0)"
           inkscape:label="" />
        <rect
           inkscape:label=""
           transform="matrix(-0.21643963,0.976296,-0.97629599,-0.2164397,0,0)"
           y="-358.42072"
           x="-12.043111"
           height="1.2"
           width="480"
           id="rect3647"
           style="display:inline;fill:#cccccc;fill-opacity:1;stroke:none" />
      </g>
      <g
         transform="matrix(0.5,0.8660254,-0.8660254,0.5,409.80763,-109.80764)"
         id="g3686">
        <rect
           inkscape:label=""
           ry="0.99999994"
           rx="1"
           transform="matrix(-0.08715576,0.9961947,-0.99619469,-0.08715585,0,0)"
           y="-326.0051"
           x="27.711655"
           height="1.9999999"
           width="490"
           id="rect3688"
           style="display:inline;fill:#cccccc;fill-opacity:1;stroke:none" />
        <rect
           style="display:inline;fill:#cccccc;fill-opacity:1;stroke:none"
           id="rect3690"
           width="490"
           height="1.9999999"
           x="80.005096"
           y="-273.71164"
           transform="matrix(0.08715573,0.9961947,-0.99619471,0.08715564,0,0)"
           rx="1"
           ry="0.99999994"
           inkscape:label="" />
        <rect
           inkscape:label=""
           transform="matrix(-0.0436194,0.99904822,-0.99904822,-0.04361948,0,0)"
           y="-313.4003"
           x="46.62862"
           height="1.2"
           width="480"
           id="rect3692"
           style="display:inline;fill:#cccccc;fill-opacity:1;stroke:none" />
        <rect
           style="display:inline;fill:#cccccc;fill-opacity:1;stroke:none"
           id="rect3694"
           width="480"
           height="1.2"
           x="59.999973"
           y="-300.60001"
           transform="matrix(-1.2691638e-8,1,-1,-9.2615496e-8,0,0)"
           inkscape:label="" />
        <rect
           inkscape:label=""
           transform="matrix(0.04361937,0.99904822,-0.99904823,0.04361929,0,0)"
           y="-287.22867"
           x="72.800255"
           height="1.2"
           width="480"
           id="rect3696"
           style="display:inline;fill:#cccccc;fill-opacity:1;stroke:none" />
        <rect
           style="display:inline;fill:#cccccc;fill-opacity:1;stroke:none"
           id="rect3698"
           width="480"
           height="1.2"
           x="96.591293"
           y="-258.87561"
           transform="matrix(0.13052618,0.99144486,-0.99144487,0.1305261,0,0)"
           inkscape:label="" />
        <rect
           inkscape:label=""
           transform="matrix(0.17364817,0.98480775,-0.98480777,0.17364809,0,0)"
           y="-243.94789"
           x="107.53676"
           height="1.2"
           width="480"
           id="rect3700"
           style="display:inline;fill:#cccccc;fill-opacity:1;stroke:none" />
        <rect
           style="display:inline;fill:#cccccc;fill-opacity:1;stroke:none"
           id="rect3702"
           width="480"
           height="1.2"
           x="117.82067"
           y="-228.55692"
           transform="matrix(0.21643961,0.97629601,-0.97629603,0.21643953,0,0)"
           inkscape:label="" />
        <rect
           inkscape:label=""
           transform="matrix(-0.1305262,0.99144486,-0.99144485,-0.13052629,0,0)"
           y="-337.19135"
           x="18.275578"
           height="1.2"
           width="480"
           id="rect3704"
           style="display:inline;fill:#cccccc;fill-opacity:1;stroke:none" />
        <rect
           style="display:inline;fill:#cccccc;fill-opacity:1;stroke:none"
           id="rect3706"
           width="480"
           height="1.2"
           x="3.3478477"
           y="-348.13681"
           transform="matrix(-0.17364819,0.98480775,-0.98480774,-0.17364827,0,0)"
           inkscape:label="" />
        <rect
           inkscape:label=""
           transform="matrix(-0.21643963,0.976296,-0.97629599,-0.2164397,0,0)"
           y="-358.42072"
           x="-12.043111"
           height="1.2"
           width="480"
           id="rect3708"
           style="display:inline;fill:#cccccc;fill-opacity:1;stroke:none" />
      </g>
      <g
         id="g3710"
         transform="matrix(0,1,-1,0,600.00001,-2.2452048e-5)">
        <rect
           style="display:inline;fill:#cccccc;fill-opacity:1;stroke:none"
           id="rect3712"
           width="490"
           height="1.9999999"
           x="27.711655"
           y="-326.0051"
           transform="matrix(-0.08715576,0.9961947,-0.99619469,-0.08715585,0,0)"
           rx="1"
           ry="0.99999994"
           inkscape:label="" />
        <rect
           inkscape:label=""
           ry="0.99999994"
           rx="1"
           transform="matrix(0.08715573,0.9961947,-0.99619471,0.08715564,0,0)"
           y="-273.71164"
           x="80.005096"
           height="1.9999999"
           width="490"
           id="rect3714"
           style="display:inline;fill:#cccccc;fill-opacity:1;stroke:none" />
        <rect
           style="display:inline;fill:#cccccc;fill-opacity:1;stroke:none"
           id="rect3716"
           width="480"
           height="1.2"
           x="46.62862"
           y="-313.4003"
           transform="matrix(-0.0436194,0.99904822,-0.99904822,-0.04361948,0,0)"
           inkscape:label="" />
        <rect
           inkscape:label=""
           transform="matrix(-1.2691638e-8,1,-1,-9.2615496e-8,0,0)"
           y="-300.60001"
           x="59.999973"
           height="1.2"
           width="480"
           id="rect3718"
           style="display:inline;fill:#cccccc;fill-opacity:1;stroke:none" />
        <rect
           style="display:inline;fill:#cccccc;fill-opacity:1;stroke:none"
           id="rect3720"
           width="480"
           height="1.2"
           x="72.800255"
           y="-287.22867"
           transform="matrix(0.04361937,0.99904822,-0.99904823,0.04361929,0,0)"
           inkscape:label="" />
        <rect
           inkscape:label=""
           transform="matrix(0.13052618,0.99144486,-0.99144487,0.1305261,0,0)"
           y="-258.87561"
           x="96.591293"
           height="1.2"
           width="480"
           id="rect3722"
           style="display:inline;fill:#cccccc;fill-opacity:1;stroke:none" />
        <rect
           style="display:inline;fill:#cccccc;fill-opacity:1;stroke:none"
           id="rect3724"
           width="480"
           height="1.2"
           x="107.53676"
           y="-243.94789"
           transform="matrix(0.17364817,0.98480775,-0.98480777,0.17364809,0,0)"
           inkscape:label="" />
        <rect
           inkscape:label=""
           transform="matrix(0.21643961,0.97629601,-0.97629603,0.21643953,0,0)"
           y="-228.55692"
           x="117.82067"
           height="1.2"
           width="480"
           id="rect3726"
           style="display:inline;fill:#cccccc;fill-opacity:1;stroke:none" />
        <rect
           style="display:inline;fill:#cccccc;fill-opacity:1;stroke:none"
           id="rect3728"
           width="480"
           height="1.2"
           x="18.275578"
           y="-337.19135"
           transform="matrix(-0.1305262,0.99144486,-0.99144485,-0.13052629,0,0)"
           inkscape:label="" />
        <rect
           inkscape:label=""
           transform="matrix(-0.17364819,0.98480775,-0.98480774,-0.17364827,0,0)"
           y="-348.13681"
           x="3.3478477"
           height="1.2"
           width="480"
           id="rect3730"
           style="display:inline;fill:#cccccc;fill-opacity:1;stroke:none" />
        <rect
           style="display:inline;fill:#cccccc;fill-opacity:1;stroke:none"
           id="rect3732"
           width="480"
           height="1.2"
           x="-12.043111"
           y="-358.42072"
           transform="matrix(-0.21643963,0.976296,-0.97629599,-0.2164397,0,0)"
           inkscape:label="" />
      </g>
      <g
         transform="matrix(-0.5,0.8660254,-0.8660254,-0.5,709.80764,190.19236)"
         id="g3734">
        <rect
           inkscape:label=""
           ry="0.99999994"
           rx="1"
           transform="matrix(-0.08715576,0.9961947,-0.99619469,-0.08715585,0,0)"
           y="-326.0051"
           x="27.711655"
           height="1.9999999"
           width="490"
           id="rect3736"
           style="display:inline;fill:#cccccc;fill-opacity:1;stroke:none" />
        <rect
           style="display:inline;fill:#cccccc;fill-opacity:1;stroke:none"
           id="rect3738"
           width="490"
           height="1.9999999"
           x="80.005096"
           y="-273.71164"
           transform="matrix(0.08715573,0.9961947,-0.99619471,0.08715564,0,0)"
           rx="1"
           ry="0.99999994"
           inkscape:label="" />
        <rect
           inkscape:label=""
           transform="matrix(-0.0436194,0.99904822,-0.99904822,-0.04361948,0,0)"
           y="-313.4003"
           x="46.62862"
           height="1.2"
           width="480"
           id="rect3740"
           style="display:inline;fill:#cccccc;fill-opacity:1;stroke:none" />
        <rect
           style="display:inline;fill:#cccccc;fill-opacity:1;stroke:none"
           id="rect3742"
           width="480"
           height="1.2"
           x="59.999973"
           y="-300.60001"
           transform="matrix(-1.2691638e-8,1,-1,-9.2615496e-8,0,0)"
           inkscape:label="" />
        <rect
           inkscape:label=""
           transform="matrix(0.04361937,0.99904822,-0.99904823,0.04361929,0,0)"
           y="-287.22867"
           x="72.800255"
           height="1.2"
           width="480"
           id="rect3744"
           style="display:inline;fill:#cccccc;fill-opacity:1;stroke:none" />
        <rect
           style="display:inline;fill:#cccccc;fill-opacity:1;stroke:none"
           id="rect3746"
           width="480"
           height="1.2"
           x="96.591293"
           y="-258.87561"
           transform="matrix(0.13052618,0.99144486,-0.99144487,0.1305261,0,0)"
           inkscape:label="" />
        <rect
           inkscape:label=""
           transform="matrix(0.17364817,0.98480775,-0.98480777,0.17364809,0,0)"
           y="-243.94789"
           x="107.53676"
           height="1.2"
           width="480"
           id="rect3748"
           style="display:inline;fill:#cccccc;fill-opacity:1;stroke:none" />
        <rect
           style="display:inline;fill:#cccccc;fill-opacity:1;stroke:none"
           id="rect3750"
           width="480"
           height="1.2"
           x="117.82067"
           y="-228.55692"
           transform="matrix(0.21643961,0.97629601,-0.97629603,0.21643953,0,0)"
           inkscape:label="" />
        <rect
           inkscape:label=""
           transform="matrix(-0.1305262,0.99144486,-0.99144485,-0.13052629,0,0)"
           y="-337.19135"
           x="18.275578"
           height="1.2"
           width="480"
           id="rect3752"
           style="display:inline;fill:#cccccc;fill-opacity:1;stroke:none" />
        <rect
           style="display:inline;fill:#cccccc;fill-opacity:1;stroke:none"
           id="rect3754"
           width="480"
           height="1.2"
           x="3.3478477"
           y="-348.13681"
           transform="matrix(-0.17364819,0.98480775,-0.98480774,-0.17364827,0,0)"
           inkscape:label="" />
        <rect
           inkscape:label=""
           transform="matrix(-0.21643963,0.976296,-0.97629599,-0.2164397,0,0)"
           y="-358.42072"
           x="-12.043111"
           height="1.2"
           width="480"
           id="rect3756"
           style="display:inline;fill:#cccccc;fill-opacity:1;stroke:none" />
      </g>
      <g
         id="g3758"
         transform="matrix(-0.8660254,0.5,-0.5,-0.8660254,709.80765,409.80761)">
        <rect
           style="display:inline;fill:#cccccc;fill-opacity:1;stroke:none"
           id="rect3760"
           width="490"
           height="1.9999999"
           x="27.711655"
           y="-326.0051"
           transform="matrix(-0.08715576,0.9961947,-0.99619469,-0.08715585,0,0)"
           rx="1"
           ry="0.99999994"
           inkscape:label="" />
        <rect
           inkscape:label=""
           ry="0.99999994"
           rx="1"
           transform="matrix(0.08715573,0.9961947,-0.99619471,0.08715564,0,0)"
           y="-273.71164"
           x="80.005096"
           height="1.9999999"
           width="490"
           id="rect3762"
           style="display:inline;fill:#cccccc;fill-opacity:1;stroke:none" />
        <rect
           style="display:inline;fill:#cccccc;fill-opacity:1;stroke:none"
           id="rect3764"
           width="480"
           height="1.2"
           x="46.62862"
           y="-313.4003"
           transform="matrix(-0.0436194,0.99904822,-0.99904822,-0.04361948,0,0)"
           inkscape:label="" />
        <rect
           inkscape:label=""
           transform="matrix(-1.2691638e-8,1,-1,-9.2615496e-8,0,0)"
           y="-300.60001"
           x="59.999973"
           height="1.2"
           width="480"
           id="rect3766"
           style="display:inline;fill:#cccccc;fill-opacity:1;stroke:none" />
        <rect
           style="display:inline;fill:#cccccc;fill-opacity:1;stroke:none"
           id="rect3768"
           width="480"
           height="1.2"
           x="72.800255"
           y="-287.22867"
           transform="matrix(0.04361937,0.99904822,-0.99904823,0.04361929,0,0)"
           inkscape:label="" />
        <rect
           inkscape:label=""
           transform="matrix(0.13052618,0.99144486,-0.99144487,0.1305261,0,0)"
           y="-258.87561"
           x="96.591293"
           height="1.2"
           width="480"
           id="rect3770"
           style="display:inline;fill:#cccccc;fill-opacity:1;stroke:none" />
        <rect
           style="display:inline;fill:#cccccc;fill-opacity:1;stroke:none"
           id="rect3772"
           width="480"
           height="1.2"
           x="107.53676"
           y="-243.94789"
           transform="matrix(0.17364817,0.98480775,-0.98480777,0.17364809,0,0)"
           inkscape:label="" />
        <rect
           inkscape:label=""
           transform="matrix(0.21643961,0.97629601,-0.97629603,0.21643953,0,0)"
           y="-228.55692"
           x="117.82067"
           height="1.2"
           width="480"
           id="rect3774"
           style="display:inline;fill:#cccccc;fill-opacity:1;stroke:none" />
        <rect
           style="display:inline;fill:#cccccc;fill-opacity:1;stroke:none"
           id="rect3776"
           width="480"
           height="1.2"
           x="18.275578"
           y="-337.19135"
           transform="matrix(-0.1305262,0.99144486,-0.99144485,-0.13052629,0,0)"
           inkscape:label="" />
        <rect
           inkscape:label=""
           transform="matrix(-0.17364819,0.98480775,-0.98480774,-0.17364827,0,0)"
           y="-348.13681"
           x="3.3478477"
           height="1.2"
           width="480"
           id="rect3778"
           style="display:inline;fill:#cccccc;fill-opacity:1;stroke:none" />
        <rect
           style="display:inline;fill:#cccccc;fill-opacity:1;stroke:none"
           id="rect3780"
           width="480"
           height="1.2"
           x="-12.043111"
           y="-358.42072"
           transform="matrix(-0.21643963,0.976296,-0.97629599,-0.2164397,0,0)"
           inkscape:label="" />
      </g>
    </g>
    <circle
       id="path3906"
       style="display:inline;fill:url(#radialGradient3915);fill-opacity:1;stroke:none"
       cx="302"
       cy="300"
       r="230.76094" />
    <g
       id="g4413">
      <path
         id="path3535"
         d="m 226.55568,18.53125 c 5.02705,19.322945 10.4726,38.519864 15.5,57.84375 18.62289,-4.830766 39.78795,-7.84375 59.92188,-7.84375 20.13393,0 41.29899,3.012984 59.92187,7.84375 5.02743,-19.32391 10.47296,-38.520745 15.5,-57.84375 -48.913,1.97e-4 -101.93061,-1.2e-5 -150.84375,0 z m 0,0 C 184.19576,42.987746 138.27502,69.480825 95.915064,93.9375 c 14.026366,14.23211 28.363306,28.15762 42.390616,42.39062 27.71849,-27.31594 65.13614,-49.326204 103.75,-59.95312 -5.30566,-19.238619 -10.19432,-38.604285 -15.5,-57.84375 z m 150.84375,0 c -5.30566,19.239476 -10.19434,38.605132 -15.5,57.84375 38.61386,10.626916 76.03152,32.63718 103.75,59.95312 C 479.67673,122.0951 494.0137,108.16964 508.04006,93.9375 465.68004,69.480942 419.75941,42.987883 377.39943,18.53125 Z M 95.915064,93.9375 c -24.45651,42.35977 -50.94979,88.28054 -75.40625,130.64062 19.23946,5.30562 38.60513,10.19436 57.84375,15.5 10.62692,-38.61386 32.637176,-76.03151 59.953116,-103.75 z m 412.124996,0 c -14.23215,14.0264 -28.1576,28.36332 -42.39063,42.39062 27.31594,27.71849 49.32621,65.13614 59.95313,103.75 19.23862,-5.30566 38.60426,-10.1943 57.84375,-15.5 C 558.98964,182.2183 532.49651,136.29759 508.04006,93.9375 Z M 20.508814,224.57812 c -4e-5,48.91301 0,101.93061 0,150.84375 19.32296,-5.02708 38.51986,-10.47258 57.84375,-15.5 -4.83077,-18.62288 -7.84375,-39.78794 -7.84375,-59.92187 0,-20.13393 3.01298,-41.29899 7.84375,-59.92188 -19.32389,-5.02742 -38.52079,-10.47294 -57.84375,-15.5 z m 562.937496,0 c -19.32296,5.02703 -38.51986,10.47259 -57.84375,15.5 4.83077,18.62289 7.84375,39.78795 7.84375,59.92188 0,20.13393 -3.01298,41.29899 -7.84375,59.92187 19.32389,5.02742 39.08327,10.47296 58.40625,15.5 4e-5,-48.91314 -0.56257,-101.93061 -0.5625,-150.84375 z m -505.093746,135.34375 -57.84375,15.5 c 24.45649,42.35992 50.94973,88.28072 75.40625,130.64063 14.232136,-14.02636 28.157596,-28.36332 42.390616,-42.39063 -27.31594,-27.71848 -49.326196,-65.13614 -59.953116,-103.75 z m 447.249996,0 c -10.62692,38.61386 -32.63719,76.03152 -59.95313,103.75 14.23302,14.02731 28.15846,28.36428 42.39063,42.39063 24.45636,-42.35985 50.38731,-88.28067 74.84375,-130.64063 -19.23947,-5.30568 -38.04264,-10.19434 -57.28125,-15.5 z m -387.29688,103.75 c -14.02731,14.23302 -28.36423,28.1585 -42.390616,42.39063 42.360016,24.45656 88.280706,50.94973 130.640616,75.40625 5.30566,-19.23947 10.19434,-38.60514 15.5,-57.84375 -38.61386,-10.62692 -76.03151,-32.63719 -103.75,-59.95313 z m 327.34375,0 c -27.71848,27.31594 -65.13614,49.32621 -103.75,59.95313 5.30566,19.23862 10.19437,38.60427 15.5,57.84375 42.36002,-24.45657 88.28064,-50.94971 130.64063,-75.40625 -14.02638,-14.23214 -28.36333,-28.15761 -42.39063,-42.39063 z M 242.05568,523.625 c -5.02742,19.32389 -10.47295,38.52079 -15.5,57.84375 l 150.84375,0 c -5.02708,-19.32296 -10.47257,-38.51986 -15.5,-57.84375 -18.62288,4.83077 -39.78794,7.84375 -59.92187,7.84375 -20.13393,0 -41.29899,-3.01298 -59.92188,-7.84375 z"
         style="display:inline;fill:none;stroke:#cccccc;stroke-width:2"
         inkscape:connector-curvature="0"
         sodipodi:nodetypes="ccsccccccccccccccccccccccccccsccccscccccccccccccccccccccccccccsc" />
      <path
         style="fill:#ffffff;fill-opacity:1;stroke:none"
         d="m 6.2031275,8.375 0,588.09375 591.5937425,0 0,-588.09375 -591.5937425,0 z m 220.4374925,12.25 149.6875,0 129.65625,74.875 74.875,129.65625 0,149.6875 -74.875,129.65625 -129.65625,74.875 -149.6875,0 -129.656243,-74.875 -74.875,-129.65625 0,-149.6875 L 96.984377,95.5 226.64062,20.625 Z"
         id="rect3032"
         inkscape:connector-curvature="0" />
    </g>
    <g
       id="g4417">
      <path
         id="path3537"
         d="m 323.81783,15.327928 c -3.70352,-4.903661 -10.30335,-6.982168 -16.05904,-5.056403 -2.46175,0.826689 -4.44153,2.331599 -5.89717,4.305395 -1.42518,-1.798061 -3.30771,-3.176475 -5.62164,-3.952064 -5.75411,-1.9290062 -12.35394,0.148084 -16.05746,5.053137 -3.59276,4.763104 -3.11505,9.258047 -2.08605,12.190881 1.1338,3.221302 3.69612,6.346666 5.59862,6.824792 1.50804,0.370187 3.04876,-0.536557 3.43053,-2.054319 0.33122,-1.316842 -0.32037,-2.656836 -1.4944,-3.230494 -0.47918,-0.416111 -2.16294,-2.251211 -2.54353,-4.786171 -0.28807,-1.913702 0.24032,-3.721054 1.60848,-5.532817 2.22447,-2.943541 6.32246,-4.24344 9.74571,-3.100954 3.05034,1.025626 4.72948,3.782565 4.72948,7.76085 l 0,22.884825 0,0.352923 c 1.3e-4,1.565116 1.2648,2.829614 2.82855,2.8297 1.56534,-6.1e-5 2.82856,-1.264572 2.82842,-2.829539 l 0,-0.353319 1.4e-4,-22.883012 -1.4e-4,-0.348451 c 1.4e-4,-3.981317 1.67927,-6.736975 4.72961,-7.76228 3.42788,-1.144236 7.52111,0.155638 9.74585,3.099315 1.36803,1.813377 1.89337,3.623588 1.60675,5.531227 -0.38204,2.538004 -2.06435,4.372944 -2.54193,4.786221 -1.1743,0.574582 -1.82708,1.911964 -1.49586,3.232083 0.38191,1.520202 1.9164,2.437777 3.43224,2.053876 1.90264,-0.478016 4.46323,-3.60349 5.59862,-6.824792 1.02887,-2.935989 1.50659,-7.432324 -2.08605,-12.190955 z"
         inkscape:connector-curvature="0"
         style="display:inline;fill:#cccccc;fill-opacity:1;stroke:#ffffff;stroke-width:2.32839036" />
      <path
         id="path3581"
         d="m 452.06932,73.901651 -8.86658,-5.119111 c 5.52769,-7.683026 11.86379,-8.122427 12.23,-8.141733 1.61048,-0.04563 2.88072,-1.385345 2.85058,-2.997289 -0.0364,-1.623319 -1.37911,-2.901934 -2.99787,-2.871575 -0.42288,0.01418 -9.77797,0.355076 -17.19129,11.061187 l -5.7252,-3.305476 c 5.56281,-11.774329 1.18752,-20.048534 0.98369,-20.418791 -0.77681,-1.408464 -2.53717,-1.918244 -3.95079,-1.158748 -1.41903,0.757824 -1.95498,2.531031 -1.21114,3.959399 0.13356,0.262592 2.98047,5.98515 -0.93606,14.665367 l -7.48341,-4.320545 c -1.40528,-0.811342 -3.19932,-0.328962 -4.01132,1.077166 -0.81046,1.404057 -0.33176,3.19991 1.07352,4.011263 l 7.46813,4.311728 c -5.05128,6.779712 -10.20936,5.578496 -10.40757,5.52487 -1.55412,-0.459354 -3.18929,0.428017 -3.64933,1.98286 -0.39262,1.327186 0.19483,2.713822 1.34303,3.37658 0.19619,0.112982 0.40904,0.203574 0.63678,0.273172 0.4112,0.118313 9.54376,2.659533 17.2014,-8.20286 l 5.74054,3.314147 c -5.57958,12.062329 1.18689,18.701148 1.49789,18.999211 0.1717,0.161025 0.3561,0.300067 0.54886,0.411359 1.1297,0.652246 2.58753,0.471533 3.54525,-0.504617 1.12289,-1.140898 1.10566,-2.991566 -0.0191,-4.135081 -0.17246,-0.176113 -3.79682,-4.045346 -0.45102,-11.809586 l 8.84435,5.106298 c 1.40423,0.810605 3.20005,0.327731 4.01053,-1.076071 0.81199,-1.406405 0.33152,-3.201774 -1.07391,-4.013141 z"
         inkscape:connector-curvature="0"
         style="display:inline;fill:#cccccc;fill-opacity:1;stroke:#ffffff;stroke-width:2.32839036" />
      <path
         style="fill:#cccccc;stroke:#ffffff;stroke-width:2.32839036"
         inkscape:connector-curvature="0"
         d="m 524.45433,140.55996 c 1.53198,2.65346 4.57329,3.15371 7.02708,3.55065 2.44594,0.40148 3.97654,0.72688 4.62964,1.85807 0.34363,0.5952 -0.0284,1.44569 -1.25302,3.5405 -1.42376,2.43206 -3.57083,6.10025 -1.28411,10.06097 2.3596,4.08693 6.57179,3.90493 9.3523,3.78293 1.21701,-0.0545 2.73133,-0.11647 2.95083,0.26371 0.37962,0.65753 -0.63143,2.55631 -1.36517,3.93765 -1.37713,2.59626 -3.10041,5.82657 -1.26077,9.01291 1.79375,3.10688 5.74319,3.91381 9.23582,4.63339 1.25502,0.25806 3.12003,0.64384 3.70755,1.00475 0.85709,1.25232 2.55774,1.64367 3.90413,0.86633 1.41239,-0.81544 1.90818,-2.61617 1.09766,-4.02003 -1.35926,-2.35431 -4.32971,-2.96402 -7.47399,-3.60634 -1.70151,-0.3493 -4.86084,-0.99954 -5.34751,-1.84248 -0.14932,-0.50172 0.86779,-2.40815 1.35201,-3.3255 1.38274,-2.59743 3.27796,-6.15761 1.2791,-9.61973 -1.99256,-3.45122 -5.78059,-3.28559 -8.28536,-3.17944 -2.82026,0.1221 -3.53222,-0.0298 -4.01529,-0.86655 -0.50466,-0.87411 -0.12599,-1.80738 1.25314,-4.16797 1.42621,-2.44594 3.38449,-5.79531 1.28218,-9.43662 -2.08342,-3.60859 -5.94423,-4.24024 -8.7641,-4.69798 -0.95493,-0.15917 -2.55306,-0.4165 -2.91262,-0.73451 -0.81814,-1.38077 -2.60979,-1.8463 -4.01432,-1.0354 -1.41552,0.81726 -1.9057,2.61683 -1.09518,4.02069 z"
         id="path3529" />
      <path
         style="fill:#cccccc;stroke:#ffffff;stroke-width:2.32839036"
         inkscape:connector-curvature="0"
         d="m 544.59019,188.63932 c -1.35926,-2.35431 -4.32971,-2.96403 -7.47242,-3.60724 -1.70308,-0.3484 -4.86241,-0.99864 -5.34908,-1.84158 -0.14775,-0.50263 0.86778,-2.40815 1.35201,-3.3255 1.38274,-2.59743 3.27796,-6.15761 1.2791,-9.61973 -1.99257,-3.45122 -5.7806,-3.2856 -8.28694,-3.17853 -2.81868,0.12119 -3.53064,-0.0308 -4.01372,-0.86747 -0.50466,-0.8741 -0.12599,-1.80738 1.25314,-4.16797 1.42802,-2.44282 3.38697,-5.79465 1.28466,-9.43596 -2.08252,-3.60703 -5.94334,-4.23868 -8.7632,-4.69643 -0.95808,-0.15735 -2.55307,-0.41649 -2.91263,-0.73451 -0.81993,-1.38388 -2.61001,-1.85032 -4.01454,-1.03941 -1.41238,0.81544 -1.90571,2.61682 -1.09519,4.02068 1.53198,2.65347 4.57487,3.1528 7.02709,3.55066 2.44594,0.40148 3.97811,0.72597 4.6312,1.85716 0.34364,0.5952 -0.0299,1.44659 -1.25459,3.54141 -1.42375,2.43205 -3.56925,6.09934 -1.28253,10.06006 2.35959,4.08693 6.57021,3.90584 9.34915,3.78474 1.21859,-0.0554 2.73291,-0.11737 2.95241,0.26281 0.37962,0.65752 -0.63144,2.5563 -1.36517,3.93764 -1.3787,2.59718 -3.10041,5.82658 -1.26078,9.01292 1.79376,3.10687 5.7432,3.9138 9.23426,4.63429 1.25502,0.25806 3.12003,0.64385 3.70912,1.00385 0.85709,1.25232 2.55773,1.64367 3.90413,0.86632 1.41552,-0.81725 1.90503,-2.61435 1.09452,-4.01821 z"
         id="path3531" />
      <path
         id="path3553"
         d="m 579.09454,315.47916 c -1.1e-4,-3.69826 -1.82307,-6.9583 -4.59312,-9.01374 2.22197,-1.02946 5.24822,-2.03882 8.61627,-2.03882 4.13725,0 6.91896,-3.34557 6.91892,-8.32518 10e-6,-2.55182 -0.77416,-5.19205 -2.25372,-7.0068 1.7025,-2.22239 2.65756,-5.44424 2.65762,-8.06294 3e-5,-2.08216 -0.56475,-3.89504 -1.63221,-5.24042 -0.91484,-1.15304 -2.64417,-2.52656 -5.69379,-2.52656 -1.37257,0 -2.48177,1.1097 -2.48169,2.47646 -8e-5,1.36705 1.10932,2.47646 2.4816,2.47646 1.20999,1.4e-4 2.06109,0.33933 2.30409,1.99689 0.44237,2.94454 -1.47954,6.3118 -2.30398,6.56571 l -20.28425,-1.4e-4 c -1.3707,1.4e-4 -2.48157,1.10983 -2.48163,2.47673 7e-5,1.36677 1.11116,2.47488 2.48171,2.47488 l 20.28399,-1.3e-4 c 0.87472,1.3e-4 1.95221,2.0154 1.95224,4.36799 -5e-5,1.08472 -0.23784,2.06235 -0.6451,2.68043 -0.32617,0.49161 -0.70876,0.69041 -1.30669,0.69099 -7.1804,-2.9e-4 -12.91102,3.50074 -14.79276,4.80076 -0.17441,-0.0143 -0.34228,-0.0516 -0.51952,-0.0516 -1.76952,-1.5e-4 -3.41853,0.44281 -4.90983,1.16466 -2.31395,-1.51719 -7.58417,-5.77022 -7.74315,-13.13629 -0.0302,-1.36691 -1.16119,-2.4532 -2.53679,-2.42479 -1.35415,0.0302 -2.42976,1.13295 -2.42987,2.47676 0.0144,0.0186 3e-4,0.0345 1.4e-4,0.0516 0.17914,8.44734 5.36384,13.72782 8.71992,16.27274 -1.47622,1.90676 -2.39478,4.26278 -2.39432,6.85149 2e-5,6.21131 5.0639,11.25953 11.28909,11.25953 6.22828,-1.5e-4 11.29738,-5.04492 11.29738,-11.25623 z m -17.61641,-1.6e-4 c -5e-5,-3.47575 2.83703,-6.30488 6.32396,-6.30504 3.48554,1.6e-4 6.3223,2.82913 6.3223,6.30504 0,3.47908 -2.83688,6.30836 -6.32233,6.30821 -3.48703,1.5e-4 -6.324,-2.82885 -6.32393,-6.30821 z"
         inkscape:connector-curvature="0"
         style="display:inline;fill:#cccccc;stroke:#ffffff;stroke-width:2.32839036" />
      <path
         id="path3587"
         d="m 539.24997,461.40641 c 0.27204,0.14198 0.56621,0.25263 0.87638,0.29326 0.33996,0.044 0.67746,0.0226 1.00227,-0.0607 0.0153,-0.0118 0.0229,-10e-4 0.0249,-7.2e-4 l 0,0 c 0.33359,-0.088 0.64692,-0.24555 0.9234,-0.4575 0.27754,-0.21244 0.50817,-0.47133 0.68097,-0.77063 10e-6,0 10e-6,0 10e-4,4.5e-4 l 7.03952,-12.1924 c 0.72847,-1.26168 0.29643,-2.87745 -0.96633,-3.60651 -1.26404,-0.72992 -2.87803,-0.29544 -3.60659,0.96619 l -3.84682,6.6629 -4.58236,-17.20865 6.3398,-1.5731 c 1.41251,-0.35266 2.27743,-1.78468 1.92404,-3.19923 -0.34975,-1.41517 -1.78021,-2.27747 -3.19738,-1.92711 l -6.42329,1.59664 -5.16485,-19.39321 c -0.37331,-1.40707 -1.82164,-2.24629 -3.23247,-1.8664 -0.70641,0.18634 -1.26713,0.64368 -1.60607,1.23003 -0.33669,0.58326 -0.45131,1.29652 -0.2647,1.99994 l 5.14104,19.30362 -7.25213,1.8009 c -0.72394,0.17924 -1.30369,0.64141 -1.65139,1.24332 -0.32855,0.56912 -0.44892,1.26422 -0.27503,1.95468 0.3503,1.41412 1.78381,2.27652 3.19805,1.92608 l 7.33726,-1.82021 4.61088,17.31813 -6.49341,-3.7491 c -1.26386,-0.72956 -2.87916,-0.29596 -3.60882,0.96792 -0.72847,1.26181 -0.29606,2.87642 0.96789,3.60616 l 12.00362,6.93029 c 0.0307,0.0179 0.0652,0.0157 0.0977,0.0316 z"
         inkscape:connector-curvature="0"
         style="display:inline;fill:#cccccc;fill-opacity:1;stroke:#ffffff;stroke-width:2.32839036" />
      <path
         id="path3593"
         d="m 408.05757,538.65071 9.19714,0.91667 c 0.81431,0.0814 1.60056,-0.29543 2.03893,-0.97854 0.44136,-0.68484 0.46037,-1.55782 0.0522,-2.26509 l -1.65663,-2.86937 c 1.41763,-0.41929 3.44116,-0.73527 4.01231,0.25399 l 10.0459,17.40002 c 2.42483,4.19992 7.88629,3.64619 10.6211,2.06725 1.83332,-1.05847 3.13972,-2.73638 3.67947,-4.72956 5e-4,-0.001 0.003,-0.006 0.004,-0.0107 2.08519,0.51041 4.25713,0.15506 5.98802,-0.84428 1.83042,-1.05678 3.13684,-2.73473 3.67514,-4.72707 0.005,-0.013 0.006,-0.0326 0.0114,-0.0476 1.92157,0.33687 3.87891,-0.0103 5.46559,-0.92639 1.83188,-1.05762 3.13828,-2.73556 3.67659,-4.72786 0.41196,-1.51829 0.55746,-3.92786 -1.07914,-6.76255 -0.74734,-1.29441 -2.39451,-1.73569 -3.68405,-0.99118 -1.2895,0.7445 -1.72784,2.39369 -0.98218,3.68523 1.50802,2.61194 -0.10396,3.81063 -0.63327,4.11627 -1.11066,0.64123 -2.83241,0.65373 -4.03145,-1.42309 l -11.42702,-19.79215 c -0.74649,-1.29296 -2.39307,-1.7365 -3.6826,-0.99198 -1.28951,0.74449 -1.72698,2.39513 -0.98215,3.68519 l 11.60622,20.10249 c 1.50801,2.61195 -0.10453,3.81293 -0.63388,4.11855 -3.16176,1.82546 -4.5026,-1.45963 -5.02781,-2.36932 -0.52522,-0.90968 -10.94854,-18.96342 -10.94854,-18.96342 -0.74651,-1.29296 -2.39451,-1.73569 -3.6826,-0.99201 -1.29097,0.74534 -1.72842,2.39599 -0.98359,3.68604 l 11.60592,20.10267 c 1.50801,2.61194 -0.10025,3.81043 -0.63248,4.11771 -1.11065,0.64124 -2.8318,0.6515 -4.03085,-1.42535 l -9.27186,-16.05933 c -2.57346,-4.45737 -8.13657,-3.63669 -11.42195,-2.31839 l -1.58065,-2.73776 c -0.42752,-0.74048 -1.24673,-1.16035 -2.09445,-1.07977 -0.31708,0.0307 -0.60978,0.12648 -0.8723,0.27802 -0.44862,0.259 -0.79672,0.67212 -0.9696,1.1788 l -3.21352,9.44726 c -0.21641,0.62817 -0.13138,1.32155 0.22988,1.88048 0.35913,0.56782 0.95287,0.93082 1.61221,0.99368 z"
         inkscape:connector-curvature="0"
         style="display:inline;fill:#cccccc;fill-opacity:1;stroke:#ffffff;stroke-width:2.32839036" />
      <path
         style="fill:#cccccc;stroke:#ffffff;stroke-width:2.32839036"
         inkscape:connector-curvature="0"
         d="m 325.39647,567.47964 -12.44816,0 c -1.7556,0 -3.17902,1.43291 -3.17902,3.20064 l 0.004,0.63365 c 0.0268,2.44999 0.0822,7.55337 -2.72003,10.41199 -1.52164,1.54992 -3.7523,2.30418 -6.8188,2.30418 -4.45955,0 -7.26172,-1.59312 -8.82444,-5.00798 -1.37698,-3.02063 -1.37698,-6.64431 -1.37519,-8.34004 0,-1.76773 -1.42342,-3.20064 -3.17723,-3.20064 l -12.24635,0 c -1.7556,0 -3.17901,1.43291 -3.17901,3.20064 0,1.76774 1.42341,3.20244 3.17901,3.20244 l 9.16556,0 c 0.16431,2.22857 0.61973,5.08539 1.86276,7.8162 1.8199,3.9891 5.83117,8.73967 14.59668,8.73967 4.78638,0 8.60119,-1.41491 11.34086,-4.20873 3.60943,-3.67588 4.38275,-8.79547 4.53099,-12.34354 l 9.28879,0 c 1.7556,0 3.17901,-1.4329 3.17901,-3.20244 0,-1.77313 -1.42341,-3.20604 -3.17901,-3.20604 z"
         id="path3573" />
      <path
         style="fill:#cccccc;stroke:#ffffff;stroke-width:2.32839036"
         inkscape:connector-curvature="0"
         d="m 274.6019,562.67147 50.79457,0 c 1.7556,0 3.17901,-1.43471 3.17901,-3.20064 0,-1.76954 -1.42341,-3.20425 -3.17901,-3.20425 l -50.79457,0 c -1.75381,0 -3.17722,1.43471 -3.17722,3.20425 0,1.76953 1.42341,3.20064 3.17722,3.20064 z"
         id="path3575" />
      <path
         id="path3605"
         d="m 145.79797,521.42983 c -2.7606,3.34994 -3.40922,7.62384 -1.73791,11.43488 0.87794,2.00047 2.29446,3.58832 3.86741,4.47988 l -1.08078,1.87196 c -2.86508,4.96246 0.7494,8.16449 3.33703,9.65846 1.73373,1.00097 3.72204,1.27931 5.60571,0.78198 10e-4,-0.002 0.003,-0.005 0.015,-10e-4 0.5708,1.94593 1.88759,3.55422 3.52432,4.49919 1.7301,0.99887 3.71969,1.27796 5.60326,0.78056 0.0156,-0.002 0.0299,-0.0124 0.0447,-0.0158 0.63531,1.73094 1.84513,3.16791 3.34367,4.03309 1.73256,1.0003 3.72215,1.27938 5.60581,0.78206 1.43741,-0.37991 3.47695,-1.39464 5.02051,-4.06817 0.70352,-1.21852 0.28696,-2.77337 -0.93285,-3.47763 -1.21843,-0.70345 -2.77463,-0.28758 -3.47814,0.93094 -1.42212,2.46318 -3.16567,1.71211 -3.66732,1.42248 -1.04918,-0.60574 -1.87292,-2.00736 -0.74112,-3.96769 l 10.77187,-18.65742 c 0.70352,-1.21853 0.28557,-2.77418 -0.93285,-3.47764 -1.21853,-0.70352 -2.77536,-0.28632 -3.47815,0.93095 l -10.94217,18.9524 c -1.42212,2.46317 -3.45166,1.54035 -3.97945,1.23563 -0.52769,-0.30466 -2.25492,-1.48939 -0.60429,-4.34838 2.06312,-3.57341 10.79681,-18.57 10.79681,-18.57 0.70352,-1.21853 0.28685,-2.77344 -0.93285,-3.47764 -1.21853,-0.70352 -2.77536,-0.28632 -3.47815,0.93095 l -10.94217,18.9524 c -1.42211,2.46317 -3.16506,1.71081 -3.6666,1.42124 -1.04929,-0.6058 -1.87492,-2.00685 -0.74312,-3.96719 0,0 11.55795,-20.16681 12.31712,-21.47435 2.39871,-0.0158 4.53541,0.3018 5.99103,0.81029 1.32808,0.46473 2.78135,-0.23296 3.24738,-1.56037 0.41041,-1.17367 -0.0882,-2.44565 -1.12875,-3.04641 -0.13435,-0.0776 -0.28245,-0.14315 -0.43303,-0.1985 -1.96393,-0.6858 -4.98639,-1.14469 -8.37963,-1.05921 -1.66215,-2.57106 -4.55064,-5.0154 -6.04854,-6.19221 -1.09723,-0.84756 -2.70963,-0.67321 -3.57503,0.43191 -0.86886,1.10813 -0.67704,2.70748 0.4304,3.57754 1.15039,0.90482 2.29144,1.94364 3.22359,2.90168 -4.41062,0.97672 -8.77776,3.03072 -11.83699,6.74264 z m 12.13927,-1.58951 c -0.56123,0.97208 -1.1935,2.04256 -1.84274,3.16462 -2.07305,3.56104 -4.38826,7.54153 -5.74283,9.88771 -0.48099,-0.31085 -1.26892,-1.09605 -1.74757,-2.36813 -0.43372,-1.15153 -0.86275,-3.44379 1.12401,-5.85314 2.03792,-2.47772 5.05052,-3.99939 8.20913,-4.83106 z"
         inkscape:connector-curvature="0"
         inkscape:transform-center-x="24.993665"
         inkscape:transform-center-y="33.325299"
         style="display:inline;fill:#cccccc;fill-opacity:1;stroke:#ffffff;stroke-width:2.32839036" />
      <path
         id="path3565"
         d="m 58.563953,417.87105 c -0.507799,1.52789 0.318804,3.18771 1.843239,3.69041 1.528819,0.51155 3.179459,-0.31553 3.687943,-1.84453 0.122036,-0.35573 4.95943,-2.43449 6.3999,-0.44073 1.43859,1.99428 -0.465413,5.62985 -2.658877,6.52575 -4.796867,1.95122 -16.194081,7.33795 -18.383803,15.16447 -0.866098,3.09639 -0.214804,6.22275 1.921268,9.10099 3.305149,4.23873 7.014032,6.23395 11.034984,5.92615 5.639131,-0.43019 9.875709,-5.3688 11.884936,-8.24702 0.01655,0.009 0.02624,0.0233 0.04236,0.0325 4.898073,2.82791 11.184082,1.14366 14.011983,-3.75438 2.827153,-4.89689 1.142672,-11.18311 -3.755409,-14.01116 -4.896849,-2.82719 -11.182912,-1.14291 -14.010054,3.75398 -1.750634,3.03226 -1.764941,6.59527 -0.363986,9.54279 -1.276125,2.10949 -4.692161,6.60197 -8.260459,6.8691 -1.947198,0.13693 -3.954931,-1.09779 -5.936336,-3.64445 -1.346468,-1.81057 -1.185703,-3.14877 -0.947433,-3.99717 1.004625,-3.5951 6.878846,-8.04416 14.962829,-11.33388 6.072084,-2.47148 8.282152,-7.69946 5.917349,-13.98374 -1.698936,-3.20759 -6.280753,-4.62483 -8.410878,-4.58248 -3.357527,0.0602 -7.724137,1.47036 -8.980075,5.23303 z m 23.111125,17.19627 c 2.112298,1.21959 2.837428,3.92941 1.619288,6.03944 -1.219551,2.11226 -3.928895,2.83918 -6.041194,1.61959 -2.112259,-1.21947 -2.837439,-3.9294 -1.617878,-6.04167 1.219153,-2.10933 3.928583,-2.8363 6.039784,-1.61736 z"
         inkscape:connector-curvature="0"
         style="display:inline;fill:#cccccc;fill-opacity:1;stroke:#ffffff;stroke-width:2.32839036" />
      <path
         style="fill:#cccccc;fill-opacity:1;stroke:#ffffff;stroke-width:2.32839036"
         inkscape:connector-curvature="0"
         d="m 35.010801,283.0562 c 0.109203,0.1233 8.815664,9.99065 8.574567,21.04287 -1.745831,-1.33795 -3.908618,-2.16849 -6.278466,-2.16849 -5.723942,0 -10.378545,4.65304 -10.378545,10.37332 -0.0014,5.72029 4.654603,10.37333 10.378545,10.37333 5.104179,0 9.333315,-3.70486 10.195593,-8.56058 1.630955,-3.57163 2.314538,-7.13193 2.314538,-10.54482 0,-13.15127 -9.694962,-24.07309 -10.216867,-24.64994 -1.144505,-1.26708 -3.093141,-1.36346 -4.356776,-0.22677 -1.272145,1.14377 -1.371421,3.09258 -0.232589,4.36108 z m 6.496872,29.2477 c 0,2.3159 -1.880561,4.19809 -4.200771,4.19809 -2.317374,0 -4.199354,-1.88219 -4.199354,-4.19809 0,-2.31589 1.88198,-4.19808 4.199354,-4.19808 2.318792,0 4.200771,1.88219 4.200771,4.19808 z"
         id="path3545" />
      <path
         style="fill:#cccccc;fill-opacity:1;stroke:#ffffff;stroke-width:2.32839036"
         inkscape:connector-curvature="0"
         d="m 24.365631,316.94419 c -0.109203,-0.1233 -8.814246,-9.99065 -8.573148,-21.04429 1.745831,1.33795 3.9072,2.16991 6.277048,2.16991 5.723942,0 10.378544,-4.65304 10.378544,-10.37474 0,-5.71887 -4.654602,-10.37191 -10.378544,-10.37191 -5.102761,0 -9.331897,3.70628 -10.194175,8.56058 -1.63521,3.57305 -2.315956,7.13193 -2.315956,10.54482 0,13.15268 9.694961,24.07451 10.216867,24.64994 1.144505,1.2685 3.093141,1.36346 4.355358,0.22677 1.274981,-1.14519 1.374256,-3.094 0.234006,-4.36108 z m -6.496872,-29.24912 c 0,-2.31448 1.88198,-4.19667 4.200772,-4.19667 2.318792,0 4.200772,1.88219 4.200772,4.19667 0,2.31731 -1.88198,4.1995 -4.200772,4.1995 -2.317374,0 -4.200772,-1.88219 -4.200772,-4.1995 z"
         id="path3547" />
      <path
         id="path3559"
         d="m 78.057395,163.67049 -17.034671,-9.83512 c 0.855892,-2.7305 1.012931,-5.16618 0.434301,-7.26866 -0.803508,-2.91299 -2.684252,-4.09616 -3.054104,-4.30358 -1.105049,-0.6195 -2.447095,-0.23204 -3.117936,0.83903 -0.670075,1.08717 -0.321624,2.51438 0.721512,3.23131 1.14251,0.78342 2.251043,4.07939 -1.712968,10.94499 -4.046729,7.00906 -7.75585,7.92849 -9.162914,7.43227 -1.17445,-0.48969 -2.553601,0.009 -3.065369,1.19549 -0.543967,1.18615 -0.02218,2.58895 1.167577,3.13542 0.240713,0.1091 4.707357,2.01877 10.106466,-2.87448 l 17.490161,10.09781 c -2.045239,7.73437 2.137996,10.86708 2.36354,11.02746 1.033982,0.73499 2.421824,0.49248 3.196426,-0.50957 0.772775,-0.99885 0.583217,-2.46935 -0.385894,-3.28682 -1.138548,-0.95869 -2.214414,-4.63078 1.844222,-11.66071 3.964131,-6.86539 7.372738,-7.5541 8.54059,-7.00306 1.122986,0.66686 2.575796,0.29867 3.239942,-0.82365 -0.0028,-0.0173 0.01124,-0.0191 0.01395,-0.0247 0.645118,-1.11765 0.270452,-2.55417 -0.845205,-3.21565 -0.366202,-0.21157 -2.328408,-1.25325 -5.253168,-0.49249 -1.894265,0.49064 -3.727685,1.64075 -5.486381,3.39401 z m -5.542309,8.11263 -16.005165,-9.24059 c 0.627681,-0.86834 1.254743,-1.80362 1.884125,-2.89379 0.280009,-0.48472 0.525388,-0.95757 0.771968,-1.43 l 15.880778,9.16906 c -0.439562,0.6534 -0.875,1.33835 -1.301769,2.07754 -0.463764,0.80333 -0.873441,1.57544 -1.230483,2.31732 z"
         inkscape:connector-curvature="0"
         style="display:inline;fill:#cccccc;stroke:#ffffff;stroke-width:2.32839036" />
      <path
         id="path3599"
         d="m 170.48883,39.40171 0,0 c -0.31024,0.179046 -7.17808,4.320795 -7.2423,15.944941 -1.16781,0.337439 -2.316,0.799777 -3.41522,1.434427 -1.21959,0.704146 -2.29387,1.563637 -3.23629,2.522597 -10.15615,-5.833897 -17.21897,-1.939165 -17.52992,-1.759625 0,0 0,0 -0.007,0.01817 -1.23329,0.711957 -1.64818,2.267479 -0.96016,3.510921 0.69153,1.244578 2.27034,1.69691 3.52965,1.025082 0.20934,-0.106634 4.78901,-2.441505 11.98833,1.529416 -1.99718,4.349417 -1.94246,9.56616 0.6272,14.016949 4.20714,7.286727 13.55984,9.79299 20.84925,5.584445 7.29066,-4.209348 9.79946,-13.562229 5.59173,-20.850234 -2.63767,-4.568566 -7.29913,-7.256072 -12.20423,-7.590409 0.24577,-7.953463 4.3958,-10.716315 4.65678,-10.881859 1.22604,-0.731904 1.63499,-2.310774 0.91608,-3.548331 -0.71763,-1.242978 -2.31196,-1.665242 -3.55859,-0.945573 z m 1.98988,39.301076 c -4.79729,2.769727 -10.9555,1.1213 -13.72476,-3.6752 -2.76991,-4.797621 -1.1197,-10.956799 3.6777,-13.72681 4.80084,-2.771696 10.96004,-1.121065 13.73015,3.676655 2.7689,4.796367 1.11744,10.953611 -3.68309,13.725355 z"
         inkscape:connector-curvature="0"
         style="display:inline;fill:#cccccc;fill-opacity:1;stroke:#ffffff;stroke-width:2.32838988" />
    </g>
  </g>
  <g
     inkscape:groupmode="layer"
     id="layer2"
     inkscape:label="House"
     style="display:inline">
    <rect
       inkscape:label=""
       ry="12.397326"
       rx="1.4043926"
       transform="matrix(0.35602579,0.61665477,-0.06985582,0.04033127,224.60599,119.01622)"
       y="300"
       x="-47.140453"
       height="24.794653"
       width="320.20151"
       id="house-11"
       style="fill:#999999;fill-opacity:1;stroke:none" />
    <rect
       style="fill:#999999;fill-opacity:1;stroke:none"
       id="house-12"
       width="228"
       height="1.9999999"
       x="181.80763"
       y="108.80761"
       transform="matrix(0.8660254,0.50000001,-0.50000009,0.86602535,0,0)"
       rx="1"
       ry="0.99999994"
       inkscape:label="" />
    <rect
       inkscape:label=""
       ry="0.99999994"
       rx="1"
       transform="matrix(0.50000001,-0.8660254,0.86602535,0.50000009,0,0)"
       y="408.80762"
       x="-109.80757"
       height="1.9999999"
       width="227.99998"
       id="house-9"
       style="fill:#999999;fill-opacity:1;stroke:none" />
    <rect
       inkscape:label=""
       ry="0.99999994"
       rx="1"
       transform="matrix(0,1,-1,0,0,0)"
       y="-301.5"
       x="60"
       height="3.0000002"
       width="240"
       id="house-10"
       style="fill:#4d4d4d;fill-opacity:1;stroke:none" />
    <rect
       inkscape:label=""
       ry="0.99999994"
       rx="1"
       transform="matrix(0.86602541,-0.49999999,0.49999994,0.86602544,0,0)"
       y="408.80762"
       x="109.80765"
       height="1.9999999"
       width="228"
       id="house-8"
       style="fill:#999999;fill-opacity:1;stroke:none" />
    <path
       style="fill:#4d4d4d;fill-opacity:1;stroke:none"
       d="m 300,297.5 0,5 238,0 c 1.108,0 2,-0.892 2,-2 l 0,-1 c 0,-1.108 -0.892,-2 -2,-2 l -238,0 z"
       id="house-7"
       inkscape:connector-curvature="0" />
    <rect
       style="fill:#999999;fill-opacity:1;stroke:none"
       id="house-5"
       width="228"
       height="1.9999999"
       x="409.80762"
       y="-110.80762"
       transform="matrix(0.49999999,0.86602541,-0.86602544,0.49999994,0,0)"
       rx="1"
       ry="0.99999994"
       inkscape:label="" />
    <rect
       inkscape:label=""
       ry="0.99999994"
       rx="1"
       transform="matrix(0.8660254,0.50000001,-0.50000009,0.86602535,0,0)"
       y="108.80762"
       x="409.80759"
       height="1.9999999"
       width="228"
       id="house-6"
       style="fill:#999999;fill-opacity:1;stroke:none" />
    <rect
       inkscape:label=""
       ry="12.397326"
       rx="1.4043926"
       transform="matrix(0.61665477,-0.35602579,0.04033127,0.06985582,119.01622,375.39401)"
       y="300"
       x="-47.140453"
       height="24.794653"
       width="320.20151"
       id="house-2"
       style="fill:#999999;fill-opacity:1;stroke:none" />
    <rect
       style="fill:#999999;fill-opacity:1;stroke:none"
       id="house-3"
       width="320.20151"
       height="24.794653"
       x="-47.140453"
       y="300"
       transform="matrix(0.3560258,-0.61665476,0.06985581,0.04033128,180.96045,455.78501)"
       rx="1.4043926"
       ry="12.397326"
       inkscape:label="" />
    <path
       style="fill:#4d4d4d;fill-opacity:1;stroke:none"
       d="M 62 297.5 C 60.892 297.5 60 298.392 60 299.5 L 60 300.5 C 60 301.608 60.892 302.5 62 302.5 L 300 302.5 L 300 297.5 L 62 297.5 z "
       id="house-1" />
    <rect
       style="fill:#4d4d4d;fill-opacity:1;stroke:none"
       id="house-4"
       width="240"
       height="3.0000002"
       x="-540"
       y="-301.5"
       transform="matrix(0,-1,-1,0,0,0)"
       rx="1"
       ry="0.99999994"
       inkscape:label="" />
    <circle
       style="fill:#ffffff;fill-opacity:1;stroke:#999999;stroke-width:2;stroke-linecap:round;stroke-linejoin:round;stroke-miterlimit:2.9000001;stroke-dasharray:none;stroke-dashoffset:0;stroke-opacity:1"
       transform="translate(25,32)"
       cx="275"
       cy="268"
       r="165"
       id="path3020" />
    <circle
       style="fill:#4d4d4d;fill-opacity:1;stroke:none"
       id="path3892"
       cx="300"
       cy="300"
       r="13.5" />
    <g
       transform="translate(-8.8602004,-1.0146835)"
       id="house-1-text"
       style="font-style:normal;font-variant:normal;font-weight:normal;font-stretch:normal;font-size:40px;line-height:125%;font-family:'Cambria Math';-inkscape-font-specification:'Cambria Math';letter-spacing:0px;word-spacing:0px;fill:#ececec;fill-opacity:1;stroke:#ececec;stroke-width:2"
       inkscape:transform-center-y="-200.42092"
       inkscape:transform-center-x="-5.1089144">
      <path
         inkscape:connector-curvature="0"
         id="path3441"
         style="font-style:normal;font-variant:normal;font-weight:normal;font-stretch:normal;font-family:'Cambria Math';-inkscape-font-specification:'Cambria Math';fill:#ececec;stroke:#ececec;stroke-width:2"
         d="m 310.69617,113.03049 q 0,1.3086 0.0781,1.91407 0.0977,0.60547 0.29297,0.95703 0.21484,0.35156 0.60547,0.58594 0.41016,0.23437 1.30859,0.46875 l 0,0.95703 -8.24218,0 0,-0.95703 q 1.21093,-0.3125 1.62109,-0.6836 0.41016,-0.39062 0.52734,-1.09375 0.13672,-0.70312 0.13672,-2.14844 l 0,-16.894527 q 0,-1.347656 -0.0976,-1.953125 -0.0977,-0.625 -0.33204,-0.957031 -0.21484,-0.351562 -0.58593,-0.546875 -0.3711,-0.214844 -1.26953,-0.46875 l 0,-0.957031 8.24218,0 0,0.957031 q -0.85937,0.214844 -1.25,0.429688 -0.37109,0.214843 -0.60547,0.546875 -0.21484,0.3125 -0.33203,0.957031 -0.0976,0.644531 -0.0976,1.992187 l 0,16.894527 z" />
    </g>
    <g
       transform="translate(1.3814096,1.2878455)"
       id="house-10-text"
       style="font-style:normal;font-variant:normal;font-weight:normal;font-stretch:normal;font-size:40px;line-height:125%;font-family:'Cambria Math';-inkscape-font-specification:'Cambria Math';letter-spacing:0px;word-spacing:0px;fill:#ececec;fill-opacity:1;stroke:#ececec;stroke-width:2"
       inkscape:transform-center-y="-198.18253"
       inkscape:transform-center-x="-1.5495606e-005">
      <path
         inkscape:connector-curvature="0"
         id="path3444"
         style="font-style:normal;font-variant:normal;font-weight:normal;font-stretch:normal;font-family:'Cambria Math';-inkscape-font-specification:'Cambria Math';fill:#ececec;stroke:#ececec;stroke-width:2"
         d="m 296.58737,88.950623 0,0.957031 q -0.9375,0.136719 -1.34765,0.507812 -0.41016,0.371094 -0.41016,1.015625 0,0.546875 0.37109,1.367188 0.3711,0.820312 1.05469,1.953125 l 2.83203,4.746094 2.79297,-4.511719 q 0.625,-1.015625 0.9375,-1.621094 0.3125,-0.605469 0.42969,-1.015625 0.13672,-0.410156 0.13672,-0.839844 0,-0.605468 -0.35157,-1.015625 -0.35156,-0.429687 -1.17187,-0.585937 l 0,-0.957031 7.24609,0 0,0.957031 q -0.72265,0.234375 -1.30859,0.683594 -0.56641,0.449218 -1.23047,1.308593 -0.64453,0.859375 -1.85547,2.714844 l -4.41406,6.835935 4.96094,8.16407 q 1.05468,1.73828 1.5039,2.4414 0.46875,0.6836 0.85938,1.17188 0.41015,0.46875 0.85937,0.82031 0.46875,0.35156 1.15235,0.60547 l 0,0.95703 -8.57422,0 0,-0.95703 q 0.89844,-0.15625 1.32812,-0.48828 0.42969,-0.35157 0.42969,-1.03516 0,-0.54687 -0.29297,-1.21094 -0.27344,-0.66406 -0.85937,-1.64062 l -3.53516,-5.89844 -3.73047,6.11328 q -0.9375,1.54297 -0.9375,2.53906 0,0.64454 0.35156,1.05469 0.35157,0.41016 1.17188,0.56641 l 0,0.95703 -7.38281,0 0,-0.95703 q 0.72265,-0.21485 1.1914,-0.50781 0.46875,-0.3125 0.89844,-0.78125 0.42969,-0.46875 0.95703,-1.19141 0.52735,-0.72266 1.67969,-2.51953 l 4.60937,-7.1875 -5.50781,-9.062502 q -0.78125,-1.25 -1.1914,-1.816407 -0.39063,-0.566406 -0.74219,-0.917968 -0.33203,-0.351563 -0.60547,-0.488282 -0.27344,-0.15625 -0.625,-0.273437 l 0,-0.957031 8.32031,0 z" />
    </g>
    <g
       transform="translate(1.6061296,0.0178435)"
       id="house-11-text"
       style="font-style:normal;font-variant:normal;font-weight:normal;font-stretch:normal;font-size:40px;line-height:125%;font-family:'Cambria Math';-inkscape-font-specification:'Cambria Math';letter-spacing:0px;word-spacing:0px;fill:#ececec;fill-opacity:1;stroke:#ececec;stroke-width:2"
       inkscape:transform-center-y="-198.18254"
       inkscape:transform-center-x="1.3256103e-005">
      <path
         inkscape:connector-curvature="0"
         id="path3447"
         style="font-style:normal;font-variant:normal;font-weight:normal;font-stretch:normal;font-family:'Cambria Math';-inkscape-font-specification:'Cambria Math';fill:#ececec;stroke:#ececec;stroke-width:2"
         d="m 290.83533,90.220627 0,0.957031 q -0.9375,0.136719 -1.34766,0.507813 -0.41016,0.371093 -0.41016,1.015625 0,0.546875 0.3711,1.367187 0.37109,0.820313 1.05469,1.953125 l 2.83203,4.746092 2.79297,-4.511717 q 0.625,-1.015625 0.9375,-1.621094 0.3125,-0.605468 0.42968,-1.015625 0.13672,-0.410156 0.13672,-0.839843 0,-0.605469 -0.35156,-1.015625 -0.35156,-0.429688 -1.17188,-0.585938 l 0,-0.957031 7.2461,0 0,0.957031 q -0.72266,0.234375 -1.3086,0.683594 -0.5664,0.449219 -1.23046,1.308594 -0.64454,0.859375 -1.85547,2.714843 l -4.41407,6.835941 4.96094,8.16406 q 1.05469,1.73828 1.50391,2.44141 0.46875,0.68359 0.85937,1.17187 0.41016,0.46875 0.85938,0.82031 0.46875,0.35157 1.15234,0.60547 l 0,0.95703 -8.57422,0 0,-0.95703 q 0.89844,-0.15625 1.32813,-0.48828 0.42969,-0.35156 0.42969,-1.03516 0,-0.54687 -0.29297,-1.21093 -0.27344,-0.66407 -0.85938,-1.64063 l -3.53515,-5.89844 -3.73047,6.11329 q -0.9375,1.54296 -0.9375,2.53906 0,0.64453 0.35156,1.05469 0.35156,0.41015 1.17187,0.5664 l 0,0.95703 -7.38281,0 0,-0.95703 q 0.72266,-0.21484 1.19141,-0.50781 0.46875,-0.3125 0.89844,-0.78125 0.42968,-0.46875 0.95703,-1.19141 0.52734,-0.72265 1.67968,-2.51953 l 4.60938,-7.1875 -5.50781,-9.062498 q -0.78125,-1.25 -1.19141,-1.816406 -0.39062,-0.566407 -0.74219,-0.917969 -0.33203,-0.351563 -0.60547,-0.488281 -0.27343,-0.15625 -0.625,-0.273438 l 0,-0.957031 8.32032,0 z" />
      <path
         inkscape:connector-curvature="0"
         id="path3449"
         style="font-style:normal;font-variant:normal;font-weight:normal;font-stretch:normal;font-family:'Cambria Math';-inkscape-font-specification:'Cambria Math';fill:#ececec;stroke:#ececec;stroke-width:2"
         d="m 312.65173,111.99797 q 0,1.30859 0.0781,1.91406 0.0977,0.60547 0.29297,0.95703 0.21484,0.35157 0.60547,0.58594 0.41015,0.23438 1.30859,0.46875 l 0,0.95703 -8.24219,0 0,-0.95703 q 1.21094,-0.3125 1.6211,-0.68359 0.41015,-0.39063 0.52734,-1.09375 0.13672,-0.70313 0.13672,-2.14844 l 0,-16.894531 q 0,-1.347656 -0.0977,-1.953125 -0.0976,-0.625 -0.33203,-0.957031 -0.21484,-0.351562 -0.58594,-0.546875 -0.37109,-0.214844 -1.26953,-0.46875 l 0,-0.957031 8.24219,0 0,0.957031 q -0.85938,0.214844 -1.25,0.429688 -0.37109,0.214843 -0.60547,0.546875 -0.21484,0.3125 -0.33203,0.957031 -0.0977,0.644531 -0.0977,1.992187 l 0,16.894531 z" />
    </g>
    <g
       transform="translate(0.6759846,-1.1189665)"
       id="house-12-text"
       style="font-style:normal;font-variant:normal;font-weight:normal;font-stretch:normal;font-size:40px;line-height:125%;font-family:'Cambria Math';-inkscape-font-specification:'Cambria Math';letter-spacing:0px;word-spacing:0px;fill:#ececec;fill-opacity:1;stroke:#ececec;stroke-width:2"
       inkscape:transform-center-y="-198.18252">
      <path
         inkscape:connector-curvature="0"
         id="path3452"
         style="font-style:normal;font-variant:normal;font-weight:normal;font-stretch:normal;font-family:'Cambria Math';-inkscape-font-specification:'Cambria Math';fill:#ececec;stroke:#ececec;stroke-width:2"
         d="m 285.2811,91.357437 0,0.957031 q -0.9375,0.136719 -1.34766,0.507813 -0.41016,0.371094 -0.41016,1.015625 0,0.546875 0.3711,1.367187 0.37109,0.820313 1.05469,1.953125 l 2.83203,4.746092 2.79297,-4.511717 q 0.625,-1.015625 0.9375,-1.621093 0.3125,-0.605469 0.42968,-1.015625 0.13672,-0.410157 0.13672,-0.839844 0,-0.605469 -0.35156,-1.015625 -0.35156,-0.429688 -1.17188,-0.585938 l 0,-0.957031 7.2461,0 0,0.957031 q -0.72266,0.234375 -1.3086,0.683594 -0.5664,0.449219 -1.23046,1.308594 -0.64454,0.859375 -1.85547,2.714844 l -4.41407,6.83594 4.96094,8.16406 q 1.05469,1.73828 1.50391,2.44141 0.46875,0.68359 0.85937,1.17187 0.41016,0.46875 0.85938,0.82031 0.46875,0.35157 1.15234,0.60547 l 0,0.95703 -8.57422,0 0,-0.95703 q 0.89844,-0.15625 1.32813,-0.48828 0.42969,-0.35156 0.42969,-1.03516 0,-0.54687 -0.29297,-1.21093 -0.27344,-0.66407 -0.85938,-1.64063 l -3.53515,-5.89844 -3.73047,6.11329 q -0.9375,1.54296 -0.9375,2.53906 0,0.64453 0.35156,1.05469 0.35156,0.41015 1.17187,0.5664 l 0,0.95703 -7.38281,0 0,-0.95703 q 0.72266,-0.21484 1.19141,-0.50781 0.46875,-0.3125 0.89844,-0.78125 0.42968,-0.46875 0.95703,-1.19141 0.52734,-0.72265 1.67968,-2.51953 l 4.60938,-7.1875 -5.50781,-9.062498 q -0.78125,-1.25 -1.19141,-1.816406 -0.39062,-0.566406 -0.74219,-0.917969 -0.33203,-0.351562 -0.60547,-0.488281 -0.27343,-0.15625 -0.625,-0.273438 l 0,-0.957031 8.32032,0 z" />
      <path
         inkscape:connector-curvature="0"
         id="path3454"
         style="font-style:normal;font-variant:normal;font-weight:normal;font-stretch:normal;font-family:'Cambria Math';-inkscape-font-specification:'Cambria Math';fill:#ececec;stroke:#ececec;stroke-width:2"
         d="m 307.0975,113.13478 q 0,1.30859 0.0781,1.91406 0.0976,0.60547 0.29297,0.95703 0.21484,0.35157 0.60547,0.58594 0.41015,0.23438 1.30859,0.46875 l 0,0.95703 -8.24219,0 0,-0.95703 q 1.21094,-0.3125 1.6211,-0.68359 0.41015,-0.39063 0.52734,-1.09375 0.13672,-0.70313 0.13672,-2.14844 l 0,-16.89453 q 0,-1.347657 -0.0977,-1.953125 -0.0976,-0.625 -0.33203,-0.957032 -0.21484,-0.351562 -0.58594,-0.546875 -0.37109,-0.214843 -1.26953,-0.46875 l 0,-0.957031 8.24219,0 0,0.957031 q -0.85938,0.214844 -1.25,0.429688 -0.37109,0.214844 -0.60547,0.546875 -0.21484,0.3125 -0.33203,0.957031 -0.0977,0.644531 -0.0977,1.992188 l 0,16.89453 z" />
      <path
         inkscape:connector-curvature="0"
         id="path3456"
         style="font-style:normal;font-variant:normal;font-weight:normal;font-stretch:normal;font-family:'Cambria Math';-inkscape-font-specification:'Cambria Math';fill:#ececec;stroke:#ececec;stroke-width:2"
         d="m 320.06625,113.13478 q 0,1.30859 0.0781,1.91406 0.0976,0.60547 0.29297,0.95703 0.21484,0.35157 0.60547,0.58594 0.41015,0.23438 1.30859,0.46875 l 0,0.95703 -8.24219,0 0,-0.95703 q 1.21094,-0.3125 1.6211,-0.68359 0.41015,-0.39063 0.52734,-1.09375 0.13672,-0.70313 0.13672,-2.14844 l 0,-16.89453 q 0,-1.347657 -0.0977,-1.953125 -0.0976,-0.625 -0.33203,-0.957032 -0.21484,-0.351562 -0.58594,-0.546875 -0.37109,-0.214843 -1.26953,-0.46875 l 0,-0.957031 8.24219,0 0,0.957031 q -0.85938,0.214844 -1.25,0.429688 -0.37109,0.214844 -0.60547,0.546875 -0.21484,0.3125 -0.33203,0.957031 -0.0977,0.644531 -0.0977,1.992188 l 0,16.89453 z" />
    </g>
    <g
       transform="translate(-5.3551254,0.155995)"
       id="house-9-text"
       style="font-style:normal;font-variant:normal;font-weight:normal;font-stretch:normal;font-size:40px;line-height:125%;font-family:'Cambria Math';-inkscape-font-specification:'Cambria Math';letter-spacing:0px;word-spacing:0px;fill:#ececec;fill-opacity:1;stroke:#ececec;stroke-width:2"
       inkscape:transform-center-y="-198.18244">
      <path
         inkscape:connector-curvature="0"
         id="path3459"
         style="font-style:normal;font-variant:normal;font-weight:normal;font-stretch:normal;font-family:'Cambria Math';-inkscape-font-specification:'Cambria Math';fill:#ececec;stroke:#ececec;stroke-width:2"
         d="m 294.78879,111.85982 q 0,1.30859 0.0781,1.91406 0.0977,0.60547 0.29297,0.95703 0.21485,0.35156 0.60547,0.58594 0.41016,0.23437 1.30859,0.46875 l 0,0.95703 -8.24218,0 0,-0.95703 q 1.21093,-0.3125 1.62109,-0.68359 0.41016,-0.39063 0.52734,-1.09375 0.13672,-0.70313 0.13672,-2.14844 l 0,-16.894534 q 0,-1.347656 -0.0977,-1.953125 -0.0977,-0.625 -0.33203,-0.957031 -0.21485,-0.351562 -0.58594,-0.546875 -0.3711,-0.214844 -1.26953,-0.46875 l 0,-0.957031 8.24218,0 0,0.957031 q -0.85937,0.214844 -1.25,0.429688 -0.37109,0.214843 -0.60546,0.546875 -0.21485,0.3125 -0.33204,0.957031 -0.0976,0.644531 -0.0976,1.992187 l 0,16.894534 z" />
      <path
         inkscape:connector-curvature="0"
         id="path3461"
         style="font-style:normal;font-variant:normal;font-weight:normal;font-stretch:normal;font-family:'Cambria Math';-inkscape-font-specification:'Cambria Math';fill:#ececec;stroke:#ececec;stroke-width:2"
         d="m 308.83176,90.082474 0,0.957031 q -0.9375,0.136719 -1.34766,0.507813 -0.41016,0.371093 -0.41016,1.015625 0,0.546875 0.3711,1.367187 0.37109,0.820313 1.05469,1.953125 l 2.83203,4.746095 2.79297,-4.51172 q 0.625,-1.015625 0.9375,-1.621094 0.3125,-0.605468 0.42968,-1.015625 0.13672,-0.410156 0.13672,-0.839843 0,-0.605469 -0.35156,-1.015625 -0.35156,-0.429688 -1.17188,-0.585938 l 0,-0.957031 7.2461,0 0,0.957031 q -0.72266,0.234375 -1.3086,0.683594 -0.5664,0.449219 -1.23046,1.308594 -0.64454,0.859375 -1.85547,2.714843 l -4.41407,6.835934 4.96094,8.16407 q 1.05469,1.73828 1.50391,2.4414 0.46875,0.6836 0.85937,1.17188 0.41016,0.46875 0.85938,0.82031 0.46875,0.35156 1.15234,0.60547 l 0,0.95703 -8.57422,0 0,-0.95703 q 0.89844,-0.15625 1.32813,-0.48828 0.42969,-0.35156 0.42969,-1.03516 0,-0.54687 -0.29297,-1.21094 -0.27344,-0.66406 -0.85938,-1.64062 l -3.53515,-5.89844 -3.73047,6.11328 q -0.9375,1.54297 -0.9375,2.53907 0,0.64453 0.35156,1.05468 0.35156,0.41016 1.17187,0.56641 l 0,0.95703 -7.38281,0 0,-0.95703 q 0.72266,-0.21484 1.19141,-0.50781 0.46875,-0.3125 0.89844,-0.78125 0.42968,-0.46875 0.95703,-1.19141 0.52734,-0.72266 1.67968,-2.51953 l 4.60938,-7.1875 -5.50781,-9.062501 q -0.78125,-1.25 -1.19141,-1.816406 -0.39062,-0.566407 -0.74219,-0.917969 -0.33203,-0.351563 -0.60547,-0.488281 -0.27343,-0.15625 -0.625,-0.273438 l 0,-0.957031 8.32032,0 z" />
    </g>
    <g
       transform="translate(-4.1072654,-0.941546)"
       id="house-7-text"
       style="font-style:normal;font-variant:normal;font-weight:normal;font-stretch:normal;font-size:40px;line-height:125%;font-family:'Cambria Math';-inkscape-font-specification:'Cambria Math';letter-spacing:0px;word-spacing:0px;fill:#ececec;fill-opacity:1;stroke:#ececec;stroke-width:2"
       inkscape:transform-center-y="-198.17474"
       inkscape:transform-center-x="-0.029041014">
      <path
         inkscape:connector-curvature="0"
         id="path3464"
         style="font-style:normal;font-variant:normal;font-weight:normal;font-stretch:normal;font-family:'Cambria Math';-inkscape-font-specification:'Cambria Math';fill:#ececec;stroke:#ececec;stroke-width:2"
         d="m 289.29285,91.023766 0,0.957031 q -0.89844,0.15625 -1.36719,0.390625 -0.46875,0.234375 -0.70313,0.664062 -0.23437,0.429688 -0.23437,1.152344 0,0.664063 0.15625,1.445313 0.15625,0.761718 0.44922,1.71875 l 4.57031,15.937499 5.60547,-16.054687 q 0.11719,-0.371094 0.23437,-0.78125 0.11719,-0.410156 0.19532,-0.800781 0.0976,-0.390625 0.11718,-0.683594 0.0391,-0.292969 0.0391,-0.546875 0,-1.171875 -0.54688,-1.699219 -0.52734,-0.546875 -1.8164,-0.742187 l 0,-0.957031 8.20312,0 0,0.957031 q -0.80078,0.195312 -1.28906,0.566406 -0.48828,0.371094 -0.97656,1.191406 -0.46875,0.820313 -1.15235,2.617188 l -8.10547,21.640623 -2.55859,0 -6.58203,-21.777342 q -0.52735,-1.777344 -0.91797,-2.519531 -0.39063,-0.761719 -0.85938,-1.132813 -0.46875,-0.390625 -1.28906,-0.585937 l 0,-0.957031 8.82813,0 z" />
      <path
         inkscape:connector-curvature="0"
         id="path3466"
         style="font-style:normal;font-variant:normal;font-weight:normal;font-stretch:normal;font-family:'Cambria Math';-inkscape-font-specification:'Cambria Math';fill:#ececec;stroke:#ececec;stroke-width:2"
         d="m 312.49597,112.80111 q 0,1.30859 0.0781,1.91406 0.0976,0.60547 0.29297,0.95703 0.21484,0.35157 0.60546,0.58594 0.41016,0.23438 1.3086,0.46875 l 0,0.95703 -8.24219,0 0,-0.95703 q 1.21094,-0.3125 1.62109,-0.68359 0.41016,-0.39063 0.52735,-1.09375 0.13672,-0.70313 0.13672,-2.14844 l 0,-16.894532 q 0,-1.347656 -0.0977,-1.953125 -0.0977,-0.625 -0.33203,-0.957031 -0.21484,-0.351563 -0.58594,-0.546875 -0.37109,-0.214844 -1.26953,-0.46875 l 0,-0.957031 8.24219,0 0,0.957031 q -0.85938,0.214844 -1.25,0.429687 -0.3711,0.214844 -0.60547,0.546875 -0.21484,0.3125 -0.33203,0.957032 -0.0977,0.644531 -0.0977,1.992187 l 0,16.894532 z" />
      <path
         inkscape:connector-curvature="0"
         id="path3468"
         style="font-style:normal;font-variant:normal;font-weight:normal;font-stretch:normal;font-family:'Cambria Math';-inkscape-font-specification:'Cambria Math';fill:#ececec;stroke:#ececec;stroke-width:2"
         d="m 325.46472,112.80111 q 0,1.30859 0.0781,1.91406 0.0976,0.60547 0.29297,0.95703 0.21484,0.35157 0.60546,0.58594 0.41016,0.23438 1.3086,0.46875 l 0,0.95703 -8.24219,0 0,-0.95703 q 1.21094,-0.3125 1.62109,-0.68359 0.41016,-0.39063 0.52735,-1.09375 0.13672,-0.70313 0.13672,-2.14844 l 0,-16.894532 q 0,-1.347656 -0.0977,-1.953125 -0.0977,-0.625 -0.33203,-0.957031 -0.21484,-0.351563 -0.58594,-0.546875 -0.37109,-0.214844 -1.26953,-0.46875 l 0,-0.957031 8.24219,0 0,0.957031 q -0.85938,0.214844 -1.25,0.429687 -0.3711,0.214844 -0.60547,0.546875 -0.21484,0.3125 -0.33203,0.957032 -0.0977,0.644531 -0.0977,1.992187 l 0,16.894532 z" />
    </g>
    <g
       transform="translate(-3.3452754,-0.3314335)"
       id="house-6-text"
       style="font-style:normal;font-variant:normal;font-weight:normal;font-stretch:normal;font-size:40px;line-height:125%;font-family:'Cambria Math';-inkscape-font-specification:'Cambria Math';letter-spacing:0px;word-spacing:0px;fill:#ececec;fill-opacity:1;stroke:#ececec;stroke-width:2"
       inkscape:transform-center-y="-198.07409"
       inkscape:transform-center-x="-0.029061699">
      <path
         inkscape:connector-curvature="0"
         id="path3471"
         style="font-style:normal;font-variant:normal;font-weight:normal;font-stretch:normal;font-family:'Cambria Math';-inkscape-font-specification:'Cambria Math';fill:#ececec;stroke:#ececec;stroke-width:2"
         d="m 295.01523,90.413651 0,0.957031 q -0.89844,0.15625 -1.36719,0.390625 -0.46875,0.234375 -0.70312,0.664062 -0.23438,0.429688 -0.23438,1.152344 0,0.664063 0.15625,1.445313 0.15625,0.761718 0.44922,1.71875 l 4.57031,15.937504 5.60547,-16.054692 q 0.11719,-0.371094 0.23438,-0.78125 0.11718,-0.410156 0.19531,-0.800781 0.0977,-0.390625 0.11719,-0.683594 0.0391,-0.292969 0.0391,-0.546875 0,-1.171875 -0.54688,-1.699219 -0.52734,-0.546875 -1.8164,-0.742187 l 0,-0.957031 8.20312,0 0,0.957031 q -0.80078,0.195312 -1.28906,0.566406 -0.48828,0.371094 -0.97656,1.191406 -0.46875,0.820313 -1.15235,2.617188 l -8.10547,21.640628 -2.55859,0 -6.58203,-21.777347 q -0.52734,-1.777344 -0.91797,-2.519531 -0.39062,-0.761719 -0.85937,-1.132813 -0.46875,-0.390625 -1.28907,-0.585937 l 0,-0.957031 8.82813,0 z" />
      <path
         inkscape:connector-curvature="0"
         id="path3473"
         style="font-style:normal;font-variant:normal;font-weight:normal;font-stretch:normal;font-family:'Cambria Math';-inkscape-font-specification:'Cambria Math';fill:#ececec;stroke:#ececec;stroke-width:2"
         d="m 318.21835,112.19099 q 0,1.3086 0.0781,1.91407 0.0977,0.60547 0.29297,0.95703 0.21484,0.35156 0.60547,0.58594 0.41015,0.23437 1.30859,0.46875 l 0,0.95703 -8.24219,0 0,-0.95703 q 1.21094,-0.3125 1.6211,-0.6836 0.41015,-0.39062 0.52734,-1.09375 0.13672,-0.70312 0.13672,-2.14844 l 0,-16.894527 q 0,-1.347656 -0.0977,-1.953125 -0.0976,-0.625 -0.33203,-0.957031 -0.21484,-0.351563 -0.58594,-0.546875 -0.37109,-0.214844 -1.26953,-0.46875 l 0,-0.957031 8.24219,0 0,0.957031 q -0.85938,0.214844 -1.25,0.429687 -0.37109,0.214844 -0.60547,0.546875 -0.21484,0.3125 -0.33203,0.957032 -0.0977,0.644531 -0.0977,1.992187 l 0,16.894527 z" />
    </g>
    <g
       transform="translate(-3.5628304,0.527594)"
       id="house-5-text"
       style="font-style:normal;font-variant:normal;font-weight:normal;font-stretch:normal;font-size:40px;line-height:125%;font-family:'Cambria Math';-inkscape-font-specification:'Cambria Math';letter-spacing:0px;word-spacing:0px;fill:#ececec;fill-opacity:1;stroke:#ececec;stroke-width:2"
       inkscape:transform-center-y="-198.18257"
       inkscape:transform-center-x="4.3900972e-005">
      <path
         inkscape:connector-curvature="0"
         id="path3476"
         style="font-style:normal;font-variant:normal;font-weight:normal;font-stretch:normal;font-family:'Cambria Math';-inkscape-font-specification:'Cambria Math';fill:#ececec;stroke:#ececec;stroke-width:2"
         d="m 300.52573,89.554626 0,0.957032 q -0.89844,0.15625 -1.36719,0.390625 -0.46875,0.234375 -0.70313,0.664062 -0.23437,0.429688 -0.23437,1.152344 0,0.664062 0.15625,1.445312 0.15625,0.761719 0.44922,1.71875 l 4.57031,15.937499 5.60547,-16.054686 q 0.11719,-0.371094 0.23437,-0.78125 0.11719,-0.410156 0.19532,-0.800781 0.0976,-0.390625 0.11718,-0.683594 0.0391,-0.292969 0.0391,-0.546875 0,-1.171875 -0.54688,-1.699219 -0.52734,-0.546875 -1.8164,-0.742187 l 0,-0.957032 8.20312,0 0,0.957032 q -0.80078,0.195312 -1.28906,0.566406 -0.48828,0.371094 -0.97656,1.191406 -0.46875,0.820313 -1.15235,2.617188 l -8.10547,21.640622 -2.55859,0 -6.58203,-21.777341 q -0.52735,-1.777344 -0.91797,-2.519531 -0.39063,-0.761719 -0.85938,-1.132813 -0.46875,-0.390625 -1.28906,-0.585937 l 0,-0.957032 8.82813,0 z" />
    </g>
    <g
       transform="translate(-2.7555954,0.742466)"
       id="house-4-text"
       style="font-style:normal;font-variant:normal;font-weight:normal;font-stretch:normal;font-size:40px;line-height:125%;font-family:'Cambria Math';-inkscape-font-specification:'Cambria Math';letter-spacing:0px;word-spacing:0px;fill:#ececec;fill-opacity:1;stroke:#ececec;stroke-width:2"
       inkscape:transform-center-y="-198.07406"
       inkscape:transform-center-x="0.029077466">
      <path
         inkscape:connector-curvature="0"
         id="path3479"
         style="font-style:normal;font-variant:normal;font-weight:normal;font-stretch:normal;font-family:'Cambria Math';-inkscape-font-specification:'Cambria Math';fill:#ececec;stroke:#ececec;stroke-width:2"
         d="m 291.32986,111.1171 q 0,1.30859 0.0781,1.91406 0.0977,0.60547 0.29297,0.95703 0.21484,0.35156 0.60547,0.58594 0.41015,0.23437 1.30859,0.46875 l 0,0.95703 -8.24219,0 0,-0.95703 q 1.21094,-0.3125 1.6211,-0.6836 0.41015,-0.39062 0.52734,-1.09375 0.13672,-0.70312 0.13672,-2.14843 l 0,-16.894535 q 0,-1.347657 -0.0977,-1.953125 -0.0977,-0.625 -0.33203,-0.957032 -0.21484,-0.351562 -0.58594,-0.546875 -0.37109,-0.214843 -1.26953,-0.46875 l 0,-0.957031 8.24219,0 0,0.957031 q -0.85937,0.214844 -1.25,0.429688 -0.37109,0.214844 -0.60547,0.546875 -0.21484,0.3125 -0.33203,0.957031 -0.0977,0.644531 -0.0977,1.992188 l 0,16.894535 z" />
      <path
         inkscape:connector-curvature="0"
         id="path3481"
         style="font-style:normal;font-variant:normal;font-weight:normal;font-stretch:normal;font-family:'Cambria Math';-inkscape-font-specification:'Cambria Math';fill:#ececec;stroke:#ececec;stroke-width:2"
         d="m 305.23611,89.339752 0,0.957031 q -0.89843,0.15625 -1.36718,0.390625 -0.46875,0.234375 -0.70313,0.664063 -0.23437,0.429687 -0.23437,1.152344 0,0.664062 0.15625,1.445312 0.15625,0.761719 0.44922,1.71875 l 4.57031,15.937503 5.60547,-16.05469 q 0.11718,-0.371094 0.23437,-0.78125 0.11719,-0.410157 0.19531,-0.800782 0.0977,-0.390625 0.11719,-0.683593 0.0391,-0.292969 0.0391,-0.546875 0,-1.171875 -0.54687,-1.699219 -0.52734,-0.546875 -1.81641,-0.742188 l 0,-0.957031 8.20313,0 0,0.957031 q -0.80078,0.195313 -1.28906,0.566407 -0.48829,0.371093 -0.97657,1.191406 -0.46875,0.820312 -1.15234,2.617187 l -8.10547,21.640627 -2.55859,0 -6.58203,-21.777345 q -0.52735,-1.777344 -0.91797,-2.519532 -0.39063,-0.761718 -0.85938,-1.132812 -0.46875,-0.390625 -1.28906,-0.585938 l 0,-0.957031 8.82812,0 z" />
    </g>
    <g
       transform="translate(-1.8270404,1.354565)"
       id="house-3-text"
       style="font-style:normal;font-variant:normal;font-weight:normal;font-stretch:normal;font-size:40px;line-height:125%;font-family:'Cambria Math';-inkscape-font-specification:'Cambria Math';letter-spacing:0px;word-spacing:0px;fill:#ececec;fill-opacity:1;stroke:#ececec;stroke-width:2"
       inkscape:transform-center-y="-198.18252"
       inkscape:transform-center-x="2.9947442e-005">
      <path
         inkscape:connector-curvature="0"
         id="path3484"
         style="font-style:normal;font-variant:normal;font-weight:normal;font-stretch:normal;font-family:'Cambria Math';-inkscape-font-specification:'Cambria Math';fill:#ececec;stroke:#ececec;stroke-width:2"
         d="m 290.69431,110.66125 q 0,1.30859 0.0781,1.91406 0.0977,0.60547 0.29297,0.95703 0.21484,0.35156 0.60547,0.58594 0.41015,0.23437 1.30859,0.46875 l 0,0.95703 -8.24219,0 0,-0.95703 q 1.21094,-0.3125 1.6211,-0.6836 0.41015,-0.39062 0.52734,-1.09375 0.13672,-0.70312 0.13672,-2.14843 l 0,-16.894534 q 0,-1.347656 -0.0977,-1.953125 -0.0977,-0.625 -0.33203,-0.957031 -0.21484,-0.351563 -0.58593,-0.546875 -0.3711,-0.214844 -1.26954,-0.46875 l 0,-0.957031 8.24219,0 0,0.957031 q -0.85937,0.214844 -1.25,0.429687 -0.37109,0.214844 -0.60547,0.546875 -0.21484,0.3125 -0.33203,0.957032 -0.0977,0.644531 -0.0977,1.992187 l 0,16.894534 z" />
      <path
         inkscape:connector-curvature="0"
         id="path3486"
         style="font-style:normal;font-variant:normal;font-weight:normal;font-stretch:normal;font-family:'Cambria Math';-inkscape-font-specification:'Cambria Math';fill:#ececec;stroke:#ececec;stroke-width:2"
         d="m 303.66306,110.66125 q 0,1.30859 0.0781,1.91406 0.0977,0.60547 0.29297,0.95703 0.21484,0.35156 0.60547,0.58594 0.41015,0.23437 1.30859,0.46875 l 0,0.95703 -8.24219,0 0,-0.95703 q 1.21094,-0.3125 1.6211,-0.6836 0.41015,-0.39062 0.52734,-1.09375 0.13672,-0.70312 0.13672,-2.14843 l 0,-16.894534 q 0,-1.347656 -0.0977,-1.953125 -0.0977,-0.625 -0.33203,-0.957031 -0.21484,-0.351563 -0.58593,-0.546875 -0.3711,-0.214844 -1.26954,-0.46875 l 0,-0.957031 8.24219,0 0,0.957031 q -0.85937,0.214844 -1.25,0.429687 -0.37109,0.214844 -0.60547,0.546875 -0.21484,0.3125 -0.33203,0.957032 -0.0977,0.644531 -0.0977,1.992187 l 0,16.894534 z" />
      <path
         inkscape:connector-curvature="0"
         id="path3488"
         style="font-style:normal;font-variant:normal;font-weight:normal;font-stretch:normal;font-family:'Cambria Math';-inkscape-font-specification:'Cambria Math';fill:#ececec;stroke:#ececec;stroke-width:2"
         d="m 316.63181,110.66125 q 0,1.30859 0.0781,1.91406 0.0977,0.60547 0.29297,0.95703 0.21484,0.35156 0.60547,0.58594 0.41015,0.23437 1.30859,0.46875 l 0,0.95703 -8.24219,0 0,-0.95703 q 1.21094,-0.3125 1.6211,-0.6836 0.41015,-0.39062 0.52734,-1.09375 0.13672,-0.70312 0.13672,-2.14843 l 0,-16.894534 q 0,-1.347656 -0.0977,-1.953125 -0.0977,-0.625 -0.33203,-0.957031 -0.21484,-0.351563 -0.58593,-0.546875 -0.3711,-0.214844 -1.26954,-0.46875 l 0,-0.957031 8.24219,0 0,0.957031 q -0.85937,0.214844 -1.25,0.429687 -0.37109,0.214844 -0.60547,0.546875 -0.21484,0.3125 -0.33203,0.957032 -0.0977,0.644531 -0.0977,1.992187 l 0,16.894534 z" />
    </g>
    <g
       transform="translate(-0.9697054,0.908475)"
       id="house-2-text"
       style="font-style:normal;font-variant:normal;font-weight:normal;font-stretch:normal;font-size:40px;line-height:125%;font-family:'Cambria Math';-inkscape-font-specification:'Cambria Math';letter-spacing:0px;word-spacing:0px;fill:#ececec;fill-opacity:1;stroke:#ececec;stroke-width:2"
       inkscape:transform-center-y="-198.18255"
       inkscape:transform-center-x="-1.2008027e-005">
      <path
         inkscape:connector-curvature="0"
         id="path3491"
         style="font-style:normal;font-variant:normal;font-weight:normal;font-stretch:normal;font-family:'Cambria Math';-inkscape-font-specification:'Cambria Math';fill:#ececec;stroke:#ececec;stroke-width:2"
         d="m 296.32135,111.10734 q 0,1.30859 0.0781,1.91406 0.0977,0.60547 0.29296,0.95703 0.21485,0.35156 0.60547,0.58594 0.41016,0.23437 1.3086,0.46875 l 0,0.95703 -8.24219,0 0,-0.95703 q 1.21094,-0.3125 1.62109,-0.68359 0.41016,-0.39063 0.52735,-1.09375 0.13672,-0.70313 0.13672,-2.14844 l 0,-16.894533 q 0,-1.347657 -0.0977,-1.953125 -0.0977,-0.625 -0.33203,-0.957032 -0.21485,-0.351562 -0.58594,-0.546875 -0.37109,-0.214843 -1.26953,-0.46875 l 0,-0.957031 8.24219,0 0,0.957031 q -0.85938,0.214844 -1.25,0.429688 -0.3711,0.214844 -0.60547,0.546875 -0.21485,0.3125 -0.33203,0.957031 -0.0977,0.644531 -0.0977,1.992188 l 0,16.894533 z" />
      <path
         inkscape:connector-curvature="0"
         id="path3493"
         style="font-style:normal;font-variant:normal;font-weight:normal;font-stretch:normal;font-family:'Cambria Math';-inkscape-font-specification:'Cambria Math';fill:#ececec;stroke:#ececec;stroke-width:2"
         d="m 309.2901,111.10734 q 0,1.30859 0.0781,1.91406 0.0977,0.60547 0.29296,0.95703 0.21485,0.35156 0.60547,0.58594 0.41016,0.23437 1.3086,0.46875 l 0,0.95703 -8.24219,0 0,-0.95703 q 1.21094,-0.3125 1.62109,-0.68359 0.41016,-0.39063 0.52735,-1.09375 0.13672,-0.70313 0.13672,-2.14844 l 0,-16.894533 q 0,-1.347657 -0.0977,-1.953125 -0.0977,-0.625 -0.33203,-0.957032 -0.21485,-0.351562 -0.58594,-0.546875 -0.37109,-0.214843 -1.26953,-0.46875 l 0,-0.957031 8.24219,0 0,0.957031 q -0.85938,0.214844 -1.25,0.429688 -0.3711,0.214844 -0.60547,0.546875 -0.21485,0.3125 -0.33203,0.957031 -0.0977,0.644531 -0.0977,1.992188 l 0,16.894533 z" />
    </g>
    <g
       transform="translate(-5.314915,-1.1983145)"
       id="house-8-text"
       style="font-style:normal;font-variant:normal;font-weight:normal;font-stretch:normal;font-size:40px;line-height:125%;font-family:'Cambria Math';-inkscape-font-specification:'Cambria Math';letter-spacing:0px;word-spacing:0px;fill:#ececec;fill-opacity:1;stroke:#ececec;stroke-width:2"
       inkscape:transform-center-y="-196.41725"
       inkscape:transform-center-x="-0.6438643">
      <path
         inkscape:connector-curvature="0"
         id="path3496"
         style="font-style:normal;font-variant:normal;font-weight:normal;font-stretch:normal;font-family:'Cambria Math';-inkscape-font-specification:'Cambria Math';fill:#ececec;stroke:#ececec;stroke-width:2"
         d="m 284.01605,91.280533 0,0.957031 q -0.89844,0.15625 -1.36719,0.390625 -0.46875,0.234375 -0.70312,0.664063 -0.23438,0.429687 -0.23438,1.152343 0,0.664063 0.15625,1.445313 0.15625,0.761719 0.44922,1.71875 l 4.57032,15.937502 5.60546,-16.05469 q 0.11719,-0.371093 0.23438,-0.78125 0.11719,-0.410156 0.19531,-0.800781 0.0977,-0.390625 0.11719,-0.683594 0.0391,-0.292968 0.0391,-0.546875 0,-1.171875 -0.54687,-1.699218 -0.52735,-0.546875 -1.81641,-0.742188 l 0,-0.957031 8.20313,0 0,0.957031 q -0.80079,0.195313 -1.28907,0.566406 -0.48828,0.371094 -0.97656,1.191407 -0.46875,0.820312 -1.15234,2.617187 l -8.10547,21.640626 -2.5586,0 -6.58203,-21.777345 q -0.52734,-1.777343 -0.91797,-2.519531 -0.39062,-0.761719 -0.85937,-1.132812 -0.46875,-0.390625 -1.28906,-0.585938 l 0,-0.957031 8.82812,0 z" />
      <path
         inkscape:connector-curvature="0"
         id="path3498"
         style="font-style:normal;font-variant:normal;font-weight:normal;font-stretch:normal;font-family:'Cambria Math';-inkscape-font-specification:'Cambria Math';fill:#ececec;stroke:#ececec;stroke-width:2"
         d="m 307.21918,113.05788 q 0,1.30859 0.0781,1.91406 0.0977,0.60547 0.29297,0.95703 0.21484,0.35156 0.60547,0.58594 0.41016,0.23437 1.30859,0.46875 l 0,0.95703 -8.24218,0 0,-0.95703 q 1.21093,-0.3125 1.62109,-0.6836 0.41016,-0.39062 0.52734,-1.09375 0.13672,-0.70312 0.13672,-2.14843 l 0,-16.894535 q 0,-1.347656 -0.0976,-1.953125 -0.0977,-0.625 -0.33204,-0.957031 -0.21484,-0.351562 -0.58593,-0.546875 -0.3711,-0.214844 -1.26953,-0.46875 l 0,-0.957031 8.24218,0 0,0.957031 q -0.85937,0.214844 -1.25,0.429688 -0.37109,0.214843 -0.60547,0.546875 -0.21484,0.3125 -0.33203,0.957031 -0.0976,0.644531 -0.0976,1.992187 l 0,16.894535 z" />
      <path
         inkscape:connector-curvature="0"
         id="path3500"
         style="font-style:normal;font-variant:normal;font-weight:normal;font-stretch:normal;font-family:'Cambria Math';-inkscape-font-specification:'Cambria Math';fill:#ececec;stroke:#ececec;stroke-width:2"
         d="m 320.18793,113.05788 q 0,1.30859 0.0781,1.91406 0.0977,0.60547 0.29297,0.95703 0.21484,0.35156 0.60547,0.58594 0.41016,0.23437 1.30859,0.46875 l 0,0.95703 -8.24218,0 0,-0.95703 q 1.21093,-0.3125 1.62109,-0.6836 0.41016,-0.39062 0.52734,-1.09375 0.13672,-0.70312 0.13672,-2.14843 l 0,-16.894535 q 0,-1.347656 -0.0976,-1.953125 -0.0977,-0.625 -0.33204,-0.957031 -0.21484,-0.351562 -0.58593,-0.546875 -0.3711,-0.214844 -1.26953,-0.46875 l 0,-0.957031 8.24218,0 0,0.957031 q -0.85937,0.214844 -1.25,0.429688 -0.37109,0.214843 -0.60547,0.546875 -0.21484,0.3125 -0.33203,0.957031 -0.0976,0.644531 -0.0976,1.992187 l 0,16.894535 z" />
      <path
         inkscape:connector-curvature="0"
         id="path3502"
         style="font-style:normal;font-variant:normal;font-weight:normal;font-stretch:normal;font-family:'Cambria Math';-inkscape-font-specification:'Cambria Math';fill:#ececec;stroke:#ececec;stroke-width:2"
         d="m 333.15668,113.05788 q 0,1.30859 0.0781,1.91406 0.0977,0.60547 0.29297,0.95703 0.21484,0.35156 0.60547,0.58594 0.41016,0.23437 1.30859,0.46875 l 0,0.95703 -8.24218,0 0,-0.95703 q 1.21093,-0.3125 1.62109,-0.6836 0.41016,-0.39062 0.52734,-1.09375 0.13672,-0.70312 0.13672,-2.14843 l 0,-16.894535 q 0,-1.347656 -0.0976,-1.953125 -0.0977,-0.625 -0.33204,-0.957031 -0.21484,-0.351562 -0.58593,-0.546875 -0.3711,-0.214844 -1.26953,-0.46875 l 0,-0.957031 8.24218,0 0,0.957031 q -0.85937,0.214844 -1.25,0.429688 -0.37109,0.214843 -0.60547,0.546875 -0.21484,0.3125 -0.33203,0.957031 -0.0976,0.644531 -0.0976,1.992187 l 0,16.894535 z" />
    </g>
    <circle
       id="path3898"
       style="fill:none;fill-opacity:1;stroke:#999999;stroke-width:2;stroke-linecap:round;stroke-linejoin:round;stroke-miterlimit:2.9000001;stroke-dasharray:none;stroke-dashoffset:0;stroke-opacity:1"
       cx="300"
       cy="300"
       r="165" />
  </g>
  <g
     inkscape:groupmode="layer"
     id="layer3"
     inkscape:label="Top">
    <path
       id="path3025"
       d="m 326.625,17.96875 c 5.02705,19.322945 10.06634,38.644864 15.09375,57.96875 18.62289,-4.830766 38.14732,-7.40625 58.28125,-7.40625 20.13393,0 39.65836,2.575484 58.28125,7.40625 5.02743,-19.32391 10.0667,-38.645745 15.09375,-57.96875 -48.91301,1.97e-4 -97.83686,-1.2e-5 -146.75,0 z m -4.09375,1.125 C 280.17133,43.550246 237.79746,67.980825 195.4375,92.4375 c 14.02637,14.23211 28.06644,28.45449 42.09375,42.6875 C 265.24974,107.80906 299.82364,87.439416 338.4375,76.8125 333.13184,57.573881 327.83693,38.333215 322.53125,19.09375 Z m 154.9375,0 c -5.30566,19.239476 -10.6006,38.480132 -15.90625,57.71875 38.61386,10.626916 73.18776,30.99656 100.90625,58.3125 14.0273,-14.23302 28.06739,-28.45536 42.09375,-42.6875 C 562.20248,67.980942 519.82873,43.550383 477.46875,19.09375 Z M 192.4375,95.4375 c -24.45651,42.35977 -48.88729,84.73367 -73.34375,127.09375 19.23946,5.30562 38.48013,10.60061 57.71875,15.90625 10.62692,-38.61386 30.99656,-73.18776 58.3125,-100.90625 L 192.4375,95.4375 Z m 415.125,0 c -14.23215,14.0264 -28.45447,28.06644 -42.6875,42.09375 27.31594,27.71849 47.68558,62.29239 58.3125,100.90625 19.23862,-5.30567 38.47926,-10.60055 57.71875,-15.90625 C 656.44958,180.17143 632.01895,137.79759 607.5625,95.4375 Z M 117.96875,226.625 c -4e-5,48.91301 0,97.83686 0,146.75 19.32296,-5.02708 38.64486,-10.06633 57.96875,-15.09375 -4.83077,-18.62289 -7.40625,-38.14732 -7.40625,-58.28125 0,-20.13393 2.57548,-39.65836 7.40625,-58.28125 -19.32389,-5.02743 -38.64579,-10.0667 -57.96875,-15.09375 z m 564.0625,0 c -19.32296,5.02703 -38.64486,10.06634 -57.96875,15.09375 4.83077,18.62289 7.40625,38.14732 7.40625,58.28125 0,20.13393 -2.57548,39.65836 -7.40625,58.28125 19.32389,5.02742 38.64577,10.0667 57.96875,15.09375 4e-5,-48.91314 -7e-5,-97.83686 0,-146.75 z M 176.8125,361.5625 119.09375,377.46875 c 24.45649,42.35992 48.88723,84.73384 73.34375,127.09375 14.23214,-14.02636 28.45448,-28.06645 42.6875,-42.09375 -27.31594,-27.71849 -47.68558,-62.29239 -58.3125,-100.90625 z m 446.375,0 c -10.62692,38.61386 -30.99656,73.18776 -58.3125,100.90625 14.23302,14.0273 28.45533,28.0674 42.6875,42.09375 24.45636,-42.35985 48.88731,-84.7338 73.34375,-127.09375 -19.23947,-5.30568 -38.48014,-10.6006 -57.71875,-15.90625 z M 237.53125,464.875 c -14.02731,14.23302 -28.06736,28.45537 -42.09375,42.6875 42.36002,24.45656 84.73384,48.88723 127.09375,73.34375 5.30566,-19.23947 10.60059,-38.48014 15.90625,-57.71875 -38.61386,-10.62692 -73.18776,-30.99656 -100.90625,-58.3125 z m 324.9375,0 c -27.71849,27.31594 -62.29239,47.68558 -100.90625,58.3125 5.30565,19.23862 10.60062,38.47927 15.90625,57.71875 42.36002,-24.45657 84.73376,-48.88721 127.09375,-73.34375 -14.02638,-14.23214 -28.06645,-28.45448 -42.09375,-42.6875 z m -220.75,59.1875 c -5.02742,19.32389 -10.0667,38.64579 -15.09375,57.96875 l 146.75,0 c -5.02708,-19.32296 -10.06632,-38.64486 -15.09375,-57.96875 -18.62289,4.83077 -38.14732,7.40625 -58.28125,7.40625 -20.13393,0 -39.65836,-2.57548 -58.28125,-7.40625 z"
       style="display:inline;fill:none;stroke:#cccccc;stroke-width:2"
       inkscape:connector-curvature="0"
       transform="translate(598,0)" />
    <path
       sodipodi:type="star"
       style="display:inline;opacity:0.68000034;fill:#999999;fill-opacity:1;stroke:#999999;stroke-width:2.12655616;stroke-linecap:round;stroke-linejoin:round;stroke-miterlimit:2.9000001;stroke-dasharray:1.06327805, 1.06327805000000010;stroke-dashoffset:0;stroke-opacity:1"
       id="path3027"
       sodipodi:sides="12"
       sodipodi:cx="71.889191"
       sodipodi:cy="63.777359"
       sodipodi:r1="307.52115"
       sodipodi:r2="297.04263"
       sodipodi:arg1="0.78539816"
       sodipodi:arg2="1.0471976"
       inkscape:flatsided="true"
       inkscape:rounded="0"
       inkscape:randomized="0"
       d="m 289.33948,281.22765 -137.85796,79.59233 -159.1846584,0 -137.8579616,-79.59233 -79.59233,-137.85796 0,-159.18466 79.59233,-137.85796 137.8579596,-79.59233 159.1846604,0 137.85796,79.59233 79.59233,137.857958 0,159.184662 z"
       transform="matrix(0.94048777,0,0,0.94048777,1030.3891,240.01817)" />
  </g>
</svg>
